%FSDAX44Y44*%
%MOMM*%
%SFA1B1*%

%IPPOS*%
%ADD10C,0.299999*%
%ADD21C,0.761998*%
%ADD24C,1.015998*%
%ADD25C,1.499997*%
%ADD26C,0.599999*%
%ADD27C,0.999998*%
%ADD28C,1.199998*%
%ADD29C,0.799998*%
%ADD30R,1.399997X2.074996*%
%LNBot-1*%
%LPD*%
G36*
X00789330Y00866144D02*
X00797989Y00864780D01*
X00806515Y00862739*
X00814855Y00860036*
X00822956Y00856686*
X00830769Y00852710*
X00838247Y00848134*
X00845342Y00842985*
X00852010Y00837294*
X00858212Y00831098*
X00863908Y00824434*
X00869063Y00817343*
X00873646Y00809870*
X00877628Y00802059*
X00880984Y00793961*
X00883695Y00785624*
X00885742Y00777100*
X00887115Y00768441*
X00887803Y00759701*
Y00755618*
Y00750686*
X00887115Y00741946*
X00885742Y00733287*
X00883695Y00724763*
X00880984Y00716426*
X00877628Y00708328*
X00873646Y00700517*
X00869063Y00693044*
X00863908Y00685953*
X00858212Y00679289*
X00852010Y00673093*
X00845342Y00667402*
X00838247Y00662253*
X00830769Y00657677*
X00822956Y00653701*
X00814855Y00650351*
X00806515Y00647648*
X00797989Y00645607*
X00789330Y00644242*
X00780590Y00643561*
X00776206Y00643565*
X00772058Y00643569*
X00763785Y00644192*
X00755582Y00645428*
X00747493Y00647271*
X00739563Y00649709*
X00731836Y00652730*
X00724355Y00656316*
X00717161Y00660449*
X00710294Y00665104*
X00703792Y00670257*
X00697691Y00675879*
X00692025Y00681938*
X00689424Y00685170*
X00686460Y00688854*
X00681176Y00696699*
X00676575Y00704963*
X00672691Y00713587*
X00669550Y00722509*
X00667177Y00731664*
X00665587Y00740988*
X00664792Y00750413*
X00664795Y00755193*
X00664792Y00759974*
X00665587Y00769399*
X00667177Y00778723*
X00669550Y00787878*
X00672691Y00796800*
X00676575Y00805424*
X00681176Y00813689*
X00686460Y00821533*
X00689424Y00825217*
X00692025Y00828449*
X00697691Y00834509*
X00703792Y00840130*
X00710294Y00845283*
X00717161Y00849938*
X00724355Y00854071*
X00731836Y00857657*
X00739563Y00860679*
X00747493Y00863116*
X00755582Y00864959*
X00763785Y00866195*
X00772058Y00866818*
X00775678Y00866821*
X00776206Y00866822*
X00780590Y00866825*
X00789330Y00866144*
G37*
%LNBot-2*%
%LPC*%
G36*
X00725749Y00726331D02*
X00723269Y00726004D01*
X00720958Y00725047*
X00718974Y00723524*
X00717451Y00721540*
X00716494Y00719229*
X00716167Y00716749*
X00716494Y00714269*
X00717451Y00711958*
X00718974Y00709974*
X00720958Y00708451*
X00723269Y00707494*
X00725749Y00707167*
X00728229Y00707494*
X00730540Y00708451*
X00732524Y00709974*
X00734047Y00711958*
X00735004Y00714269*
X00735331Y00716749*
X00735004Y00719229*
X00734047Y00721540*
X00732524Y00723524*
X00730540Y00725047*
X00728229Y00726004*
X00725749Y00726331*
G37*
G36*
X00812499Y00813273D02*
X00810232Y00812822D01*
X00808310Y00811538*
X00807026Y00809616*
X00806575Y00807349*
Y00800449*
Y00793549*
Y00786649*
Y00779749*
Y00773499*
X00806864Y00772046*
X00806858Y00771999*
X00807101Y00770151*
X00807815Y00768428*
X00808950Y00766950*
X00816608Y00759291*
Y00744820*
X00816048Y00744709*
X00814394Y00743604*
X00813289Y00741950*
X00812901Y00739999*
X00812048Y00739459*
X00810394Y00738354*
X00809289Y00736700*
X00808901Y00734749*
X00809289Y00732798*
X00809449Y00732559*
X00809601Y00731401*
X00810315Y00729678*
X00811450Y00728200*
X00812611Y00727308*
X00812260Y00726077*
X00812236Y00726036*
X00811469Y00725883*
X00810866Y00725481*
X00800343Y00736004*
X00802287Y00738536*
X00802346Y00738657*
X00802435Y00738759*
X00804235Y00741876*
X00804278Y00742003*
X00804353Y00742115*
X00805731Y00745441*
X00805757Y00745573*
X00805816Y00745694*
X00806748Y00749171*
X00806757Y00749306*
X00806800Y00749433*
X00807270Y00753002*
X00807261Y00753137*
X00807288Y00753269*
Y00755069*
Y00756869*
X00807261Y00757001*
X00807270Y00757135*
X00806800Y00760704*
X00806757Y00760832*
X00806748Y00760966*
X00805817Y00764444*
X00805757Y00764565*
X00805731Y00764696*
X00804353Y00768023*
X00804278Y00768135*
X00804235Y00768262*
X00802435Y00771380*
X00802346Y00771481*
X00802287Y00771602*
X00800095Y00774458*
X00799994Y00774547*
X00799919Y00774659*
X00797374Y00777204*
X00797262Y00777279*
X00797173Y00777380*
X00794317Y00779572*
X00794196Y00779631*
X00794095Y00779720*
X00790977Y00781520*
X00790850Y00781564*
X00790738Y00781638*
X00787412Y00783016*
X00787280Y00783042*
X00787159Y00783102*
X00783681Y00784034*
X00783547Y00784043*
X00783420Y00784086*
X00779850Y00784556*
X00779716Y00784547*
X00779584Y00784573*
X00777811*
X00775984Y00784622*
X00775852Y00784599*
X00775718Y00784611*
X00772029Y00784225*
X00771900Y00784185*
X00771766Y00784180*
X00768159Y00783315*
X00768037Y00783259*
X00767904Y00783236*
X00764441Y00781908*
X00764327Y00781836*
X00764199Y00781796*
X00760938Y00780028*
X00760835Y00779941*
X00760713Y00779885*
X00757711Y00777706*
X00757620Y00777607*
X00757506Y00777536*
X00754815Y00774983*
X00754737Y00774873*
X00754634Y00774788*
X00752299Y00771906*
X00752236Y00771787*
X00752144Y00771688*
X00750206Y00768526*
X00750159Y00768400*
X00750081Y00768290*
X00748673Y00765129*
X00742782*
X00741395Y00766193*
X00739449Y00766999*
X00737362Y00767274*
X00735273Y00766999*
X00733326Y00766193*
X00731655Y00764911*
X00730373Y00763240*
X00729567Y00761293*
X00729435Y00760290*
X00728148Y00760248*
X00727959Y00761200*
X00726854Y00762854*
X00725200Y00763959*
X00723249Y00764347*
X00721298Y00763959*
X00719644Y00762854*
X00718539Y00761200*
X00718151Y00759249*
X00718539Y00757298*
X00719644Y00755644*
X00721298Y00754539*
X00723249Y00754151*
X00725200Y00754539*
X00726854Y00755644*
X00727959Y00757298*
X00728141Y00758215*
X00729428Y00758173*
X00729567Y00757117*
X00730373Y00755171*
X00731246Y00754033*
X00731146Y00752439*
X00730644Y00752104*
X00729539Y00750450*
X00729151Y00748499*
X00729539Y00746548*
X00730644Y00744894*
X00732298Y00743789*
X00734249Y00743401*
X00736200Y00743789*
X00737854Y00744894*
X00738959Y00746548*
X00739347Y00748499*
X00739033Y00750075*
X00739291Y00750902*
X00739759Y00751539*
X00741395Y00752217*
X00742782Y00753281*
X00745651*
X00746790Y00752825*
X00747379Y00749173*
X00747426Y00749046*
X00747439Y00748912*
X00748500Y00745367*
X00748563Y00745248*
X00748593Y00745117*
X00750107Y00741741*
X00750185Y00741632*
X00750232Y00741506*
X00752175Y00738356*
X00752266Y00738258*
X00752329Y00738139*
X00754666Y00735270*
X00754770Y00735184*
X00754848Y00735076*
X00757539Y00732536*
X00757653Y00732464*
X00757745Y00732365*
X00760744Y00730199*
X00760867Y00730143*
X00760970Y00730057*
X00764227Y00728301*
X00764356Y00728262*
X00764470Y00728190*
X00767928Y00726874*
X00768061Y00726852*
X00768183Y00726796*
X00771783Y00725942*
X00771918Y00725937*
X00772046Y00725898*
X00775727Y00725522*
X00775861Y00725535*
X00775994Y00725512*
X00777813Y00725565*
X00779584*
X00779716Y00725591*
X00779850Y00725582*
X00783420Y00726052*
X00783547Y00726096*
X00783681Y00726104*
X00787159Y00727036*
X00787280Y00727096*
X00787411Y00727122*
X00788554Y00727595*
X00789742Y00726407*
X00790024Y00726458*
X00808249Y00708233*
Y00707900*
X00810210Y00705939*
Y00703249*
X00810365Y00702469*
X00810807Y00701807*
X00811469Y00701365*
X00812249Y00701210*
X00815163*
X00815678Y00700815*
X00817401Y00700101*
X00819249Y00699858*
X00821097Y00700101*
X00822820Y00700815*
X00823334Y00701210*
X00826249*
X00827029Y00701365*
X00827691Y00701807*
X00828133Y00702469*
X00828288Y00703249*
Y00723999*
X00828133Y00724779*
X00827691Y00725441*
X00827029Y00725883*
X00826249Y00726038*
X00823214*
X00822615Y00727158*
X00822709Y00727298*
X00823097Y00729249*
X00823950Y00730039*
X00825604Y00731144*
X00826709Y00732798*
X00826848Y00733499*
X00828798Y00735449*
X00828799Y00735450*
X00829933Y00736928*
X00830647Y00738651*
X00830890Y00740499*
Y00762249*
X00830647Y00764097*
X00829933Y00765819*
X00828799Y00767298*
X00828798Y00767299*
X00819049Y00777048*
X00818423Y00777529*
Y00786649*
Y00793549*
Y00800449*
Y00807349*
X00817972Y00809616*
X00816688Y00811538*
X00814766Y00812822*
X00812499Y00813273*
G37*
G36*
X00745999Y00702097D02*
X00744048Y00701709D01*
X00742394Y00700604*
X00741289Y00698950*
X00740901Y00696999*
X00741289Y00695048*
X00742394Y00693394*
X00744048Y00692289*
X00745999Y00691901*
X00747950Y00692289*
X00749604Y00693394*
X00750709Y00695048*
X00751097Y00696999*
X00750709Y00698950*
X00749604Y00700604*
X00747950Y00701709*
X00745999Y00702097*
G37*
G36*
X00687121Y00747875D02*
X00685192Y00747538D01*
X00684826Y00747396*
X00684461Y00747257*
X00682802Y00746218*
X00682516Y00745949*
X00682230Y00745682*
X00681086Y00744094*
X00680923Y00743738*
X00680758Y00743382*
X00680297Y00741479*
X00680281Y00741089*
X00680263Y00740697*
X00680408Y00739729*
X00680411Y00739720*
Y00739711*
X00680995Y00736027*
X00681023Y00735951*
X00681027Y00735870*
X00682771Y00728616*
X00682805Y00728543*
X00682814Y00728463*
X00685122Y00721368*
X00685161Y00721297*
X00685177Y00721218*
X00688034Y00714326*
X00688079Y00714259*
X00688101Y00714181*
X00691489Y00707534*
X00691539Y00707470*
X00691567Y00707394*
X00695466Y00701034*
X00695521Y00700974*
X00695555Y00700901*
X00699941Y00694865*
X00700001Y00694810*
X00700040Y00694740*
X00704886Y00689067*
X00704949Y00689017*
X00704994Y00688950*
X00710270Y00683674*
X00710337Y00683629*
X00710387Y00683566*
X00716060Y00678720*
X00716131Y00678680*
X00716186Y00678621*
X00722221Y00674235*
X00722294Y00674201*
X00722354Y00674146*
X00728714Y00670247*
X00728790Y00670219*
X00728854Y00670169*
X00735501Y00666781*
X00735579Y00666759*
X00735646Y00666714*
X00742538Y00663857*
X00742617Y00663841*
X00742688Y00663802*
X00749782Y00661494*
X00749863Y00661485*
X00749937Y00661451*
X00757190Y00659707*
X00757271Y00659704*
X00757347Y00659675*
X00761031Y00659090*
X00761040Y00659091*
X00761049Y00659088*
X00762017Y00658943*
X00762409Y00658961*
X00762799Y00658977*
X00764702Y00659438*
X00765057Y00659603*
X00765414Y00659766*
X00767002Y00660910*
X00767268Y00661195*
X00767538Y00661482*
X00768577Y00663141*
X00768716Y00663506*
X00768858Y00663872*
X00769195Y00665800*
X00769186Y00666193*
X00769180Y00666584*
X00768765Y00668497*
X00768609Y00668856*
X00768455Y00669217*
X00767349Y00670832*
X00767069Y00671106*
X00766791Y00671382*
X00765158Y00672461*
X00764795Y00672609*
X00764433Y00672760*
X00764061Y00672834*
X00764009Y00672875*
X00763725Y00672955*
X00763451Y00673064*
X00759148Y00673856*
X00750722Y00676104*
X00742602Y00679212*
X00734852Y00683152*
X00727557Y00687882*
X00720798Y00693349*
X00714647Y00699494*
X00709173Y00706248*
X00704437Y00713539*
X00700489Y00721285*
X00697374Y00729402*
X00695118Y00737826*
X00694322Y00742128*
X00694231Y00742355*
X00694080Y00743113*
X00693929Y00743476*
X00693781Y00743839*
X00692702Y00745471*
X00692427Y00745748*
X00692152Y00746029*
X00690537Y00747135*
X00690176Y00747289*
X00689817Y00747445*
X00687904Y00747859*
X00687515Y00747866*
X00687121Y00747875*
G37*
G36*
X00865378D02*
X00864985Y00747866D01*
X00864594Y00747859*
X00862681Y00747445*
X00862322Y00747289*
X00861961Y00747135*
X00860346Y00746029*
X00860072Y00745749*
X00859796Y00745471*
X00858717Y00743839*
X00858569Y00743475*
X00858418Y00743113*
X00858306Y00742550*
X00858297Y00742537*
X00858256Y00742327*
X00858176Y00742128*
X00857380Y00737826*
X00855124Y00729402*
X00852009Y00721285*
X00850746Y00718807*
X00848061Y00713539*
X00843325Y00706248*
X00837851Y00699494*
X00831700Y00693349*
X00824941Y00687882*
X00817645Y00683152*
X00812640Y00680607*
X00809896Y00679212*
X00801776Y00676104*
X00793350Y00673856*
X00789047Y00673064*
X00788772Y00672955*
X00788488Y00672875*
X00788437Y00672834*
X00788065Y00672760*
X00787702Y00672609*
X00787340Y00672461*
X00785707Y00671382*
X00785430Y00671107*
X00785149Y00670832*
X00784043Y00669217*
X00783889Y00668856*
X00783733Y00668497*
X00783318Y00666584*
X00783312Y00666195*
X00783303Y00665800*
X00783640Y00663872*
X00783782Y00663506*
X00783921Y00663141*
X00784960Y00661482*
X00785229Y00661197*
X00785496Y00660910*
X00787084Y00659766*
X00787440Y00659603*
X00787796Y00659438*
X00789699Y00658977*
X00790089Y00658961*
X00790481Y00658943*
X00791449Y00659088*
X00791458Y00659091*
X00791467Y00659090*
X00795151Y00659675*
X00795227Y00659704*
X00795308Y00659707*
X00802561Y00661451*
X00802635Y00661485*
X00802716Y00661494*
X00809810Y00663802*
X00809881Y00663841*
X00809960Y00663857*
X00816852Y00666714*
X00816919Y00666759*
X00816997Y00666781*
X00823644Y00670169*
X00823708Y00670219*
X00823784Y00670247*
X00830144Y00674146*
X00830204Y00674201*
X00830277Y00674235*
X00836312Y00678621*
X00836367Y00678680*
X00836438Y00678720*
X00842111Y00683566*
X00842161Y00683629*
X00842228Y00683674*
X00847504Y00688950*
X00847549Y00689017*
X00847612Y00689067*
X00852458Y00694740*
X00852497Y00694810*
X00852557Y00694865*
X00856943Y00700901*
X00856977Y00700974*
X00857032Y00701034*
X00860931Y00707394*
X00860959Y00707470*
X00861009Y00707534*
X00864397Y00714181*
X00864419Y00714259*
X00864464Y00714326*
X00867321Y00721218*
X00867337Y00721297*
X00867376Y00721368*
X00869684Y00728463*
X00869693Y00728543*
X00869727Y00728616*
X00871471Y00735870*
X00871475Y00735951*
X00871503Y00736027*
X00872088Y00739711*
X00872087Y00739720*
X00872090Y00739729*
X00872236Y00740697*
X00872217Y00741089*
X00872201Y00741479*
X00871740Y00743382*
X00871575Y00743737*
X00871412Y00744094*
X00870268Y00745682*
X00869983Y00745948*
X00869696Y00746218*
X00868037Y00747257*
X00867672Y00747396*
X00867306Y00747538*
X00865378Y00747875*
G37*
G36*
X00850735Y00755813D02*
Y00754575D01*
X00851028Y00755175*
X00851057Y00755193*
X00851028Y00755211*
X00850735Y00755813*
G37*
G36*
X00732536Y00809681D02*
X00730055Y00809354D01*
X00727744Y00808397*
X00725759Y00806874*
X00724237Y00804890*
X00723279Y00802579*
X00722953Y00800100*
X00723279Y00797619*
X00724237Y00795308*
X00725759Y00793324*
X00727744Y00791801*
X00730055Y00790843*
X00732536Y00790517*
X00735015Y00790843*
X00737326Y00791801*
X00739311Y00793324*
X00740833Y00795308*
X00741791Y00797619*
X00742117Y00800100*
X00741791Y00802579*
X00740833Y00804890*
X00739311Y00806874*
X00737326Y00808397*
X00735015Y00809354*
X00732536Y00809681*
G37*
G36*
X00776447Y00829974D02*
X00776408Y00829883D01*
X00776380*
X00776542*
X00776539Y00829884*
X00776447Y00829974*
G37*
G36*
X00762017Y00851055D02*
X00761049Y00850910D01*
X00761040Y00850907*
X00761031Y00850908*
X00757347Y00850322*
X00757271Y00850294*
X00757190Y00850291*
X00749937Y00848547*
X00749863Y00848513*
X00749782Y00848504*
X00742688Y00846196*
X00742617Y00846157*
X00742538Y00846141*
X00735646Y00843284*
X00735579Y00843239*
X00735501Y00843217*
X00728854Y00839829*
X00728790Y00839779*
X00728714Y00839751*
X00722354Y00835852*
X00722294Y00835797*
X00722221Y00835763*
X00716186Y00831377*
X00716131Y00831317*
X00716060Y00831278*
X00710387Y00826432*
X00710337Y00826369*
X00710270Y00826324*
X00704994Y00821048*
X00704949Y00820981*
X00704886Y00820931*
X00700040Y00815258*
X00700001Y00815187*
X00699941Y00815132*
X00695555Y00809097*
X00695521Y00809024*
X00695466Y00808964*
X00691567Y00802604*
X00691539Y00802528*
X00691489Y00802464*
X00688101Y00795817*
X00688079Y00795739*
X00688034Y00795672*
X00685177Y00788780*
X00685161Y00788701*
X00685122Y00788630*
X00682814Y00781535*
X00682805Y00781455*
X00682771Y00781381*
X00681027Y00774128*
X00681023Y00774047*
X00680995Y00773971*
X00680411Y00770287*
Y00770278*
X00680408Y00770269*
X00680263Y00769301*
X00680281Y00768909*
X00680297Y00768519*
X00680758Y00766616*
X00680923Y00766261*
X00681086Y00765904*
X00682230Y00764316*
X00682515Y00764050*
X00682802Y00763780*
X00684461Y00762741*
X00684826Y00762602*
X00685192Y00762460*
X00687121Y00762123*
X00687513Y00762132*
X00687904Y00762138*
X00689817Y00762553*
X00690176Y00762709*
X00690537Y00762863*
X00692152Y00763969*
X00692426Y00764249*
X00692702Y00764527*
X00693781Y00766160*
X00693929Y00766523*
X00694080Y00766885*
X00694231Y00767643*
X00694322Y00767870*
X00695118Y00772172*
X00697374Y00780596*
X00700489Y00788713*
X00704437Y00796459*
X00709173Y00803750*
X00710392Y00805253*
X00714647Y00810504*
X00720798Y00816649*
X00727557Y00822116*
X00734852Y00826846*
X00740827Y00829883*
X00742602Y00830786*
X00750722Y00833894*
X00759148Y00836142*
X00763451Y00836934*
X00763651Y00837013*
X00763862Y00837055*
X00763931Y00837101*
X00764010Y00837123*
X00764061Y00837164*
X00764433Y00837238*
X00764796Y00837389*
X00765158Y00837537*
X00766791Y00838616*
X00767068Y00838891*
X00767349Y00839166*
X00768455Y00840781*
X00768609Y00841142*
X00768765Y00841502*
X00769180Y00843414*
X00769186Y00843803*
X00769195Y00844197*
X00768858Y00846126*
X00768716Y00846492*
X00768577Y00846857*
X00767538Y00848516*
X00767269Y00848801*
X00767002Y00849088*
X00765414Y00850232*
X00765058Y00850395*
X00764702Y00850560*
X00762799Y00851021*
X00762409Y00851037*
X00762017Y00851055*
G37*
G36*
X00722999Y00787831D02*
X00720519Y00787504D01*
X00718208Y00786547*
X00716224Y00785024*
X00714701Y00783040*
X00713744Y00780729*
X00713417Y00778249*
X00713744Y00775769*
X00714701Y00773458*
X00716224Y00771474*
X00718208Y00769951*
X00720519Y00768994*
X00722999Y00768667*
X00725479Y00768994*
X00727790Y00769951*
X00729774Y00771474*
X00731297Y00773458*
X00732254Y00775769*
X00732581Y00778249*
X00732254Y00780729*
X00731297Y00783040*
X00729774Y00785024*
X00727790Y00786547*
X00725479Y00787504*
X00722999Y00787831*
G37*
G36*
X00701764Y00755758D02*
X00701763Y00755741D01*
X00701494Y00755190*
X00701764Y00754628*
Y00755758*
G37*
G36*
X00790481Y00851055D02*
X00790089Y00851037D01*
X00789699Y00851021*
X00787796Y00850560*
X00787441Y00850395*
X00787084Y00850232*
X00785496Y00849088*
X00785230Y00848803*
X00784960Y00848516*
X00783921Y00846857*
X00783782Y00846492*
X00783640Y00846126*
X00783303Y00844197*
X00783312Y00843805*
X00783318Y00843414*
X00783733Y00841502*
X00783889Y00841142*
X00784043Y00840781*
X00785149Y00839166*
X00785429Y00838892*
X00785707Y00838616*
X00787340Y00837537*
X00787703Y00837389*
X00788065Y00837238*
X00788437Y00837164*
X00788488Y00837123*
X00788772Y00837043*
X00789047Y00836934*
X00793350Y00836142*
X00801776Y00833894*
X00809896Y00830786*
X00817646Y00826846*
X00824941Y00822116*
X00831700Y00816649*
X00837851Y00810504*
X00842106Y00805253*
X00843325Y00803750*
X00844462Y00801999*
X00844499*
X00844514Y00801919*
X00848061Y00796459*
X00852009Y00788713*
X00855124Y00780596*
X00857380Y00772172*
X00858176Y00767870*
X00858256Y00767671*
X00858297Y00767461*
X00858306Y00767448*
X00858418Y00766885*
X00858569Y00766522*
X00858717Y00766160*
X00859796Y00764527*
X00860071Y00764250*
X00860346Y00763969*
X00861961Y00762863*
X00862322Y00762709*
X00862681Y00762553*
X00864594Y00762138*
X00864983Y00762132*
X00865378Y00762123*
X00867306Y00762460*
X00867672Y00762602*
X00868037Y00762741*
X00869696Y00763780*
X00869982Y00764049*
X00870268Y00764316*
X00871412Y00765904*
X00871574Y00766260*
X00871740Y00766616*
X00872201Y00768519*
X00872217Y00768909*
X00872236Y00769301*
X00872090Y00770269*
X00872087Y00770278*
X00872088Y00770287*
X00871503Y00773971*
X00871475Y00774047*
X00871471Y00774128*
X00869727Y00781381*
X00869693Y00781455*
X00869684Y00781535*
X00867376Y00788630*
X00867337Y00788701*
X00867321Y00788780*
X00864464Y00795672*
X00864419Y00795739*
X00864397Y00795817*
X00861009Y00802464*
X00860959Y00802528*
X00860931Y00802604*
X00857032Y00808964*
X00856977Y00809024*
X00856943Y00809097*
X00852557Y00815132*
X00852497Y00815187*
X00852458Y00815258*
X00847612Y00820931*
X00847549Y00820981*
X00847504Y00821048*
X00842228Y00826324*
X00842161Y00826369*
X00842111Y00826432*
X00836438Y00831278*
X00836367Y00831317*
X00836312Y00831377*
X00830277Y00835763*
X00830204Y00835797*
X00830144Y00835852*
X00823784Y00839751*
X00823708Y00839779*
X00823644Y00839829*
X00816997Y00843217*
X00816919Y00843239*
X00816852Y00843284*
X00809960Y00846141*
X00809881Y00846157*
X00809810Y00846196*
X00802716Y00848504*
X00802635Y00848513*
X00802561Y00848547*
X00795308Y00850291*
X00795227Y00850294*
X00795151Y00850322*
X00791467Y00850908*
X00791458Y00850907*
X00791449Y00850910*
X00790481Y00851055*
G37*
%LNBot-3*%
%LPD*%
G36*
X00777784Y00782534D02*
X00779584D01*
X00783154Y00782064*
X00786631Y00781132*
X00789957Y00779754*
X00793075Y00777954*
X00795932Y00775762*
X00798477Y00773217*
X00800669Y00770360*
X00802469Y00767242*
X00803847Y00763916*
X00804779Y00760438*
X00805248Y00756869*
Y00755069*
Y00753269*
X00804779Y00749699*
X00803847Y00746222*
X00802469Y00742895*
X00800669Y00739778*
X00798477Y00736921*
X00795931Y00734376*
X00793075Y00732184*
X00789957Y00730384*
X00786631Y00729006*
X00783154Y00728074*
X00779584Y00727604*
X00777784*
X00775935Y00727550*
X00772254Y00727927*
X00768653Y00728780*
X00765195Y00730096*
X00761938Y00731852*
X00758939Y00734018*
X00756247Y00736558*
X00753910Y00739427*
X00751968Y00742576*
X00750453Y00745952*
X00749392Y00749497*
X00748803Y00753150*
X00748749Y00754999*
X00748798Y00756853*
X00749379Y00760516*
X00750434Y00764072*
X00751944Y00767461*
X00753883Y00770622*
X00756218Y00773504*
X00758909Y00776056*
X00761911Y00778235*
X00765171Y00780004*
X00768634Y00781332*
X00772241Y00782197*
X00775930Y00782583*
X00777784Y00782534*
G37*
G54D10*
X00886300Y00756043D02*
D01*
X00886033Y00763717*
X00885230Y00771352*
X00883897Y00778914*
X00882039Y00786363*
X00879667Y00793666*
X00876790Y00800784*
X00873425Y00807685*
X00869586Y00814334*
X00865292Y00820700*
X00860565Y00826750*
X00855428Y00832456*
X00849905Y00837789*
X00844023Y00842725*
X00837812Y00847238*
X00831300Y00851306*
X00824521Y00854911*
X00817507Y00858034*
X00810292Y00860660*
X00802912Y00862776*
X00795402Y00864372*
X00787799Y00865441*
X00780139Y00865976*
X00772462*
X00764802Y00865441*
X00757199Y00864372*
X00749689Y00862776*
X00742308Y00860660*
X00735094Y00858034*
X00728080Y00854911*
X00721300Y00851306*
X00714789Y00847238*
X00708578Y00842725*
X00702696Y00837789*
X00697173Y00832456*
X00692035Y00826750*
X00687309Y00820700*
X00683015Y00814334*
X00679176Y00807685*
X00675810Y00800784*
X00672934Y00793666*
X00670562Y00786363*
X00668704Y00778914*
X00667371Y00771352*
X00666568Y00763717*
X00666300Y00756043*
G54D21*
X00737362Y00759206D02*
X00755205D01*
X00812499Y00773499D02*
X00813999Y00771999D01*
X00812499Y00793549D02*
Y00800449D01*
Y00807349*
Y00793549D02*
Y00786649D01*
Y00779749*
Y00773499*
G54D24*
X00777999Y00739249D02*
X00786999D01*
X00819249Y00706999*
X00816499Y00733249D02*
X00823749Y00740499D01*
Y00762249*
X00813999Y00771999*
G54D25*
X00725749Y00716749D03*
X00722999Y00778249D03*
X00732536Y00800100D03*
G54D26*
X00725212Y00694175D03*
X00736549Y00686237D03*
X00715425Y00703962D03*
X00748702Y00680549D03*
X00762461Y00676805D03*
X00775511Y00675193D03*
X00790037Y00676805D03*
X00803063Y00681327D03*
X00815949Y00686237D03*
X00827286Y00694175D03*
X00837073Y00703962D03*
X00850861Y00727843D03*
X00854443Y00741211D03*
X00855649Y00755193D03*
X00846249Y00758499D03*
X00839749D03*
X00846249Y00748999D03*
X00854443Y00768787D03*
X00850861Y00782155D03*
X00844737Y00794967D03*
X00827286Y00815823D03*
X00815607Y00824047D03*
X00837073Y00806036D03*
X00790037Y00833193D03*
X00812499Y00807349D03*
Y00800449D03*
Y00793549D03*
Y00786649D03*
Y00779749D03*
Y00760499D03*
X00813999Y00734749D03*
X00821999D03*
X00817999Y00729249D03*
X00817749Y00719249D03*
X00817999Y00739999D03*
X00814249Y00747499D03*
X00814499Y00753999D03*
X00833249Y00758499D03*
X00805749Y00695999D03*
X00787999Y00709875D03*
X00784749Y00722999D03*
X00774749Y00715249D03*
X00765749Y00722999D03*
X00764749Y00709749D03*
X00779999Y00698500D03*
X00779749Y00687249D03*
X00745999Y00696999D03*
X00734249Y00748499D03*
X00723249Y00759249D03*
X00698055Y00768787D03*
X00701637Y00782155D03*
X00696850Y00755304D03*
X00698055Y00741211D03*
X00701637Y00727843D03*
X00707487Y00715299D03*
X00715425Y00806036D03*
X00737370Y00824047D03*
X00762461Y00833193D03*
X00725212Y00815823D03*
X00707487Y00794699D03*
G54D27*
X00832487Y00783217D03*
G54D28*
X00737362Y00759206D03*
G54D29*
X00819249Y00706999D03*
X00813999Y00771999D03*
G54D30*
X00819249Y00713624D03*
M02*