%FSDAX44Y44*%
%MOMM*%
%SFA1B1*%

%IPPOS*%
%LNBot_silk-1*%
%LPD*%
G36*
X00756782Y00699041D02*
X00757129Y00698979D01*
X00757439Y00698881*
X00757575Y00698831*
X00757699Y00698781*
X00757823Y00698732*
X00757922Y00698682*
X00758009Y00698632*
X00758071Y00698583*
X00758133Y00698546*
X00758170Y00698521*
X00758195Y00698508*
X00758207Y00698496*
X00758331Y00698384*
X00758455Y00698260*
X00758554Y00698124*
X00758653Y00697975*
X00758802Y00697665*
X00758914Y00697368*
X00758963Y00697219*
X00758988Y00697083*
X00759025Y00696971*
X00759038Y00696860*
X00759062Y00696773*
Y00696711*
X00759075Y00696662*
Y00696649*
X00757525Y00696500*
X00757501Y00696736*
X00757464Y00696947*
X00757401Y00697108*
X00757352Y00697244*
X00757290Y00697357*
X00757253Y00697418*
X00757216Y00697467*
X00757203Y00697480*
X00757079Y00697579*
X00756955Y00697653*
X00756819Y00697703*
X00756695Y00697740*
X00756596Y00697765*
X00756497Y00697777*
X00756422*
X00756249Y00697765*
X00756088Y00697728*
X00755951Y00697690*
X00755840Y00697641*
X00755753Y00697579*
X00755691Y00697542*
X00755654Y00697504*
X00755641Y00697492*
X00755542Y00697380*
X00755480Y00697244*
X00755431Y00697108*
X00755394Y00696984*
X00755369Y00696872*
X00755356Y00696773*
Y00696711*
Y00696686*
X00755369Y00696513*
X00755406Y00696339*
X00755455Y00696178*
X00755517Y00696029*
X00755579Y00695905*
X00755629Y00695819*
X00755666Y00695757*
X00755679Y00695732*
X00755728Y00695657*
X00755803Y00695571*
X00755889Y00695484*
X00755988Y00695385*
X00756199Y00695162*
X00756422Y00694939*
X00756633Y00694740*
X00756732Y00694641*
X00756806Y00694567*
X00756881Y00694505*
X00756931Y00694443*
X00756968Y00694418*
X00756980Y00694406*
X00757216Y00694183*
X00757439Y00693972*
X00757625Y00693773*
X00757811Y00693587*
X00757972Y00693414*
X00758108Y00693253*
X00758244Y00693104*
X00758356Y00692968*
X00758444Y00692856*
X00758530Y00692745*
X00758591Y00692658*
X00758653Y00692584*
X00758691Y00692522*
X00758715Y00692484*
X00758740Y00692459*
Y00692447*
X00758889Y00692175*
X00759000Y00691902*
X00759100Y00691642*
X00759162Y00691394*
X00759211Y00691195*
X00759224Y00691108*
X00759236Y00691034*
X00759248Y00690984*
X00759261Y00690935*
Y00690910*
Y00690898*
X00753794*
Y00692348*
X00756906*
X00756806Y00692509*
X00756695Y00692633*
X00756658Y00692695*
X00756621Y00692732*
X00756596Y00692757*
X00756583Y00692769*
X00756534Y00692819*
X00756484Y00692869*
X00756348Y00693005*
X00756199Y00693154*
X00756038Y00693302*
X00755889Y00693451*
X00755765Y00693563*
X00755728Y00693612*
X00755691Y00693650*
X00755666Y00693662*
X00755654Y00693674*
X00755394Y00693910*
X00755183Y00694120*
X00754997Y00694306*
X00754861Y00694455*
X00754749Y00694567*
X00754675Y00694653*
X00754637Y00694703*
X00754625Y00694715*
X00754476Y00694914*
X00754340Y00695100*
X00754228Y00695273*
X00754142Y00695434*
X00754080Y00695558*
X00754030Y00695657*
X00754005Y00695720*
X00753993Y00695744*
X00753931Y00695930*
X00753881Y00696129*
X00753844Y00696302*
X00753819Y00696463*
X00753807Y00696599*
X00753794Y00696711*
Y00696773*
Y00696798*
X00753807Y00696971*
X00753819Y00697145*
X00753906Y00697455*
X00754018Y00697728*
X00754142Y00697963*
X00754266Y00698149*
X00754328Y00698236*
X00754377Y00698298*
X00754427Y00698347*
X00754464Y00698384*
X00754476Y00698397*
X00754489Y00698409*
X00754625Y00698521*
X00754761Y00698632*
X00754922Y00698719*
X00755071Y00698793*
X00755394Y00698905*
X00755691Y00698979*
X00755840Y00699017*
X00755964Y00699029*
X00756088Y00699041*
X00756187Y00699054*
X00756273Y00699066*
X00756583*
X00756782Y00699041*
G37*
G36*
X00796608Y00690898D02*
X00794959D01*
Y00694356*
X00791563*
Y00695732*
X00794959*
Y00697665*
X00791030*
Y00699041*
X00796608*
Y00690898*
G37*
G36*
X00789629D02*
X00783902D01*
Y00692274*
X00787980*
Y00698967*
X00789629*
Y00690898*
G37*
G36*
X00763103Y00699041D02*
X00763450Y00698979D01*
X00763760Y00698881*
X00763897Y00698831*
X00764021Y00698781*
X00764145Y00698732*
X00764244Y00698682*
X00764330Y00698632*
X00764392Y00698583*
X00764454Y00698546*
X00764492Y00698521*
X00764516Y00698508*
X00764529Y00698496*
X00764653Y00698384*
X00764777Y00698260*
X00764876Y00698124*
X00764975Y00697975*
X00765124Y00697665*
X00765235Y00697368*
X00765285Y00697219*
X00765310Y00697083*
X00765347Y00696971*
X00765359Y00696860*
X00765384Y00696773*
Y00696711*
X00765396Y00696662*
Y00696649*
X00763847Y00696500*
X00763822Y00696736*
X00763785Y00696947*
X00763723Y00697108*
X00763673Y00697244*
X00763612Y00697357*
X00763574Y00697418*
X00763537Y00697467*
X00763525Y00697480*
X00763401Y00697579*
X00763277Y00697653*
X00763140Y00697703*
X00763017Y00697740*
X00762917Y00697765*
X00762818Y00697777*
X00762744*
X00762570Y00697765*
X00762409Y00697728*
X00762273Y00697690*
X00762161Y00697641*
X00762075Y00697579*
X00762012Y00697542*
X00761975Y00697504*
X00761963Y00697492*
X00761864Y00697380*
X00761802Y00697244*
X00761752Y00697108*
X00761715Y00696984*
X00761690Y00696872*
X00761678Y00696773*
Y00696711*
Y00696686*
X00761690Y00696513*
X00761727Y00696339*
X00761777Y00696178*
X00761839Y00696029*
X00761901Y00695905*
X00761951Y00695819*
X00761988Y00695757*
X00762000Y00695732*
X00762050Y00695657*
X00762124Y00695571*
X00762211Y00695484*
X00762310Y00695385*
X00762521Y00695162*
X00762744Y00694939*
X00762954Y00694740*
X00763054Y00694641*
X00763128Y00694567*
X00763203Y00694505*
X00763252Y00694443*
X00763289Y00694418*
X00763302Y00694406*
X00763537Y00694183*
X00763760Y00693972*
X00763946Y00693773*
X00764132Y00693587*
X00764293Y00693414*
X00764430Y00693253*
X00764566Y00693104*
X00764677Y00692968*
X00764764Y00692856*
X00764851Y00692745*
X00764913Y00692658*
X00764975Y00692584*
X00765012Y00692522*
X00765037Y00692484*
X00765062Y00692459*
Y00692447*
X00765210Y00692175*
X00765322Y00691902*
X00765421Y00691642*
X00765483Y00691394*
X00765533Y00691195*
X00765545Y00691108*
X00765557Y00691034*
X00765570Y00690984*
X00765582Y00690935*
Y00690910*
Y00690898*
X00760116*
Y00692348*
X00763227*
X00763128Y00692509*
X00763017Y00692633*
X00762979Y00692695*
X00762942Y00692732*
X00762917Y00692757*
X00762905Y00692769*
X00762855Y00692819*
X00762806Y00692869*
X00762670Y00693005*
X00762521Y00693154*
X00762360Y00693302*
X00762211Y00693451*
X00762087Y00693563*
X00762050Y00693612*
X00762012Y00693650*
X00761988Y00693662*
X00761975Y00693674*
X00761715Y00693910*
X00761504Y00694120*
X00761318Y00694306*
X00761182Y00694455*
X00761070Y00694567*
X00760996Y00694653*
X00760959Y00694703*
X00760946Y00694715*
X00760798Y00694914*
X00760661Y00695100*
X00760550Y00695273*
X00760463Y00695434*
X00760401Y00695558*
X00760352Y00695657*
X00760327Y00695720*
X00760314Y00695744*
X00760252Y00695930*
X00760203Y00696129*
X00760166Y00696302*
X00760141Y00696463*
X00760128Y00696599*
X00760116Y00696711*
Y00696773*
Y00696798*
X00760128Y00696971*
X00760141Y00697145*
X00760228Y00697455*
X00760339Y00697728*
X00760463Y00697963*
X00760587Y00698149*
X00760649Y00698236*
X00760699Y00698298*
X00760748Y00698347*
X00760785Y00698384*
X00760798Y00698397*
X00760810Y00698409*
X00760946Y00698521*
X00761083Y00698632*
X00761244Y00698719*
X00761393Y00698793*
X00761715Y00698905*
X00762012Y00698979*
X00762161Y00699017*
X00762285Y00699029*
X00762409Y00699041*
X00762508Y00699054*
X00762595Y00699066*
X00762905*
X00763103Y00699041*
G37*
G36*
X00812572Y00709111D02*
X00812907Y00709074D01*
X00813205Y00709012*
X00813465Y00708962*
X00813576Y00708925*
X00813676Y00708901*
X00813763Y00708863*
X00813837Y00708839*
X00813899Y00708826*
X00813936Y00708801*
X00813961Y00708789*
X00813973*
X00814184Y00708690*
X00814382Y00708578*
X00814556Y00708454*
X00814717Y00708330*
X00814841Y00708231*
X00814940Y00708144*
X00815002Y00708082*
X00815027Y00708058*
X00815188Y00707872*
X00815349Y00707673*
X00815473Y00707487*
X00815585Y00707314*
X00815671Y00707165*
X00815733Y00707041*
X00815770Y00706967*
X00815783Y00706954*
Y00706942*
X00815907Y00706607*
X00815994Y00706260*
X00816056Y00705913*
X00816093Y00705579*
X00816118Y00705430*
Y00705293*
X00816130Y00705170*
X00816142Y00705058*
Y00704971*
Y00704909*
Y00704860*
Y00704847*
X00816130Y00704488*
X00816093Y00704153*
X00816043Y00703843*
X00815981Y00703546*
X00815894Y00703273*
X00815808Y00703025*
X00815709Y00702802*
X00815609Y00702591*
X00815510Y00702405*
X00815411Y00702244*
X00815324Y00702108*
X00815237Y00701996*
X00815175Y00701910*
X00815126Y00701848*
X00815089Y00701811*
X00815076Y00701798*
X00814866Y00701600*
X00814642Y00701439*
X00814419Y00701290*
X00814172Y00701167*
X00813936Y00701054*
X00813700Y00700968*
X00813465Y00700893*
X00813242Y00700831*
X00813031Y00700782*
X00812833Y00700757*
X00812647Y00700732*
X00812498Y00700707*
X00812374*
X00812275Y00700695*
X00812201*
X00811866Y00700707*
X00811556Y00700744*
X00811271Y00700794*
X00810998Y00700868*
X00810738Y00700955*
X00810502Y00701042*
X00810292Y00701141*
X00810094Y00701253*
X00809920Y00701352*
X00809771Y00701451*
X00809635Y00701538*
X00809536Y00701625*
X00809449Y00701699*
X00809387Y00701748*
X00809350Y00701786*
X00809337Y00701798*
X00809152Y00702021*
X00808978Y00702257*
X00808842Y00702505*
X00808718Y00702753*
X00808606Y00703013*
X00808519Y00703273*
X00808445Y00703521*
X00808395Y00703769*
X00808346Y00703992*
X00808321Y00704215*
X00808296Y00704401*
X00808271Y00704575*
Y00704711*
X00808259Y00704810*
Y00704872*
Y00704897*
X00808271Y00705256*
X00808309Y00705603*
X00808358Y00705926*
X00808433Y00706223*
X00808507Y00706496*
X00808594Y00706744*
X00808693Y00706979*
X00808792Y00707190*
X00808904Y00707376*
X00808990Y00707537*
X00809089Y00707673*
X00809164Y00707785*
X00809238Y00707884*
X00809288Y00707946*
X00809325Y00707983*
X00809337Y00707996*
X00809548Y00708194*
X00809771Y00708368*
X00810007Y00708516*
X00810242Y00708653*
X00810478Y00708752*
X00810726Y00708851*
X00810949Y00708925*
X00811184Y00708987*
X00811395Y00709024*
X00811593Y00709062*
X00811767Y00709087*
X00811916Y00709111*
X00812039*
X00812139Y00709124*
X00812213*
X00812572Y00709111*
G37*
G36*
X00761430D02*
X00761765Y00709074D01*
X00762062Y00709012*
X00762322Y00708962*
X00762434Y00708925*
X00762533Y00708901*
X00762620Y00708863*
X00762694Y00708839*
X00762756Y00708826*
X00762793Y00708801*
X00762818Y00708789*
X00762831*
X00763041Y00708690*
X00763240Y00708578*
X00763413Y00708454*
X00763574Y00708330*
X00763698Y00708231*
X00763797Y00708144*
X00763859Y00708082*
X00763884Y00708058*
X00764045Y00707872*
X00764207Y00707673*
X00764330Y00707487*
X00764442Y00707314*
X00764529Y00707165*
X00764591Y00707041*
X00764628Y00706967*
X00764640Y00706954*
Y00706942*
X00764764Y00706607*
X00764851Y00706260*
X00764913Y00705913*
X00764950Y00705579*
X00764975Y00705430*
Y00705293*
X00764987Y00705170*
X00765000Y00705058*
Y00704971*
Y00704909*
Y00704860*
Y00704847*
X00764987Y00704488*
X00764950Y00704153*
X00764901Y00703843*
X00764839Y00703546*
X00764752Y00703273*
X00764665Y00703025*
X00764566Y00702802*
X00764467Y00702591*
X00764368Y00702405*
X00764268Y00702244*
X00764182Y00702108*
X00764095Y00701996*
X00764033Y00701910*
X00763983Y00701848*
X00763946Y00701811*
X00763934Y00701798*
X00763723Y00701600*
X00763500Y00701439*
X00763277Y00701290*
X00763029Y00701167*
X00762793Y00701054*
X00762558Y00700968*
X00762322Y00700893*
X00762099Y00700831*
X00761889Y00700782*
X00761690Y00700757*
X00761504Y00700732*
X00761356Y00700707*
X00761232*
X00761132Y00700695*
X00761058*
X00760723Y00700707*
X00760414Y00700744*
X00760128Y00700794*
X00759856Y00700868*
X00759595Y00700955*
X00759360Y00701042*
X00759149Y00701141*
X00758952Y00701253*
X00758777Y00701352*
X00758629Y00701451*
X00758492Y00701538*
X00758393Y00701625*
X00758306Y00701699*
X00758244Y00701748*
X00758207Y00701786*
X00758195Y00701798*
X00758009Y00702021*
X00757835Y00702257*
X00757699Y00702505*
X00757575Y00702753*
X00757464Y00703013*
X00757377Y00703273*
X00757302Y00703521*
X00757253Y00703769*
X00757203Y00703992*
X00757178Y00704215*
X00757154Y00704401*
X00757129Y00704575*
Y00704711*
X00757116Y00704810*
Y00704872*
Y00704897*
X00757129Y00705256*
X00757166Y00705603*
X00757216Y00705926*
X00757290Y00706223*
X00757364Y00706496*
X00757451Y00706744*
X00757550Y00706979*
X00757649Y00707190*
X00757761Y00707376*
X00757848Y00707537*
X00757947Y00707673*
X00758021Y00707785*
X00758096Y00707884*
X00758145Y00707946*
X00758182Y00707983*
X00758195Y00707996*
X00758406Y00708194*
X00758629Y00708368*
X00758864Y00708516*
X00759100Y00708653*
X00759335Y00708752*
X00759583Y00708851*
X00759806Y00708925*
X00760042Y00708987*
X00760252Y00709024*
X00760451Y00709062*
X00760624Y00709087*
X00760773Y00709111*
X00760897*
X00760996Y00709124*
X00761070*
X00761430Y00709111*
G37*
G36*
X00769388Y00699054D02*
X00769623Y00699029D01*
X00769821Y00698979*
X00770007Y00698942*
X00770156Y00698893*
X00770268Y00698843*
X00770342Y00698818*
X00770355Y00698806*
X00770367*
X00770553Y00698707*
X00770726Y00698595*
X00770863Y00698484*
X00770987Y00698373*
X00771086Y00698260*
X00771148Y00698186*
X00771197Y00698137*
X00771210Y00698112*
X00771309Y00697938*
X00771408Y00697740*
X00771482Y00697542*
X00771544Y00697357*
X00771594Y00697182*
X00771631Y00697046*
X00771644Y00696996*
Y00696959*
X00771656Y00696934*
Y00696922*
X00770218Y00696686*
X00770193Y00696872*
X00770144Y00697033*
X00770094Y00697170*
X00770032Y00697294*
X00769970Y00697380*
X00769933Y00697442*
X00769896Y00697480*
X00769883Y00697492*
X00769772Y00697591*
X00769648Y00697653*
X00769536Y00697703*
X00769425Y00697740*
X00769326Y00697765*
X00769251Y00697777*
X00769189*
X00769041Y00697765*
X00768904Y00697740*
X00768793Y00697703*
X00768694Y00697653*
X00768619Y00697604*
X00768570Y00697566*
X00768532Y00697542*
X00768520Y00697529*
X00768433Y00697430*
X00768371Y00697318*
X00768334Y00697207*
X00768297Y00697108*
X00768285Y00697021*
X00768272Y00696947*
Y00696885*
Y00696872*
X00768285Y00696699*
X00768322Y00696550*
X00768384Y00696414*
X00768446Y00696302*
X00768508Y00696215*
X00768570Y00696141*
X00768607Y00696104*
X00768619Y00696091*
X00768755Y00696005*
X00768917Y00695930*
X00769078Y00695881*
X00769227Y00695856*
X00769363Y00695843*
X00769487Y00695831*
X00769586*
X00769760Y00694567*
X00769611Y00694604*
X00769474Y00694641*
X00769351Y00694666*
X00769251Y00694678*
X00769164Y00694691*
X00769053*
X00768892Y00694678*
X00768743Y00694641*
X00768607Y00694579*
X00768495Y00694517*
X00768396Y00694455*
X00768334Y00694393*
X00768285Y00694356*
X00768272Y00694344*
X00768160Y00694207*
X00768086Y00694046*
X00768024Y00693897*
X00767987Y00693749*
X00767962Y00693612*
X00767950Y00693501*
Y00693426*
Y00693414*
Y00693402*
X00767962Y00693178*
X00767999Y00692980*
X00768061Y00692807*
X00768111Y00692658*
X00768173Y00692546*
X00768235Y00692472*
X00768272Y00692410*
X00768285Y00692398*
X00768421Y00692274*
X00768557Y00692187*
X00768694Y00692125*
X00768818Y00692088*
X00768929Y00692063*
X00769016Y00692038*
X00769103*
X00769264Y00692050*
X00769412Y00692088*
X00769536Y00692137*
X00769648Y00692187*
X00769747Y00692236*
X00769809Y00692286*
X00769859Y00692323*
X00769871Y00692336*
X00769983Y00692459*
X00770069Y00692608*
X00770131Y00692757*
X00770181Y00692893*
X00770218Y00693030*
X00770243Y00693129*
X00770255Y00693203*
Y00693216*
Y00693228*
X00771767Y00693042*
X00771743Y00692856*
X00771706Y00692670*
X00771594Y00692348*
X00771458Y00692063*
X00771309Y00691827*
X00771235Y00691728*
X00771173Y00691642*
X00771111Y00691555*
X00771049Y00691493*
X00770999Y00691443*
X00770962Y00691406*
X00770949Y00691394*
X00770937Y00691381*
X00770801Y00691270*
X00770652Y00691170*
X00770491Y00691084*
X00770342Y00691022*
X00770032Y00690898*
X00769735Y00690823*
X00769611Y00690799*
X00769487Y00690786*
X00769375Y00690774*
X00769276Y00690761*
X00769202Y00690749*
X00769090*
X00768879Y00690761*
X00768669Y00690786*
X00768483Y00690823*
X00768297Y00690873*
X00768123Y00690922*
X00767962Y00690984*
X00767813Y00691059*
X00767677Y00691134*
X00767553Y00691195*
X00767454Y00691270*
X00767355Y00691332*
X00767280Y00691394*
X00767218Y00691431*
X00767181Y00691468*
X00767157Y00691493*
X00767144Y00691505*
X00767008Y00691654*
X00766884Y00691803*
X00766772Y00691951*
X00766685Y00692112*
X00766611Y00692261*
X00766549Y00692410*
X00766450Y00692695*
X00766413Y00692831*
X00766388Y00692955*
X00766376Y00693054*
X00766363Y00693154*
X00766351Y00693228*
Y00693278*
Y00693315*
Y00693327*
X00766363Y00693600*
X00766413Y00693835*
X00766487Y00694059*
X00766562Y00694244*
X00766636Y00694393*
X00766710Y00694505*
X00766760Y00694567*
X00766772Y00694592*
X00766946Y00694765*
X00767119Y00694914*
X00767305Y00695038*
X00767491Y00695125*
X00767640Y00695187*
X00767776Y00695236*
X00767826Y00695248*
X00767851*
X00767875Y00695261*
X00767888*
X00767677Y00695385*
X00767504Y00695521*
X00767342Y00695657*
X00767207Y00695806*
X00767094Y00695943*
X00766995Y00696091*
X00766921Y00696228*
X00766859Y00696364*
X00766810Y00696488*
X00766772Y00696599*
X00766748Y00696699*
X00766723Y00696798*
Y00696872*
X00766710Y00696922*
Y00696959*
Y00696971*
Y00697108*
X00766735Y00697244*
X00766797Y00697504*
X00766896Y00697728*
X00766995Y00697926*
X00767107Y00698099*
X00767207Y00698223*
X00767243Y00698260*
X00767268Y00698298*
X00767280Y00698310*
X00767293Y00698323*
X00767429Y00698459*
X00767566Y00698570*
X00767727Y00698670*
X00767875Y00698756*
X00768024Y00698831*
X00768185Y00698881*
X00768470Y00698979*
X00768607Y00699004*
X00768743Y00699029*
X00768855Y00699041*
X00768954Y00699054*
X00769028Y00699066*
X00769140*
X00769388Y00699054*
G37*
G36*
X00782725Y00690898D02*
X00779651D01*
X00779329Y00690910*
X00779031Y00690922*
X00778783Y00690947*
X00778585Y00690984*
X00778411Y00691009*
X00778300Y00691034*
X00778225Y00691047*
X00778201Y00691059*
X00777940Y00691158*
X00777717Y00691257*
X00777519Y00691369*
X00777345Y00691480*
X00777221Y00691567*
X00777122Y00691642*
X00777073Y00691703*
X00777048Y00691716*
X00776850Y00691939*
X00776676Y00692175*
X00776527Y00692410*
X00776403Y00692645*
X00776304Y00692844*
X00776267Y00692931*
X00776230Y00693005*
X00776205Y00693067*
X00776193Y00693117*
X00776180Y00693141*
Y00693154*
X00776094Y00693439*
X00776031Y00693736*
X00775982Y00694021*
X00775957Y00694294*
X00775932Y00694529*
Y00694629*
X00775920Y00694715*
Y00694790*
Y00694839*
Y00694877*
Y00694889*
X00775932Y00695298*
X00775957Y00695670*
X00776007Y00696005*
X00776031Y00696141*
X00776056Y00696277*
X00776081Y00696401*
X00776106Y00696500*
X00776131Y00696599*
X00776155Y00696674*
X00776168Y00696736*
X00776180Y00696773*
X00776193Y00696798*
Y00696810*
X00776304Y00697095*
X00776428Y00697343*
X00776552Y00697566*
X00776676Y00697765*
X00776800Y00697913*
X00776887Y00698025*
X00776949Y00698099*
X00776961Y00698124*
X00776973*
X00777172Y00698310*
X00777383Y00698471*
X00777581Y00698608*
X00777767Y00698707*
X00777940Y00698781*
X00778064Y00698843*
X00778114Y00698856*
X00778151Y00698868*
X00778176Y00698881*
X00778188*
X00778411Y00698930*
X00778659Y00698979*
X00778907Y00699004*
X00779167Y00699017*
X00779391Y00699029*
X00779490Y00699041*
X00782725*
Y00690898*
G37*
G36*
X00839999Y00769818D02*
X00828620D01*
Y00772694*
X00839999*
Y00769818*
G37*
G36*
X00723485Y00760669D02*
X00727749D01*
Y00757794*
X00723485*
Y00753579*
X00720634*
Y00757794*
X00716370*
Y00760669*
X00720634*
Y00764884*
X00723485*
Y00760669*
G37*
G36*
X00743499Y00772499D02*
X00739197D01*
X00738746Y00772516*
X00738329Y00772534*
X00737982Y00772568*
X00737705Y00772620*
X00737462Y00772655*
X00737306Y00772690*
X00737202Y00772707*
X00737167Y00772725*
X00736803Y00772863*
X00736490Y00773002*
X00736213Y00773158*
X00735970Y00773314*
X00735796Y00773436*
X00735658Y00773540*
X00735588Y00773627*
X00735554Y00773644*
X00735276Y00773956*
X00735033Y00774286*
X00734825Y00774615*
X00734651Y00774945*
X00734513Y00775223*
X00734461Y00775344*
X00734409Y00775448*
X00734374Y00775535*
X00734357Y00775604*
X00734339Y00775639*
Y00775656*
X00734218Y00776055*
X00734131Y00776472*
X00734062Y00776871*
X00734027Y00777252*
X00733992Y00777582*
Y00777721*
X00733975Y00777842*
Y00777946*
Y00778016*
Y00778068*
Y00778085*
X00733992Y00778658*
X00734027Y00779178*
X00734096Y00779647*
X00734131Y00779837*
X00734166Y00780028*
X00734200Y00780202*
X00734235Y00780340*
X00734270Y00780479*
X00734304Y00780583*
X00734322Y00780670*
X00734339Y00780722*
X00734357Y00780757*
Y00780774*
X00734513Y00781173*
X00734686Y00781520*
X00734860Y00781832*
X00735033Y00782110*
X00735207Y00782318*
X00735328Y00782474*
X00735415Y00782578*
X00735432Y00782613*
X00735449*
X00735727Y00782873*
X00736022Y00783099*
X00736300Y00783290*
X00736560Y00783428*
X00736803Y00783532*
X00736976Y00783619*
X00737046Y00783636*
X00737097Y00783654*
X00737132Y00783671*
X00737150*
X00737462Y00783741*
X00737809Y00783810*
X00738156Y00783845*
X00738520Y00783862*
X00738832Y00783879*
X00738971Y00783897*
X00743499*
Y00772499*
G37*
G36*
X00757999Y00714249D02*
X00749984D01*
Y00716175*
X00755692*
Y00725543*
X00757999*
Y00714249*
G37*
G36*
X00753105Y00800591D02*
X00756089D01*
Y00798579*
X00753105*
Y00795630*
X00751110*
Y00798579*
X00748126*
Y00800591*
X00751110*
Y00803540*
X00753105*
Y00800591*
G37*
G36*
X00765249Y00793999D02*
X00757234D01*
Y00795925*
X00762942*
Y00805293*
X00765249*
Y00793999*
G37*
G36*
X00748839Y00718846D02*
X00740876D01*
Y00720859*
X00748839*
Y00718846*
G37*
G36*
X00735822Y00700844D02*
X00734086D01*
X00733417Y00702691*
X00730132*
X00729438Y00700844*
X00727653*
X00730925Y00708987*
X00732661*
X00735822Y00700844*
G37*
G36*
X00822749D02*
X00821100D01*
Y00704302*
X00817704*
Y00705678*
X00821100*
Y00707611*
X00817171*
Y00708987*
X00822749*
Y00700844*
G37*
G36*
X00806970D02*
X00805321D01*
Y00704240*
X00804801*
X00804627Y00704228*
X00804491Y00704215*
X00804379Y00704190*
X00804293Y00704178*
X00804231Y00704153*
X00804193Y00704141*
X00804181*
X00804082Y00704104*
X00803995Y00704054*
X00803834Y00703942*
X00803772Y00703893*
X00803722Y00703843*
X00803698Y00703819*
X00803685Y00703806*
X00803636Y00703756*
X00803586Y00703682*
X00803450Y00703509*
X00803301Y00703323*
X00803165Y00703112*
X00803028Y00702914*
X00802966Y00702839*
X00802917Y00702753*
X00802879Y00702691*
X00802842Y00702641*
X00802830Y00702616*
X00802818Y00702604*
X00801652Y00700844*
X00799681*
X00800673Y00702430*
X00800785Y00702604*
X00800884Y00702753*
X00800971Y00702901*
X00801070Y00703038*
X00801218Y00703261*
X00801355Y00703447*
X00801466Y00703583*
X00801541Y00703670*
X00801590Y00703732*
X00801603Y00703744*
X00801739Y00703881*
X00801888Y00704004*
X00802037Y00704128*
X00802173Y00704228*
X00802297Y00704314*
X00802396Y00704376*
X00802458Y00704414*
X00802470Y00704426*
X00802483*
X00802285Y00704463*
X00802111Y00704500*
X00801937Y00704550*
X00801789Y00704612*
X00801640Y00704674*
X00801504Y00704736*
X00801392Y00704798*
X00801281Y00704860*
X00801194Y00704922*
X00801107Y00704984*
X00801045Y00705046*
X00800983Y00705083*
X00800946Y00705132*
X00800909Y00705157*
X00800884Y00705170*
Y00705182*
X00800785Y00705293*
X00800698Y00705417*
X00800574Y00705665*
X00800475Y00705926*
X00800400Y00706161*
X00800363Y00706372*
X00800351Y00706459*
Y00706545*
X00800339Y00706607*
Y00706657*
Y00706682*
Y00706694*
X00800351Y00706954*
X00800388Y00707202*
X00800450Y00707413*
X00800512Y00707599*
X00800586Y00707760*
X00800636Y00707872*
X00800685Y00707946*
X00800698Y00707971*
X00800847Y00708169*
X00800995Y00708330*
X00801157Y00708467*
X00801305Y00708578*
X00801442Y00708665*
X00801553Y00708727*
X00801628Y00708752*
X00801640Y00708764*
X00801652*
X00801764Y00708801*
X00801900Y00708839*
X00802198Y00708888*
X00802508Y00708938*
X00802818Y00708962*
X00802954Y00708975*
X00803214*
X00803326Y00708987*
X00806970*
Y00700844*
G37*
G36*
X00743197Y00704637D02*
Y00704389D01*
X00743184Y00704153*
Y00703930*
X00743172Y00703732*
X00743159Y00703546*
X00743147Y00703372*
X00743135Y00703223*
X00743122Y00703087*
X00743110Y00702963*
X00743097Y00702864*
X00743085Y00702765*
X00743073Y00702703*
X00743060Y00702641*
X00743048Y00702604*
Y00702579*
Y00702567*
X00742998Y00702393*
X00742924Y00702232*
X00742849Y00702071*
X00742775Y00701934*
X00742701Y00701823*
X00742639Y00701736*
X00742602Y00701686*
X00742589Y00701662*
X00742440Y00701513*
X00742292Y00701364*
X00742131Y00701253*
X00741982Y00701141*
X00741845Y00701067*
X00741734Y00701005*
X00741660Y00700968*
X00741647Y00700955*
X00741635*
X00741511Y00700906*
X00741387Y00700868*
X00741102Y00700806*
X00740817Y00700757*
X00740532Y00700732*
X00740271Y00700707*
X00740160*
X00740061Y00700695*
X00739875*
X00739528Y00700707*
X00739218Y00700732*
X00738957Y00700769*
X00738734Y00700819*
X00738548Y00700856*
X00738474Y00700881*
X00738424Y00700893*
X00738375Y00700906*
X00738338Y00700918*
X00738325Y00700930*
X00738313*
X00738102Y00701030*
X00737916Y00701141*
X00737755Y00701253*
X00737606Y00701364*
X00737507Y00701451*
X00737420Y00701525*
X00737371Y00701587*
X00737358Y00701600*
X00737235Y00701761*
X00737123Y00701934*
X00737049Y00702108*
X00736974Y00702269*
X00736925Y00702418*
X00736887Y00702529*
X00736863Y00702604*
Y00702616*
Y00702629*
X00736838Y00702753*
X00736813Y00702889*
X00736801Y00703050*
X00736788Y00703211*
X00736764Y00703546*
X00736739Y00703893*
Y00704054*
Y00704203*
X00736727Y00704339*
Y00704463*
Y00704562*
Y00704637*
Y00704686*
Y00704699*
Y00708987*
X00738375*
Y00704463*
Y00704289*
Y00704128*
X00738387Y00703980*
Y00703843*
X00738400Y00703595*
X00738412Y00703409*
X00738424Y00703261*
X00738437Y00703162*
X00738449Y00703100*
Y00703075*
X00738486Y00702926*
X00738548Y00702790*
X00738623Y00702678*
X00738697Y00702579*
X00738759Y00702492*
X00738821Y00702430*
X00738871Y00702393*
X00738883Y00702381*
X00739032Y00702281*
X00739193Y00702220*
X00739367Y00702170*
X00739528Y00702133*
X00739689Y00702108*
X00739813Y00702096*
X00739924*
X00740160Y00702108*
X00740383Y00702145*
X00740569Y00702195*
X00740718Y00702244*
X00740842Y00702294*
X00740928Y00702344*
X00740978Y00702381*
X00741003Y00702393*
X00741139Y00702517*
X00741238Y00702641*
X00741325Y00702777*
X00741399Y00702914*
X00741437Y00703025*
X00741474Y00703112*
X00741498Y00703174*
Y00703199*
X00741511Y00703261*
Y00703347*
X00741523Y00703546*
X00741536Y00703769*
Y00703992*
X00741548Y00704215*
Y00704314*
Y00704389*
Y00704463*
Y00704513*
Y00704550*
Y00704562*
Y00708987*
X00743197*
Y00704637*
G37*
G36*
X00755852Y00700844D02*
X00754328D01*
Y00707252*
X00752716Y00700844*
X00751142*
X00749530Y00707252*
X00749518Y00700844*
X00747994*
Y00708987*
X00750473*
X00751923Y00703422*
X00753398Y00708987*
X00755852*
Y00700844*
G37*
G36*
X00769673Y00709111D02*
X00769970Y00709074D01*
X00770255Y00709024*
X00770516Y00708950*
X00770763Y00708863*
X00770987Y00708764*
X00771197Y00708665*
X00771383Y00708566*
X00771557Y00708454*
X00771706Y00708355*
X00771830Y00708256*
X00771941Y00708169*
X00772015Y00708095*
X00772077Y00708045*
X00772115Y00708008*
X00772127Y00707996*
X00772313Y00707773*
X00772474Y00707537*
X00772610Y00707289*
X00772734Y00707029*
X00772833Y00706769*
X00772908Y00706496*
X00772982Y00706248*
X00773032Y00705988*
X00773081Y00705752*
X00773119Y00705541*
X00773131Y00705343*
X00773156Y00705170*
Y00705033*
X00773168Y00704922*
Y00704860*
Y00704835*
X00773156Y00704488*
X00773119Y00704153*
X00773069Y00703843*
X00773007Y00703558*
X00772920Y00703286*
X00772833Y00703038*
X00772747Y00702802*
X00772648Y00702604*
X00772548Y00702418*
X00772462Y00702257*
X00772363Y00702120*
X00772288Y00702009*
X00772226Y00701922*
X00772177Y00701860*
X00772139Y00701823*
X00772127Y00701811*
X00771929Y00701612*
X00771718Y00701451*
X00771495Y00701302*
X00771272Y00701178*
X00771049Y00701067*
X00770825Y00700980*
X00770615Y00700906*
X00770404Y00700844*
X00770206Y00700794*
X00770032Y00700769*
X00769871Y00700744*
X00769735Y00700720*
X00769623*
X00769536Y00700707*
X00769462*
X00769227Y00700720*
X00768991Y00700732*
X00768780Y00700769*
X00768570Y00700806*
X00768384Y00700856*
X00768210Y00700906*
X00768049Y00700968*
X00767900Y00701030*
X00767764Y00701092*
X00767640Y00701153*
X00767541Y00701203*
X00767454Y00701253*
X00767392Y00701290*
X00767342Y00701327*
X00767318Y00701339*
X00767305Y00701352*
X00767144Y00701476*
X00767008Y00701625*
X00766748Y00701934*
X00766537Y00702269*
X00766376Y00702591*
X00766301Y00702740*
X00766239Y00702889*
X00766191Y00703013*
X00766152Y00703124*
X00766115Y00703223*
X00766091Y00703286*
X00766078Y00703335*
Y00703347*
X00767677Y00703843*
X00767764Y00703521*
X00767875Y00703261*
X00767987Y00703025*
X00768099Y00702839*
X00768198Y00702703*
X00768285Y00702591*
X00768334Y00702542*
X00768359Y00702517*
X00768545Y00702381*
X00768731Y00702281*
X00768917Y00702207*
X00769103Y00702158*
X00769251Y00702133*
X00769375Y00702120*
X00769425Y00702108*
X00769487*
X00769648Y00702120*
X00769797Y00702133*
X00770082Y00702207*
X00770330Y00702306*
X00770540Y00702430*
X00770702Y00702554*
X00770825Y00702653*
X00770900Y00702728*
X00770912Y00702740*
X00770925Y00702753*
X00771024Y00702889*
X00771098Y00703038*
X00771173Y00703199*
X00771235Y00703372*
X00771334Y00703744*
X00771396Y00704104*
X00771421Y00704277*
X00771445Y00704438*
X00771458Y00704575*
Y00704711*
X00771470Y00704810*
Y00704897*
Y00704947*
Y00704959*
X00771458Y00705219*
X00771445Y00705467*
X00771421Y00705703*
X00771383Y00705901*
X00771346Y00706099*
X00771297Y00706273*
X00771247Y00706422*
X00771185Y00706558*
X00771135Y00706682*
X00771086Y00706781*
X00771036Y00706868*
X00770999Y00706942*
X00770962Y00706992*
X00770937Y00707041*
X00770912Y00707054*
Y00707066*
X00770801Y00707178*
X00770689Y00707289*
X00770565Y00707376*
X00770454Y00707450*
X00770206Y00707562*
X00769970Y00707636*
X00769760Y00707686*
X00769673Y00707698*
X00769598Y00707711*
X00769536Y00707723*
X00769450*
X00769214Y00707711*
X00769003Y00707661*
X00768805Y00707611*
X00768644Y00707537*
X00768508Y00707475*
X00768421Y00707413*
X00768359Y00707364*
X00768334Y00707351*
X00768173Y00707202*
X00768049Y00707041*
X00767937Y00706880*
X00767863Y00706719*
X00767801Y00706570*
X00767752Y00706459*
X00767739Y00706384*
X00767727Y00706372*
Y00706359*
X00766103Y00706744*
X00766215Y00707091*
X00766351Y00707388*
X00766500Y00707636*
X00766636Y00707847*
X00766760Y00708020*
X00766859Y00708132*
X00766921Y00708206*
X00766933Y00708231*
X00766946*
X00767132Y00708392*
X00767318Y00708529*
X00767516Y00708640*
X00767715Y00708752*
X00767913Y00708839*
X00768123Y00708901*
X00768309Y00708962*
X00768508Y00709012*
X00768681Y00709049*
X00768842Y00709074*
X00768991Y00709099*
X00769115Y00709111*
X00769214Y00709124*
X00769363*
X00769673Y00709111*
G37*
G36*
X00784237Y00700844D02*
X00781163D01*
X00780841Y00700856*
X00780543Y00700868*
X00780295Y00700893*
X00780097Y00700930*
X00779924Y00700955*
X00779812Y00700980*
X00779738Y00700992*
X00779713Y00701005*
X00779453Y00701104*
X00779229Y00701203*
X00779031Y00701315*
X00778858Y00701426*
X00778734Y00701513*
X00778634Y00701587*
X00778585Y00701649*
X00778560Y00701662*
X00778362Y00701885*
X00778188Y00702120*
X00778039Y00702356*
X00777916Y00702591*
X00777816Y00702790*
X00777779Y00702877*
X00777742Y00702951*
X00777717Y00703013*
X00777705Y00703062*
X00777692Y00703087*
Y00703100*
X00777606Y00703385*
X00777544Y00703682*
X00777494Y00703967*
X00777469Y00704240*
X00777445Y00704475*
Y00704575*
X00777432Y00704661*
Y00704736*
Y00704785*
Y00704823*
Y00704835*
X00777445Y00705244*
X00777469Y00705616*
X00777519Y00705951*
X00777544Y00706087*
X00777569Y00706223*
X00777593Y00706347*
X00777618Y00706446*
X00777643Y00706545*
X00777668Y00706620*
X00777680Y00706682*
X00777692Y00706719*
X00777705Y00706744*
Y00706756*
X00777816Y00707041*
X00777940Y00707289*
X00778064Y00707512*
X00778188Y00707711*
X00778312Y00707859*
X00778399Y00707971*
X00778461Y00708045*
X00778473Y00708070*
X00778486*
X00778684Y00708256*
X00778895Y00708417*
X00779093Y00708554*
X00779279Y00708653*
X00779453Y00708727*
X00779576Y00708789*
X00779626Y00708801*
X00779663Y00708814*
X00779688Y00708826*
X00779701*
X00779924Y00708876*
X00780172Y00708925*
X00780419Y00708950*
X00780680Y00708962*
X00780903Y00708975*
X00781002Y00708987*
X00784237*
Y00700844*
G37*
G36*
X00776056D02*
X00774494D01*
Y00702405*
X00776056*
Y00700844*
G37*
G36*
X00746382D02*
X00744820D01*
Y00702405*
X00746382*
Y00700844*
G37*
G36*
X00798727D02*
X00793000D01*
Y00702220*
X00797078*
Y00708914*
X00798727*
Y00700844*
G37*
G36*
X00791823D02*
X00785638D01*
Y00702220*
X00790174*
Y00704426*
X00786109*
Y00705802*
X00790174*
Y00707611*
X00785799*
Y00708987*
X00791823*
Y00700844*
G37*
%LNBot_silk-2*%
%LPC*%
G36*
X00812300Y00707723D02*
X00812201D01*
X00812015Y00707711*
X00811841Y00707698*
X00811519Y00707611*
X00811234Y00707500*
X00811011Y00707376*
X00810912Y00707314*
X00810825Y00707252*
X00810750Y00707190*
X00810688Y00707140*
X00810639Y00707091*
X00810602Y00707054*
X00810589Y00707041*
X00810577Y00707029*
X00810465Y00706892*
X00810366Y00706744*
X00810292Y00706583*
X00810217Y00706409*
X00810106Y00706062*
X00810032Y00705727*
X00810007Y00705566*
X00809994Y00705417*
X00809969Y00705281*
Y00705170*
X00809957Y00705070*
Y00704996*
Y00704947*
Y00704934*
X00809969Y00704674*
X00809982Y00704438*
X00810019Y00704203*
X00810056Y00704004*
X00810106Y00703806*
X00810155Y00703633*
X00810217Y00703471*
X00810267Y00703335*
X00810329Y00703211*
X00810391Y00703100*
X00810441Y00703013*
X00810490Y00702938*
X00810527Y00702877*
X00810564Y00702839*
X00810577Y00702814*
X00810589Y00702802*
X00810713Y00702678*
X00810837Y00702567*
X00810974Y00702480*
X00811110Y00702393*
X00811246Y00702331*
X00811383Y00702269*
X00811630Y00702183*
X00811854Y00702133*
X00811953Y00702120*
X00812039Y00702108*
X00812102Y00702096*
X00812201*
X00812374Y00702108*
X00812548Y00702120*
X00812709Y00702158*
X00812870Y00702207*
X00813143Y00702319*
X00813378Y00702455*
X00813564Y00702579*
X00813639Y00702641*
X00813700Y00702691*
X00813750Y00702740*
X00813787Y00702777*
X00813800Y00702790*
X00813812Y00702802*
X00813924Y00702938*
X00814023Y00703100*
X00814109Y00703261*
X00814172Y00703434*
X00814295Y00703781*
X00814370Y00704128*
X00814395Y00704289*
X00814407Y00704438*
X00814419Y00704562*
X00814432Y00704686*
X00814444Y00704773*
Y00704847*
Y00704897*
Y00704909*
X00814432Y00705170*
X00814419Y00705405*
X00814382Y00705628*
X00814345Y00705839*
X00814308Y00706025*
X00814246Y00706198*
X00814197Y00706359*
X00814134Y00706496*
X00814085Y00706620*
X00814023Y00706719*
X00813973Y00706818*
X00813936Y00706892*
X00813886Y00706942*
X00813862Y00706979*
X00813849Y00707004*
X00813837Y00707017*
X00813713Y00707140*
X00813589Y00707252*
X00813453Y00707339*
X00813316Y00707426*
X00813181Y00707500*
X00813044Y00707550*
X00812783Y00707636*
X00812560Y00707686*
X00812461Y00707698*
X00812374Y00707711*
X00812300Y00707723*
G37*
G36*
X00761157D02*
X00761058D01*
X00760872Y00707711*
X00760699Y00707698*
X00760376Y00707611*
X00760091Y00707500*
X00759868Y00707376*
X00759769Y00707314*
X00759682Y00707252*
X00759608Y00707190*
X00759546Y00707140*
X00759496Y00707091*
X00759460Y00707054*
X00759447Y00707041*
X00759434Y00707029*
X00759323Y00706892*
X00759224Y00706744*
X00759149Y00706583*
X00759075Y00706409*
X00758963Y00706062*
X00758889Y00705727*
X00758864Y00705566*
X00758852Y00705417*
X00758827Y00705281*
Y00705170*
X00758815Y00705070*
Y00704996*
Y00704947*
Y00704934*
X00758827Y00704674*
X00758839Y00704438*
X00758876Y00704203*
X00758914Y00704004*
X00758963Y00703806*
X00759013Y00703633*
X00759075Y00703471*
X00759124Y00703335*
X00759186Y00703211*
X00759248Y00703100*
X00759298Y00703013*
X00759348Y00702938*
X00759385Y00702877*
X00759422Y00702839*
X00759434Y00702814*
X00759447Y00702802*
X00759571Y00702678*
X00759695Y00702567*
X00759831Y00702480*
X00759968Y00702393*
X00760104Y00702331*
X00760240Y00702269*
X00760488Y00702183*
X00760711Y00702133*
X00760810Y00702120*
X00760897Y00702108*
X00760959Y00702096*
X00761058*
X00761232Y00702108*
X00761405Y00702120*
X00761566Y00702158*
X00761727Y00702207*
X00762000Y00702319*
X00762236Y00702455*
X00762422Y00702579*
X00762496Y00702641*
X00762558Y00702691*
X00762607Y00702740*
X00762645Y00702777*
X00762657Y00702790*
X00762670Y00702802*
X00762781Y00702938*
X00762880Y00703100*
X00762967Y00703261*
X00763029Y00703434*
X00763153Y00703781*
X00763227Y00704128*
X00763252Y00704289*
X00763264Y00704438*
X00763277Y00704562*
X00763289Y00704686*
X00763302Y00704773*
Y00704847*
Y00704897*
Y00704909*
X00763289Y00705170*
X00763277Y00705405*
X00763240Y00705628*
X00763203Y00705839*
X00763165Y00706025*
X00763103Y00706198*
X00763054Y00706359*
X00762992Y00706496*
X00762942Y00706620*
X00762880Y00706719*
X00762831Y00706818*
X00762793Y00706892*
X00762744Y00706942*
X00762719Y00706979*
X00762707Y00707004*
X00762694Y00707017*
X00762570Y00707140*
X00762446Y00707252*
X00762310Y00707339*
X00762174Y00707426*
X00762037Y00707500*
X00761901Y00707550*
X00761641Y00707636*
X00761418Y00707686*
X00761318Y00707698*
X00761232Y00707711*
X00761157Y00707723*
G37*
G36*
X00781076Y00697665D02*
X00779998D01*
X00779849Y00697653*
X00779713*
X00779589Y00697641*
X00779490*
X00779391Y00697628*
X00779304*
X00779167Y00697604*
X00779081Y00697591*
X00779019Y00697579*
X00779006*
X00778845Y00697529*
X00778697Y00697480*
X00778560Y00697418*
X00778461Y00697357*
X00778374Y00697294*
X00778300Y00697244*
X00778263Y00697207*
X00778250Y00697195*
X00778139Y00697083*
X00778052Y00696947*
X00777978Y00696823*
X00777903Y00696686*
X00777854Y00696575*
X00777816Y00696488*
X00777804Y00696426*
X00777792Y00696401*
X00777730Y00696203*
X00777692Y00695967*
X00777655Y00695732*
X00777643Y00695496*
X00777631Y00695286*
X00777618Y00695199*
Y00695125*
Y00695050*
Y00695001*
Y00694976*
Y00694963*
X00777631Y00694629*
X00777643Y00694331*
X00777668Y00694071*
X00777705Y00693860*
X00777742Y00693687*
X00777767Y00693563*
X00777779Y00693526*
Y00693488*
X00777792Y00693476*
Y00693464*
X00777854Y00693278*
X00777928Y00693117*
X00777990Y00692980*
X00778064Y00692869*
X00778126Y00692782*
X00778164Y00692732*
X00778201Y00692695*
X00778213Y00692683*
X00778312Y00692596*
X00778424Y00692534*
X00778647Y00692422*
X00778734Y00692398*
X00778808Y00692373*
X00778870Y00692348*
X00778882*
X00779006Y00692323*
X00779155Y00692311*
X00779329Y00692286*
X00779477*
X00779626Y00692274*
X00781076*
Y00697665*
G37*
G36*
X00741192Y00781971D02*
X00739682D01*
X00739474Y00781954*
X00739283*
X00739110Y00781936*
X00738971*
X00738832Y00781919*
X00738711*
X00738520Y00781884*
X00738399Y00781867*
X00738312Y00781850*
X00738295*
X00738069Y00781780*
X00737861Y00781711*
X00737670Y00781624*
X00737531Y00781537*
X00737410Y00781451*
X00737306Y00781381*
X00737254Y00781329*
X00737236Y00781312*
X00737080Y00781156*
X00736959Y00780965*
X00736855Y00780791*
X00736751Y00780601*
X00736681Y00780444*
X00736629Y00780323*
X00736612Y00780236*
X00736594Y00780202*
X00736508Y00779924*
X00736456Y00779594*
X00736404Y00779265*
X00736386Y00778935*
X00736369Y00778640*
X00736352Y00778519*
Y00778415*
Y00778311*
Y00778241*
Y00778207*
Y00778189*
X00736369Y00777721*
X00736386Y00777305*
X00736421Y00776940*
X00736473Y00776645*
X00736525Y00776402*
X00736560Y00776229*
X00736577Y00776177*
Y00776125*
X00736594Y00776107*
Y00776090*
X00736681Y00775830*
X00736785Y00775604*
X00736872Y00775414*
X00736976Y00775257*
X00737063Y00775136*
X00737115Y00775067*
X00737167Y00775014*
X00737184Y00774997*
X00737323Y00774876*
X00737479Y00774789*
X00737792Y00774633*
X00737913Y00774598*
X00738017Y00774563*
X00738104Y00774529*
X00738121*
X00738295Y00774494*
X00738503Y00774477*
X00738746Y00774442*
X00738954*
X00739162Y00774425*
X00741192*
Y00781971*
G37*
G36*
X00731805Y00707091D02*
X00730665Y00704066D01*
X00732909*
X00731805Y00707091*
G37*
G36*
X00805321Y00707611D02*
X00803450D01*
X00803338Y00707599*
X00803090*
X00802979Y00707587*
X00802917*
X00802879Y00707574*
X00802867*
X00802731Y00707537*
X00802607Y00707500*
X00802508Y00707450*
X00802421Y00707388*
X00802346Y00707339*
X00802297Y00707289*
X00802272Y00707264*
X00802260Y00707252*
X00802185Y00707153*
X00802136Y00707041*
X00802086Y00706930*
X00802061Y00706831*
X00802049Y00706744*
X00802037Y00706669*
Y00706607*
Y00706595*
X00802049Y00706459*
X00802061Y00706347*
X00802086Y00706236*
X00802123Y00706149*
X00802161Y00706074*
X00802185Y00706025*
X00802198Y00705988*
X00802210Y00705975*
X00802272Y00705889*
X00802346Y00705826*
X00802495Y00705715*
X00802570Y00705690*
X00802619Y00705665*
X00802656Y00705641*
X00802669*
X00802731Y00705628*
X00802818Y00705603*
X00802904Y00705591*
X00803016Y00705579*
X00803251Y00705566*
X00803499Y00705554*
X00803735Y00705541*
X00805321*
Y00707611*
G37*
G36*
X00782588D02*
X00781510D01*
X00781361Y00707599*
X00781225*
X00781101Y00707587*
X00781002*
X00780903Y00707574*
X00780816*
X00780680Y00707550*
X00780593Y00707537*
X00780531Y00707525*
X00780518*
X00780357Y00707475*
X00780209Y00707426*
X00780072Y00707364*
X00779973Y00707301*
X00779886Y00707240*
X00779812Y00707190*
X00779775Y00707153*
X00779762Y00707140*
X00779651Y00707029*
X00779564Y00706892*
X00779490Y00706769*
X00779415Y00706632*
X00779366Y00706521*
X00779329Y00706434*
X00779316Y00706372*
X00779304Y00706347*
X00779242Y00706149*
X00779205Y00705913*
X00779167Y00705678*
X00779155Y00705442*
X00779143Y00705231*
X00779130Y00705145*
Y00705070*
Y00704996*
Y00704947*
Y00704922*
Y00704909*
X00779143Y00704575*
X00779155Y00704277*
X00779180Y00704017*
X00779217Y00703806*
X00779254Y00703633*
X00779279Y00703509*
X00779291Y00703471*
Y00703434*
X00779304Y00703422*
Y00703409*
X00779366Y00703223*
X00779440Y00703062*
X00779502Y00702926*
X00779576Y00702814*
X00779639Y00702728*
X00779676Y00702678*
X00779713Y00702641*
X00779725Y00702629*
X00779824Y00702542*
X00779936Y00702480*
X00780159Y00702368*
X00780246Y00702344*
X00780320Y00702319*
X00780382Y00702294*
X00780395*
X00780518Y00702269*
X00780667Y00702257*
X00780841Y00702232*
X00780990*
X00781138Y00702220*
X00782588*
Y00707611*
G37*
M02*