%FSDAX44Y44*%
%MOMM*%
%SFA1B1*%

%IPPOS*%
%ADD10C,0.299999*%
%ADD31C,0.100000*%
%ADD41C,1.703197*%
%ADD42C,0.803198*%
%ADD43C,1.203198*%
%ADD44C,1.403197*%
%ADD45C,1.003198*%
%ADD46C,0.050000*%
%LNBot_mask-1*%
%LPD*%
G36*
X00886146Y00750930D02*
X00885463Y00742320D01*
X00884107Y00733789*
X00882086Y00725391*
X00879413Y00717178*
X00876105Y00709199*
X00872181Y00701504*
X00867666Y00694141*
X00862587Y00687154*
X00856976Y00680587*
X00850868Y00674480*
X00844299Y00668871*
X00837311Y00663793*
X00829947Y00659280*
X00822251Y00655358*
X00814272Y00652051*
X00806058Y00649380*
X00797659Y00647361*
X00789128Y00646007*
X00780518Y00645326*
X00776199Y00645324*
X00776257Y00680393*
Y00680394*
X00779413Y00680463*
X00785701Y00680998*
X00791922Y00682060*
X00798032Y00683642*
X00803987Y00685731*
X00809745Y00688314*
X00815266Y00691372*
X00820510Y00694883*
X00825441Y00698823*
X00830022Y00703163*
X00834223Y00707873*
X00838013Y00712919*
X00839745Y00715558*
X00841094Y00717795*
X00843553Y00722403*
X00845686Y00727171*
X00847482Y00732076*
X00848932Y00737094*
X00850030Y00742201*
X00850769Y00747372*
X00851146Y00752582*
X00851199Y00755193*
X00886149Y00755249*
X00886146Y00750930*
G37*
G36*
X00701199Y00755193D02*
D01*
X00701252Y00752582*
X00701629Y00747372*
X00702368Y00742201*
X00703466Y00737094*
X00704916Y00732076*
X00706712Y00727171*
X00708845Y00722403*
X00711304Y00717795*
X00712653Y00715558*
X00714385Y00712919*
X00718175Y00707873*
X00722376Y00703163*
X00726957Y00698823*
X00731888Y00694883*
X00737132Y00691372*
X00742653Y00688314*
X00748411Y00685731*
X00754366Y00683642*
X00760476Y00682060*
X00766697Y00680998*
X00772985Y00680463*
X00776141Y00680394*
Y00680393*
X00776199Y00645324*
X00771880Y00645326*
X00763270Y00646007*
X00754739Y00647361*
X00746340Y00649380*
X00738126Y00652051*
X00730147Y00655358*
X00722451Y00659280*
X00715086Y00663793*
X00708099Y00668871*
X00701530Y00674480*
X00695422Y00680587*
X00689811Y00687154*
X00684732Y00694141*
X00680217Y00701504*
X00676293Y00709199*
X00672985Y00717178*
X00670312Y00725391*
X00668291Y00733789*
X00666935Y00742320*
X00666252Y00750930*
X00666249Y00755249*
X00701199Y00755193*
G37*
G36*
X00776759Y00783749D02*
X00778644D01*
X00782380Y00783257*
X00786021Y00782282*
X00789502Y00780839*
X00792766Y00778955*
X00795756Y00776661*
X00798421Y00773996*
X00800715Y00771006*
X00802600Y00767742*
X00804042Y00764260*
X00805017Y00760620*
X00805509Y00756883*
Y00754999*
X00805475Y00753114*
X00804917Y00749387*
X00803877Y00745764*
X00802373Y00742307*
X00800431Y00739077*
X00798084Y00736128*
X00795371Y00733510*
X00792341Y00731269*
X00789043Y00729443*
X00785536Y00728062*
X00781879Y00727152*
X00778133Y00726726*
X00776249Y00726759*
X00774398*
X00770728Y00727243*
X00767152Y00728201*
X00763732Y00729617*
X00760526Y00731468*
X00757589Y00733722*
X00754972Y00736339*
X00752718Y00739276*
X00750867Y00742482*
X00749451Y00745902*
X00748493Y00749478*
X00748009Y00753148*
Y00754999*
Y00756883*
X00748501Y00760620*
X00749477Y00764260*
X00750919Y00767742*
X00752803Y00771006*
X00755097Y00773996*
X00757762Y00776661*
X00760752Y00778955*
X00764016Y00780840*
X00767498Y00782282*
X00771139Y00783257*
X00774875Y00783749*
X00776759*
G37*
G36*
X00776199Y00865174D02*
X00780518Y00865172D01*
X00789128Y00864491*
X00797659Y00863137*
X00806058Y00861118*
X00814272Y00858447*
X00822251Y00855140*
X00829947Y00851218*
X00837311Y00846704*
X00844299Y00841627*
X00850868Y00836018*
X00856976Y00829911*
X00862587Y00823344*
X00867666Y00816357*
X00872181Y00808994*
X00876105Y00801299*
X00879413Y00793320*
X00882086Y00785107*
X00884107Y00776709*
X00885463Y00768178*
X00886146Y00759568*
X00886149Y00755249*
X00851199Y00755304*
X00851146Y00757916*
X00850769Y00763126*
X00850030Y00768297*
X00848932Y00773404*
X00847482Y00778422*
X00845686Y00783327*
X00843553Y00788095*
X00841094Y00792703*
X00839745Y00794940*
X00838013Y00797579*
X00834223Y00802625*
X00830022Y00807335*
X00825441Y00811675*
X00820510Y00815615*
X00815266Y00819126*
X00809745Y00822184*
X00803987Y00824767*
X00798032Y00826856*
X00791922Y00828438*
X00785701Y00829500*
X00779413Y00830035*
X00776257Y00830104*
Y00830105*
X00776199Y00865174*
G37*
G36*
X00776141Y00830105D02*
Y00830104D01*
X00772985Y00830035*
X00766697Y00829500*
X00760476Y00828438*
X00754366Y00826856*
X00748411Y00824767*
X00742653Y00822184*
X00737132Y00819126*
X00731888Y00815615*
X00726957Y00811675*
X00722376Y00807335*
X00718175Y00802625*
X00714385Y00797579*
X00712653Y00794940*
X00711304Y00792703*
X00708845Y00788095*
X00706712Y00783327*
X00704916Y00778422*
X00703466Y00773404*
X00702368Y00768297*
X00701629Y00763126*
X00701252Y00757916*
X00701199Y00755304*
X00666249Y00755249*
X00666252Y00759568*
X00666935Y00768178*
X00668291Y00776709*
X00670312Y00785107*
X00672985Y00793320*
X00676293Y00801299*
X00680217Y00808994*
X00684732Y00816357*
X00689811Y00823344*
X00695422Y00829911*
X00701530Y00836018*
X00708099Y00841627*
X00715086Y00846704*
X00722451Y00851218*
X00730147Y00855140*
X00738126Y00858447*
X00746340Y00861118*
X00754739Y00863137*
X00763270Y00864491*
X00771880Y00865172*
X00776199Y00865174*
X00776141Y00830105*
G37*
G54D10*
X00666249Y00755249D02*
D01*
X00666523Y00747576*
X00667330Y00739941*
X00668669Y00732381*
X00670531Y00724932*
X00672909Y00717632*
X00675790Y00710515*
X00679160Y00703616*
X00683004Y00696970*
X00687302Y00690607*
X00692033Y00684560*
X00697174Y00678858*
X00702701Y00673528*
X00708586Y00668597*
X00714800Y00664088*
X00721314Y00660024*
X00728096Y00656424*
X00735112Y00653306*
X00742329Y00650685*
X00749711Y00648574*
X00757222Y00646982*
X00764826Y00645919*
X00772485Y00645389*
X00776199Y00645324*
D01*
X00783872Y00645596*
X00791508Y00646402*
X00799069Y00647739*
X00806518Y00649599*
X00813819Y00651975*
X00820936Y00654855*
X00827835Y00658224*
X00834483Y00662065*
X00840846Y00666362*
X00846894Y00671092*
X00852598Y00676232*
X00857929Y00681757*
X00862861Y00687641*
X00867371Y00693855*
X00871437Y00700368*
X00875039Y00707148*
X00878158Y00714164*
X00880781Y00721380*
X00882894Y00728762*
X00884487Y00736272*
X00885552Y00743876*
X00886084Y00751535*
X00886149Y00755249*
D01*
X00885876Y00762922*
X00885068Y00770558*
X00883730Y00778118*
X00881867Y00785567*
X00879490Y00792867*
X00876609Y00799984*
X00873238Y00806883*
X00869395Y00813529*
X00865097Y00819891*
X00860366Y00825938*
X00855225Y00831641*
X00849698Y00836970*
X00843813Y00841902*
X00837599Y00846411*
X00831084Y00850475*
X00824303Y00854075*
X00817287Y00857193*
X00810070Y00859814*
X00802688Y00861925*
X00795177Y00863516*
X00787573Y00864580*
X00779913Y00865110*
X00776199Y00865174*
D01*
X00768526Y00864903*
X00760891Y00864097*
X00753330Y00862760*
X00745881Y00860899*
X00738580Y00858524*
X00731463Y00855644*
X00724563Y00852275*
X00717916Y00848433*
X00711553Y00844137*
X00705504Y00839407*
X00699801Y00834267*
X00694470Y00828742*
X00689537Y00822858*
X00685027Y00816644*
X00680962Y00810131*
X00677360Y00803350*
X00674240Y00796335*
X00671618Y00789119*
X00669505Y00781737*
X00667912Y00774227*
X00666847Y00766623*
X00666315Y00758963*
X00666249Y00755249*
G54D31*
X00712653Y00715558D02*
D01*
X00715587Y00711223*
X00718816Y00707102*
X00722324Y00703217*
X00726095Y00699586*
X00730110Y00696227*
X00734350Y00693156*
X00738794Y00690388*
X00743419Y00687937*
X00748205Y00685815*
X00753127Y00684032*
X00758161Y00682596*
X00763283Y00681515*
X00768468Y00680794*
X00773690Y00680436*
X00776141Y00680394*
Y00680393*
X00776199Y00645324*
Y00645270*
Y00645324*
X00776257Y00680393*
Y00680394*
D01*
X00781489Y00680581*
X00786695Y00681132*
X00791850Y00682045*
X00796928Y00683316*
X00801905Y00684937*
X00806758Y00686902*
X00811461Y00689201*
X00815993Y00691822*
X00820330Y00694752*
X00824453Y00697978*
X00828340Y00701484*
X00831974Y00705253*
X00835336Y00709266*
X00838410Y00713503*
X00839745Y00715558*
D01*
X00842369Y00720088*
X00844671Y00724790*
X00846639Y00729641*
X00848264Y00734617*
X00849538Y00739695*
X00850454Y00744849*
X00851009Y00750054*
X00851199Y00755193*
Y00755304D02*
D01*
X00851003Y00760536*
X00850442Y00765740*
X00849519Y00770893*
X00848239Y00775970*
X00846608Y00780944*
X00844634Y00785792*
X00842326Y00790491*
X00839745Y00794940*
D01*
X00836812Y00799276*
X00833583Y00803397*
X00830074Y00807282*
X00826303Y00810913*
X00822288Y00814272*
X00818049Y00817343*
X00813605Y00820111*
X00808980Y00822561*
X00804194Y00824684*
X00799272Y00826467*
X00794238Y00827903*
X00789116Y00828984*
X00783931Y00829705*
X00778708Y00830062*
X00776257Y00830104*
Y00830105*
X00776199Y00865174*
Y00865228*
Y00865174*
X00776141Y00830105*
Y00830104*
D01*
X00770910Y00829918*
X00765704Y00829366*
X00760549Y00828453*
X00755471Y00827183*
X00750493Y00825561*
X00745641Y00823597*
X00740938Y00821298*
X00736406Y00818677*
X00732069Y00815747*
X00727946Y00812520*
X00724058Y00809015*
X00720425Y00805246*
X00717063Y00801233*
X00713989Y00796996*
X00712653Y00794940*
D01*
X00710029Y00790411*
X00707728Y00785709*
X00705760Y00780858*
X00704135Y00775882*
X00702861Y00770804*
X00701945Y00765650*
X00701390Y00760445*
X00701199Y00755304*
Y00755193D02*
D01*
X00701396Y00749962*
X00701957Y00744757*
X00702880Y00739604*
X00704160Y00734528*
X00705791Y00729554*
X00707765Y00724705*
X00710072Y00720006*
X00712653Y00715558*
G54D41*
X00725749Y00716749D03*
X00722999Y00778249D03*
X00732536Y00800100D03*
G54D42*
X00725212Y00694175D03*
X00736549Y00686237D03*
X00715425Y00703962D03*
X00748702Y00680549D03*
X00762461Y00676805D03*
X00775511Y00675193D03*
X00790037Y00676805D03*
X00803063Y00681327D03*
X00815949Y00686237D03*
X00827286Y00694175D03*
X00837073Y00703962D03*
X00850861Y00727843D03*
X00854443Y00741211D03*
X00855649Y00755193D03*
X00846249Y00758499D03*
X00839749D03*
X00846249Y00748999D03*
X00854443Y00768787D03*
X00850861Y00782155D03*
X00844737Y00794967D03*
X00827286Y00815823D03*
X00815607Y00824047D03*
X00837073Y00806036D03*
X00790037Y00833193D03*
X00812499Y00807349D03*
Y00800449D03*
Y00793549D03*
Y00786649D03*
Y00779749D03*
Y00760499D03*
X00813999Y00734749D03*
X00821999D03*
X00817749Y00719249D03*
X00814249Y00747499D03*
X00814499Y00753999D03*
X00833249Y00758499D03*
X00762461Y00833193D03*
X00737370Y00824047D03*
X00725212Y00815823D03*
X00715425Y00806036D03*
X00707487Y00794699D03*
X00701637Y00782155D03*
X00698055Y00768787D03*
X00696850Y00755304D03*
X00698055Y00741211D03*
X00701637Y00727843D03*
X00707487Y00715299D03*
G54D43*
X00832487Y00783217D03*
G54D44*
X00737362Y00759206D03*
G54D45*
X00813999Y00771999D03*
G54D46*
X00701199Y00755193D02*
X00666304D01*
Y00755304D02*
X00701199D01*
X00851199D02*
X00886094D01*
Y00755193D02*
X00851199D01*
M02*