M48
;Layer_Color=6377999
;FILE_FORMAT=4:4
METRIC
;TYPE=PLATED
T1F00S00C0.2000
T2F00S00C0.3000
T3F00S00C0.5000
T4F00S00C0.7000
T5F00S00C0.9000
%
T01
X00769750Y00717376
X00769750Y00728376
Y00739376
X00780750
X00780750Y00728376
X00780750Y00717376
T02
X00803064Y00681328
X00815950Y00686238
X00827287Y00694176
X00837074Y00703963
X00850862Y00727844
X00854444Y00741212
X00855650Y00755194
X00848250Y00758250
Y00770250
X00854444Y00768788
X00850862Y00782156
X00839500Y00781000
X00831500Y00770250
Y00758250
X00844750Y00749750
X00818000Y00740000
X00814000Y00734750
X00822000
X00818000Y00729250
X00815250Y00721500
X00800750Y00700750
X00800750Y00745500
X00804500Y00750500
X00797000
X00812500Y00779750
Y00786650
Y00793550
X00793250Y00745500
X00743500Y00748750
X00698056Y00741212
X00696851Y00755305
X00698056Y00768788
X00701638Y00782156
Y00727844
X00707488Y00715300
X00715426Y00703963
X00725213Y00694176
X00742500Y00694000
X00736550Y00686238
X00748703Y00680550
X00779750Y00687250
X00779500Y00702500
X00707488Y00794700
X00715426Y00806037
X00725213Y00815824
X00812500Y00807350
Y00800450
X00827287Y00815824
X00837074Y00806037
X00844738Y00794968
T03
X00814000Y00772000
T04
X00819750Y00709500
X00839750Y00765750
T05
X00725750Y00716750
X00723000Y00778250
X00732536Y00800100
M30
