M48
;Layer_Color=9474304
;FILE_FORMAT=4:4
METRIC
;TYPE=PLATED
T1F00S00C0.3000
T2F00S00C0.5000
T3F00S00C0.7000
T4F00S00C0.9000
%
T01
X00803064Y00681328
X00805750Y00696000
X00815950Y00686238
X00827287Y00694176
X00837074Y00703963
X00817750Y00719250
X00818000Y00729250
X00814000Y00734750
X00822000
X00818000Y00740000
X00814250Y00747500
X00814500Y00754000
X00812500Y00760500
Y00779750
Y00786650
Y00793550
X00850862Y00782156
X00854444Y00768788
X00855650Y00755194
X00846250Y00758500
X00839750
X00833250
X00846250Y00749000
X00854444Y00741212
X00850862Y00727844
X00784750Y00723000
X00788000Y00709876
X00774750Y00715250
X00764750Y00709750
X00765750Y00723000
X00780000Y00698500
X00779750Y00687250
X00775512Y00675194
X00762462Y00676806
X00748703Y00680550
X00736550Y00686238
X00725213Y00694176
X00715426Y00703963
X00707488Y00715300
X00701638Y00727844
X00698056Y00741212
X00696851Y00755305
X00698056Y00768788
X00701638Y00782156
X00723250Y00759250
X00734250Y00748500
X00746000Y00697000
X00790038Y00676806
Y00833194
X00762462
X00737371Y00824048
X00725213Y00815824
X00715426Y00806037
X00707488Y00794700
X00812500Y00800450
Y00807350
X00815608Y00824048
X00827287Y00815824
X00837074Y00806037
X00844738Y00794968
T02
X00819250Y00707000
X00814000Y00772000
T03
X00832488Y00783218
X00737362Y00759206
T04
X00725750Y00716750
X00723000Y00778250
X00732536Y00800100
M30
