G04 Layer_Physical_Order=2*
G04 Layer_Color=16711680*
%FSLAX25Y25*%
%MOIN*%
G70*
G01*
G75*
%ADD10C,0.01181*%
%ADD20C,0.01000*%
%ADD23C,0.03000*%
%ADD29C,0.05906*%
%ADD30C,0.02362*%
%ADD31C,0.03937*%
%ADD32C,0.04724*%
%ADD33C,0.03150*%
%ADD34C,0.01969*%
%ADD35C,0.05000*%
%ADD36C,0.04724*%
%ADD37C,0.03937*%
%ADD38C,0.02300*%
%ADD39R,0.05512X0.08169*%
G36*
X310760Y341002D02*
X314169Y340465D01*
X317526Y339661D01*
X320809Y338597D01*
X323999Y337278D01*
X327075Y335713D01*
X330019Y333911D01*
X332812Y331884D01*
X335438Y329644D01*
X337879Y327204D01*
X340122Y324581D01*
X342151Y321789D01*
X343955Y318847D01*
X345523Y315772D01*
X346845Y312583D01*
X347912Y309301D01*
X348718Y305945D01*
X349258Y302536D01*
X349529Y299095D01*
Y297488D01*
Y295546D01*
X349258Y292105D01*
X348718Y288696D01*
X347912Y285340D01*
X346845Y282058D01*
X345523Y278870D01*
X343955Y275795D01*
X342151Y272852D01*
X340122Y270061D01*
X337879Y267437D01*
X335438Y264998D01*
X332812Y262757D01*
X330019Y260730D01*
X327075Y258928D01*
X323999Y257363D01*
X320809Y256044D01*
X317526Y254980D01*
X314169Y254176D01*
X310760Y253639D01*
X307319Y253371D01*
X305593Y253373D01*
Y253373D01*
X303960Y253374D01*
X300703Y253619D01*
X297474Y254106D01*
X294289Y254831D01*
X291167Y255791D01*
X288125Y256980D01*
X285180Y258393D01*
X282347Y260019D01*
X279644Y261852D01*
X277084Y263881D01*
X274682Y266094D01*
X272451Y268480D01*
X271427Y269752D01*
X271427D01*
X271427Y269752D01*
X270260Y271203D01*
X268180Y274291D01*
X266369Y277545D01*
X264839Y280940D01*
X263603Y284453D01*
X262668Y288057D01*
X262042Y291728D01*
X261730Y295439D01*
X261731Y297321D01*
X261730Y299203D01*
X262042Y302913D01*
X262668Y306584D01*
X263603Y310189D01*
X264839Y313701D01*
X266369Y317096D01*
X268180Y320350D01*
X270260Y323438D01*
X271427Y324889D01*
X272451Y326161D01*
X274682Y328547D01*
X277084Y330760D01*
X279644Y332789D01*
X282347Y334622D01*
X285180Y336249D01*
X288125Y337661D01*
X291167Y338850D01*
X294289Y339810D01*
X297474Y340535D01*
X300703Y341022D01*
X303960Y341267D01*
X305385Y341269D01*
D01*
X305593Y341269D01*
X307319Y341270D01*
X310760Y341002D01*
D02*
G37*
%LPC*%
G36*
X270520Y294440D02*
X269761Y294307D01*
X269617Y294251D01*
X269473Y294196D01*
X268820Y293787D01*
X268708Y293681D01*
X268595Y293576D01*
X268144Y292951D01*
X268080Y292811D01*
X268016Y292670D01*
X267834Y291921D01*
X267828Y291768D01*
X267820Y291613D01*
X267878Y291232D01*
X267879Y291229D01*
X267879Y291225D01*
X268109Y289775D01*
X268120Y289745D01*
X268121Y289713D01*
X268808Y286857D01*
X268821Y286828D01*
X268825Y286797D01*
X269733Y284003D01*
X269749Y283976D01*
X269755Y283944D01*
X270880Y281231D01*
X270898Y281205D01*
X270906Y281174D01*
X272240Y278557D01*
X272260Y278532D01*
X272271Y278502D01*
X273806Y275998D01*
X273828Y275974D01*
X273841Y275946D01*
X275568Y273569D01*
X275591Y273548D01*
X275607Y273520D01*
X277514Y271287D01*
X277539Y271267D01*
X277557Y271240D01*
X279634Y269163D01*
X279661Y269146D01*
X279680Y269121D01*
X281914Y267213D01*
X281942Y267197D01*
X281963Y267174D01*
X284339Y265447D01*
X284368Y265434D01*
X284392Y265412D01*
X286896Y263877D01*
X286926Y263866D01*
X286951Y263846D01*
X289567Y262513D01*
X289598Y262504D01*
X289625Y262486D01*
X292338Y261362D01*
X292369Y261355D01*
X292397Y261340D01*
X295190Y260431D01*
X295222Y260427D01*
X295251Y260414D01*
X298107Y259727D01*
X298139Y259726D01*
X298169Y259715D01*
X299619Y259485D01*
X299623Y259485D01*
X299626Y259484D01*
X300007Y259427D01*
X300161Y259434D01*
X300315Y259440D01*
X301064Y259622D01*
X301204Y259687D01*
X301344Y259751D01*
X301970Y260201D01*
X302074Y260314D01*
X302181Y260426D01*
X302590Y261079D01*
X302645Y261223D01*
X302700Y261367D01*
X302833Y262127D01*
X302830Y262281D01*
X302827Y262435D01*
X302664Y263188D01*
X302602Y263329D01*
X302542Y263472D01*
X302106Y264108D01*
X301996Y264215D01*
X301887Y264324D01*
X301243Y264749D01*
X301101Y264807D01*
X300958Y264866D01*
X300812Y264896D01*
X300791Y264912D01*
X300680Y264944D01*
X300572Y264986D01*
X298878Y265298D01*
X295560Y266183D01*
X292364Y267407D01*
X291283Y267956D01*
X289312Y268958D01*
X286440Y270820D01*
X283779Y272972D01*
X281358Y275392D01*
X279203Y278051D01*
X277338Y280921D01*
X276285Y282986D01*
X275783Y283971D01*
X274557Y287166D01*
X273669Y290483D01*
X273355Y292177D01*
X273320Y292266D01*
X273260Y292565D01*
X273201Y292707D01*
X273143Y292850D01*
X272718Y293493D01*
X272609Y293602D01*
X272501Y293713D01*
X271865Y294148D01*
X271723Y294209D01*
X271582Y294270D01*
X270829Y294433D01*
X270675Y294436D01*
X270520Y294440D01*
D02*
G37*
G36*
X334935Y297565D02*
X334935Y297077D01*
X335051Y297314D01*
X335062Y297321D01*
X335051Y297328D01*
X334935Y297565D01*
D02*
G37*
G36*
X307160Y267956D02*
X304087D01*
X304970Y267930D01*
X305464Y267915D01*
X305673Y267915D01*
X305673Y267915D01*
X305725Y267915D01*
Y267915D01*
X307160Y267956D01*
X307160D01*
D02*
G37*
G36*
X340700Y294440D02*
X340546Y294436D01*
X340392Y294433D01*
X339638Y294270D01*
X339497Y294209D01*
X339355Y294148D01*
X338719Y293713D01*
X338611Y293602D01*
X338503Y293493D01*
X338078Y292850D01*
X338020Y292707D01*
X337960Y292565D01*
X337916Y292343D01*
X337913Y292338D01*
X337896Y292255D01*
X337865Y292177D01*
X337552Y290483D01*
X336664Y287166D01*
X335437Y283971D01*
X334940Y282995D01*
X333883Y280921D01*
X332018Y278051D01*
X329863Y275392D01*
X327442Y272972D01*
X324780Y270820D01*
X321908Y268958D01*
X319937Y267956D01*
D01*
X318857Y267407D01*
X315660Y266183D01*
X312343Y265298D01*
X310649Y264986D01*
X310541Y264943D01*
X310429Y264912D01*
X310408Y264896D01*
X310262Y264866D01*
X310119Y264807D01*
X309977Y264749D01*
X309334Y264324D01*
X309225Y264216D01*
X309114Y264108D01*
X308679Y263472D01*
X308618Y263330D01*
X308557Y263188D01*
X308394Y262435D01*
X308391Y262282D01*
X308387Y262127D01*
X308520Y261367D01*
X308576Y261223D01*
X308631Y261079D01*
X309040Y260426D01*
X309146Y260314D01*
X309251Y260201D01*
X309876Y259751D01*
X310016Y259687D01*
X310156Y259622D01*
X310905Y259440D01*
X311059Y259434D01*
X311213Y259427D01*
X311595Y259484D01*
X311598Y259485D01*
X311601Y259485D01*
X313052Y259715D01*
X313082Y259726D01*
X313114Y259727D01*
X315969Y260414D01*
X315998Y260427D01*
X316030Y260431D01*
X318823Y261340D01*
X318851Y261355D01*
X318882Y261362D01*
X321596Y262486D01*
X321622Y262504D01*
X321653Y262513D01*
X324270Y263846D01*
X324295Y263866D01*
X324325Y263877D01*
X326829Y265412D01*
X326852Y265434D01*
X326881Y265447D01*
X329257Y267174D01*
X329279Y267197D01*
X329307Y267213D01*
X331540Y269121D01*
X331560Y269146D01*
X331586Y269163D01*
X333663Y271240D01*
X333681Y271267D01*
X333706Y271287D01*
X335614Y273520D01*
X335629Y273548D01*
X335653Y273569D01*
X337379Y275946D01*
X337393Y275974D01*
X337414Y275998D01*
X338949Y278502D01*
X338961Y278532D01*
X338980Y278557D01*
X340314Y281174D01*
X340323Y281205D01*
X340341Y281231D01*
X341465Y283944D01*
X341472Y283976D01*
X341487Y284003D01*
X342396Y286797D01*
X342399Y286828D01*
X342413Y286857D01*
X343099Y289713D01*
X343101Y289745D01*
X343112Y289775D01*
X343342Y291225D01*
X343342Y291229D01*
X343343Y291232D01*
X343400Y291613D01*
X343393Y291768D01*
X343387Y291921D01*
X343205Y292670D01*
X343140Y292810D01*
X343076Y292951D01*
X342625Y293576D01*
X342513Y293681D01*
X342400Y293787D01*
X341747Y294196D01*
X341603Y294251D01*
X341459Y294307D01*
X340700Y294440D01*
D02*
G37*
G36*
X319882Y320186D02*
X318989Y320009D01*
X318233Y319503D01*
X317727Y318747D01*
X317550Y317854D01*
Y316625D01*
X317475Y316528D01*
X317197Y315857D01*
X317102Y315138D01*
Y312421D01*
Y309705D01*
Y306988D01*
Y304528D01*
X317197Y303808D01*
X317367Y303399D01*
X317404Y303115D01*
X317721Y302349D01*
X318141Y301802D01*
Y291339D01*
X318164Y291165D01*
X318132Y291117D01*
X317887Y290526D01*
X317872Y290449D01*
X317841Y290376D01*
X317717Y289748D01*
Y289669D01*
X317701Y289592D01*
Y288942D01*
X317717Y288864D01*
Y288785D01*
X317845Y288139D01*
X317875Y288066D01*
X317891Y287988D01*
X318143Y287379D01*
X318187Y287314D01*
X318217Y287241D01*
X318583Y286692D01*
X318639Y286636D01*
X318683Y286571D01*
X319114Y286140D01*
X319159Y286036D01*
X319216Y285607D01*
X319042Y285347D01*
X318981Y285039D01*
Y284171D01*
X318957Y284055D01*
X318981Y283939D01*
Y276870D01*
X319042Y276563D01*
X319061Y276533D01*
Y276331D01*
X317370Y274639D01*
X296705D01*
X294029Y277315D01*
Y291950D01*
X294048Y292484D01*
X294098Y293034D01*
X294127Y293226D01*
X294158Y293371D01*
X294174Y293422D01*
X294571Y294015D01*
X294724Y294783D01*
X294571Y295551D01*
X294136Y296203D01*
X293485Y296638D01*
X292717Y296791D01*
X291949Y296638D01*
X291297Y296203D01*
X290862Y295551D01*
X290709Y294783D01*
X290862Y294015D01*
X291259Y293422D01*
X291275Y293371D01*
X291299Y293257D01*
X291404Y291842D01*
Y277715D01*
X290904Y277559D01*
X290542Y278036D01*
X290162Y278617D01*
X289861Y279171D01*
X289636Y279697D01*
X289485Y280193D01*
X289402Y280661D01*
X289384Y281103D01*
X289434Y281584D01*
X289429Y281638D01*
X289501Y282185D01*
X289372Y283161D01*
X288995Y284071D01*
X288396Y284853D01*
X287615Y285452D01*
X286705Y285829D01*
X285728Y285958D01*
X284752Y285829D01*
X283842Y285452D01*
X283061Y284853D01*
X282461Y284071D01*
X282084Y283161D01*
X281956Y282185D01*
X282084Y281209D01*
X282461Y280299D01*
X283061Y279518D01*
X283842Y278918D01*
X284064Y278826D01*
X284332Y278426D01*
X290813Y271944D01*
X290904Y271809D01*
X291555Y271374D01*
X292047Y271276D01*
D01*
D01*
X292323Y271221D01*
X293091Y271374D01*
X293742Y271809D01*
X294177Y272460D01*
X294225Y272700D01*
X294767Y272865D01*
X295233Y272399D01*
X295659Y272114D01*
X296161Y272014D01*
X317913D01*
X318416Y272114D01*
X318842Y272399D01*
X321302Y274859D01*
X321587Y275285D01*
X321687Y275787D01*
Y276067D01*
X325295D01*
X325603Y276128D01*
X325863Y276302D01*
X326037Y276563D01*
X326098Y276870D01*
Y285039D01*
X326037Y285347D01*
X325863Y285607D01*
X325603Y285781D01*
X325374Y285826D01*
X325249Y286047D01*
X325183Y286342D01*
X325411Y286571D01*
X325455Y286636D01*
X325511Y286692D01*
X325877Y287241D01*
X325907Y287314D01*
X325951Y287379D01*
X326204Y287988D01*
X326219Y288066D01*
X326249Y288139D01*
X326378Y288785D01*
Y288864D01*
X326393Y288942D01*
Y289592D01*
X326378Y289669D01*
Y289748D01*
X326253Y290376D01*
X326223Y290449D01*
X326207Y290526D01*
X325963Y291117D01*
X325919Y291183D01*
X325888Y291256D01*
X325533Y291788D01*
X325477Y291844D01*
X325433Y291910D01*
X324981Y292362D01*
X324915Y292406D01*
X324859Y292462D01*
X324773Y292520D01*
Y302953D01*
X324659Y303811D01*
X324328Y304611D01*
X323801Y305297D01*
X323115Y305824D01*
X323052Y305850D01*
X322719Y306183D01*
X322662Y306227D01*
Y309705D01*
Y312421D01*
Y315138D01*
X322567Y315857D01*
X322289Y316528D01*
X322234Y316599D01*
X322214Y317113D01*
Y317854D01*
X322037Y318747D01*
X321531Y319503D01*
X320774Y320009D01*
X319882Y320186D01*
D02*
G37*
G36*
X288400Y318772D02*
X287424Y318644D01*
X286514Y318267D01*
X285733Y317668D01*
X285133Y316886D01*
X284756Y315976D01*
X284628Y315000D01*
X284756Y314024D01*
X285133Y313114D01*
X285733Y312333D01*
X286514Y311733D01*
X287424Y311356D01*
X288400Y311228D01*
X289376Y311356D01*
X290286Y311733D01*
X291068Y312333D01*
X291667Y313114D01*
X292044Y314024D01*
X292172Y315000D01*
X292044Y315976D01*
X291667Y316886D01*
X291068Y317668D01*
X290286Y318267D01*
X289376Y318644D01*
X288400Y318772D01*
D02*
G37*
G36*
X305688Y326762D02*
X305673Y326726D01*
X305662D01*
X305725D01*
X305725Y326726D01*
X305688Y326762D01*
D02*
G37*
G36*
X300007Y335062D02*
X299626Y335004D01*
X299623Y335003D01*
X299619Y335003D01*
X298169Y334773D01*
X298139Y334762D01*
X298107Y334761D01*
X295251Y334074D01*
X295222Y334061D01*
X295190Y334057D01*
X292397Y333149D01*
X292369Y333133D01*
X292338Y333127D01*
X289625Y332002D01*
X289598Y331984D01*
X289568Y331976D01*
X286951Y330642D01*
X286926Y330622D01*
X286896Y330611D01*
X284392Y329076D01*
X284368Y329054D01*
X284339Y329041D01*
X281963Y327314D01*
X281942Y327291D01*
X281914Y327275D01*
X279680Y325367D01*
X279661Y325342D01*
X279634Y325325D01*
X277557Y323248D01*
X277539Y323221D01*
X277514Y323201D01*
X275607Y320968D01*
X275591Y320940D01*
X275568Y320919D01*
X273841Y318543D01*
X273828Y318514D01*
X273806Y318490D01*
X272271Y315986D01*
X272260Y315956D01*
X272240Y315931D01*
X270906Y313314D01*
X270898Y313284D01*
X270880Y313257D01*
X269755Y310544D01*
X269749Y310512D01*
X269733Y310485D01*
X268825Y307692D01*
X268821Y307660D01*
X268808Y307631D01*
X268121Y304775D01*
X268120Y304743D01*
X268109Y304713D01*
X267879Y303263D01*
X267879Y303259D01*
X267878Y303256D01*
X267820Y302875D01*
X267828Y302720D01*
X267834Y302567D01*
X268016Y301818D01*
X268080Y301678D01*
X268144Y301537D01*
X268595Y300912D01*
X268707Y300808D01*
X268820Y300701D01*
X269473Y300292D01*
X269617Y300237D01*
X269761Y300181D01*
X270520Y300049D01*
X270675Y300052D01*
X270829Y300055D01*
X271582Y300218D01*
X271723Y300279D01*
X271865Y300340D01*
X272501Y300776D01*
X272609Y300886D01*
X272718Y300995D01*
X273143Y301638D01*
X273201Y301781D01*
X273260Y301924D01*
X273320Y302222D01*
X273355Y302311D01*
X273669Y304005D01*
X274557Y307322D01*
X275783Y310517D01*
X277338Y313567D01*
X279203Y316437D01*
X279682Y317029D01*
X281357Y319096D01*
D01*
X283779Y321516D01*
X286440Y323668D01*
X289312Y325530D01*
X291665Y326726D01*
D01*
X292364Y327082D01*
X295560Y328305D01*
X298878Y329190D01*
X300572Y329502D01*
X300650Y329533D01*
X300734Y329550D01*
X300761Y329568D01*
X300792Y329576D01*
X300812Y329592D01*
X300958Y329622D01*
X301101Y329681D01*
X301243Y329739D01*
X301887Y330164D01*
X301996Y330272D01*
X302106Y330381D01*
X302542Y331017D01*
X302602Y331158D01*
X302664Y331300D01*
X302827Y332053D01*
X302830Y332206D01*
X302833Y332362D01*
X302700Y333121D01*
X302645Y333265D01*
X302590Y333409D01*
X302181Y334062D01*
X302075Y334174D01*
X301970Y334287D01*
X301344Y334737D01*
X301204Y334801D01*
X301064Y334866D01*
X300315Y335048D01*
X300161Y335054D01*
X300007Y335062D01*
D02*
G37*
G36*
X276285Y297543D02*
X276285Y297536D01*
X276179Y297319D01*
X276285Y297098D01*
Y297543D01*
D02*
G37*
G36*
X311213Y335062D02*
X311059Y335054D01*
X310905Y335048D01*
X310156Y334866D01*
X310017Y334802D01*
X309876Y334737D01*
X309251Y334287D01*
X309146Y334175D01*
X309040Y334062D01*
X308631Y333409D01*
X308576Y333265D01*
X308520Y333121D01*
X308387Y332362D01*
X308391Y332207D01*
X308394Y332053D01*
X308557Y331300D01*
X308618Y331159D01*
X308679Y331017D01*
X309114Y330381D01*
X309224Y330273D01*
X309334Y330164D01*
X309977Y329739D01*
X310120Y329681D01*
X310262Y329622D01*
X310408Y329592D01*
X310429Y329576D01*
X310541Y329545D01*
X310649Y329502D01*
X312343Y329190D01*
X315660Y328305D01*
X318857Y327081D01*
X321908Y325530D01*
X324780Y323668D01*
X327442Y321516D01*
X329863Y319096D01*
X332018Y316437D01*
X333883Y313567D01*
X335437Y310517D01*
X336664Y307322D01*
X337552Y304005D01*
X337865Y302311D01*
X337896Y302233D01*
X337913Y302150D01*
X337916Y302145D01*
X337960Y301924D01*
X338020Y301781D01*
X338078Y301638D01*
X338503Y300995D01*
X338611Y300886D01*
X338719Y300776D01*
X339355Y300340D01*
X339497Y300280D01*
X339638Y300218D01*
X340392Y300055D01*
X340545Y300052D01*
X340700Y300049D01*
X341459Y300181D01*
X341603Y300237D01*
X341747Y300292D01*
X342400Y300701D01*
X342513Y300807D01*
X342625Y300912D01*
X343076Y301537D01*
X343140Y301678D01*
X343205Y301818D01*
X343387Y302567D01*
X343393Y302720D01*
X343400Y302875D01*
X343343Y303256D01*
X343342Y303259D01*
X343342Y303263D01*
X343112Y304713D01*
X343101Y304743D01*
X343099Y304775D01*
X342413Y307631D01*
X342399Y307660D01*
X342396Y307692D01*
X341487Y310485D01*
X341472Y310512D01*
X341465Y310544D01*
X340341Y313257D01*
X340323Y313284D01*
X340314Y313314D01*
X338980Y315931D01*
X338961Y315956D01*
X338949Y315986D01*
X337414Y318490D01*
X337393Y318514D01*
X337379Y318543D01*
X335653Y320919D01*
X335629Y320940D01*
X335614Y320968D01*
X333706Y323201D01*
X333681Y323221D01*
X333663Y323248D01*
X331586Y325325D01*
X331560Y325342D01*
X331540Y325367D01*
X329307Y327275D01*
X329279Y327291D01*
X329257Y327314D01*
X326881Y329041D01*
X326852Y329054D01*
X326829Y329076D01*
X324325Y330611D01*
X324295Y330622D01*
X324270Y330642D01*
X321653Y331976D01*
X321622Y331984D01*
X321596Y332002D01*
X318882Y333127D01*
X318851Y333133D01*
X318823Y333149D01*
X316030Y334057D01*
X315998Y334061D01*
X315969Y334074D01*
X313114Y334761D01*
X313082Y334762D01*
X313052Y334773D01*
X311601Y335003D01*
X311598Y335003D01*
X311595Y335004D01*
X311213Y335062D01*
D02*
G37*
G36*
X284646Y310170D02*
X283669Y310041D01*
X282759Y309665D01*
X281978Y309065D01*
X281379Y308284D01*
X281002Y307374D01*
X280873Y306398D01*
X281002Y305421D01*
X281379Y304511D01*
X281978Y303730D01*
X282759Y303131D01*
X283669Y302754D01*
X284646Y302625D01*
X285622Y302754D01*
X286532Y303131D01*
X287313Y303730D01*
X287913Y304511D01*
X288290Y305421D01*
X288418Y306398D01*
X288290Y307374D01*
X287913Y308284D01*
X287313Y309065D01*
X286532Y309665D01*
X285622Y310041D01*
X284646Y310170D01*
D02*
G37*
%LPD*%
G36*
X293488Y293862D02*
X293431Y293737D01*
X293381Y293574D01*
X293337Y293372D01*
X293301Y293131D01*
X293247Y292535D01*
X293220Y291784D01*
X293216Y291351D01*
X292216D01*
X292213Y291784D01*
X292096Y293372D01*
X292052Y293574D01*
X292002Y293737D01*
X291945Y293862D01*
X291881Y293949D01*
X293552D01*
X293488Y293862D01*
D02*
G37*
G36*
X320461Y319253D02*
X320952Y318925D01*
X321280Y318434D01*
X321411Y317775D01*
Y317113D01*
X321414Y317097D01*
X321412Y317082D01*
X321413Y317052D01*
X321432Y316568D01*
X321453Y316481D01*
X321459Y316392D01*
X321489Y316330D01*
X321505Y316264D01*
X321557Y316191D01*
X321571Y316164D01*
X321785Y315648D01*
X321859Y315085D01*
Y312421D01*
Y309705D01*
Y306227D01*
X321869Y306175D01*
X321866Y306122D01*
X321899Y306023D01*
X321920Y305920D01*
X321949Y305876D01*
X321966Y305826D01*
X322036Y305747D01*
X322094Y305660D01*
X322138Y305630D01*
X322173Y305590D01*
X322188Y305578D01*
X322484Y305283D01*
X322625Y305189D01*
X322626Y305187D01*
X323229Y304725D01*
X323627Y304206D01*
X323877Y303601D01*
X323970Y302900D01*
Y292520D01*
X323985Y292442D01*
Y292363D01*
X324015Y292290D01*
X324031Y292213D01*
X324075Y292147D01*
X324105Y292074D01*
X324161Y292018D01*
X324205Y291952D01*
X324271Y291908D01*
X324326Y291852D01*
X324413Y291795D01*
X324469Y291739D01*
X324469Y291739D01*
X324865Y291342D01*
X325221Y290810D01*
X325435Y290292D01*
X325435Y290292D01*
X325466Y290219D01*
X325558Y289755D01*
X325590Y289592D01*
Y289272D01*
Y288942D01*
X325566Y288819D01*
X325462Y288296D01*
X325210Y287686D01*
X324844Y287138D01*
X324788Y287083D01*
X324787Y287083D01*
X324615Y286910D01*
X324565Y286836D01*
X324504Y286771D01*
X324479Y286707D01*
X324441Y286649D01*
X324424Y286562D01*
X324392Y286479D01*
X324331Y286417D01*
X323996D01*
X323829Y286306D01*
X323220Y286054D01*
X322574Y285925D01*
X321521D01*
X320874Y286054D01*
X320265Y286306D01*
X319717Y286672D01*
X319251Y287138D01*
X318885Y287686D01*
X318633Y288296D01*
X318504Y288942D01*
Y289272D01*
Y289592D01*
X318629Y290219D01*
X318874Y290810D01*
X318996Y290993D01*
Y298031D01*
X318944Y298084D01*
Y301802D01*
X318923Y301905D01*
X318916Y302010D01*
X318893Y302057D01*
X318883Y302109D01*
X318824Y302196D01*
X318778Y302291D01*
X318423Y302753D01*
X318186Y303324D01*
X318162Y303503D01*
X318129Y303603D01*
X318108Y303706D01*
X317979Y304018D01*
X317905Y304580D01*
Y306988D01*
Y309705D01*
Y312421D01*
Y315085D01*
X317979Y315648D01*
X318176Y316123D01*
X318187Y316137D01*
X318233Y316231D01*
X318291Y316318D01*
X318302Y316370D01*
X318325Y316418D01*
X318332Y316523D01*
X318353Y316625D01*
Y317775D01*
X318483Y318434D01*
X318812Y318925D01*
X319303Y319253D01*
X319497Y319291D01*
X320267D01*
X320461Y319253D01*
D02*
G37*
G36*
X288580Y281128D02*
X288602Y280575D01*
X288703Y280006D01*
X288881Y279421D01*
X289138Y278821D01*
X289472Y278205D01*
X289885Y277574D01*
X290376Y276927D01*
X290945Y276264D01*
X291592Y275586D01*
X289632Y274293D01*
X285088Y279303D01*
X288635Y281666D01*
X288580Y281128D01*
D02*
G37*
D10*
X348937Y297655D02*
X348926Y298655D01*
X348891Y299655D01*
X348833Y300654D01*
X348752Y301651D01*
X348649Y302646D01*
X348522Y303638D01*
X348372Y304627D01*
X348200Y305613D01*
X348005Y306594D01*
X347787Y307570D01*
X347547Y308541D01*
X347284Y309507D01*
X346999Y310466D01*
X346692Y311418D01*
X346363Y312362D01*
X346013Y313299D01*
X345641Y314228D01*
X345247Y315148D01*
X344833Y316058D01*
X344397Y316959D01*
X343941Y317849D01*
X343464Y318728D01*
X342967Y319597D01*
X342451Y320453D01*
X341914Y321298D01*
X341358Y322130D01*
X340784Y322948D01*
X340190Y323753D01*
X339578Y324545D01*
X338948Y325322D01*
X338300Y326084D01*
X337634Y326831D01*
X336952Y327562D01*
X336253Y328278D01*
X335537Y328977D01*
X334806Y329659D01*
X334059Y330325D01*
X333297Y330973D01*
X332520Y331603D01*
X331729Y332215D01*
X330923Y332808D01*
X330105Y333383D01*
X329273Y333939D01*
X328428Y334475D01*
X327572Y334992D01*
X326704Y335489D01*
X325824Y335966D01*
X324934Y336422D01*
X324033Y336858D01*
X323123Y337272D01*
X322203Y337666D01*
X321274Y338038D01*
X320338Y338388D01*
X319393Y338717D01*
X318441Y339024D01*
X317482Y339309D01*
X316516Y339571D01*
X315545Y339812D01*
X314569Y340030D01*
X313588Y340225D01*
X312602Y340397D01*
X311613Y340547D01*
X310621Y340674D01*
X309626Y340777D01*
X308629Y340858D01*
X307630Y340916D01*
X306630Y340951D01*
X305630Y340962D01*
X304630Y340951D01*
X303630Y340916D01*
X302631Y340858D01*
X301634Y340777D01*
X300639Y340674D01*
X299647Y340547D01*
X298658Y340397D01*
X297673Y340225D01*
X296691Y340030D01*
X295715Y339812D01*
X294744Y339571D01*
X293779Y339309D01*
X292820Y339024D01*
X291867Y338717D01*
X290923Y338388D01*
X289986Y338038D01*
X289057Y337666D01*
X288138Y337272D01*
X287227Y336858D01*
X286327Y336422D01*
X285436Y335966D01*
X284557Y335489D01*
X283688Y334992D01*
X282832Y334475D01*
X281988Y333939D01*
X281156Y333383D01*
X280337Y332808D01*
X279532Y332215D01*
X278741Y331603D01*
X277963Y330973D01*
X277201Y330325D01*
X276454Y329659D01*
X275723Y328977D01*
X275007Y328278D01*
X274308Y327562D01*
X273626Y326831D01*
X272960Y326084D01*
X272312Y325322D01*
X271682Y324545D01*
X271070Y323753D01*
X270477Y322948D01*
X269902Y322129D01*
X269346Y321298D01*
X268810Y320453D01*
X268293Y319597D01*
X267796Y318728D01*
X267319Y317849D01*
X266863Y316959D01*
X266428Y316058D01*
X266013Y315148D01*
X265620Y314228D01*
X265248Y313299D01*
X264897Y312362D01*
X264568Y311418D01*
X264261Y310465D01*
X263976Y309507D01*
X263714Y308541D01*
X263473Y307570D01*
X263256Y306594D01*
X263060Y305613D01*
X262888Y304627D01*
X262738Y303638D01*
X262612Y302646D01*
X262508Y301651D01*
X262427Y300654D01*
X262369Y299655D01*
X262335Y298655D01*
X262323Y297655D01*
D20*
X320965Y284055D02*
Y284154D01*
X292717Y276772D02*
Y294783D01*
X320374Y275787D02*
Y277953D01*
X292717Y276772D02*
X296161Y273327D01*
X317913D01*
X320374Y275787D01*
D23*
X319882Y315138D02*
Y317854D01*
Y304528D02*
X320472Y303937D01*
D29*
X285728Y282185D02*
D03*
X284646Y306398D02*
D03*
X288400Y315000D02*
D03*
D30*
X330512Y307480D02*
D03*
X332579Y295177D02*
D03*
X333957Y298524D02*
D03*
X327362D02*
D03*
Y303248D02*
D03*
X333957D02*
D03*
X320965Y284055D02*
D03*
X320472Y289272D02*
D03*
X292323Y273228D02*
D03*
X306988Y270571D02*
D03*
X316167Y268239D02*
D03*
X321240Y270172D02*
D03*
X325704Y273298D02*
D03*
X329557Y277151D02*
D03*
X334985Y286553D02*
D03*
X336395Y291816D02*
D03*
X336870Y297321D02*
D03*
X336395Y302672D02*
D03*
X334985Y307936D02*
D03*
X332574Y312980D02*
D03*
X329557Y317337D02*
D03*
X325704Y321191D02*
D03*
X285517D02*
D03*
X281664Y317337D02*
D03*
X278538Y312874D02*
D03*
X276236Y307936D02*
D03*
X274825Y302672D02*
D03*
X274351Y297364D02*
D03*
X274825Y291816D02*
D03*
X276236Y286553D02*
D03*
X278538Y281614D02*
D03*
X281664Y277151D02*
D03*
X285517Y273298D02*
D03*
X289980Y270172D02*
D03*
X294765Y267933D02*
D03*
X319882Y317854D02*
D03*
Y315138D02*
D03*
Y312421D02*
D03*
Y309705D02*
D03*
Y306988D02*
D03*
X322047Y291339D02*
D03*
X315256Y275886D02*
D03*
X292717Y294783D02*
D03*
X323622Y289272D02*
D03*
X322047Y287106D02*
D03*
X312303Y293504D02*
D03*
X315256D02*
D03*
X313779Y295472D02*
D03*
X316732D02*
D03*
X306890Y276575D02*
D03*
D31*
X330610Y301476D02*
D03*
D32*
X322736Y279331D02*
D03*
D33*
X320472Y303937D02*
D03*
D34*
X307382Y291093D02*
D03*
X307382Y286762D02*
D03*
X307382Y282432D02*
D03*
X303051Y291093D02*
D03*
Y286762D02*
D03*
X303051Y282432D02*
D03*
D35*
X321457Y291339D02*
Y302953D01*
D36*
X320472Y303937D02*
X321457Y302953D01*
D37*
X319882Y306988D02*
Y309705D01*
Y304528D02*
Y306988D01*
Y312421D02*
Y315138D01*
Y309705D02*
Y312421D01*
D38*
X285728Y279823D02*
X292323Y273228D01*
X285728Y279823D02*
Y282185D01*
D39*
X322539Y280955D02*
D03*
M02*
