G04 Layer_Color=32896*
%FSAX44Y44*%
%MOMM*%
G71*
G01*
G75*
G36*
X00756783Y00699042D02*
X00757130Y00698980D01*
X00757440Y00698881D01*
X00757576Y00698832D01*
X00757700Y00698782D01*
X00757824Y00698733D01*
X00757923Y00698683D01*
X00758010Y00698633D01*
X00758072Y00698584D01*
X00758134Y00698547D01*
X00758171Y00698522D01*
X00758196Y00698509D01*
X00758208Y00698497D01*
X00758332Y00698385D01*
X00758456Y00698261D01*
X00758555Y00698125D01*
X00758654Y00697976D01*
X00758803Y00697666D01*
X00758915Y00697369D01*
X00758964Y00697220D01*
X00758989Y00697084D01*
X00759026Y00696972D01*
X00759039Y00696861D01*
X00759063Y00696774D01*
X00759063Y00696712D01*
X00759076Y00696663D01*
X00759076Y00696650D01*
X00757526Y00696501D01*
X00757502Y00696737D01*
X00757465Y00696948D01*
X00757402Y00697109D01*
X00757353Y00697245D01*
X00757291Y00697357D01*
X00757254Y00697419D01*
X00757217Y00697468D01*
X00757204Y00697481D01*
X00757080Y00697580D01*
X00756956Y00697654D01*
X00756820Y00697704D01*
X00756696Y00697741D01*
X00756597Y00697766D01*
X00756498Y00697778D01*
X00756423Y00697778D01*
X00756250Y00697766D01*
X00756089Y00697729D01*
X00755952Y00697691D01*
X00755841Y00697642D01*
X00755754Y00697580D01*
X00755692Y00697543D01*
X00755655Y00697505D01*
X00755642Y00697493D01*
X00755543Y00697381D01*
X00755481Y00697245D01*
X00755432Y00697109D01*
X00755395Y00696985D01*
X00755370Y00696873D01*
X00755357Y00696774D01*
X00755357Y00696712D01*
X00755357Y00696687D01*
X00755370Y00696514D01*
X00755407Y00696340D01*
X00755456Y00696179D01*
X00755518Y00696030D01*
X00755580Y00695906D01*
X00755630Y00695820D01*
X00755667Y00695758D01*
X00755680Y00695733D01*
X00755729Y00695658D01*
X00755804Y00695572D01*
X00755890Y00695485D01*
X00755989Y00695386D01*
X00756200Y00695163D01*
X00756423Y00694940D01*
X00756634Y00694741D01*
X00756733Y00694642D01*
X00756807Y00694568D01*
X00756882Y00694506D01*
X00756932Y00694444D01*
X00756969Y00694419D01*
X00756981Y00694407D01*
X00757217Y00694184D01*
X00757440Y00693973D01*
X00757626Y00693774D01*
X00757812Y00693588D01*
X00757973Y00693415D01*
X00758109Y00693254D01*
X00758245Y00693105D01*
X00758357Y00692969D01*
X00758444Y00692857D01*
X00758531Y00692746D01*
X00758592Y00692659D01*
X00758654Y00692585D01*
X00758692Y00692523D01*
X00758716Y00692485D01*
X00758741Y00692460D01*
X00758741Y00692448D01*
X00758890Y00692176D01*
X00759001Y00691903D01*
X00759101Y00691643D01*
X00759163Y00691395D01*
X00759212Y00691196D01*
X00759225Y00691109D01*
X00759237Y00691035D01*
X00759249Y00690985D01*
X00759262Y00690936D01*
X00759262Y00690911D01*
X00759262Y00690899D01*
X00753795Y00690899D01*
X00753795Y00692349D01*
X00756907Y00692349D01*
X00756807Y00692510D01*
X00756696Y00692634D01*
X00756659Y00692696D01*
X00756622Y00692733D01*
X00756597Y00692758D01*
X00756584Y00692770D01*
X00756535Y00692820D01*
X00756485Y00692870D01*
X00756349Y00693006D01*
X00756200Y00693155D01*
X00756039Y00693303D01*
X00755890Y00693452D01*
X00755766Y00693564D01*
X00755729Y00693613D01*
X00755692Y00693651D01*
X00755667Y00693663D01*
X00755655Y00693675D01*
X00755395Y00693911D01*
X00755184Y00694121D01*
X00754998Y00694307D01*
X00754862Y00694456D01*
X00754750Y00694568D01*
X00754676Y00694654D01*
X00754638Y00694704D01*
X00754626Y00694716D01*
X00754477Y00694915D01*
X00754341Y00695101D01*
X00754229Y00695274D01*
X00754143Y00695435D01*
X00754081Y00695559D01*
X00754031Y00695658D01*
X00754006Y00695721D01*
X00753994Y00695745D01*
X00753932Y00695931D01*
X00753882Y00696130D01*
X00753845Y00696303D01*
X00753820Y00696464D01*
X00753808Y00696600D01*
X00753795Y00696712D01*
X00753795Y00696774D01*
X00753795Y00696799D01*
X00753808Y00696972D01*
X00753820Y00697146D01*
X00753907Y00697456D01*
X00754019Y00697729D01*
X00754143Y00697964D01*
X00754267Y00698150D01*
X00754329Y00698237D01*
X00754378Y00698299D01*
X00754428Y00698348D01*
X00754465Y00698385D01*
X00754477Y00698398D01*
X00754490Y00698410D01*
X00754626Y00698522D01*
X00754762Y00698633D01*
X00754923Y00698720D01*
X00755072Y00698794D01*
X00755395Y00698906D01*
X00755692Y00698980D01*
X00755841Y00699018D01*
X00755965Y00699030D01*
X00756089Y00699042D01*
X00756188Y00699055D01*
X00756274Y00699067D01*
X00756584Y00699067D01*
X00756783Y00699042D01*
X00756783Y00699042D02*
G37*
G36*
X00796609Y00690899D02*
X00794960Y00690899D01*
X00794960Y00694357D01*
X00791564Y00694357D01*
X00791564Y00695733D01*
X00794960Y00695733D01*
X00794960Y00697666D01*
X00791031Y00697666D01*
X00791031Y00699042D01*
X00796609Y00699042D01*
X00796609Y00690899D01*
X00796609Y00690899D02*
G37*
G36*
X00789630Y00690899D02*
X00783903Y00690899D01*
X00783903Y00692275D01*
X00787981Y00692275D01*
X00787981Y00698968D01*
X00789630Y00698968D01*
X00789630Y00690899D01*
X00789630Y00690899D02*
G37*
G36*
X00763104Y00699042D02*
X00763451Y00698980D01*
X00763761Y00698881D01*
X00763898Y00698832D01*
X00764022Y00698782D01*
X00764146Y00698733D01*
X00764245Y00698683D01*
X00764331Y00698633D01*
X00764393Y00698584D01*
X00764455Y00698547D01*
X00764493Y00698522D01*
X00764517Y00698509D01*
X00764530Y00698497D01*
X00764654Y00698385D01*
X00764778Y00698261D01*
X00764877Y00698125D01*
X00764976Y00697976D01*
X00765125Y00697666D01*
X00765236Y00697369D01*
X00765286Y00697220D01*
X00765311Y00697084D01*
X00765348Y00696972D01*
X00765360Y00696861D01*
X00765385Y00696774D01*
X00765385Y00696712D01*
X00765397Y00696663D01*
X00765397Y00696650D01*
X00763848Y00696501D01*
X00763823Y00696737D01*
X00763786Y00696948D01*
X00763724Y00697109D01*
X00763674Y00697245D01*
X00763613Y00697357D01*
X00763575Y00697419D01*
X00763538Y00697468D01*
X00763526Y00697481D01*
X00763402Y00697580D01*
X00763278Y00697654D01*
X00763141Y00697704D01*
X00763018Y00697741D01*
X00762918Y00697766D01*
X00762819Y00697778D01*
X00762745Y00697778D01*
X00762571Y00697766D01*
X00762410Y00697729D01*
X00762274Y00697691D01*
X00762162Y00697642D01*
X00762076Y00697580D01*
X00762013Y00697543D01*
X00761976Y00697505D01*
X00761964Y00697493D01*
X00761865Y00697381D01*
X00761803Y00697245D01*
X00761753Y00697109D01*
X00761716Y00696985D01*
X00761691Y00696873D01*
X00761679Y00696774D01*
X00761679Y00696712D01*
X00761679Y00696687D01*
X00761691Y00696514D01*
X00761728Y00696340D01*
X00761778Y00696179D01*
X00761840Y00696030D01*
X00761902Y00695906D01*
X00761952Y00695820D01*
X00761989Y00695758D01*
X00762001Y00695733D01*
X00762051Y00695658D01*
X00762125Y00695572D01*
X00762212Y00695485D01*
X00762311Y00695386D01*
X00762522Y00695163D01*
X00762745Y00694940D01*
X00762955Y00694741D01*
X00763055Y00694642D01*
X00763129Y00694568D01*
X00763204Y00694506D01*
X00763253Y00694444D01*
X00763290Y00694419D01*
X00763303Y00694407D01*
X00763538Y00694184D01*
X00763761Y00693973D01*
X00763947Y00693774D01*
X00764133Y00693588D01*
X00764294Y00693415D01*
X00764431Y00693254D01*
X00764567Y00693105D01*
X00764678Y00692969D01*
X00764765Y00692857D01*
X00764852Y00692746D01*
X00764914Y00692659D01*
X00764976Y00692585D01*
X00765013Y00692523D01*
X00765038Y00692485D01*
X00765063Y00692460D01*
X00765063Y00692448D01*
X00765211Y00692176D01*
X00765323Y00691903D01*
X00765422Y00691643D01*
X00765484Y00691395D01*
X00765534Y00691196D01*
X00765546Y00691109D01*
X00765558Y00691035D01*
X00765571Y00690985D01*
X00765583Y00690936D01*
X00765583Y00690911D01*
X00765583Y00690899D01*
X00760117Y00690899D01*
X00760117Y00692349D01*
X00763228Y00692349D01*
X00763129Y00692510D01*
X00763018Y00692634D01*
X00762980Y00692696D01*
X00762943Y00692733D01*
X00762918Y00692758D01*
X00762906Y00692770D01*
X00762856Y00692820D01*
X00762807Y00692870D01*
X00762671Y00693006D01*
X00762522Y00693155D01*
X00762361Y00693303D01*
X00762212Y00693452D01*
X00762088Y00693564D01*
X00762051Y00693613D01*
X00762013Y00693651D01*
X00761989Y00693663D01*
X00761976Y00693675D01*
X00761716Y00693911D01*
X00761505Y00694121D01*
X00761319Y00694307D01*
X00761183Y00694456D01*
X00761071Y00694568D01*
X00760997Y00694654D01*
X00760960Y00694704D01*
X00760947Y00694716D01*
X00760799Y00694915D01*
X00760662Y00695101D01*
X00760551Y00695274D01*
X00760464Y00695435D01*
X00760402Y00695559D01*
X00760353Y00695658D01*
X00760328Y00695721D01*
X00760315Y00695745D01*
X00760253Y00695931D01*
X00760204Y00696130D01*
X00760167Y00696303D01*
X00760142Y00696464D01*
X00760129Y00696600D01*
X00760117Y00696712D01*
X00760117Y00696774D01*
X00760117Y00696799D01*
X00760129Y00696972D01*
X00760142Y00697146D01*
X00760229Y00697456D01*
X00760340Y00697729D01*
X00760464Y00697964D01*
X00760588Y00698150D01*
X00760650Y00698237D01*
X00760700Y00698299D01*
X00760749Y00698348D01*
X00760786Y00698385D01*
X00760799Y00698398D01*
X00760811Y00698410D01*
X00760947Y00698522D01*
X00761084Y00698633D01*
X00761245Y00698720D01*
X00761394Y00698794D01*
X00761716Y00698906D01*
X00762013Y00698980D01*
X00762162Y00699018D01*
X00762286Y00699030D01*
X00762410Y00699042D01*
X00762509Y00699055D01*
X00762596Y00699067D01*
X00762906Y00699067D01*
X00763104Y00699042D01*
X00763104Y00699042D02*
G37*
G36*
X00812573Y00709112D02*
X00812908Y00709075D01*
X00813206Y00709013D01*
X00813466Y00708963D01*
X00813577Y00708926D01*
X00813677Y00708902D01*
X00813764Y00708864D01*
X00813838Y00708840D01*
X00813900Y00708827D01*
X00813937Y00708802D01*
X00813962Y00708790D01*
X00813974Y00708790D01*
X00814185Y00708691D01*
X00814383Y00708579D01*
X00814557Y00708455D01*
X00814718Y00708331D01*
X00814842Y00708232D01*
X00814941Y00708145D01*
X00815003Y00708083D01*
X00815028Y00708059D01*
X00815189Y00707873D01*
X00815350Y00707674D01*
X00815474Y00707488D01*
X00815586Y00707315D01*
X00815672Y00707166D01*
X00815734Y00707042D01*
X00815771Y00706968D01*
X00815784Y00706955D01*
X00815784Y00706943D01*
X00815908Y00706608D01*
X00815995Y00706261D01*
X00816057Y00705914D01*
X00816094Y00705580D01*
X00816119Y00705431D01*
X00816119Y00705294D01*
X00816131Y00705171D01*
X00816143Y00705059D01*
X00816143Y00704972D01*
X00816143Y00704910D01*
X00816143Y00704861D01*
X00816143Y00704848D01*
X00816131Y00704489D01*
X00816094Y00704154D01*
X00816044Y00703844D01*
X00815982Y00703547D01*
X00815895Y00703274D01*
X00815809Y00703026D01*
X00815710Y00702803D01*
X00815610Y00702592D01*
X00815511Y00702406D01*
X00815412Y00702245D01*
X00815325Y00702109D01*
X00815238Y00701997D01*
X00815176Y00701911D01*
X00815127Y00701849D01*
X00815090Y00701812D01*
X00815077Y00701799D01*
X00814867Y00701601D01*
X00814643Y00701440D01*
X00814420Y00701291D01*
X00814173Y00701167D01*
X00813937Y00701055D01*
X00813701Y00700969D01*
X00813466Y00700894D01*
X00813243Y00700832D01*
X00813032Y00700783D01*
X00812834Y00700758D01*
X00812648Y00700733D01*
X00812499Y00700708D01*
X00812375Y00700708D01*
X00812276Y00700696D01*
X00812202Y00700696D01*
X00811867Y00700708D01*
X00811557Y00700745D01*
X00811272Y00700795D01*
X00810999Y00700869D01*
X00810739Y00700956D01*
X00810503Y00701043D01*
X00810293Y00701142D01*
X00810095Y00701254D01*
X00809921Y00701353D01*
X00809772Y00701452D01*
X00809636Y00701539D01*
X00809537Y00701626D01*
X00809450Y00701700D01*
X00809388Y00701749D01*
X00809351Y00701787D01*
X00809338Y00701799D01*
X00809153Y00702022D01*
X00808979Y00702258D01*
X00808843Y00702506D01*
X00808719Y00702754D01*
X00808607Y00703014D01*
X00808520Y00703274D01*
X00808446Y00703522D01*
X00808396Y00703770D01*
X00808347Y00703993D01*
X00808322Y00704216D01*
X00808297Y00704402D01*
X00808272Y00704576D01*
X00808272Y00704712D01*
X00808260Y00704811D01*
X00808260Y00704873D01*
X00808260Y00704898D01*
X00808272Y00705257D01*
X00808310Y00705604D01*
X00808359Y00705927D01*
X00808434Y00706224D01*
X00808508Y00706497D01*
X00808595Y00706745D01*
X00808694Y00706980D01*
X00808793Y00707191D01*
X00808905Y00707377D01*
X00808991Y00707538D01*
X00809090Y00707674D01*
X00809165Y00707786D01*
X00809239Y00707885D01*
X00809289Y00707947D01*
X00809326Y00707984D01*
X00809338Y00707997D01*
X00809549Y00708195D01*
X00809772Y00708369D01*
X00810008Y00708517D01*
X00810243Y00708654D01*
X00810479Y00708753D01*
X00810727Y00708852D01*
X00810950Y00708926D01*
X00811185Y00708988D01*
X00811396Y00709025D01*
X00811594Y00709063D01*
X00811768Y00709088D01*
X00811917Y00709112D01*
X00812040Y00709112D01*
X00812140Y00709125D01*
X00812214Y00709125D01*
X00812573Y00709112D01*
X00812573Y00709112D02*
G37*
G36*
X00761431Y00709112D02*
X00761766Y00709075D01*
X00762063Y00709013D01*
X00762323Y00708963D01*
X00762435Y00708926D01*
X00762534Y00708902D01*
X00762621Y00708864D01*
X00762695Y00708840D01*
X00762757Y00708827D01*
X00762794Y00708802D01*
X00762819Y00708790D01*
X00762832Y00708790D01*
X00763042Y00708691D01*
X00763241Y00708579D01*
X00763414Y00708455D01*
X00763575Y00708331D01*
X00763699Y00708232D01*
X00763798Y00708145D01*
X00763860Y00708083D01*
X00763885Y00708059D01*
X00764046Y00707873D01*
X00764208Y00707674D01*
X00764331Y00707488D01*
X00764443Y00707315D01*
X00764530Y00707166D01*
X00764592Y00707042D01*
X00764629Y00706968D01*
X00764641Y00706955D01*
X00764641Y00706943D01*
X00764765Y00706608D01*
X00764852Y00706261D01*
X00764914Y00705914D01*
X00764951Y00705580D01*
X00764976Y00705431D01*
X00764976Y00705294D01*
X00764988Y00705171D01*
X00765001Y00705059D01*
X00765001Y00704972D01*
X00765001Y00704910D01*
X00765001Y00704861D01*
X00765001Y00704848D01*
X00764988Y00704489D01*
X00764951Y00704154D01*
X00764902Y00703844D01*
X00764840Y00703547D01*
X00764753Y00703274D01*
X00764666Y00703026D01*
X00764567Y00702803D01*
X00764468Y00702592D01*
X00764369Y00702406D01*
X00764269Y00702245D01*
X00764183Y00702109D01*
X00764096Y00701997D01*
X00764034Y00701911D01*
X00763984Y00701849D01*
X00763947Y00701812D01*
X00763935Y00701799D01*
X00763724Y00701601D01*
X00763501Y00701440D01*
X00763278Y00701291D01*
X00763030Y00701167D01*
X00762794Y00701055D01*
X00762559Y00700969D01*
X00762323Y00700894D01*
X00762100Y00700832D01*
X00761890Y00700783D01*
X00761691Y00700758D01*
X00761505Y00700733D01*
X00761357Y00700708D01*
X00761233Y00700708D01*
X00761133Y00700696D01*
X00761059Y00700696D01*
X00760724Y00700708D01*
X00760415Y00700745D01*
X00760129Y00700795D01*
X00759857Y00700869D01*
X00759596Y00700956D01*
X00759361Y00701043D01*
X00759150Y00701142D01*
X00758952Y00701254D01*
X00758778Y00701353D01*
X00758630Y00701452D01*
X00758493Y00701539D01*
X00758394Y00701626D01*
X00758307Y00701700D01*
X00758245Y00701749D01*
X00758208Y00701787D01*
X00758196Y00701799D01*
X00758010Y00702022D01*
X00757836Y00702258D01*
X00757700Y00702506D01*
X00757576Y00702754D01*
X00757465Y00703014D01*
X00757378Y00703274D01*
X00757303Y00703522D01*
X00757254Y00703770D01*
X00757204Y00703993D01*
X00757179Y00704216D01*
X00757155Y00704402D01*
X00757130Y00704576D01*
X00757130Y00704712D01*
X00757117Y00704811D01*
X00757117Y00704873D01*
X00757117Y00704898D01*
X00757130Y00705257D01*
X00757167Y00705604D01*
X00757217Y00705927D01*
X00757291Y00706224D01*
X00757365Y00706497D01*
X00757452Y00706745D01*
X00757551Y00706980D01*
X00757650Y00707191D01*
X00757762Y00707377D01*
X00757849Y00707538D01*
X00757948Y00707674D01*
X00758022Y00707786D01*
X00758097Y00707885D01*
X00758146Y00707947D01*
X00758183Y00707984D01*
X00758196Y00707997D01*
X00758407Y00708195D01*
X00758630Y00708369D01*
X00758865Y00708517D01*
X00759101Y00708654D01*
X00759336Y00708753D01*
X00759584Y00708852D01*
X00759807Y00708926D01*
X00760043Y00708988D01*
X00760253Y00709025D01*
X00760452Y00709063D01*
X00760625Y00709088D01*
X00760774Y00709112D01*
X00760898Y00709112D01*
X00760997Y00709125D01*
X00761071Y00709125D01*
X00761431Y00709112D01*
X00761431Y00709112D02*
G37*
G36*
X00769389Y00699055D02*
X00769624Y00699030D01*
X00769822Y00698980D01*
X00770008Y00698943D01*
X00770157Y00698894D01*
X00770269Y00698844D01*
X00770343Y00698819D01*
X00770356Y00698807D01*
X00770368Y00698807D01*
X00770554Y00698708D01*
X00770727Y00698596D01*
X00770864Y00698485D01*
X00770988Y00698373D01*
X00771087Y00698261D01*
X00771149Y00698187D01*
X00771198Y00698138D01*
X00771211Y00698113D01*
X00771310Y00697939D01*
X00771409Y00697741D01*
X00771483Y00697543D01*
X00771545Y00697357D01*
X00771595Y00697183D01*
X00771632Y00697047D01*
X00771645Y00696997D01*
X00771645Y00696960D01*
X00771657Y00696935D01*
X00771657Y00696923D01*
X00770219Y00696687D01*
X00770194Y00696873D01*
X00770145Y00697034D01*
X00770095Y00697171D01*
X00770033Y00697295D01*
X00769971Y00697381D01*
X00769934Y00697443D01*
X00769897Y00697481D01*
X00769884Y00697493D01*
X00769773Y00697592D01*
X00769649Y00697654D01*
X00769537Y00697704D01*
X00769426Y00697741D01*
X00769327Y00697766D01*
X00769252Y00697778D01*
X00769190Y00697778D01*
X00769042Y00697766D01*
X00768905Y00697741D01*
X00768794Y00697704D01*
X00768695Y00697654D01*
X00768620Y00697605D01*
X00768571Y00697567D01*
X00768533Y00697543D01*
X00768521Y00697530D01*
X00768434Y00697431D01*
X00768372Y00697319D01*
X00768335Y00697208D01*
X00768298Y00697109D01*
X00768286Y00697022D01*
X00768273Y00696948D01*
X00768273Y00696886D01*
X00768273Y00696873D01*
X00768286Y00696700D01*
X00768323Y00696551D01*
X00768385Y00696415D01*
X00768447Y00696303D01*
X00768509Y00696216D01*
X00768571Y00696142D01*
X00768608Y00696105D01*
X00768620Y00696092D01*
X00768756Y00696006D01*
X00768918Y00695931D01*
X00769079Y00695882D01*
X00769228Y00695857D01*
X00769364Y00695844D01*
X00769488Y00695832D01*
X00769587Y00695832D01*
X00769761Y00694568D01*
X00769612Y00694605D01*
X00769475Y00694642D01*
X00769352Y00694667D01*
X00769252Y00694679D01*
X00769165Y00694692D01*
X00769054Y00694692D01*
X00768893Y00694679D01*
X00768744Y00694642D01*
X00768608Y00694580D01*
X00768496Y00694518D01*
X00768397Y00694456D01*
X00768335Y00694394D01*
X00768286Y00694357D01*
X00768273Y00694345D01*
X00768161Y00694208D01*
X00768087Y00694047D01*
X00768025Y00693898D01*
X00767988Y00693750D01*
X00767963Y00693613D01*
X00767951Y00693502D01*
X00767951Y00693427D01*
X00767951Y00693415D01*
X00767951Y00693403D01*
X00767963Y00693179D01*
X00768000Y00692981D01*
X00768062Y00692808D01*
X00768112Y00692659D01*
X00768174Y00692547D01*
X00768236Y00692473D01*
X00768273Y00692411D01*
X00768286Y00692399D01*
X00768422Y00692275D01*
X00768558Y00692188D01*
X00768695Y00692126D01*
X00768819Y00692089D01*
X00768930Y00692064D01*
X00769017Y00692039D01*
X00769104Y00692039D01*
X00769265Y00692051D01*
X00769413Y00692089D01*
X00769537Y00692138D01*
X00769649Y00692188D01*
X00769748Y00692237D01*
X00769810Y00692287D01*
X00769860Y00692324D01*
X00769872Y00692337D01*
X00769984Y00692460D01*
X00770070Y00692609D01*
X00770132Y00692758D01*
X00770182Y00692894D01*
X00770219Y00693031D01*
X00770244Y00693130D01*
X00770256Y00693204D01*
X00770256Y00693217D01*
X00770256Y00693229D01*
X00771768Y00693043D01*
X00771744Y00692857D01*
X00771707Y00692671D01*
X00771595Y00692349D01*
X00771459Y00692064D01*
X00771310Y00691828D01*
X00771236Y00691729D01*
X00771174Y00691643D01*
X00771112Y00691556D01*
X00771050Y00691494D01*
X00771000Y00691444D01*
X00770963Y00691407D01*
X00770950Y00691395D01*
X00770938Y00691382D01*
X00770802Y00691271D01*
X00770653Y00691171D01*
X00770492Y00691085D01*
X00770343Y00691023D01*
X00770033Y00690899D01*
X00769736Y00690824D01*
X00769612Y00690800D01*
X00769488Y00690787D01*
X00769376Y00690775D01*
X00769277Y00690762D01*
X00769203Y00690750D01*
X00769091Y00690750D01*
X00768880Y00690762D01*
X00768670Y00690787D01*
X00768484Y00690824D01*
X00768298Y00690874D01*
X00768124Y00690923D01*
X00767963Y00690985D01*
X00767814Y00691060D01*
X00767678Y00691134D01*
X00767554Y00691196D01*
X00767455Y00691271D01*
X00767356Y00691333D01*
X00767281Y00691395D01*
X00767219Y00691432D01*
X00767182Y00691469D01*
X00767158Y00691494D01*
X00767145Y00691506D01*
X00767009Y00691655D01*
X00766885Y00691804D01*
X00766773Y00691952D01*
X00766686Y00692113D01*
X00766612Y00692262D01*
X00766550Y00692411D01*
X00766451Y00692696D01*
X00766414Y00692832D01*
X00766389Y00692956D01*
X00766377Y00693055D01*
X00766364Y00693155D01*
X00766352Y00693229D01*
X00766352Y00693279D01*
X00766352Y00693316D01*
X00766352Y00693328D01*
X00766364Y00693601D01*
X00766414Y00693836D01*
X00766488Y00694060D01*
X00766563Y00694245D01*
X00766637Y00694394D01*
X00766711Y00694506D01*
X00766761Y00694568D01*
X00766773Y00694593D01*
X00766947Y00694766D01*
X00767120Y00694915D01*
X00767306Y00695039D01*
X00767492Y00695126D01*
X00767641Y00695188D01*
X00767777Y00695237D01*
X00767827Y00695249D01*
X00767852Y00695249D01*
X00767876Y00695262D01*
X00767889Y00695262D01*
X00767678Y00695386D01*
X00767505Y00695522D01*
X00767343Y00695658D01*
X00767207Y00695807D01*
X00767095Y00695944D01*
X00766996Y00696092D01*
X00766922Y00696229D01*
X00766860Y00696365D01*
X00766811Y00696489D01*
X00766773Y00696600D01*
X00766749Y00696700D01*
X00766724Y00696799D01*
X00766724Y00696873D01*
X00766711Y00696923D01*
X00766711Y00696960D01*
X00766711Y00696972D01*
X00766711Y00697109D01*
X00766736Y00697245D01*
X00766798Y00697505D01*
X00766897Y00697729D01*
X00766996Y00697927D01*
X00767108Y00698100D01*
X00767207Y00698224D01*
X00767244Y00698261D01*
X00767269Y00698299D01*
X00767281Y00698311D01*
X00767294Y00698324D01*
X00767430Y00698460D01*
X00767567Y00698571D01*
X00767728Y00698671D01*
X00767876Y00698757D01*
X00768025Y00698832D01*
X00768186Y00698881D01*
X00768471Y00698980D01*
X00768608Y00699005D01*
X00768744Y00699030D01*
X00768856Y00699042D01*
X00768955Y00699055D01*
X00769029Y00699067D01*
X00769141Y00699067D01*
X00769389Y00699055D01*
X00769389Y00699055D02*
G37*
G36*
X00782726Y00690899D02*
X00779652Y00690899D01*
X00779330Y00690911D01*
X00779032Y00690923D01*
X00778784Y00690948D01*
X00778586Y00690985D01*
X00778412Y00691010D01*
X00778301Y00691035D01*
X00778226Y00691048D01*
X00778202Y00691060D01*
X00777941Y00691159D01*
X00777718Y00691258D01*
X00777520Y00691370D01*
X00777346Y00691481D01*
X00777222Y00691568D01*
X00777123Y00691643D01*
X00777074Y00691704D01*
X00777049Y00691717D01*
X00776851Y00691940D01*
X00776677Y00692176D01*
X00776528Y00692411D01*
X00776404Y00692646D01*
X00776305Y00692845D01*
X00776268Y00692932D01*
X00776231Y00693006D01*
X00776206Y00693068D01*
X00776194Y00693118D01*
X00776181Y00693142D01*
X00776181Y00693155D01*
X00776095Y00693440D01*
X00776032Y00693737D01*
X00775983Y00694022D01*
X00775958Y00694295D01*
X00775933Y00694530D01*
X00775933Y00694630D01*
X00775921Y00694716D01*
X00775921Y00694791D01*
X00775921Y00694840D01*
X00775921Y00694878D01*
X00775921Y00694890D01*
X00775933Y00695299D01*
X00775958Y00695671D01*
X00776008Y00696006D01*
X00776032Y00696142D01*
X00776057Y00696278D01*
X00776082Y00696402D01*
X00776107Y00696501D01*
X00776132Y00696600D01*
X00776156Y00696675D01*
X00776169Y00696737D01*
X00776181Y00696774D01*
X00776194Y00696799D01*
X00776194Y00696811D01*
X00776305Y00697096D01*
X00776429Y00697344D01*
X00776553Y00697567D01*
X00776677Y00697766D01*
X00776801Y00697914D01*
X00776888Y00698026D01*
X00776950Y00698100D01*
X00776962Y00698125D01*
X00776974Y00698125D01*
X00777173Y00698311D01*
X00777384Y00698472D01*
X00777582Y00698609D01*
X00777768Y00698708D01*
X00777941Y00698782D01*
X00778065Y00698844D01*
X00778115Y00698857D01*
X00778152Y00698869D01*
X00778177Y00698881D01*
X00778189Y00698881D01*
X00778412Y00698931D01*
X00778660Y00698980D01*
X00778908Y00699005D01*
X00779168Y00699018D01*
X00779392Y00699030D01*
X00779491Y00699042D01*
X00782726Y00699042D01*
X00782726Y00690899D01*
X00782726Y00690899D02*
G37*
G36*
X00840000Y00769819D02*
X00828621Y00769819D01*
X00828621Y00772695D01*
X00840000Y00772695D01*
X00840000Y00769819D01*
X00840000Y00769819D02*
G37*
G36*
X00723486Y00760670D02*
X00727750Y00760670D01*
X00727750Y00757795D01*
X00723486Y00757795D01*
X00723486Y00753580D01*
X00720635Y00753580D01*
X00720635Y00757795D01*
X00716371Y00757795D01*
X00716371Y00760670D01*
X00720635Y00760670D01*
X00720635Y00764885D01*
X00723486Y00764885D01*
X00723486Y00760670D01*
X00723486Y00760670D02*
G37*
G36*
X00743500Y00772500D02*
X00739198Y00772500D01*
X00738747Y00772517D01*
X00738330Y00772535D01*
X00737983Y00772569D01*
X00737706Y00772621D01*
X00737463Y00772656D01*
X00737307Y00772691D01*
X00737203Y00772708D01*
X00737168Y00772726D01*
X00736804Y00772864D01*
X00736491Y00773003D01*
X00736214Y00773159D01*
X00735971Y00773315D01*
X00735797Y00773437D01*
X00735659Y00773541D01*
X00735589Y00773628D01*
X00735555Y00773645D01*
X00735277Y00773957D01*
X00735034Y00774287D01*
X00734826Y00774616D01*
X00734652Y00774946D01*
X00734514Y00775224D01*
X00734462Y00775345D01*
X00734410Y00775449D01*
X00734375Y00775536D01*
X00734358Y00775605D01*
X00734340Y00775640D01*
X00734340Y00775657D01*
X00734219Y00776056D01*
X00734132Y00776473D01*
X00734063Y00776872D01*
X00734028Y00777253D01*
X00733993Y00777583D01*
X00733993Y00777722D01*
X00733976Y00777843D01*
X00733976Y00777947D01*
X00733976Y00778017D01*
X00733976Y00778069D01*
X00733976Y00778086D01*
X00733993Y00778659D01*
X00734028Y00779179D01*
X00734097Y00779648D01*
X00734132Y00779838D01*
X00734167Y00780029D01*
X00734201Y00780203D01*
X00734236Y00780341D01*
X00734271Y00780480D01*
X00734305Y00780584D01*
X00734323Y00780671D01*
X00734340Y00780723D01*
X00734358Y00780758D01*
X00734358Y00780775D01*
X00734514Y00781174D01*
X00734687Y00781521D01*
X00734861Y00781833D01*
X00735034Y00782111D01*
X00735208Y00782319D01*
X00735329Y00782475D01*
X00735416Y00782579D01*
X00735433Y00782614D01*
X00735450Y00782614D01*
X00735728Y00782874D01*
X00736023Y00783100D01*
X00736301Y00783291D01*
X00736561Y00783429D01*
X00736804Y00783533D01*
X00736977Y00783620D01*
X00737047Y00783637D01*
X00737098Y00783655D01*
X00737133Y00783672D01*
X00737151Y00783672D01*
X00737463Y00783742D01*
X00737810Y00783811D01*
X00738157Y00783846D01*
X00738521Y00783863D01*
X00738833Y00783880D01*
X00738972Y00783898D01*
X00743500Y00783898D01*
X00743500Y00772500D01*
X00743500Y00772500D02*
G37*
G36*
X00758000Y00714250D02*
X00749985Y00714250D01*
X00749985Y00716176D01*
X00755693Y00716176D01*
X00755693Y00725544D01*
X00758000Y00725544D01*
X00758000Y00714250D01*
X00758000Y00714250D02*
G37*
G36*
X00753106Y00800592D02*
X00756090Y00800592D01*
X00756090Y00798580D01*
X00753106Y00798580D01*
X00753106Y00795631D01*
X00751111Y00795631D01*
X00751111Y00798580D01*
X00748127Y00798580D01*
X00748127Y00800592D01*
X00751111Y00800592D01*
X00751111Y00803541D01*
X00753106Y00803541D01*
X00753106Y00800592D01*
X00753106Y00800592D02*
G37*
G36*
X00765250Y00794000D02*
X00757235Y00794000D01*
X00757235Y00795926D01*
X00762943Y00795926D01*
X00762943Y00805294D01*
X00765250Y00805294D01*
X00765250Y00794000D01*
X00765250Y00794000D02*
G37*
G36*
X00748840Y00718847D02*
X00740877Y00718847D01*
X00740877Y00720860D01*
X00748840Y00720860D01*
X00748840Y00718847D01*
X00748840Y00718847D02*
G37*
G36*
X00735823Y00700845D02*
X00734087Y00700845D01*
X00733418Y00702691D01*
X00730133Y00702691D01*
X00729439Y00700845D01*
X00727654Y00700845D01*
X00730926Y00708988D01*
X00732662Y00708988D01*
X00735823Y00700845D01*
X00735823Y00700845D02*
G37*
G36*
X00822750Y00700845D02*
X00821101Y00700845D01*
X00821101Y00704303D01*
X00817705Y00704303D01*
X00817705Y00705679D01*
X00821101Y00705679D01*
X00821101Y00707612D01*
X00817172Y00707612D01*
X00817172Y00708988D01*
X00822750Y00708988D01*
X00822750Y00700845D01*
X00822750Y00700845D02*
G37*
G36*
X00806971Y00700845D02*
X00805322Y00700845D01*
X00805322Y00704241D01*
X00804802Y00704241D01*
X00804628Y00704229D01*
X00804492Y00704216D01*
X00804380Y00704191D01*
X00804294Y00704179D01*
X00804232Y00704154D01*
X00804194Y00704142D01*
X00804182Y00704142D01*
X00804083Y00704105D01*
X00803996Y00704055D01*
X00803835Y00703943D01*
X00803773Y00703894D01*
X00803723Y00703844D01*
X00803699Y00703820D01*
X00803686Y00703807D01*
X00803637Y00703757D01*
X00803587Y00703683D01*
X00803451Y00703510D01*
X00803302Y00703324D01*
X00803166Y00703113D01*
X00803029Y00702915D01*
X00802967Y00702840D01*
X00802918Y00702754D01*
X00802880Y00702691D01*
X00802843Y00702642D01*
X00802831Y00702617D01*
X00802819Y00702605D01*
X00801653Y00700845D01*
X00799682Y00700845D01*
X00800674Y00702431D01*
X00800786Y00702605D01*
X00800885Y00702754D01*
X00800972Y00702902D01*
X00801071Y00703039D01*
X00801219Y00703262D01*
X00801356Y00703448D01*
X00801467Y00703584D01*
X00801542Y00703671D01*
X00801591Y00703733D01*
X00801604Y00703745D01*
X00801740Y00703882D01*
X00801889Y00704005D01*
X00802038Y00704129D01*
X00802174Y00704229D01*
X00802298Y00704315D01*
X00802397Y00704377D01*
X00802459Y00704415D01*
X00802471Y00704427D01*
X00802484Y00704427D01*
X00802286Y00704464D01*
X00802112Y00704501D01*
X00801938Y00704551D01*
X00801790Y00704613D01*
X00801641Y00704675D01*
X00801505Y00704737D01*
X00801393Y00704799D01*
X00801282Y00704861D01*
X00801195Y00704923D01*
X00801108Y00704985D01*
X00801046Y00705047D01*
X00800984Y00705084D01*
X00800947Y00705133D01*
X00800910Y00705158D01*
X00800885Y00705171D01*
X00800885Y00705183D01*
X00800786Y00705294D01*
X00800699Y00705418D01*
X00800575Y00705666D01*
X00800476Y00705927D01*
X00800401Y00706162D01*
X00800364Y00706373D01*
X00800352Y00706460D01*
X00800352Y00706546D01*
X00800340Y00706608D01*
X00800340Y00706658D01*
X00800340Y00706683D01*
X00800340Y00706695D01*
X00800352Y00706955D01*
X00800389Y00707203D01*
X00800451Y00707414D01*
X00800513Y00707600D01*
X00800587Y00707761D01*
X00800637Y00707873D01*
X00800686Y00707947D01*
X00800699Y00707972D01*
X00800848Y00708170D01*
X00800996Y00708331D01*
X00801158Y00708468D01*
X00801306Y00708579D01*
X00801443Y00708666D01*
X00801554Y00708728D01*
X00801629Y00708753D01*
X00801641Y00708765D01*
X00801653Y00708765D01*
X00801765Y00708802D01*
X00801901Y00708840D01*
X00802199Y00708889D01*
X00802509Y00708939D01*
X00802819Y00708963D01*
X00802955Y00708976D01*
X00803215Y00708976D01*
X00803327Y00708988D01*
X00806971Y00708988D01*
X00806971Y00700845D01*
X00806971Y00700845D02*
G37*
G36*
X00743198Y00704638D02*
X00743198Y00704390D01*
X00743185Y00704154D01*
X00743185Y00703931D01*
X00743173Y00703733D01*
X00743160Y00703547D01*
X00743148Y00703373D01*
X00743136Y00703224D01*
X00743123Y00703088D01*
X00743111Y00702964D01*
X00743098Y00702865D01*
X00743086Y00702766D01*
X00743074Y00702704D01*
X00743061Y00702642D01*
X00743049Y00702605D01*
X00743049Y00702580D01*
X00743049Y00702568D01*
X00742999Y00702394D01*
X00742925Y00702233D01*
X00742850Y00702072D01*
X00742776Y00701935D01*
X00742702Y00701824D01*
X00742640Y00701737D01*
X00742603Y00701687D01*
X00742590Y00701663D01*
X00742441Y00701514D01*
X00742293Y00701365D01*
X00742132Y00701254D01*
X00741983Y00701142D01*
X00741846Y00701068D01*
X00741735Y00701006D01*
X00741661Y00700969D01*
X00741648Y00700956D01*
X00741636Y00700956D01*
X00741512Y00700907D01*
X00741388Y00700869D01*
X00741103Y00700807D01*
X00740818Y00700758D01*
X00740533Y00700733D01*
X00740272Y00700708D01*
X00740161Y00700708D01*
X00740062Y00700696D01*
X00739876Y00700696D01*
X00739529Y00700708D01*
X00739219Y00700733D01*
X00738958Y00700770D01*
X00738735Y00700820D01*
X00738549Y00700857D01*
X00738475Y00700882D01*
X00738425Y00700894D01*
X00738376Y00700907D01*
X00738339Y00700919D01*
X00738326Y00700931D01*
X00738314Y00700931D01*
X00738103Y00701031D01*
X00737917Y00701142D01*
X00737756Y00701254D01*
X00737607Y00701365D01*
X00737508Y00701452D01*
X00737421Y00701526D01*
X00737372Y00701588D01*
X00737359Y00701601D01*
X00737235Y00701762D01*
X00737124Y00701935D01*
X00737050Y00702109D01*
X00736975Y00702270D01*
X00736926Y00702419D01*
X00736888Y00702530D01*
X00736864Y00702605D01*
X00736864Y00702617D01*
X00736864Y00702630D01*
X00736839Y00702754D01*
X00736814Y00702890D01*
X00736802Y00703051D01*
X00736789Y00703212D01*
X00736765Y00703547D01*
X00736740Y00703894D01*
X00736740Y00704055D01*
X00736740Y00704204D01*
X00736727Y00704340D01*
X00736727Y00704464D01*
X00736727Y00704563D01*
X00736727Y00704638D01*
X00736727Y00704687D01*
X00736727Y00704700D01*
X00736727Y00708988D01*
X00738376Y00708988D01*
X00738376Y00704464D01*
X00738376Y00704290D01*
X00738376Y00704129D01*
X00738388Y00703981D01*
X00738388Y00703844D01*
X00738401Y00703596D01*
X00738413Y00703410D01*
X00738425Y00703262D01*
X00738438Y00703163D01*
X00738450Y00703101D01*
X00738450Y00703076D01*
X00738487Y00702927D01*
X00738549Y00702791D01*
X00738624Y00702679D01*
X00738698Y00702580D01*
X00738760Y00702493D01*
X00738822Y00702431D01*
X00738872Y00702394D01*
X00738884Y00702382D01*
X00739033Y00702282D01*
X00739194Y00702221D01*
X00739368Y00702171D01*
X00739529Y00702134D01*
X00739690Y00702109D01*
X00739814Y00702097D01*
X00739925Y00702097D01*
X00740161Y00702109D01*
X00740384Y00702146D01*
X00740570Y00702196D01*
X00740719Y00702245D01*
X00740843Y00702295D01*
X00740929Y00702345D01*
X00740979Y00702382D01*
X00741004Y00702394D01*
X00741140Y00702518D01*
X00741239Y00702642D01*
X00741326Y00702778D01*
X00741400Y00702915D01*
X00741438Y00703026D01*
X00741475Y00703113D01*
X00741499Y00703175D01*
X00741499Y00703200D01*
X00741512Y00703262D01*
X00741512Y00703348D01*
X00741524Y00703547D01*
X00741537Y00703770D01*
X00741537Y00703993D01*
X00741549Y00704216D01*
X00741549Y00704315D01*
X00741549Y00704390D01*
X00741549Y00704464D01*
X00741549Y00704514D01*
X00741549Y00704551D01*
X00741549Y00704563D01*
X00741549Y00708988D01*
X00743198Y00708988D01*
X00743198Y00704638D01*
X00743198Y00704638D02*
G37*
G36*
X00755853Y00700845D02*
X00754329Y00700845D01*
X00754329Y00707253D01*
X00752717Y00700845D01*
X00751143Y00700845D01*
X00749531Y00707253D01*
X00749519Y00700845D01*
X00747995Y00700845D01*
X00747995Y00708988D01*
X00750474Y00708988D01*
X00751924Y00703423D01*
X00753399Y00708988D01*
X00755853Y00708988D01*
X00755853Y00700845D01*
X00755853Y00700845D02*
G37*
G36*
X00769674Y00709112D02*
X00769971Y00709075D01*
X00770256Y00709025D01*
X00770517Y00708951D01*
X00770764Y00708864D01*
X00770988Y00708765D01*
X00771198Y00708666D01*
X00771384Y00708567D01*
X00771558Y00708455D01*
X00771707Y00708356D01*
X00771831Y00708257D01*
X00771942Y00708170D01*
X00772016Y00708096D01*
X00772078Y00708046D01*
X00772116Y00708009D01*
X00772128Y00707997D01*
X00772314Y00707774D01*
X00772475Y00707538D01*
X00772611Y00707290D01*
X00772735Y00707030D01*
X00772834Y00706770D01*
X00772909Y00706497D01*
X00772983Y00706249D01*
X00773033Y00705989D01*
X00773082Y00705753D01*
X00773120Y00705542D01*
X00773132Y00705344D01*
X00773157Y00705171D01*
X00773157Y00705034D01*
X00773169Y00704923D01*
X00773169Y00704861D01*
X00773169Y00704836D01*
X00773157Y00704489D01*
X00773120Y00704154D01*
X00773070Y00703844D01*
X00773008Y00703559D01*
X00772921Y00703287D01*
X00772834Y00703039D01*
X00772748Y00702803D01*
X00772649Y00702605D01*
X00772549Y00702419D01*
X00772463Y00702258D01*
X00772364Y00702121D01*
X00772289Y00702010D01*
X00772227Y00701923D01*
X00772178Y00701861D01*
X00772140Y00701824D01*
X00772128Y00701812D01*
X00771930Y00701613D01*
X00771719Y00701452D01*
X00771496Y00701303D01*
X00771273Y00701179D01*
X00771050Y00701068D01*
X00770826Y00700981D01*
X00770616Y00700907D01*
X00770405Y00700845D01*
X00770207Y00700795D01*
X00770033Y00700770D01*
X00769872Y00700745D01*
X00769736Y00700721D01*
X00769624Y00700721D01*
X00769537Y00700708D01*
X00769463Y00700708D01*
X00769228Y00700721D01*
X00768992Y00700733D01*
X00768781Y00700770D01*
X00768571Y00700807D01*
X00768385Y00700857D01*
X00768211Y00700907D01*
X00768050Y00700969D01*
X00767901Y00701031D01*
X00767765Y00701093D01*
X00767641Y00701154D01*
X00767542Y00701204D01*
X00767455Y00701254D01*
X00767393Y00701291D01*
X00767343Y00701328D01*
X00767319Y00701340D01*
X00767306Y00701353D01*
X00767145Y00701477D01*
X00767009Y00701626D01*
X00766749Y00701935D01*
X00766538Y00702270D01*
X00766377Y00702592D01*
X00766302Y00702741D01*
X00766240Y00702890D01*
X00766191Y00703014D01*
X00766153Y00703125D01*
X00766116Y00703224D01*
X00766092Y00703287D01*
X00766079Y00703336D01*
X00766079Y00703348D01*
X00767678Y00703844D01*
X00767765Y00703522D01*
X00767876Y00703262D01*
X00767988Y00703026D01*
X00768100Y00702840D01*
X00768199Y00702704D01*
X00768286Y00702592D01*
X00768335Y00702543D01*
X00768360Y00702518D01*
X00768546Y00702382D01*
X00768732Y00702282D01*
X00768918Y00702208D01*
X00769104Y00702159D01*
X00769252Y00702134D01*
X00769376Y00702121D01*
X00769426Y00702109D01*
X00769488Y00702109D01*
X00769649Y00702121D01*
X00769798Y00702134D01*
X00770083Y00702208D01*
X00770331Y00702307D01*
X00770541Y00702431D01*
X00770703Y00702555D01*
X00770826Y00702654D01*
X00770901Y00702729D01*
X00770913Y00702741D01*
X00770926Y00702754D01*
X00771025Y00702890D01*
X00771099Y00703039D01*
X00771174Y00703200D01*
X00771236Y00703373D01*
X00771335Y00703745D01*
X00771397Y00704105D01*
X00771422Y00704278D01*
X00771446Y00704439D01*
X00771459Y00704576D01*
X00771459Y00704712D01*
X00771471Y00704811D01*
X00771471Y00704898D01*
X00771471Y00704948D01*
X00771471Y00704960D01*
X00771459Y00705220D01*
X00771446Y00705468D01*
X00771422Y00705704D01*
X00771384Y00705902D01*
X00771347Y00706100D01*
X00771298Y00706274D01*
X00771248Y00706423D01*
X00771186Y00706559D01*
X00771136Y00706683D01*
X00771087Y00706782D01*
X00771037Y00706869D01*
X00771000Y00706943D01*
X00770963Y00706993D01*
X00770938Y00707042D01*
X00770913Y00707055D01*
X00770913Y00707067D01*
X00770802Y00707179D01*
X00770690Y00707290D01*
X00770566Y00707377D01*
X00770455Y00707451D01*
X00770207Y00707563D01*
X00769971Y00707637D01*
X00769761Y00707687D01*
X00769674Y00707699D01*
X00769599Y00707712D01*
X00769537Y00707724D01*
X00769451Y00707724D01*
X00769215Y00707712D01*
X00769004Y00707662D01*
X00768806Y00707612D01*
X00768645Y00707538D01*
X00768509Y00707476D01*
X00768422Y00707414D01*
X00768360Y00707365D01*
X00768335Y00707352D01*
X00768174Y00707203D01*
X00768050Y00707042D01*
X00767938Y00706881D01*
X00767864Y00706720D01*
X00767802Y00706571D01*
X00767753Y00706460D01*
X00767740Y00706385D01*
X00767728Y00706373D01*
X00767728Y00706360D01*
X00766104Y00706745D01*
X00766216Y00707092D01*
X00766352Y00707389D01*
X00766501Y00707637D01*
X00766637Y00707848D01*
X00766761Y00708021D01*
X00766860Y00708133D01*
X00766922Y00708207D01*
X00766934Y00708232D01*
X00766947Y00708232D01*
X00767133Y00708393D01*
X00767319Y00708530D01*
X00767517Y00708641D01*
X00767715Y00708753D01*
X00767914Y00708840D01*
X00768124Y00708902D01*
X00768310Y00708963D01*
X00768509Y00709013D01*
X00768682Y00709050D01*
X00768843Y00709075D01*
X00768992Y00709100D01*
X00769116Y00709112D01*
X00769215Y00709125D01*
X00769364Y00709125D01*
X00769674Y00709112D01*
X00769674Y00709112D02*
G37*
G36*
X00784238Y00700845D02*
X00781164Y00700845D01*
X00780842Y00700857D01*
X00780544Y00700869D01*
X00780296Y00700894D01*
X00780098Y00700931D01*
X00779925Y00700956D01*
X00779813Y00700981D01*
X00779739Y00700993D01*
X00779714Y00701006D01*
X00779454Y00701105D01*
X00779230Y00701204D01*
X00779032Y00701316D01*
X00778859Y00701427D01*
X00778735Y00701514D01*
X00778635Y00701588D01*
X00778586Y00701650D01*
X00778561Y00701663D01*
X00778363Y00701886D01*
X00778189Y00702121D01*
X00778040Y00702357D01*
X00777917Y00702592D01*
X00777817Y00702791D01*
X00777780Y00702878D01*
X00777743Y00702952D01*
X00777718Y00703014D01*
X00777706Y00703063D01*
X00777693Y00703088D01*
X00777693Y00703101D01*
X00777607Y00703386D01*
X00777545Y00703683D01*
X00777495Y00703968D01*
X00777470Y00704241D01*
X00777446Y00704476D01*
X00777446Y00704576D01*
X00777433Y00704662D01*
X00777433Y00704737D01*
X00777433Y00704786D01*
X00777433Y00704824D01*
X00777433Y00704836D01*
X00777446Y00705245D01*
X00777470Y00705617D01*
X00777520Y00705952D01*
X00777545Y00706088D01*
X00777570Y00706224D01*
X00777594Y00706348D01*
X00777619Y00706447D01*
X00777644Y00706546D01*
X00777669Y00706621D01*
X00777681Y00706683D01*
X00777693Y00706720D01*
X00777706Y00706745D01*
X00777706Y00706757D01*
X00777817Y00707042D01*
X00777941Y00707290D01*
X00778065Y00707513D01*
X00778189Y00707712D01*
X00778313Y00707860D01*
X00778400Y00707972D01*
X00778462Y00708046D01*
X00778474Y00708071D01*
X00778487Y00708071D01*
X00778685Y00708257D01*
X00778896Y00708418D01*
X00779094Y00708555D01*
X00779280Y00708654D01*
X00779454Y00708728D01*
X00779577Y00708790D01*
X00779627Y00708802D01*
X00779664Y00708815D01*
X00779689Y00708827D01*
X00779702Y00708827D01*
X00779925Y00708877D01*
X00780173Y00708926D01*
X00780420Y00708951D01*
X00780681Y00708963D01*
X00780904Y00708976D01*
X00781003Y00708988D01*
X00784238Y00708988D01*
X00784238Y00700845D01*
X00784238Y00700845D02*
G37*
G36*
X00776057Y00700845D02*
X00774495Y00700845D01*
X00774495Y00702406D01*
X00776057Y00702406D01*
X00776057Y00700845D01*
X00776057Y00700845D02*
G37*
G36*
X00746383Y00700845D02*
X00744821Y00700845D01*
X00744821Y00702406D01*
X00746383Y00702406D01*
X00746383Y00700845D01*
X00746383Y00700845D02*
G37*
G36*
X00798728Y00700845D02*
X00793001Y00700845D01*
X00793001Y00702221D01*
X00797079Y00702221D01*
X00797079Y00708914D01*
X00798728Y00708914D01*
X00798728Y00700845D01*
X00798728Y00700845D02*
G37*
G36*
X00791824Y00700845D02*
X00785639Y00700845D01*
X00785639Y00702221D01*
X00790175Y00702221D01*
X00790175Y00704427D01*
X00786110Y00704427D01*
X00786110Y00705803D01*
X00790175Y00705803D01*
X00790175Y00707612D01*
X00785800Y00707612D01*
X00785800Y00708988D01*
X00791824Y00708988D01*
X00791824Y00700845D01*
X00791824Y00700845D02*
G37*
%LPC*%
G36*
X00812301Y00707724D02*
X00812202Y00707724D01*
X00812016Y00707712D01*
X00811842Y00707699D01*
X00811520Y00707612D01*
X00811235Y00707501D01*
X00811012Y00707377D01*
X00810913Y00707315D01*
X00810826Y00707253D01*
X00810751Y00707191D01*
X00810689Y00707141D01*
X00810640Y00707092D01*
X00810603Y00707055D01*
X00810590Y00707042D01*
X00810578Y00707030D01*
X00810466Y00706893D01*
X00810367Y00706745D01*
X00810293Y00706584D01*
X00810218Y00706410D01*
X00810107Y00706063D01*
X00810033Y00705728D01*
X00810008Y00705567D01*
X00809995Y00705418D01*
X00809970Y00705282D01*
X00809970Y00705171D01*
X00809958Y00705071D01*
X00809958Y00704997D01*
X00809958Y00704948D01*
X00809958Y00704935D01*
X00809970Y00704675D01*
X00809983Y00704439D01*
X00810020Y00704204D01*
X00810057Y00704005D01*
X00810107Y00703807D01*
X00810156Y00703634D01*
X00810218Y00703472D01*
X00810268Y00703336D01*
X00810330Y00703212D01*
X00810392Y00703101D01*
X00810442Y00703014D01*
X00810491Y00702939D01*
X00810528Y00702878D01*
X00810565Y00702840D01*
X00810578Y00702815D01*
X00810590Y00702803D01*
X00810714Y00702679D01*
X00810838Y00702568D01*
X00810975Y00702481D01*
X00811111Y00702394D01*
X00811247Y00702332D01*
X00811384Y00702270D01*
X00811631Y00702183D01*
X00811855Y00702134D01*
X00811954Y00702121D01*
X00812040Y00702109D01*
X00812103Y00702097D01*
X00812202Y00702097D01*
X00812375Y00702109D01*
X00812549Y00702121D01*
X00812710Y00702159D01*
X00812871Y00702208D01*
X00813144Y00702320D01*
X00813379Y00702456D01*
X00813565Y00702580D01*
X00813640Y00702642D01*
X00813701Y00702691D01*
X00813751Y00702741D01*
X00813788Y00702778D01*
X00813801Y00702791D01*
X00813813Y00702803D01*
X00813925Y00702939D01*
X00814024Y00703101D01*
X00814110Y00703262D01*
X00814173Y00703435D01*
X00814296Y00703782D01*
X00814371Y00704129D01*
X00814396Y00704290D01*
X00814408Y00704439D01*
X00814420Y00704563D01*
X00814433Y00704687D01*
X00814445Y00704774D01*
X00814445Y00704848D01*
X00814445Y00704898D01*
X00814445Y00704910D01*
X00814433Y00705171D01*
X00814420Y00705406D01*
X00814383Y00705629D01*
X00814346Y00705840D01*
X00814309Y00706026D01*
X00814247Y00706199D01*
X00814197Y00706360D01*
X00814135Y00706497D01*
X00814086Y00706621D01*
X00814024Y00706720D01*
X00813974Y00706819D01*
X00813937Y00706893D01*
X00813887Y00706943D01*
X00813863Y00706980D01*
X00813850Y00707005D01*
X00813838Y00707018D01*
X00813714Y00707141D01*
X00813590Y00707253D01*
X00813454Y00707340D01*
X00813317Y00707427D01*
X00813181Y00707501D01*
X00813045Y00707551D01*
X00812784Y00707637D01*
X00812561Y00707687D01*
X00812462Y00707699D01*
X00812375Y00707712D01*
X00812301Y00707724D01*
X00812301Y00707724D02*
G37*
G36*
X00761158Y00707724D02*
X00761059Y00707724D01*
X00760873Y00707712D01*
X00760700Y00707699D01*
X00760377Y00707612D01*
X00760092Y00707501D01*
X00759869Y00707377D01*
X00759770Y00707315D01*
X00759683Y00707253D01*
X00759609Y00707191D01*
X00759547Y00707141D01*
X00759497Y00707092D01*
X00759460Y00707055D01*
X00759448Y00707042D01*
X00759435Y00707030D01*
X00759324Y00706893D01*
X00759225Y00706745D01*
X00759150Y00706584D01*
X00759076Y00706410D01*
X00758964Y00706063D01*
X00758890Y00705728D01*
X00758865Y00705567D01*
X00758853Y00705418D01*
X00758828Y00705282D01*
X00758828Y00705171D01*
X00758816Y00705071D01*
X00758816Y00704997D01*
X00758816Y00704948D01*
X00758816Y00704935D01*
X00758828Y00704675D01*
X00758840Y00704439D01*
X00758877Y00704204D01*
X00758915Y00704005D01*
X00758964Y00703807D01*
X00759014Y00703634D01*
X00759076Y00703472D01*
X00759125Y00703336D01*
X00759187Y00703212D01*
X00759249Y00703101D01*
X00759299Y00703014D01*
X00759349Y00702939D01*
X00759386Y00702878D01*
X00759423Y00702840D01*
X00759435Y00702815D01*
X00759448Y00702803D01*
X00759572Y00702679D01*
X00759696Y00702568D01*
X00759832Y00702481D01*
X00759968Y00702394D01*
X00760105Y00702332D01*
X00760241Y00702270D01*
X00760489Y00702183D01*
X00760712Y00702134D01*
X00760811Y00702121D01*
X00760898Y00702109D01*
X00760960Y00702097D01*
X00761059Y00702097D01*
X00761233Y00702109D01*
X00761406Y00702121D01*
X00761567Y00702159D01*
X00761728Y00702208D01*
X00762001Y00702320D01*
X00762237Y00702456D01*
X00762423Y00702580D01*
X00762497Y00702642D01*
X00762559Y00702691D01*
X00762608Y00702741D01*
X00762646Y00702778D01*
X00762658Y00702791D01*
X00762671Y00702803D01*
X00762782Y00702939D01*
X00762881Y00703101D01*
X00762968Y00703262D01*
X00763030Y00703435D01*
X00763154Y00703782D01*
X00763228Y00704129D01*
X00763253Y00704290D01*
X00763265Y00704439D01*
X00763278Y00704563D01*
X00763290Y00704687D01*
X00763303Y00704774D01*
X00763303Y00704848D01*
X00763303Y00704898D01*
X00763303Y00704910D01*
X00763290Y00705171D01*
X00763278Y00705406D01*
X00763241Y00705629D01*
X00763204Y00705840D01*
X00763166Y00706026D01*
X00763104Y00706199D01*
X00763055Y00706360D01*
X00762993Y00706497D01*
X00762943Y00706621D01*
X00762881Y00706720D01*
X00762832Y00706819D01*
X00762794Y00706893D01*
X00762745Y00706943D01*
X00762720Y00706980D01*
X00762708Y00707005D01*
X00762695Y00707018D01*
X00762571Y00707141D01*
X00762447Y00707253D01*
X00762311Y00707340D01*
X00762175Y00707427D01*
X00762038Y00707501D01*
X00761902Y00707551D01*
X00761642Y00707637D01*
X00761419Y00707687D01*
X00761319Y00707699D01*
X00761233Y00707712D01*
X00761158Y00707724D01*
X00761158Y00707724D02*
G37*
G36*
X00781077Y00697666D02*
X00779999Y00697666D01*
X00779850Y00697654D01*
X00779714Y00697654D01*
X00779590Y00697642D01*
X00779491Y00697642D01*
X00779392Y00697629D01*
X00779305Y00697629D01*
X00779168Y00697605D01*
X00779082Y00697592D01*
X00779020Y00697580D01*
X00779007Y00697580D01*
X00778846Y00697530D01*
X00778698Y00697481D01*
X00778561Y00697419D01*
X00778462Y00697357D01*
X00778375Y00697295D01*
X00778301Y00697245D01*
X00778264Y00697208D01*
X00778251Y00697196D01*
X00778140Y00697084D01*
X00778053Y00696948D01*
X00777979Y00696824D01*
X00777904Y00696687D01*
X00777855Y00696576D01*
X00777817Y00696489D01*
X00777805Y00696427D01*
X00777793Y00696402D01*
X00777731Y00696204D01*
X00777693Y00695968D01*
X00777656Y00695733D01*
X00777644Y00695497D01*
X00777632Y00695287D01*
X00777619Y00695200D01*
X00777619Y00695126D01*
X00777619Y00695051D01*
X00777619Y00695002D01*
X00777619Y00694977D01*
X00777619Y00694964D01*
X00777632Y00694630D01*
X00777644Y00694332D01*
X00777669Y00694072D01*
X00777706Y00693861D01*
X00777743Y00693688D01*
X00777768Y00693564D01*
X00777780Y00693527D01*
X00777780Y00693489D01*
X00777793Y00693477D01*
X00777793Y00693465D01*
X00777855Y00693279D01*
X00777929Y00693118D01*
X00777991Y00692981D01*
X00778065Y00692870D01*
X00778127Y00692783D01*
X00778165Y00692733D01*
X00778202Y00692696D01*
X00778214Y00692684D01*
X00778313Y00692597D01*
X00778425Y00692535D01*
X00778648Y00692423D01*
X00778735Y00692399D01*
X00778809Y00692374D01*
X00778871Y00692349D01*
X00778883Y00692349D01*
X00779007Y00692324D01*
X00779156Y00692312D01*
X00779330Y00692287D01*
X00779478Y00692287D01*
X00779627Y00692275D01*
X00781077Y00692275D01*
X00781077Y00697666D01*
X00781077Y00697666D02*
G37*
G36*
X00741193Y00781972D02*
X00739683Y00781972D01*
X00739475Y00781955D01*
X00739284Y00781955D01*
X00739111Y00781937D01*
X00738972Y00781937D01*
X00738833Y00781920D01*
X00738712Y00781920D01*
X00738521Y00781885D01*
X00738400Y00781868D01*
X00738313Y00781851D01*
X00738296Y00781851D01*
X00738070Y00781781D01*
X00737862Y00781712D01*
X00737671Y00781625D01*
X00737532Y00781538D01*
X00737411Y00781452D01*
X00737307Y00781382D01*
X00737255Y00781330D01*
X00737237Y00781313D01*
X00737081Y00781157D01*
X00736960Y00780966D01*
X00736856Y00780792D01*
X00736752Y00780602D01*
X00736682Y00780445D01*
X00736630Y00780324D01*
X00736613Y00780237D01*
X00736595Y00780203D01*
X00736509Y00779925D01*
X00736457Y00779595D01*
X00736405Y00779266D01*
X00736387Y00778936D01*
X00736370Y00778641D01*
X00736353Y00778520D01*
X00736353Y00778416D01*
X00736353Y00778312D01*
X00736353Y00778242D01*
X00736353Y00778208D01*
X00736353Y00778190D01*
X00736370Y00777722D01*
X00736387Y00777306D01*
X00736422Y00776941D01*
X00736474Y00776646D01*
X00736526Y00776403D01*
X00736561Y00776230D01*
X00736578Y00776178D01*
X00736578Y00776126D01*
X00736595Y00776108D01*
X00736595Y00776091D01*
X00736682Y00775831D01*
X00736786Y00775605D01*
X00736873Y00775415D01*
X00736977Y00775258D01*
X00737064Y00775137D01*
X00737116Y00775068D01*
X00737168Y00775015D01*
X00737185Y00774998D01*
X00737324Y00774877D01*
X00737480Y00774790D01*
X00737793Y00774634D01*
X00737914Y00774599D01*
X00738018Y00774564D01*
X00738105Y00774530D01*
X00738122Y00774530D01*
X00738296Y00774495D01*
X00738504Y00774478D01*
X00738747Y00774443D01*
X00738955Y00774443D01*
X00739163Y00774426D01*
X00741193Y00774426D01*
X00741193Y00781972D01*
X00741193Y00781972D02*
G37*
G36*
X00731806Y00707092D02*
X00730666Y00704067D01*
X00732910Y00704067D01*
X00731806Y00707092D01*
X00731806Y00707092D02*
G37*
G36*
X00805322Y00707612D02*
X00803451Y00707612D01*
X00803339Y00707600D01*
X00803091Y00707600D01*
X00802980Y00707588D01*
X00802918Y00707588D01*
X00802880Y00707575D01*
X00802868Y00707575D01*
X00802732Y00707538D01*
X00802608Y00707501D01*
X00802509Y00707451D01*
X00802422Y00707389D01*
X00802347Y00707340D01*
X00802298Y00707290D01*
X00802273Y00707265D01*
X00802261Y00707253D01*
X00802186Y00707154D01*
X00802137Y00707042D01*
X00802087Y00706931D01*
X00802062Y00706832D01*
X00802050Y00706745D01*
X00802038Y00706670D01*
X00802038Y00706608D01*
X00802038Y00706596D01*
X00802050Y00706460D01*
X00802062Y00706348D01*
X00802087Y00706237D01*
X00802124Y00706150D01*
X00802162Y00706075D01*
X00802186Y00706026D01*
X00802199Y00705989D01*
X00802211Y00705976D01*
X00802273Y00705890D01*
X00802347Y00705827D01*
X00802496Y00705716D01*
X00802571Y00705691D01*
X00802620Y00705666D01*
X00802657Y00705642D01*
X00802670Y00705642D01*
X00802732Y00705629D01*
X00802819Y00705604D01*
X00802905Y00705592D01*
X00803017Y00705580D01*
X00803252Y00705567D01*
X00803500Y00705555D01*
X00803736Y00705542D01*
X00805322Y00705542D01*
X00805322Y00707612D01*
X00805322Y00707612D02*
G37*
G36*
X00782589Y00707612D02*
X00781511Y00707612D01*
X00781362Y00707600D01*
X00781226Y00707600D01*
X00781102Y00707588D01*
X00781003Y00707588D01*
X00780904Y00707575D01*
X00780817Y00707575D01*
X00780681Y00707551D01*
X00780594Y00707538D01*
X00780532Y00707526D01*
X00780519Y00707526D01*
X00780358Y00707476D01*
X00780210Y00707427D01*
X00780073Y00707365D01*
X00779974Y00707302D01*
X00779887Y00707241D01*
X00779813Y00707191D01*
X00779776Y00707154D01*
X00779763Y00707141D01*
X00779652Y00707030D01*
X00779565Y00706893D01*
X00779491Y00706770D01*
X00779416Y00706633D01*
X00779367Y00706522D01*
X00779330Y00706435D01*
X00779317Y00706373D01*
X00779305Y00706348D01*
X00779243Y00706150D01*
X00779206Y00705914D01*
X00779168Y00705679D01*
X00779156Y00705443D01*
X00779144Y00705232D01*
X00779131Y00705146D01*
X00779131Y00705071D01*
X00779131Y00704997D01*
X00779131Y00704948D01*
X00779131Y00704923D01*
X00779131Y00704910D01*
X00779144Y00704576D01*
X00779156Y00704278D01*
X00779181Y00704018D01*
X00779218Y00703807D01*
X00779255Y00703634D01*
X00779280Y00703510D01*
X00779292Y00703472D01*
X00779292Y00703435D01*
X00779305Y00703423D01*
X00779305Y00703410D01*
X00779367Y00703224D01*
X00779441Y00703063D01*
X00779503Y00702927D01*
X00779577Y00702815D01*
X00779640Y00702729D01*
X00779677Y00702679D01*
X00779714Y00702642D01*
X00779726Y00702630D01*
X00779825Y00702543D01*
X00779937Y00702481D01*
X00780160Y00702369D01*
X00780247Y00702345D01*
X00780321Y00702320D01*
X00780383Y00702295D01*
X00780396Y00702295D01*
X00780519Y00702270D01*
X00780668Y00702258D01*
X00780842Y00702233D01*
X00780991Y00702233D01*
X00781139Y00702221D01*
X00782589Y00702221D01*
X00782589Y00707612D01*
X00782589Y00707612D02*
G37*
%LPD*%
M02*
