G04 Layer_Physical_Order=2*
G04 Layer_Color=16750899*
%FSAX44Y44*%
%MOMM*%
G71*
G01*
G75*
%ADD10C,0.3000*%
%ADD21C,0.2540*%
%ADD24C,0.7620*%
%ADD29C,1.5000*%
%ADD30C,0.6000*%
%ADD31C,0.5000*%
%ADD32C,0.8000*%
%ADD33C,1.2000*%
%ADD34C,1.0000*%
%ADD35C,1.2700*%
%ADD36C,0.5842*%
%ADD37C,1.0000*%
%ADD38C,1.2000*%
%ADD39R,1.4000X2.0750*%
G36*
X00789331Y00866145D02*
X00797990Y00864781D01*
X00806516Y00862740D01*
X00814856Y00860037D01*
X00822957Y00856687D01*
X00830770Y00852711D01*
X00838248Y00848135D01*
X00845343Y00842986D01*
X00852011Y00837295D01*
X00858213Y00831099D01*
X00863909Y00824435D01*
X00869064Y00817344D01*
X00873647Y00809871D01*
X00877629Y00802060D01*
X00880985Y00793962D01*
X00883696Y00785625D01*
X00885743Y00777101D01*
X00887116Y00768442D01*
X00887804Y00759702D01*
X00887804Y00755619D01*
X00887804Y00750687D01*
X00887116Y00741947D01*
X00885743Y00733288D01*
X00883696Y00724764D01*
X00880985Y00716427D01*
X00877629Y00708329D01*
X00873647Y00700518D01*
X00869064Y00693045D01*
X00863909Y00685954D01*
X00858213Y00679290D01*
X00852011Y00673094D01*
X00845343Y00667403D01*
X00838248Y00662254D01*
X00830770Y00657678D01*
X00822957Y00653702D01*
X00814856Y00650352D01*
X00806516Y00647649D01*
X00797990Y00645608D01*
X00789331Y00644243D01*
X00780591Y00643562D01*
X00776207Y00643566D01*
X00776207Y00643566D01*
X00772059Y00643570D01*
X00763786Y00644193D01*
X00755583Y00645429D01*
X00747494Y00647272D01*
X00739564Y00649710D01*
X00731837Y00652731D01*
X00724356Y00656317D01*
X00717162Y00660450D01*
X00710295Y00665105D01*
X00703793Y00670258D01*
X00697692Y00675880D01*
X00692026Y00681939D01*
X00689425Y00685171D01*
X00689425Y00685171D01*
X00689425Y00685171D01*
X00686461Y00688855D01*
X00681177Y00696700D01*
X00676576Y00704964D01*
X00672692Y00713588D01*
X00669551Y00722510D01*
X00667178Y00731665D01*
X00665588Y00740989D01*
X00664793Y00750414D01*
X00664796Y00755194D01*
X00664793Y00759975D01*
X00665588Y00769400D01*
X00667178Y00778724D01*
X00669551Y00787879D01*
X00672692Y00796801D01*
X00676576Y00805425D01*
X00681177Y00813689D01*
X00686461Y00821534D01*
X00689425Y00825218D01*
X00692026Y00828450D01*
X00697692Y00834510D01*
X00703793Y00840131D01*
X00710295Y00845284D01*
X00717162Y00849939D01*
X00724356Y00854072D01*
X00731837Y00857658D01*
X00739564Y00860679D01*
X00747494Y00863117D01*
X00755583Y00864960D01*
X00763786Y00866196D01*
X00772059Y00866819D01*
X00775679Y00866822D01*
X00775679Y00866822D01*
X00776207Y00866823D01*
X00780591Y00866826D01*
X00789331Y00866145D01*
X00789331Y00866145D02*
G37*
%LPC*%
G36*
X00687122Y00747876D02*
X00685193Y00747539D01*
X00684827Y00747397D01*
X00684462Y00747258D01*
X00682803Y00746219D01*
X00682517Y00745950D01*
X00682231Y00745683D01*
X00681087Y00744095D01*
X00680924Y00743739D01*
X00680759Y00743383D01*
X00680298Y00741480D01*
X00680282Y00741090D01*
X00680264Y00740698D01*
X00680409Y00739730D01*
X00680412Y00739721D01*
X00680412Y00739712D01*
X00680996Y00736028D01*
X00681024Y00735952D01*
X00681028Y00735871D01*
X00682772Y00728617D01*
X00682806Y00728544D01*
X00682815Y00728464D01*
X00685123Y00721369D01*
X00685162Y00721298D01*
X00685178Y00721219D01*
X00688035Y00714327D01*
X00688080Y00714260D01*
X00688102Y00714182D01*
X00691490Y00707535D01*
X00691540Y00707471D01*
X00691568Y00707395D01*
X00695467Y00701035D01*
X00695522Y00700975D01*
X00695556Y00700902D01*
X00699942Y00694866D01*
X00700002Y00694811D01*
X00700041Y00694741D01*
X00704887Y00689068D01*
X00704950Y00689018D01*
X00704995Y00688951D01*
X00710271Y00683675D01*
X00710338Y00683630D01*
X00710388Y00683567D01*
X00716061Y00678721D01*
X00716132Y00678681D01*
X00716187Y00678622D01*
X00722222Y00674236D01*
X00722295Y00674202D01*
X00722355Y00674147D01*
X00728715Y00670248D01*
X00728791Y00670220D01*
X00728855Y00670170D01*
X00735502Y00666782D01*
X00735580Y00666760D01*
X00735647Y00666715D01*
X00742539Y00663858D01*
X00742618Y00663842D01*
X00742689Y00663803D01*
X00749783Y00661495D01*
X00749864Y00661486D01*
X00749938Y00661452D01*
X00757191Y00659708D01*
X00757272Y00659705D01*
X00757348Y00659676D01*
X00761032Y00659091D01*
X00761041Y00659092D01*
X00761050Y00659089D01*
X00762018Y00658944D01*
X00762410Y00658962D01*
X00762800Y00658978D01*
X00764703Y00659439D01*
X00765058Y00659604D01*
X00765415Y00659767D01*
X00767003Y00660911D01*
X00767269Y00661196D01*
X00767539Y00661483D01*
X00768578Y00663142D01*
X00768717Y00663507D01*
X00768859Y00663873D01*
X00769196Y00665801D01*
X00769187Y00666194D01*
X00769181Y00666585D01*
X00768766Y00668498D01*
X00768610Y00668857D01*
X00768456Y00669218D01*
X00767350Y00670833D01*
X00767070Y00671107D01*
X00766792Y00671383D01*
X00765159Y00672462D01*
X00764796Y00672610D01*
X00764434Y00672761D01*
X00764062Y00672835D01*
X00764010Y00672876D01*
X00763726Y00672956D01*
X00763452Y00673065D01*
X00759149Y00673857D01*
X00750723Y00676105D01*
X00742603Y00679213D01*
X00739859Y00680608D01*
X00734853Y00683153D01*
X00727558Y00687883D01*
X00720799Y00693350D01*
X00714648Y00699495D01*
X00709174Y00706249D01*
X00704438Y00713540D01*
X00701765Y00718785D01*
X00700490Y00721286D01*
X00697375Y00729403D01*
X00695119Y00737827D01*
X00694323Y00742129D01*
X00694232Y00742356D01*
X00694081Y00743114D01*
X00693930Y00743477D01*
X00693782Y00743839D01*
X00692703Y00745472D01*
X00692428Y00745749D01*
X00692153Y00746030D01*
X00690538Y00747136D01*
X00690177Y00747290D01*
X00689818Y00747446D01*
X00687905Y00747860D01*
X00687516Y00747867D01*
X00687122Y00747876D01*
X00687122Y00747876D02*
G37*
G36*
X00850736Y00755814D02*
X00850736Y00754576D01*
X00851029Y00755176D01*
X00851058Y00755194D01*
X00851029Y00755212D01*
X00850736Y00755814D01*
X00850736Y00755814D02*
G37*
G36*
X00780186Y00680608D02*
X00772382Y00680608D01*
X00774623Y00680542D01*
X00775877Y00680505D01*
X00776409Y00680504D01*
X00776409Y00680504D01*
X00776540Y00680504D01*
X00776540Y00680504D01*
X00780186Y00680608D01*
X00780186Y00680608D01*
X00780186Y00680608D02*
G37*
G36*
X00865378Y00747876D02*
X00864986Y00747867D01*
X00864595Y00747860D01*
X00862682Y00747446D01*
X00862323Y00747290D01*
X00861962Y00747136D01*
X00860347Y00746030D01*
X00860073Y00745750D01*
X00859797Y00745472D01*
X00858718Y00743839D01*
X00858570Y00743476D01*
X00858419Y00743114D01*
X00858307Y00742551D01*
X00858298Y00742538D01*
X00858257Y00742328D01*
X00858177Y00742129D01*
X00857381Y00737827D01*
X00855125Y00729403D01*
X00852010Y00721286D01*
X00850747Y00718808D01*
X00848062Y00713540D01*
X00843326Y00706249D01*
X00837852Y00699495D01*
X00831701Y00693350D01*
X00824942Y00687883D01*
X00817646Y00683153D01*
X00812641Y00680608D01*
X00812641Y00680608D01*
X00809897Y00679213D01*
X00801777Y00676105D01*
X00793351Y00673857D01*
X00789048Y00673065D01*
X00788773Y00672956D01*
X00788489Y00672876D01*
X00788438Y00672835D01*
X00788066Y00672761D01*
X00787703Y00672610D01*
X00787341Y00672462D01*
X00785708Y00671383D01*
X00785431Y00671108D01*
X00785150Y00670833D01*
X00784044Y00669218D01*
X00783890Y00668857D01*
X00783734Y00668498D01*
X00783319Y00666585D01*
X00783313Y00666196D01*
X00783304Y00665801D01*
X00783641Y00663873D01*
X00783783Y00663507D01*
X00783922Y00663142D01*
X00784961Y00661483D01*
X00785230Y00661198D01*
X00785497Y00660911D01*
X00787085Y00659767D01*
X00787441Y00659604D01*
X00787797Y00659439D01*
X00789700Y00658978D01*
X00790090Y00658962D01*
X00790482Y00658944D01*
X00791450Y00659089D01*
X00791459Y00659092D01*
X00791468Y00659091D01*
X00795152Y00659676D01*
X00795228Y00659705D01*
X00795309Y00659708D01*
X00802562Y00661452D01*
X00802636Y00661486D01*
X00802717Y00661495D01*
X00809811Y00663803D01*
X00809882Y00663842D01*
X00809961Y00663858D01*
X00816853Y00666715D01*
X00816920Y00666760D01*
X00816998Y00666782D01*
X00823645Y00670170D01*
X00823709Y00670220D01*
X00823785Y00670248D01*
X00830145Y00674147D01*
X00830205Y00674202D01*
X00830278Y00674236D01*
X00836313Y00678622D01*
X00836368Y00678681D01*
X00836439Y00678721D01*
X00842112Y00683567D01*
X00842162Y00683630D01*
X00842229Y00683675D01*
X00847505Y00688951D01*
X00847550Y00689018D01*
X00847613Y00689068D01*
X00852459Y00694741D01*
X00852498Y00694811D01*
X00852558Y00694866D01*
X00856944Y00700902D01*
X00856978Y00700975D01*
X00857033Y00701035D01*
X00860932Y00707395D01*
X00860960Y00707471D01*
X00861010Y00707535D01*
X00864398Y00714182D01*
X00864420Y00714260D01*
X00864465Y00714327D01*
X00867322Y00721219D01*
X00867338Y00721298D01*
X00867377Y00721369D01*
X00869685Y00728464D01*
X00869694Y00728544D01*
X00869728Y00728617D01*
X00871472Y00735871D01*
X00871476Y00735952D01*
X00871504Y00736028D01*
X00872089Y00739712D01*
X00872088Y00739721D01*
X00872091Y00739730D01*
X00872236Y00740698D01*
X00872218Y00741090D01*
X00872202Y00741480D01*
X00871741Y00743383D01*
X00871576Y00743738D01*
X00871413Y00744095D01*
X00870269Y00745683D01*
X00869984Y00745949D01*
X00869697Y00746219D01*
X00868038Y00747258D01*
X00867673Y00747397D01*
X00867307Y00747539D01*
X00865378Y00747876D01*
X00865378Y00747876D02*
G37*
G36*
X00812500Y00813274D02*
X00810233Y00812823D01*
X00808311Y00811539D01*
X00807027Y00809617D01*
X00806576Y00807350D01*
X00806576Y00804229D01*
X00806385Y00803980D01*
X00805680Y00802277D01*
X00805440Y00800450D01*
X00805440Y00793550D01*
X00805440Y00786650D01*
X00805440Y00779750D01*
X00805440Y00773500D01*
X00805680Y00771673D01*
X00806111Y00770633D01*
X00806206Y00769912D01*
X00807012Y00767965D01*
X00808078Y00766576D01*
X00808078Y00740000D01*
X00808136Y00739559D01*
X00808055Y00739438D01*
X00807433Y00737937D01*
X00807394Y00737740D01*
X00807317Y00737554D01*
X00807000Y00735960D01*
X00807000Y00735760D01*
X00806961Y00735563D01*
X00806961Y00733913D01*
X00807000Y00733716D01*
X00807000Y00733515D01*
X00807327Y00731873D01*
X00807403Y00731687D01*
X00807443Y00731490D01*
X00808083Y00729943D01*
X00808195Y00729776D01*
X00808272Y00729591D01*
X00809202Y00728199D01*
X00809344Y00728057D01*
X00809456Y00727890D01*
X00810549Y00726796D01*
X00810663Y00726531D01*
X00810808Y00725442D01*
X00810366Y00724780D01*
X00810211Y00724000D01*
X00810211Y00721795D01*
X00810152Y00721500D01*
X00810211Y00721205D01*
X00810211Y00703250D01*
X00810366Y00702470D01*
X00810416Y00702395D01*
X00810416Y00701881D01*
X00806119Y00697584D01*
X00753631Y00697584D01*
X00746834Y00704381D01*
X00746834Y00741552D01*
X00746883Y00742911D01*
X00747008Y00744307D01*
X00747083Y00744794D01*
X00747162Y00745161D01*
X00747203Y00745292D01*
X00748210Y00746799D01*
X00748598Y00748750D01*
X00748210Y00750701D01*
X00747105Y00752355D01*
X00745451Y00753460D01*
X00743500Y00753848D01*
X00741549Y00753460D01*
X00739895Y00752355D01*
X00738790Y00750701D01*
X00738402Y00748750D01*
X00738790Y00746799D01*
X00739797Y00745292D01*
X00739838Y00745161D01*
X00739900Y00744873D01*
X00740166Y00741277D01*
X00740166Y00705396D01*
X00738896Y00704999D01*
X00737976Y00706213D01*
X00737012Y00707687D01*
X00736247Y00709094D01*
X00735676Y00710430D01*
X00735291Y00711691D01*
X00735081Y00712879D01*
X00735035Y00714002D01*
X00735162Y00715222D01*
X00735149Y00715359D01*
X00735332Y00716750D01*
X00735005Y00719230D01*
X00734048Y00721541D01*
X00732525Y00723525D01*
X00730541Y00725048D01*
X00728230Y00726005D01*
X00725750Y00726332D01*
X00723270Y00726005D01*
X00720959Y00725048D01*
X00718975Y00723525D01*
X00717452Y00721541D01*
X00716495Y00719230D01*
X00716168Y00716750D01*
X00716495Y00714270D01*
X00717452Y00711959D01*
X00718975Y00709975D01*
X00720959Y00708452D01*
X00721523Y00708218D01*
X00722202Y00707202D01*
X00738666Y00690738D01*
X00738895Y00690395D01*
X00740549Y00689290D01*
X00741800Y00689041D01*
X00741800Y00689041D01*
X00741800Y00689041D01*
X00742500Y00688902D01*
X00744451Y00689290D01*
X00746105Y00690395D01*
X00747210Y00692049D01*
X00747331Y00692658D01*
X00748709Y00693076D01*
X00749893Y00691892D01*
X00750974Y00691170D01*
X00752250Y00690916D01*
X00807500Y00690916D01*
X00808776Y00691170D01*
X00809857Y00691892D01*
X00816107Y00698142D01*
X00816830Y00699224D01*
X00817084Y00700500D01*
X00817084Y00701211D01*
X00826250Y00701211D01*
X00827030Y00701366D01*
X00827692Y00701808D01*
X00828134Y00702470D01*
X00828289Y00703250D01*
X00828289Y00724000D01*
X00828134Y00724780D01*
X00827692Y00725442D01*
X00827030Y00725884D01*
X00826450Y00725999D01*
X00826133Y00726560D01*
X00825964Y00727309D01*
X00826544Y00727890D01*
X00826656Y00728057D01*
X00826798Y00728199D01*
X00827728Y00729591D01*
X00827805Y00729776D01*
X00827917Y00729943D01*
X00828557Y00731490D01*
X00828596Y00731687D01*
X00828673Y00731873D01*
X00829000Y00733515D01*
X00829000Y00733716D01*
X00829039Y00733913D01*
X00829039Y00735563D01*
X00829000Y00735760D01*
X00829000Y00735960D01*
X00828683Y00737554D01*
X00828606Y00737740D01*
X00828567Y00737937D01*
X00827945Y00739438D01*
X00827833Y00739605D01*
X00827757Y00739791D01*
X00826854Y00741142D01*
X00826712Y00741284D01*
X00826600Y00741451D01*
X00825451Y00742600D01*
X00825284Y00742712D01*
X00825142Y00742854D01*
X00824922Y00743001D01*
X00824922Y00769500D01*
X00824635Y00771680D01*
X00823794Y00773711D01*
X00822455Y00775455D01*
X00820711Y00776794D01*
X00820552Y00776860D01*
X00819706Y00777706D01*
X00819560Y00777817D01*
X00819560Y00786650D01*
X00819560Y00793550D01*
X00819560Y00800450D01*
X00819320Y00802277D01*
X00818615Y00803980D01*
X00818474Y00804163D01*
X00818424Y00805467D01*
X00818424Y00807350D01*
X00817973Y00809617D01*
X00816689Y00811539D01*
X00814767Y00812823D01*
X00812500Y00813274D01*
X00812500Y00813274D02*
G37*
G36*
X00732536Y00809682D02*
X00730056Y00809355D01*
X00727745Y00808398D01*
X00725760Y00806875D01*
X00724238Y00804891D01*
X00723280Y00802580D01*
X00722954Y00800100D01*
X00723280Y00797620D01*
X00724238Y00795309D01*
X00725760Y00793325D01*
X00727745Y00791802D01*
X00730056Y00790844D01*
X00732536Y00790518D01*
X00735016Y00790844D01*
X00737327Y00791802D01*
X00739312Y00793325D01*
X00740834Y00795309D01*
X00741792Y00797620D01*
X00742118Y00800100D01*
X00741792Y00802580D01*
X00740834Y00804891D01*
X00739312Y00806875D01*
X00737327Y00808398D01*
X00735016Y00809355D01*
X00732536Y00809682D01*
X00732536Y00809682D02*
G37*
G36*
X00776448Y00829975D02*
X00776409Y00829884D01*
X00776381Y00829884D01*
X00776543Y00829884D01*
X00776540Y00829885D01*
X00776448Y00829975D01*
X00776448Y00829975D02*
G37*
G36*
X00762018Y00851056D02*
X00761050Y00850911D01*
X00761041Y00850908D01*
X00761032Y00850909D01*
X00757348Y00850323D01*
X00757272Y00850295D01*
X00757191Y00850292D01*
X00749938Y00848548D01*
X00749864Y00848514D01*
X00749783Y00848505D01*
X00742689Y00846197D01*
X00742618Y00846158D01*
X00742539Y00846142D01*
X00735647Y00843285D01*
X00735580Y00843240D01*
X00735502Y00843218D01*
X00728855Y00839830D01*
X00728791Y00839780D01*
X00728715Y00839752D01*
X00722355Y00835853D01*
X00722295Y00835798D01*
X00722222Y00835764D01*
X00716187Y00831378D01*
X00716132Y00831318D01*
X00716061Y00831279D01*
X00710388Y00826433D01*
X00710338Y00826370D01*
X00710271Y00826325D01*
X00704995Y00821049D01*
X00704950Y00820982D01*
X00704887Y00820932D01*
X00700041Y00815259D01*
X00700002Y00815188D01*
X00699942Y00815133D01*
X00695556Y00809098D01*
X00695522Y00809025D01*
X00695467Y00808965D01*
X00691568Y00802605D01*
X00691540Y00802529D01*
X00691490Y00802465D01*
X00688102Y00795818D01*
X00688080Y00795740D01*
X00688035Y00795673D01*
X00685178Y00788781D01*
X00685162Y00788702D01*
X00685123Y00788631D01*
X00682815Y00781536D01*
X00682806Y00781456D01*
X00682772Y00781382D01*
X00681028Y00774129D01*
X00681024Y00774048D01*
X00680996Y00773972D01*
X00680412Y00770288D01*
X00680412Y00770279D01*
X00680409Y00770270D01*
X00680264Y00769302D01*
X00680282Y00768910D01*
X00680298Y00768520D01*
X00680759Y00766617D01*
X00680924Y00766262D01*
X00681087Y00765905D01*
X00682231Y00764317D01*
X00682516Y00764051D01*
X00682803Y00763781D01*
X00684462Y00762742D01*
X00684827Y00762603D01*
X00685193Y00762461D01*
X00687122Y00762124D01*
X00687514Y00762133D01*
X00687905Y00762139D01*
X00689818Y00762554D01*
X00690177Y00762710D01*
X00690538Y00762864D01*
X00692153Y00763970D01*
X00692427Y00764250D01*
X00692703Y00764528D01*
X00693782Y00766161D01*
X00693930Y00766524D01*
X00694081Y00766886D01*
X00694232Y00767644D01*
X00694323Y00767871D01*
X00695119Y00772173D01*
X00697375Y00780597D01*
X00700490Y00788714D01*
X00704438Y00796460D01*
X00709174Y00803751D01*
X00714648Y00810505D01*
X00720799Y00816650D01*
X00727558Y00822117D01*
X00734853Y00826847D01*
X00740828Y00829884D01*
X00740828Y00829884D01*
X00742603Y00830787D01*
X00750723Y00833895D01*
X00759149Y00836143D01*
X00763452Y00836935D01*
X00763652Y00837014D01*
X00763863Y00837056D01*
X00763932Y00837102D01*
X00764011Y00837124D01*
X00764062Y00837165D01*
X00764434Y00837239D01*
X00764797Y00837390D01*
X00765159Y00837538D01*
X00766792Y00838617D01*
X00767069Y00838892D01*
X00767350Y00839167D01*
X00768456Y00840782D01*
X00768610Y00841143D01*
X00768766Y00841502D01*
X00769181Y00843415D01*
X00769187Y00843804D01*
X00769196Y00844198D01*
X00768859Y00846127D01*
X00768717Y00846493D01*
X00768578Y00846858D01*
X00767539Y00848517D01*
X00767270Y00848802D01*
X00767003Y00849089D01*
X00765415Y00850233D01*
X00765059Y00850396D01*
X00764703Y00850561D01*
X00762800Y00851022D01*
X00762410Y00851038D01*
X00762018Y00851056D01*
X00762018Y00851056D02*
G37*
G36*
X00701765Y00755759D02*
X00701764Y00755742D01*
X00701495Y00755191D01*
X00701765Y00754629D01*
X00701765Y00755759D01*
X00701765Y00755759D02*
G37*
G36*
X00790482Y00851056D02*
X00790090Y00851038D01*
X00789700Y00851022D01*
X00787797Y00850561D01*
X00787442Y00850396D01*
X00787085Y00850233D01*
X00785497Y00849089D01*
X00785231Y00848804D01*
X00784961Y00848517D01*
X00783922Y00846858D01*
X00783783Y00846493D01*
X00783641Y00846127D01*
X00783304Y00844198D01*
X00783313Y00843806D01*
X00783319Y00843415D01*
X00783734Y00841502D01*
X00783890Y00841143D01*
X00784044Y00840782D01*
X00785150Y00839167D01*
X00785430Y00838893D01*
X00785708Y00838617D01*
X00787341Y00837538D01*
X00787704Y00837390D01*
X00788066Y00837239D01*
X00788438Y00837165D01*
X00788489Y00837124D01*
X00788773Y00837044D01*
X00789048Y00836935D01*
X00793351Y00836143D01*
X00801777Y00833895D01*
X00809897Y00830787D01*
X00817647Y00826847D01*
X00824942Y00822117D01*
X00831701Y00816650D01*
X00837852Y00810505D01*
X00843326Y00803751D01*
X00848062Y00796460D01*
X00852010Y00788714D01*
X00855125Y00780597D01*
X00857381Y00772173D01*
X00858177Y00767871D01*
X00858257Y00767672D01*
X00858298Y00767462D01*
X00858307Y00767449D01*
X00858419Y00766886D01*
X00858570Y00766523D01*
X00858718Y00766161D01*
X00859797Y00764528D01*
X00860072Y00764251D01*
X00860347Y00763970D01*
X00861962Y00762864D01*
X00862323Y00762710D01*
X00862682Y00762554D01*
X00864595Y00762139D01*
X00864984Y00762133D01*
X00865378Y00762124D01*
X00867307Y00762461D01*
X00867673Y00762603D01*
X00868038Y00762742D01*
X00869697Y00763781D01*
X00869983Y00764050D01*
X00870269Y00764317D01*
X00871413Y00765905D01*
X00871575Y00766261D01*
X00871741Y00766617D01*
X00872202Y00768520D01*
X00872218Y00768910D01*
X00872236Y00769302D01*
X00872091Y00770270D01*
X00872088Y00770279D01*
X00872089Y00770288D01*
X00871504Y00773972D01*
X00871476Y00774048D01*
X00871472Y00774129D01*
X00869728Y00781382D01*
X00869694Y00781456D01*
X00869685Y00781536D01*
X00867377Y00788631D01*
X00867338Y00788702D01*
X00867322Y00788781D01*
X00864465Y00795673D01*
X00864420Y00795740D01*
X00864398Y00795818D01*
X00861010Y00802465D01*
X00860960Y00802529D01*
X00860932Y00802605D01*
X00857033Y00808965D01*
X00856978Y00809025D01*
X00856944Y00809098D01*
X00852558Y00815133D01*
X00852498Y00815188D01*
X00852459Y00815259D01*
X00847613Y00820932D01*
X00847550Y00820982D01*
X00847505Y00821049D01*
X00842229Y00826325D01*
X00842162Y00826370D01*
X00842112Y00826433D01*
X00836439Y00831279D01*
X00836368Y00831318D01*
X00836313Y00831378D01*
X00830278Y00835764D01*
X00830205Y00835798D01*
X00830145Y00835853D01*
X00823785Y00839752D01*
X00823709Y00839780D01*
X00823645Y00839830D01*
X00816998Y00843218D01*
X00816920Y00843240D01*
X00816853Y00843285D01*
X00809961Y00846142D01*
X00809882Y00846158D01*
X00809811Y00846197D01*
X00802717Y00848505D01*
X00802636Y00848514D01*
X00802562Y00848548D01*
X00795309Y00850292D01*
X00795228Y00850295D01*
X00795152Y00850323D01*
X00791468Y00850909D01*
X00791459Y00850908D01*
X00791450Y00850911D01*
X00790482Y00851056D01*
X00790482Y00851056D02*
G37*
G36*
X00723000Y00787832D02*
X00720520Y00787505D01*
X00718209Y00786548D01*
X00716225Y00785025D01*
X00714702Y00783041D01*
X00713745Y00780730D01*
X00713418Y00778250D01*
X00713745Y00775770D01*
X00714702Y00773459D01*
X00716225Y00771475D01*
X00718209Y00769952D01*
X00720520Y00768995D01*
X00723000Y00768668D01*
X00725480Y00768995D01*
X00727791Y00769952D01*
X00729775Y00771475D01*
X00731298Y00773459D01*
X00732255Y00775770D01*
X00732582Y00778250D01*
X00732255Y00780730D01*
X00731298Y00783041D01*
X00729775Y00785025D01*
X00727791Y00786548D01*
X00725480Y00787505D01*
X00723000Y00787832D01*
X00723000Y00787832D02*
G37*
%LPD*%
G36*
X00745461Y00746410D02*
X00745316Y00746093D01*
X00745188Y00745678D01*
X00745077Y00745164D01*
X00744983Y00744554D01*
X00744847Y00743038D01*
X00744779Y00741132D01*
X00744770Y00740032D01*
X00742230Y00740032D01*
X00742222Y00741132D01*
X00741923Y00745164D01*
X00741812Y00745678D01*
X00741684Y00746093D01*
X00741539Y00746410D01*
X00741377Y00746630D01*
X00745623Y00746630D01*
X00745461Y00746410D01*
X00745461Y00746410D02*
G37*
G36*
X00813971Y00810902D02*
X00815219Y00810069D01*
X00816052Y00808821D01*
X00816385Y00807149D01*
X00816385Y00805467D01*
X00816392Y00805427D01*
X00816386Y00805387D01*
X00816389Y00805313D01*
X00816437Y00804084D01*
X00816490Y00803862D01*
X00816505Y00803635D01*
X00816582Y00803479D01*
X00816622Y00803310D01*
X00816756Y00803126D01*
X00816789Y00803057D01*
X00817333Y00801745D01*
X00817521Y00800316D01*
X00817521Y00793550D01*
X00817521Y00786650D01*
X00817521Y00777817D01*
X00817547Y00777685D01*
X00817539Y00777551D01*
X00817624Y00777298D01*
X00817676Y00777037D01*
X00817751Y00776925D01*
X00817794Y00776797D01*
X00817970Y00776597D01*
X00818119Y00776375D01*
X00818230Y00776300D01*
X00818319Y00776199D01*
X00818358Y00776169D01*
X00819110Y00775418D01*
X00819467Y00775179D01*
X00819470Y00775176D01*
X00821001Y00774001D01*
X00822012Y00772683D01*
X00822648Y00771147D01*
X00822883Y00769366D01*
X00822883Y00743001D01*
X00822922Y00742804D01*
X00822922Y00742603D01*
X00822999Y00742417D01*
X00823038Y00742220D01*
X00823150Y00742053D01*
X00823226Y00741868D01*
X00823369Y00741726D01*
X00823480Y00741559D01*
X00823647Y00741447D01*
X00823789Y00741305D01*
X00824009Y00741158D01*
X00824151Y00741016D01*
X00824151Y00741016D01*
X00825158Y00740009D01*
X00825158Y00740009D01*
X00826061Y00738658D01*
X00826683Y00737156D01*
X00827000Y00735563D01*
X00827000Y00734750D01*
X00827000Y00733913D01*
X00826808Y00732949D01*
X00826673Y00732271D01*
X00826673Y00732271D01*
X00826673Y00732271D01*
X00826033Y00730724D01*
X00825102Y00729332D01*
X00824960Y00729190D01*
X00824960Y00729190D01*
X00824522Y00728751D01*
X00824396Y00728563D01*
X00824240Y00728399D01*
X00824177Y00728235D01*
X00824080Y00728090D01*
X00824036Y00727868D01*
X00823954Y00727656D01*
X00823802Y00727500D01*
X00822949Y00727500D01*
X00822526Y00727217D01*
X00820979Y00726577D01*
X00819337Y00726250D01*
X00816663Y00726250D01*
X00815021Y00726577D01*
X00813474Y00727217D01*
X00812082Y00728148D01*
X00810898Y00729332D01*
X00809967Y00730724D01*
X00809327Y00732271D01*
X00809000Y00733913D01*
X00809000Y00734750D01*
X00809000Y00735563D01*
X00809317Y00737156D01*
X00809939Y00738658D01*
X00810250Y00739123D01*
X00810250Y00757000D01*
X00810117Y00757133D01*
X00810117Y00766576D01*
X00810065Y00766838D01*
X00810048Y00767104D01*
X00809988Y00767225D01*
X00809962Y00767357D01*
X00809814Y00767579D01*
X00809696Y00767818D01*
X00808793Y00768994D01*
X00808193Y00770444D01*
X00808133Y00770899D01*
X00808047Y00771151D01*
X00807995Y00771413D01*
X00807667Y00772205D01*
X00807479Y00773634D01*
X00807479Y00779750D01*
X00807479Y00786650D01*
X00807479Y00793550D01*
X00807479Y00800316D01*
X00807667Y00801745D01*
X00808167Y00802952D01*
X00808194Y00802987D01*
X00808312Y00803226D01*
X00808460Y00803448D01*
X00808486Y00803580D01*
X00808546Y00803701D01*
X00808563Y00803967D01*
X00808615Y00804229D01*
X00808615Y00807149D01*
X00808948Y00808821D01*
X00809781Y00810069D01*
X00811029Y00810902D01*
X00811522Y00811000D01*
X00813478Y00811000D01*
X00813971Y00810902D01*
X00813971Y00810902D02*
G37*
G36*
X00732992Y00714066D02*
X00733049Y00712660D01*
X00733304Y00711214D01*
X00733758Y00709729D01*
X00734410Y00708205D01*
X00735260Y00706641D01*
X00736308Y00705037D01*
X00737554Y00703394D01*
X00738999Y00701711D01*
X00740642Y00699988D01*
X00735664Y00696705D01*
X00724123Y00709429D01*
X00733133Y00715432D01*
X00732992Y00714066D01*
X00732992Y00714066D02*
G37*
D10*
X00886301Y00756044D02*
G03*
X00666301Y00756044I-00110000J00000000D01*
G01*
D21*
X00752250Y00694250D02*
X00807500Y00694250D01*
X00813750Y00700500D01*
X00813750Y00706000D01*
X00815250Y00721500D02*
X00815250Y00721750D01*
X00743500Y00748750D02*
X00743500Y00703000D01*
X00752250Y00694250D01*
D24*
X00812500Y00773500D02*
X00814000Y00772000D01*
X00812500Y00800450D02*
X00812500Y00807350D01*
D29*
X00725750Y00716750D02*
D03*
X00723000Y00778250D02*
D03*
X00732536Y00800100D02*
D03*
D30*
X00725213Y00694176D02*
D03*
X00736550Y00686238D02*
D03*
X00715426Y00703963D02*
D03*
X00748703Y00680550D02*
D03*
X00779750Y00687250D02*
D03*
X00779500Y00702500D02*
D03*
X00803064Y00681328D02*
D03*
X00815950Y00686238D02*
D03*
X00827287Y00694176D02*
D03*
X00837074Y00703963D02*
D03*
X00850862Y00727844D02*
D03*
X00854444Y00741212D02*
D03*
X00855650Y00755194D02*
D03*
X00848250Y00758250D02*
D03*
X00844750Y00749750D02*
D03*
X00848250Y00770250D02*
D03*
X00854444Y00768788D02*
D03*
X00850862Y00782156D02*
D03*
X00839500Y00781000D02*
D03*
X00844738Y00794968D02*
D03*
X00827287Y00815824D02*
D03*
X00837074Y00806037D02*
D03*
X00831500Y00770250D02*
D03*
X00831500Y00758250D02*
D03*
X00818000Y00740000D02*
D03*
X00814000Y00734750D02*
D03*
X00822000Y00734750D02*
D03*
X00818000Y00729250D02*
D03*
X00815250Y00721500D02*
D03*
X00800750Y00745500D02*
D03*
X00793250Y00745500D02*
D03*
X00797000Y00750500D02*
D03*
X00804500Y00750500D02*
D03*
X00812500Y00779750D02*
D03*
X00812500Y00786650D02*
D03*
X00812500Y00793550D02*
D03*
X00812500Y00800450D02*
D03*
X00812500Y00807350D02*
D03*
X00743500Y00748750D02*
D03*
X00742500Y00694000D02*
D03*
X00800750Y00700750D02*
D03*
X00715426Y00806037D02*
D03*
X00725213Y00815824D02*
D03*
X00707488Y00794700D02*
D03*
X00701638Y00782156D02*
D03*
X00698056Y00768788D02*
D03*
X00696851Y00755305D02*
D03*
X00698056Y00741212D02*
D03*
X00701638Y00727844D02*
D03*
X00707488Y00715300D02*
D03*
D31*
X00769750Y00717376D02*
D03*
X00769750Y00728376D02*
D03*
X00780750Y00728376D02*
D03*
X00780750Y00717376D02*
D03*
X00780750Y00739376D02*
D03*
X00769750Y00739376D02*
D03*
D32*
X00814000Y00772000D02*
D03*
D33*
X00819750Y00709500D02*
D03*
D34*
X00839750Y00765750D02*
D03*
D35*
X00816500Y00740000D02*
X00816500Y00769500D01*
D36*
X00725750Y00710750D02*
X00725750Y00716750D01*
X00725750Y00710750D02*
X00742500Y00694000D01*
D37*
X00812500Y00773500D02*
X00812500Y00779750D01*
X00812500Y00786650D01*
X00812500Y00793550D01*
X00812500Y00800450D01*
D38*
X00814000Y00772000D02*
X00816500Y00769500D01*
D39*
X00819250Y00713625D02*
D03*
M02*
