G04 Layer_Color=8388736*
%FSAX44Y44*%
%MOMM*%
G71*
G01*
G75*
%ADD10C,0.3000*%
%ADD31C,0.1000*%
%ADD32R,1.7032X0.8032*%
%ADD33R,2.4032X3.2032*%
%ADD34R,1.9032X5.9032*%
%ADD35R,1.0032X1.1032*%
%ADD36R,1.0032X1.1032*%
%ADD37R,1.1032X2.0032*%
%ADD38R,2.0032X1.1032*%
%ADD39R,1.1032X1.0032*%
%ADD40R,1.1032X1.0032*%
%ADD41C,1.7032*%
%ADD42C,0.8032*%
%ADD43C,1.2032*%
%ADD44C,1.4032*%
%ADD45C,1.0032*%
G36*
X00886197Y00750823D02*
X00885514Y00742213D01*
X00884158Y00733682D01*
X00882137Y00725284D01*
X00879464Y00717071D01*
X00876156Y00709092D01*
X00872232Y00701397D01*
X00867717Y00694034D01*
X00862638Y00687047D01*
X00857027Y00680480D01*
X00850919Y00674373D01*
X00844351Y00668764D01*
X00837363Y00663687D01*
X00829998Y00659173D01*
X00822302Y00655251D01*
X00814323Y00651944D01*
X00806109Y00649273D01*
X00797710Y00647254D01*
X00789180Y00645900D01*
X00780569Y00645219D01*
X00776250Y00645217D01*
X00776308Y00680286D01*
X00776308Y00680287D01*
X00779464Y00680356D01*
X00785752Y00680891D01*
X00791973Y00681954D01*
X00798083Y00683535D01*
X00804038Y00685624D01*
X00809796Y00688207D01*
X00815317Y00691265D01*
X00820561Y00694776D01*
X00825491Y00698716D01*
X00830073Y00703056D01*
X00834274Y00707766D01*
X00838064Y00712812D01*
X00839796Y00715451D01*
X00841145Y00717688D01*
X00843604Y00722296D01*
X00845737Y00727064D01*
X00847533Y00731969D01*
X00848983Y00736987D01*
X00850081Y00742094D01*
X00850820Y00747265D01*
X00851197Y00752475D01*
X00851250Y00755087D01*
X00851250Y00755087D01*
X00886200Y00755142D01*
X00886197Y00750823D01*
X00886197Y00750823D02*
G37*
G36*
X00701250Y00755087D02*
X00701250Y00755087D01*
X00701303Y00752475D01*
X00701680Y00747265D01*
X00702419Y00742094D01*
X00703517Y00736987D01*
X00704967Y00731969D01*
X00706763Y00727064D01*
X00708896Y00722296D01*
X00711355Y00717688D01*
X00712704Y00715451D01*
X00714436Y00712812D01*
X00718226Y00707766D01*
X00722427Y00703056D01*
X00727009Y00698716D01*
X00731939Y00694776D01*
X00737183Y00691265D01*
X00742704Y00688207D01*
X00748462Y00685624D01*
X00754417Y00683535D01*
X00760527Y00681954D01*
X00766748Y00680891D01*
X00773036Y00680356D01*
X00776192Y00680287D01*
X00776192Y00680286D01*
X00776250Y00645217D01*
X00776250Y00645217D01*
X00771931Y00645219D01*
X00763320Y00645900D01*
X00754790Y00647254D01*
X00746391Y00649273D01*
X00738177Y00651944D01*
X00730198Y00655251D01*
X00722502Y00659173D01*
X00715137Y00663687D01*
X00708149Y00668764D01*
X00701581Y00674373D01*
X00695473Y00680480D01*
X00689862Y00687047D01*
X00684783Y00694034D01*
X00680268Y00701397D01*
X00676344Y00709092D01*
X00673036Y00717071D01*
X00670363Y00725284D01*
X00668342Y00733682D01*
X00666986Y00742213D01*
X00666303Y00750823D01*
X00666300Y00755142D01*
X00701250Y00755087D01*
X00701250Y00755087D02*
G37*
G36*
X00776250Y00865067D02*
X00780569Y00865065D01*
X00789180Y00864384D01*
X00797710Y00863030D01*
X00806109Y00861011D01*
X00814323Y00858340D01*
X00822302Y00855033D01*
X00829998Y00851111D01*
X00837363Y00846598D01*
X00844351Y00841521D01*
X00850919Y00835911D01*
X00857027Y00829804D01*
X00862638Y00823237D01*
X00867717Y00816250D01*
X00872232Y00808887D01*
X00876156Y00801192D01*
X00879464Y00793213D01*
X00882137Y00785000D01*
X00884158Y00776602D01*
X00885514Y00768071D01*
X00886197Y00759461D01*
X00886200Y00755142D01*
X00851250Y00755198D01*
X00851197Y00757809D01*
X00850820Y00763019D01*
X00850081Y00768190D01*
X00848983Y00773297D01*
X00847533Y00778315D01*
X00845737Y00783220D01*
X00843604Y00787988D01*
X00841145Y00792596D01*
X00839796Y00794833D01*
X00838064Y00797472D01*
X00834274Y00802518D01*
X00830073Y00807228D01*
X00825491Y00811568D01*
X00820561Y00815508D01*
X00815317Y00819019D01*
X00809796Y00822077D01*
X00804038Y00824660D01*
X00798083Y00826749D01*
X00791973Y00828331D01*
X00785752Y00829393D01*
X00779464Y00829928D01*
X00776308Y00829997D01*
X00776308Y00829998D01*
X00776250Y00865067D01*
X00776250Y00865067D01*
X00776250Y00865067D01*
X00776250Y00865067D01*
X00776250Y00865067D02*
G37*
G36*
X00776192Y00829998D02*
X00776192Y00829997D01*
X00773036Y00829928D01*
X00766748Y00829393D01*
X00760527Y00828331D01*
X00754417Y00826749D01*
X00748462Y00824660D01*
X00742704Y00822077D01*
X00737183Y00819019D01*
X00731939Y00815508D01*
X00727009Y00811568D01*
X00722427Y00807228D01*
X00718226Y00802518D01*
X00714436Y00797472D01*
X00712704Y00794833D01*
X00711355Y00792596D01*
X00708896Y00787988D01*
X00706763Y00783220D01*
X00704967Y00778315D01*
X00703517Y00773297D01*
X00702419Y00768190D01*
X00701680Y00763019D01*
X00701303Y00757809D01*
X00701250Y00755198D01*
X00701250Y00755198D01*
X00666300Y00755142D01*
X00666303Y00759461D01*
X00666986Y00768071D01*
X00668342Y00776602D01*
X00670363Y00785000D01*
X00673036Y00793213D01*
X00676344Y00801192D01*
X00680268Y00808887D01*
X00684783Y00816250D01*
X00689862Y00823237D01*
X00695473Y00829804D01*
X00701581Y00835911D01*
X00708149Y00841521D01*
X00715137Y00846598D01*
X00722502Y00851111D01*
X00730198Y00855033D01*
X00738177Y00858340D01*
X00746391Y00861011D01*
X00754790Y00863030D01*
X00763320Y00864384D01*
X00771931Y00865065D01*
X00776250Y00865067D01*
X00776250Y00865067D01*
X00776192Y00829998D01*
X00776192Y00829998D02*
G37*
D10*
X00666300Y00755142D02*
G03*
X00776250Y00645217I00110000J00000075D01*
G01*
X00776250Y00645217D02*
G03*
X00886200Y00755142I-00000050J00110000D01*
G01*
X00886200Y00755142D02*
G03*
X00776250Y00865067I-00110000J-00000075D01*
G01*
X00776250Y00865067D02*
G03*
X00666300Y00755142I00000050J-00110000D01*
G01*
D31*
X00712704Y00715451D02*
G03*
X00776192Y00680287I00063546J00039836D01*
G01*
X00776308Y00680287D02*
G03*
X00839796Y00715451I-00000058J00075000D01*
G01*
X00839796Y00715451D02*
G03*
X00851250Y00755087I-00063546J00039836D01*
G01*
X00851250Y00755198D02*
G03*
X00839796Y00794833I-00075000J-00000200D01*
G01*
X00839796Y00794833D02*
G03*
X00776308Y00829997I-00063546J-00039836D01*
G01*
X00776192Y00829997D02*
G03*
X00712704Y00794833I00000058J-00075000D01*
G01*
X00712704Y00794833D02*
G03*
X00701250Y00755198I00063546J-00039836D01*
G01*
X00701250Y00755087D02*
G03*
X00712704Y00715451I00075000J00000200D01*
G01*
D32*
X00748250Y00709326D02*
D03*
X00748250Y00722026D02*
D03*
X00748250Y00734726D02*
D03*
X00748250Y00747426D02*
D03*
X00802250Y00709326D02*
D03*
X00802250Y00722026D02*
D03*
X00802250Y00734726D02*
D03*
X00802250Y00747426D02*
D03*
D33*
X00775250Y00728376D02*
D03*
D34*
X00800000Y00800000D02*
D03*
X00755000Y00800000D02*
D03*
D35*
X00750380Y00758999D02*
D03*
X00783630Y00758999D02*
D03*
D36*
X00765620Y00759000D02*
D03*
X00798870Y00759000D02*
D03*
D37*
X00762000Y00692749D02*
D03*
X00791000Y00692749D02*
D03*
D38*
X00830249Y00720500D02*
D03*
X00830249Y00749500D02*
D03*
D39*
X00723750Y00734880D02*
D03*
D40*
X00723749Y00750120D02*
D03*
D41*
X00725750Y00716750D02*
D03*
X00723000Y00778250D02*
D03*
X00732536Y00800100D02*
D03*
D42*
X00725213Y00694176D02*
D03*
X00736550Y00686238D02*
D03*
X00715426Y00703963D02*
D03*
X00748703Y00680550D02*
D03*
X00762462Y00676806D02*
D03*
X00775512Y00675194D02*
D03*
X00790038Y00676806D02*
D03*
X00803064Y00681328D02*
D03*
X00815950Y00686238D02*
D03*
X00827287Y00694176D02*
D03*
X00837074Y00703963D02*
D03*
X00850862Y00727844D02*
D03*
X00854444Y00741212D02*
D03*
X00855650Y00755194D02*
D03*
X00846250Y00758500D02*
D03*
X00839750Y00758500D02*
D03*
X00846250Y00749000D02*
D03*
X00854444Y00768788D02*
D03*
X00850862Y00782156D02*
D03*
X00844738Y00794968D02*
D03*
X00827287Y00815824D02*
D03*
X00815608Y00824048D02*
D03*
X00837074Y00806037D02*
D03*
X00790038Y00833194D02*
D03*
X00812500Y00807350D02*
D03*
X00812500Y00800450D02*
D03*
X00812500Y00793550D02*
D03*
X00812500Y00786650D02*
D03*
X00812500Y00779750D02*
D03*
X00812500Y00760500D02*
D03*
X00814000Y00734750D02*
D03*
X00822000Y00734750D02*
D03*
X00817750Y00719250D02*
D03*
X00814250Y00747500D02*
D03*
X00814500Y00754000D02*
D03*
X00833250Y00758500D02*
D03*
X00762462Y00833194D02*
D03*
X00737371Y00824048D02*
D03*
X00725213Y00815824D02*
D03*
X00715426Y00806037D02*
D03*
X00707488Y00794700D02*
D03*
X00701638Y00782156D02*
D03*
X00698056Y00768788D02*
D03*
X00696851Y00755305D02*
D03*
X00698056Y00741212D02*
D03*
X00701638Y00727844D02*
D03*
X00707488Y00715300D02*
D03*
D43*
X00832488Y00783218D02*
D03*
D44*
X00737362Y00759206D02*
D03*
D45*
X00814000Y00772000D02*
D03*
M02*
