G04 Layer_Color=8388736*
%FSLAX25Y25*%
%MOIN*%
G70*
G01*
G75*
%ADD10C,0.01181*%
%ADD41C,0.00394*%
%ADD42R,0.09855X0.13398*%
%ADD43R,0.03556X0.02178*%
%ADD44R,0.07493X0.23241*%
%ADD45R,0.03950X0.04343*%
%ADD46R,0.03950X0.04343*%
%ADD47R,0.04343X0.07887*%
%ADD48R,0.07887X0.04343*%
%ADD49R,0.04343X0.03950*%
%ADD50R,0.04343X0.03950*%
%ADD51C,0.06706*%
%ADD52C,0.00787*%
%ADD53C,0.05524*%
%ADD54C,0.04737*%
G36*
X348897Y295600D02*
X348628Y292210D01*
X348094Y288851D01*
X347298Y285545D01*
X346246Y282311D01*
X344943Y279170D01*
X343398Y276141D01*
X341621Y273242D01*
X339621Y270491D01*
X337412Y267905D01*
X335007Y265501D01*
X332421Y263293D01*
X329670Y261294D01*
X326771Y259517D01*
X323741Y257973D01*
X320600Y256671D01*
X317366Y255619D01*
X314059Y254824D01*
X310701Y254291D01*
X307311Y254023D01*
X305610Y254022D01*
X305633Y267829D01*
Y267829D01*
X306875Y267857D01*
X309351Y268067D01*
X311800Y268486D01*
X314206Y269108D01*
X316550Y269931D01*
X318817Y270948D01*
X320991Y272152D01*
X323056Y273534D01*
X324997Y275085D01*
X326800Y276794D01*
X328454Y278648D01*
X329946Y280635D01*
X330628Y281674D01*
X331159Y282554D01*
X332128Y284368D01*
X332967Y286246D01*
X333675Y288177D01*
X334245Y290153D01*
X334677Y292163D01*
X334968Y294199D01*
X335117Y296250D01*
X335138Y297278D01*
Y297278D01*
X348898Y297300D01*
X348897Y295600D01*
D02*
G37*
G36*
X276083Y297278D02*
X276083Y297278D01*
X276103Y296250D01*
X276252Y294199D01*
X276543Y292163D01*
X276975Y290153D01*
X277546Y288177D01*
X278253Y286246D01*
X279093Y284368D01*
X280061Y282554D01*
X280592Y281674D01*
X281274Y280635D01*
X282766Y278648D01*
X284420Y276794D01*
X286224Y275085D01*
X288165Y273534D01*
X290230Y272152D01*
X292403Y270948D01*
X294670Y269931D01*
X297015Y269108D01*
X299420Y268486D01*
X301869Y268067D01*
X304345Y267857D01*
X305587Y267829D01*
X305587Y267829D01*
X305610Y254022D01*
X305610D01*
X303910Y254023D01*
X300520Y254291D01*
X297161Y254824D01*
X293855Y255619D01*
X290621Y256671D01*
X287479Y257973D01*
X284450Y259517D01*
X281550Y261294D01*
X278799Y263293D01*
X276213Y265501D01*
X273808Y267905D01*
X271599Y270491D01*
X269600Y273242D01*
X267822Y276141D01*
X266277Y279170D01*
X264975Y282311D01*
X263922Y285545D01*
X263127Y288851D01*
X262593Y292210D01*
X262324Y295600D01*
X262323Y297300D01*
X276083Y297278D01*
D02*
G37*
G36*
X305610Y340578D02*
X307311Y340577D01*
X310701Y340309D01*
X314059Y339776D01*
X317366Y338981D01*
X320600Y337929D01*
X323741Y336627D01*
X326771Y335083D01*
X329670Y333306D01*
X332421Y331307D01*
X335007Y329099D01*
X337412Y326695D01*
X339621Y324109D01*
X341621Y321358D01*
X343398Y318459D01*
X344943Y315430D01*
X346246Y312289D01*
X347298Y309055D01*
X348094Y305749D01*
X348628Y302390D01*
X348897Y299000D01*
X348898Y297300D01*
X335138Y297322D01*
X335117Y298350D01*
X334968Y300401D01*
X334677Y302437D01*
X334245Y304448D01*
X333675Y306423D01*
X332967Y308354D01*
X332128Y310232D01*
X331159Y312046D01*
X330628Y312927D01*
X329946Y313965D01*
X328454Y315952D01*
X326800Y317806D01*
X324997Y319515D01*
X323056Y321066D01*
X320991Y322448D01*
X318817Y323652D01*
X316550Y324669D01*
X314206Y325492D01*
X311800Y326114D01*
X309351Y326533D01*
X306875Y326744D01*
X305633Y326771D01*
Y326771D01*
X305610Y340578D01*
D01*
Y340578D01*
Y340578D01*
D02*
G37*
G36*
X305587Y326771D02*
X305587Y326771D01*
X304345Y326744D01*
X301869Y326533D01*
X299420Y326114D01*
X297015Y325492D01*
X294670Y324669D01*
X292403Y323652D01*
X290230Y322448D01*
X288165Y321066D01*
X286224Y319515D01*
X284420Y317806D01*
X282766Y315952D01*
X281274Y313965D01*
X280592Y312927D01*
X280061Y312046D01*
X279093Y310232D01*
X278253Y308354D01*
X277546Y306423D01*
X276975Y304448D01*
X276543Y302437D01*
X276252Y300401D01*
X276103Y298350D01*
X276083Y297322D01*
X276083D01*
X262323Y297300D01*
X262324Y299000D01*
X262593Y302390D01*
X263127Y305749D01*
X263922Y309055D01*
X264975Y312289D01*
X266277Y315430D01*
X267822Y318459D01*
X269600Y321358D01*
X271599Y324109D01*
X273808Y326695D01*
X276213Y329099D01*
X278799Y331307D01*
X281550Y333306D01*
X284450Y335083D01*
X287479Y336627D01*
X290621Y337929D01*
X293855Y338981D01*
X297161Y339776D01*
X300520Y340309D01*
X303910Y340577D01*
X305610Y340578D01*
X305610Y340578D01*
X305587Y326771D01*
D02*
G37*
D10*
X348898Y297300D02*
X348885Y298300D01*
X348850Y299299D01*
X348792Y300297D01*
X348710Y301293D01*
X348606Y302287D01*
X348479Y303279D01*
X348329Y304267D01*
X348156Y305252D01*
X347960Y306232D01*
X347742Y307207D01*
X347502Y308178D01*
X347239Y309142D01*
X346954Y310100D01*
X346646Y311052D01*
X346318Y311996D01*
X345967Y312932D01*
X345595Y313859D01*
X345201Y314778D01*
X344786Y315688D01*
X344351Y316588D01*
X343895Y317477D01*
X343418Y318356D01*
X342921Y319223D01*
X342405Y320079D01*
X341868Y320923D01*
X341313Y321754D01*
X340738Y322572D01*
X340145Y323376D01*
X339533Y324167D01*
X338903Y324943D01*
X338256Y325705D01*
X337591Y326451D01*
X336909Y327182D01*
X336210Y327897D01*
X335495Y328595D01*
X334764Y329277D01*
X334017Y329942D01*
X333256Y330590D01*
X332479Y331219D01*
X331688Y331831D01*
X330884Y332424D01*
X330066Y332998D01*
X329235Y333554D01*
X328391Y334090D01*
X327535Y334606D01*
X326667Y335103D01*
X325788Y335579D01*
X324899Y336035D01*
X323999Y336471D01*
X323089Y336885D01*
X322170Y337278D01*
X321242Y337650D01*
X320306Y338001D01*
X319362Y338330D01*
X318411Y338636D01*
X317453Y338921D01*
X316488Y339184D01*
X315518Y339424D01*
X314542Y339642D01*
X313562Y339838D01*
X312577Y340010D01*
X311589Y340160D01*
X310597Y340287D01*
X309603Y340391D01*
X308607Y340473D01*
X307609Y340531D01*
X306610Y340566D01*
X305610Y340578D01*
Y254022D02*
X306610Y254034D01*
X307609Y254069D01*
X308607Y254128D01*
X309603Y254209D01*
X310597Y254313D01*
X311589Y254440D01*
X312577Y254590D01*
X313562Y254762D01*
X314542Y254958D01*
X315518Y255176D01*
X316488Y255416D01*
X317453Y255679D01*
X318411Y255963D01*
X319362Y256270D01*
X320306Y256599D01*
X321242Y256950D01*
X322170Y257322D01*
X323089Y257715D01*
X323999Y258130D01*
X324899Y258565D01*
X325788Y259021D01*
X326667Y259497D01*
X327535Y259994D01*
X328391Y260510D01*
X329235Y261046D01*
X330066Y261602D01*
X330884Y262176D01*
X331688Y262769D01*
X332479Y263381D01*
X333256Y264011D01*
X334017Y264658D01*
X334764Y265323D01*
X335495Y266005D01*
X336210Y266703D01*
X336909Y267418D01*
X337591Y268149D01*
X338256Y268895D01*
X338903Y269657D01*
X339533Y270433D01*
X340145Y271224D01*
X340738Y272028D01*
X341313Y272846D01*
X341868Y273677D01*
X342405Y274521D01*
X342921Y275377D01*
X343418Y276244D01*
X343895Y277123D01*
X344351Y278012D01*
X344786Y278912D01*
X345201Y279822D01*
X345595Y280741D01*
X345967Y281668D01*
X346318Y282605D01*
X346646Y283548D01*
X346954Y284500D01*
X347239Y285458D01*
X347502Y286422D01*
X347742Y287393D01*
X347960Y288368D01*
X348156Y289349D01*
X348329Y290333D01*
X348479Y291321D01*
X348606Y292313D01*
X348710Y293307D01*
X348792Y294303D01*
X348850Y295301D01*
X348885Y296300D01*
X348898Y297300D01*
X262323Y297300D02*
X262335Y296301D01*
X262370Y295301D01*
X262429Y294303D01*
X262510Y293307D01*
X262614Y292313D01*
X262742Y291321D01*
X262892Y290333D01*
X263065Y289349D01*
X263260Y288368D01*
X263478Y287393D01*
X263719Y286422D01*
X263982Y285458D01*
X264267Y284500D01*
X264574Y283548D01*
X264903Y282605D01*
X265254Y281668D01*
X265626Y280741D01*
X266020Y279822D01*
X266434Y278912D01*
X266870Y278012D01*
X267326Y277123D01*
X267802Y276244D01*
X268299Y275377D01*
X268816Y274521D01*
X269352Y273677D01*
X269908Y272846D01*
X270482Y272028D01*
X271076Y271224D01*
X271687Y270433D01*
X272317Y269657D01*
X272965Y268895D01*
X273630Y268149D01*
X274312Y267418D01*
X275011Y266703D01*
X275726Y266005D01*
X276457Y265323D01*
X277203Y264658D01*
X277965Y264011D01*
X278741Y263381D01*
X279532Y262769D01*
X280337Y262176D01*
X281155Y261602D01*
X281986Y261046D01*
X282830Y260510D01*
X283685Y259994D01*
X284553Y259497D01*
X285432Y259021D01*
X286321Y258565D01*
X287221Y258130D01*
X288131Y257715D01*
X289050Y257322D01*
X289978Y256950D01*
X290914Y256599D01*
X291858Y256271D01*
X292810Y255963D01*
X293768Y255679D01*
X294732Y255416D01*
X295703Y255176D01*
X296678Y254958D01*
X297658Y254762D01*
X298643Y254590D01*
X299631Y254440D01*
X300623Y254313D01*
X301617Y254209D01*
X302613Y254128D01*
X303611Y254069D01*
X304610Y254034D01*
X305610Y254022D01*
X305610Y340578D02*
X304611Y340566D01*
X303612Y340531D01*
X302614Y340473D01*
X301617Y340391D01*
X300623Y340287D01*
X299632Y340160D01*
X298643Y340010D01*
X297659Y339838D01*
X296678Y339642D01*
X295703Y339424D01*
X294732Y339184D01*
X293768Y338921D01*
X292810Y338636D01*
X291858Y338330D01*
X290914Y338001D01*
X289978Y337650D01*
X289050Y337278D01*
X288131Y336885D01*
X287222Y336471D01*
X286322Y336035D01*
X285432Y335579D01*
X284553Y335103D01*
X283686Y334606D01*
X282830Y334090D01*
X281986Y333554D01*
X281155Y332998D01*
X280337Y332424D01*
X279532Y331831D01*
X278741Y331219D01*
X277965Y330590D01*
X277203Y329942D01*
X276457Y329277D01*
X275726Y328595D01*
X275011Y327897D01*
X274312Y327182D01*
X273630Y326451D01*
X272965Y325705D01*
X272317Y324943D01*
X271687Y324167D01*
X271076Y323376D01*
X270482Y322572D01*
X269908Y321754D01*
X269352Y320923D01*
X268816Y320079D01*
X268299Y319223D01*
X267803Y318356D01*
X267326Y317477D01*
X266870Y316588D01*
X266434Y315688D01*
X266020Y314778D01*
X265626Y313859D01*
X265254Y312932D01*
X264903Y311996D01*
X264574Y311052D01*
X264267Y310100D01*
X263982Y309142D01*
X263719Y308178D01*
X263478Y307207D01*
X263260Y306232D01*
X263065Y305252D01*
X262892Y304267D01*
X262742Y303279D01*
X262614Y302287D01*
X262510Y301293D01*
X262429Y300297D01*
X262370Y299299D01*
X262335Y298300D01*
X262323Y297300D01*
D41*
X335138Y297322D02*
X335117Y298350D01*
X335061Y299377D01*
X334968Y300401D01*
X334841Y301422D01*
X334677Y302437D01*
X334479Y303446D01*
X334245Y304448D01*
X333977Y305440D01*
X333675Y306423D01*
X333338Y307395D01*
X332967Y308354D01*
X332564Y309300D01*
X332128Y310232D01*
X331659Y311147D01*
X331159Y312046D01*
X330628Y312927D01*
X330086Y313760D01*
X329516Y314574D01*
X328919Y315369D01*
X328296Y316144D01*
X327647Y316897D01*
X326973Y317627D01*
X326274Y318335D01*
X325553Y319019D01*
X324809Y319677D01*
X324042Y320311D01*
X323255Y320918D01*
X322448Y321499D01*
X321622Y322052D01*
X320778Y322577D01*
X319917Y323073D01*
X319039Y323540D01*
X318146Y323977D01*
X317239Y324384D01*
X316319Y324760D01*
X315387Y325105D01*
X314443Y325418D01*
X313490Y325700D01*
X312527Y325949D01*
X311557Y326166D01*
X310580Y326349D01*
X309598Y326500D01*
X308611Y326618D01*
X307620Y326702D01*
X306627Y326753D01*
X305633Y326771D01*
Y267829D02*
X306627Y267847D01*
X307620Y267898D01*
X308611Y267982D01*
X309598Y268100D01*
X310580Y268251D01*
X311557Y268435D01*
X312527Y268651D01*
X313490Y268900D01*
X314443Y269182D01*
X315387Y269495D01*
X316319Y269840D01*
X317239Y270216D01*
X318146Y270623D01*
X319039Y271060D01*
X319917Y271527D01*
X320778Y272023D01*
X321622Y272548D01*
X322448Y273101D01*
X323255Y273682D01*
X324042Y274289D01*
X324809Y274923D01*
X325553Y275582D01*
X326274Y276265D01*
X326973Y276973D01*
X327647Y277703D01*
X328296Y278456D01*
X328919Y279231D01*
X329516Y280026D01*
X330086Y280840D01*
X330628Y281674D01*
X331159Y282554D01*
X331659Y283453D01*
X332128Y284368D01*
X332564Y285300D01*
X332967Y286246D01*
X333338Y287205D01*
X333675Y288177D01*
X333977Y289160D01*
X334245Y290153D01*
X334479Y291154D01*
X334677Y292163D01*
X334841Y293179D01*
X334968Y294199D01*
X335061Y295223D01*
X335117Y296250D01*
X335138Y297278D01*
X276083Y297278D02*
X276103Y296250D01*
X276160Y295223D01*
X276252Y294199D01*
X276380Y293178D01*
X276543Y292163D01*
X276742Y291154D01*
X276975Y290152D01*
X277243Y289160D01*
X277546Y288177D01*
X277883Y287205D01*
X278253Y286246D01*
X278657Y285300D01*
X279093Y284368D01*
X279561Y283453D01*
X280061Y282554D01*
X280592Y281674D01*
X281134Y280840D01*
X281704Y280026D01*
X282301Y279231D01*
X282925Y278456D01*
X283574Y277703D01*
X284248Y276973D01*
X284946Y276265D01*
X285668Y275582D01*
X286412Y274923D01*
X287178Y274289D01*
X287965Y273682D01*
X288772Y273101D01*
X289598Y272548D01*
X290442Y272023D01*
X291304Y271527D01*
X292181Y271060D01*
X293074Y270623D01*
X293981Y270216D01*
X294901Y269840D01*
X295834Y269495D01*
X296777Y269182D01*
X297731Y268900D01*
X298693Y268651D01*
X299663Y268435D01*
X300640Y268251D01*
X301623Y268100D01*
X302610Y267982D01*
X303601Y267898D01*
X304593Y267847D01*
X305587Y267829D01*
Y326771D02*
X304593Y326753D01*
X303601Y326702D01*
X302610Y326618D01*
X301623Y326500D01*
X300640Y326349D01*
X299663Y326166D01*
X298693Y325949D01*
X297731Y325700D01*
X296777Y325418D01*
X295834Y325105D01*
X294901Y324760D01*
X293981Y324384D01*
X293074Y323977D01*
X292181Y323540D01*
X291304Y323073D01*
X290442Y322577D01*
X289598Y322052D01*
X288772Y321499D01*
X287965Y320918D01*
X287178Y320311D01*
X286412Y319677D01*
X285668Y319019D01*
X284946Y318335D01*
X284248Y317627D01*
X283574Y316897D01*
X282925Y316144D01*
X282301Y315369D01*
X281704Y314574D01*
X281134Y313760D01*
X280592Y312927D01*
X280061Y312046D01*
X279561Y311147D01*
X279093Y310232D01*
X278657Y309300D01*
X278253Y308354D01*
X277883Y307395D01*
X277546Y306423D01*
X277243Y305440D01*
X276975Y304448D01*
X276742Y303446D01*
X276543Y302437D01*
X276380Y301422D01*
X276252Y300401D01*
X276160Y299377D01*
X276103Y298350D01*
X276083Y297322D01*
D42*
X305217Y286762D02*
D03*
D43*
X312697Y291487D02*
D03*
Y288337D02*
D03*
Y285187D02*
D03*
Y282038D02*
D03*
X297736D02*
D03*
Y285187D02*
D03*
Y288337D02*
D03*
Y291487D02*
D03*
D44*
X297244Y314961D02*
D03*
X314961D02*
D03*
D45*
X295425Y298819D02*
D03*
X308516Y298819D02*
D03*
D46*
X301425Y298819D02*
D03*
X314516D02*
D03*
D47*
X311417Y272736D02*
D03*
X300000Y272736D02*
D03*
D48*
X326870Y295079D02*
D03*
Y283661D02*
D03*
D49*
X284941Y289323D02*
D03*
D50*
X284941Y295323D02*
D03*
D51*
X288400Y315000D02*
D03*
X284646Y306398D02*
D03*
X285728Y282185D02*
D03*
D52*
X320472Y303937D02*
D03*
D53*
X322736Y279331D02*
D03*
D54*
X330610Y301476D02*
D03*
M02*
