G04 Layer_Color=16711935*
%FSAX44Y44*%
%MOMM*%
G71*
G01*
G75*
%ADD10C,0.3000*%
%ADD31C,0.1000*%
%ADD41C,1.7032*%
%ADD42C,0.8032*%
%ADD43C,1.2032*%
%ADD44C,1.4032*%
%ADD45C,1.0032*%
%ADD46C,0.0500*%
G36*
X00886147Y00750931D02*
X00885464Y00742321D01*
X00884108Y00733790D01*
X00882087Y00725392D01*
X00879414Y00717179D01*
X00876106Y00709200D01*
X00872182Y00701505D01*
X00867667Y00694142D01*
X00862588Y00687155D01*
X00856977Y00680588D01*
X00850869Y00674481D01*
X00844300Y00668872D01*
X00837312Y00663794D01*
X00829948Y00659281D01*
X00822252Y00655359D01*
X00814273Y00652052D01*
X00806059Y00649381D01*
X00797660Y00647362D01*
X00789129Y00646008D01*
X00780519Y00645327D01*
X00776200Y00645325D01*
X00776258Y00680394D01*
X00776258Y00680395D01*
X00779414Y00680464D01*
X00785702Y00680999D01*
X00791923Y00682061D01*
X00798033Y00683643D01*
X00803988Y00685732D01*
X00809746Y00688315D01*
X00815267Y00691373D01*
X00820511Y00694884D01*
X00825442Y00698824D01*
X00830023Y00703164D01*
X00834224Y00707874D01*
X00838014Y00712920D01*
X00839746Y00715559D01*
X00841095Y00717796D01*
X00843554Y00722404D01*
X00845687Y00727172D01*
X00847483Y00732077D01*
X00848933Y00737095D01*
X00850031Y00742202D01*
X00850770Y00747373D01*
X00851147Y00752583D01*
X00851200Y00755194D01*
X00851200Y00755194D01*
X00886150Y00755250D01*
X00886147Y00750931D01*
X00886147Y00750931D02*
G37*
G36*
X00701200Y00755194D02*
X00701200Y00755194D01*
X00701253Y00752583D01*
X00701630Y00747373D01*
X00702369Y00742202D01*
X00703467Y00737095D01*
X00704917Y00732077D01*
X00706713Y00727172D01*
X00708846Y00722404D01*
X00711305Y00717796D01*
X00712654Y00715559D01*
X00714386Y00712920D01*
X00718176Y00707874D01*
X00722377Y00703164D01*
X00726958Y00698824D01*
X00731889Y00694884D01*
X00737133Y00691373D01*
X00742654Y00688315D01*
X00748412Y00685732D01*
X00754367Y00683643D01*
X00760477Y00682061D01*
X00766698Y00680999D01*
X00772986Y00680464D01*
X00776142Y00680395D01*
X00776142Y00680394D01*
X00776200Y00645325D01*
X00776200Y00645325D01*
X00771881Y00645327D01*
X00763270Y00646008D01*
X00754740Y00647362D01*
X00746341Y00649381D01*
X00738127Y00652052D01*
X00730148Y00655359D01*
X00722452Y00659281D01*
X00715087Y00663794D01*
X00708100Y00668872D01*
X00701531Y00674481D01*
X00695423Y00680588D01*
X00689812Y00687155D01*
X00684733Y00694142D01*
X00680218Y00701505D01*
X00676294Y00709200D01*
X00672986Y00717179D01*
X00670313Y00725392D01*
X00668292Y00733790D01*
X00666936Y00742321D01*
X00666253Y00750931D01*
X00666250Y00755250D01*
X00701200Y00755194D01*
X00701200Y00755194D02*
G37*
G36*
X00776760Y00783750D02*
X00778645Y00783750D01*
X00782381Y00783258D01*
X00786022Y00782283D01*
X00789503Y00780840D01*
X00792767Y00778956D01*
X00795757Y00776662D01*
X00798422Y00773997D01*
X00800716Y00771007D01*
X00802601Y00767743D01*
X00804043Y00764261D01*
X00805018Y00760621D01*
X00805510Y00756884D01*
X00805510Y00755000D01*
X00805476Y00753115D01*
X00804918Y00749388D01*
X00803878Y00745765D01*
X00802374Y00742308D01*
X00800432Y00739078D01*
X00798085Y00736129D01*
X00795372Y00733511D01*
X00792342Y00731270D01*
X00789044Y00729444D01*
X00785537Y00728063D01*
X00781880Y00727153D01*
X00778134Y00726727D01*
X00776250Y00726760D01*
X00776250Y00726760D01*
X00774399Y00726760D01*
X00770729Y00727244D01*
X00767153Y00728202D01*
X00763733Y00729618D01*
X00760527Y00731469D01*
X00757590Y00733723D01*
X00754973Y00736340D01*
X00752719Y00739277D01*
X00750868Y00742483D01*
X00749452Y00745903D01*
X00748494Y00749479D01*
X00748010Y00753149D01*
X00748010Y00755000D01*
X00748010Y00756884D01*
X00748502Y00760621D01*
X00749478Y00764261D01*
X00750920Y00767743D01*
X00752804Y00771007D01*
X00755098Y00773997D01*
X00757763Y00776662D01*
X00760753Y00778956D01*
X00764017Y00780841D01*
X00767499Y00782283D01*
X00771140Y00783258D01*
X00774876Y00783750D01*
X00776760Y00783750D01*
X00776760Y00783750D02*
G37*
G36*
X00776200Y00865175D02*
X00780519Y00865173D01*
X00789129Y00864492D01*
X00797660Y00863138D01*
X00806059Y00861119D01*
X00814273Y00858448D01*
X00822252Y00855141D01*
X00829948Y00851219D01*
X00837312Y00846705D01*
X00844300Y00841628D01*
X00850869Y00836019D01*
X00856977Y00829912D01*
X00862588Y00823345D01*
X00867667Y00816358D01*
X00872182Y00808995D01*
X00876106Y00801300D01*
X00879414Y00793321D01*
X00882087Y00785108D01*
X00884108Y00776710D01*
X00885464Y00768179D01*
X00886147Y00759569D01*
X00886150Y00755250D01*
X00851200Y00755305D01*
X00851147Y00757917D01*
X00850770Y00763127D01*
X00850031Y00768298D01*
X00848933Y00773405D01*
X00847483Y00778423D01*
X00845687Y00783328D01*
X00843554Y00788096D01*
X00841095Y00792704D01*
X00839746Y00794941D01*
X00838014Y00797580D01*
X00834224Y00802626D01*
X00830023Y00807336D01*
X00825442Y00811676D01*
X00820511Y00815616D01*
X00815267Y00819127D01*
X00809746Y00822185D01*
X00803988Y00824768D01*
X00798033Y00826857D01*
X00791923Y00828439D01*
X00785702Y00829501D01*
X00779414Y00830036D01*
X00776258Y00830105D01*
X00776258Y00830106D01*
X00776200Y00865175D01*
X00776200Y00865175D01*
X00776200Y00865175D01*
X00776200Y00865175D01*
X00776200Y00865175D02*
G37*
G36*
X00776142Y00830106D02*
X00776142Y00830105D01*
X00772986Y00830036D01*
X00766698Y00829501D01*
X00760477Y00828439D01*
X00754367Y00826857D01*
X00748412Y00824768D01*
X00742654Y00822185D01*
X00737133Y00819127D01*
X00731889Y00815616D01*
X00726958Y00811676D01*
X00722377Y00807336D01*
X00718176Y00802626D01*
X00714386Y00797580D01*
X00712654Y00794941D01*
X00711305Y00792704D01*
X00708846Y00788096D01*
X00706713Y00783328D01*
X00704917Y00778423D01*
X00703467Y00773405D01*
X00702369Y00768298D01*
X00701630Y00763127D01*
X00701253Y00757917D01*
X00701200Y00755305D01*
X00701200Y00755305D01*
X00666250Y00755250D01*
X00666253Y00759569D01*
X00666936Y00768179D01*
X00668292Y00776710D01*
X00670313Y00785108D01*
X00672986Y00793321D01*
X00676294Y00801300D01*
X00680218Y00808995D01*
X00684733Y00816358D01*
X00689812Y00823345D01*
X00695423Y00829912D01*
X00701531Y00836019D01*
X00708100Y00841628D01*
X00715087Y00846705D01*
X00722452Y00851219D01*
X00730148Y00855141D01*
X00738127Y00858448D01*
X00746341Y00861119D01*
X00754740Y00863138D01*
X00763270Y00864492D01*
X00771881Y00865173D01*
X00776200Y00865175D01*
X00776200Y00865175D01*
X00776142Y00830106D01*
X00776142Y00830106D02*
G37*
D10*
X00666250Y00755250D02*
G03*
X00776200Y00645325I00110000J00000075D01*
G01*
X00776200Y00645325D02*
G03*
X00886150Y00755250I-00000050J00110000D01*
G01*
X00886150Y00755250D02*
G03*
X00776200Y00865175I-00110000J-00000075D01*
G01*
X00776200Y00865175D02*
G03*
X00666250Y00755250I00000050J-00110000D01*
G01*
D31*
X00712654Y00715559D02*
G03*
X00776142Y00680395I00063546J00039836D01*
G01*
X00776142Y00680394D01*
X00776200Y00645325D01*
X00776200Y00645271D01*
X00776200Y00645325D01*
X00776258Y00680394D01*
X00776258Y00680395D01*
X00776258Y00680395D02*
G03*
X00839746Y00715559I-00000058J00075000D01*
G01*
X00839746Y00715559D02*
G03*
X00851200Y00755194I-00063546J00039836D01*
G01*
X00851200Y00755305D02*
G03*
X00839746Y00794941I-00075000J-00000200D01*
G01*
X00839746Y00794941D02*
G03*
X00776258Y00830105I-00063546J-00039836D01*
G01*
X00776258Y00830106D01*
X00776200Y00865175D01*
X00776200Y00865229D01*
X00776200Y00865175D01*
X00776142Y00830106D01*
X00776142Y00830105D01*
X00776142Y00830105D02*
G03*
X00712654Y00794941I00000058J-00075000D01*
G01*
X00712654Y00794941D02*
G03*
X00701200Y00755305I00063546J-00039836D01*
G01*
X00701200Y00755194D02*
G03*
X00712654Y00715559I00075000J00000200D01*
G01*
D41*
X00725750Y00716750D02*
D03*
X00723000Y00778250D02*
D03*
X00732536Y00800100D02*
D03*
D42*
X00725213Y00694176D02*
D03*
X00736550Y00686238D02*
D03*
X00715426Y00703963D02*
D03*
X00748703Y00680550D02*
D03*
X00762462Y00676806D02*
D03*
X00775512Y00675194D02*
D03*
X00790038Y00676806D02*
D03*
X00803064Y00681328D02*
D03*
X00815950Y00686238D02*
D03*
X00827287Y00694176D02*
D03*
X00837074Y00703963D02*
D03*
X00850862Y00727844D02*
D03*
X00854444Y00741212D02*
D03*
X00855650Y00755194D02*
D03*
X00846250Y00758500D02*
D03*
X00839750Y00758500D02*
D03*
X00846250Y00749000D02*
D03*
X00854444Y00768788D02*
D03*
X00850862Y00782156D02*
D03*
X00844738Y00794968D02*
D03*
X00827287Y00815824D02*
D03*
X00815608Y00824048D02*
D03*
X00837074Y00806037D02*
D03*
X00790038Y00833194D02*
D03*
X00812500Y00807350D02*
D03*
X00812500Y00800450D02*
D03*
X00812500Y00793550D02*
D03*
X00812500Y00786650D02*
D03*
X00812500Y00779750D02*
D03*
X00812500Y00760500D02*
D03*
X00814000Y00734750D02*
D03*
X00822000Y00734750D02*
D03*
X00817750Y00719250D02*
D03*
X00814250Y00747500D02*
D03*
X00814500Y00754000D02*
D03*
X00833250Y00758500D02*
D03*
X00762462Y00833194D02*
D03*
X00737371Y00824048D02*
D03*
X00725213Y00815824D02*
D03*
X00715426Y00806037D02*
D03*
X00707488Y00794700D02*
D03*
X00701638Y00782156D02*
D03*
X00698056Y00768788D02*
D03*
X00696851Y00755305D02*
D03*
X00698056Y00741212D02*
D03*
X00701638Y00727844D02*
D03*
X00707488Y00715300D02*
D03*
D43*
X00832488Y00783218D02*
D03*
D44*
X00737362Y00759206D02*
D03*
D45*
X00814000Y00772000D02*
D03*
D46*
X00701200Y00755194D02*
X00666305Y00755194D01*
X00666305Y00755305D02*
X00701200Y00755305D01*
X00851200Y00755305D02*
X00886095Y00755305D01*
X00886095Y00755194D02*
X00851200Y00755194D01*
M02*
