G04 Layer_Color=32768*
%FSLAX25Y25*%
%MOIN*%
G70*
G01*
G75*
%ADD41C,0.00394*%
D41*
X300426Y330291D02*
X299439Y330121D01*
X298456Y329921D01*
X297480Y329692D01*
X296512Y329433D01*
X295551Y329146D01*
X294600Y328830D01*
X293658Y328486D01*
X292728Y328114D01*
X291809Y327714D01*
X290902Y327286D01*
X290008Y326832D01*
X289128Y326351D01*
X288264Y325844D01*
X287415Y325311D01*
X286582Y324753D01*
X285766Y324171D01*
X284968Y323564D01*
X284189Y322934D01*
X283428Y322280D01*
X282688Y321604D01*
X281968Y320907D01*
X281270Y320187D01*
X280593Y319448D01*
X279939Y318688D01*
X279308Y317910D01*
X278700Y317112D01*
X278117Y316297D01*
X277558Y315464D01*
X277025Y314616D01*
X276517Y313752D01*
X276035Y312872D01*
X275580Y311979D01*
X275152Y311073D01*
X274751Y310154D01*
X274378Y309224D01*
X274033Y308282D01*
X273716Y307331D01*
X273428Y306371D01*
X273168Y305403D01*
X272938Y304427D01*
X272737Y303445D01*
X272566Y302457D01*
X299745Y334210D02*
X298760Y334041D01*
X297780Y333844D01*
X296806Y333622D01*
X295838Y333374D01*
X294877Y333100D01*
X293923Y332800D01*
X292978Y332475D01*
X292042Y332125D01*
X291116Y331750D01*
X290200Y331351D01*
X289295Y330927D01*
X288402Y330479D01*
X287521Y330008D01*
X286652Y329513D01*
X285798Y328995D01*
X284957Y328454D01*
X284132Y327891D01*
X283321Y327306D01*
X282527Y326700D01*
X281749Y326073D01*
X280988Y325425D01*
X280244Y324757D01*
X279519Y324069D01*
X278812Y323363D01*
X278125Y322638D01*
X277457Y321894D01*
X276809Y321133D01*
X276182Y320355D01*
X275576Y319561D01*
X274991Y318750D01*
X274428Y317925D01*
X273887Y317084D01*
X273369Y316230D01*
X272874Y315361D01*
X272403Y314480D01*
X271955Y313587D01*
X271531Y312682D01*
X271131Y311766D01*
X270757Y310840D01*
X270406Y309904D01*
X270081Y308959D01*
X269782Y308005D01*
X269508Y307044D01*
X269260Y306076D01*
X269038Y305102D01*
X268841Y304122D01*
X268671Y303137D01*
X268671Y303137D02*
X268780Y302139D01*
X269367Y301325D01*
X270279Y300906D01*
X271279Y300991D01*
X272107Y301557D01*
X272548Y302459D01*
X300423Y330333D02*
X301324Y330775D01*
X301891Y331603D01*
X301976Y332603D01*
X301557Y333515D01*
X300743Y334101D01*
X299745Y334210D01*
X310794Y264197D02*
X311782Y264367D01*
X312764Y264567D01*
X313740Y264796D01*
X314709Y265055D01*
X315669Y265342D01*
X316621Y265658D01*
X317562Y266002D01*
X318493Y266374D01*
X319412Y266775D01*
X320319Y267202D01*
X321212Y267656D01*
X322092Y268137D01*
X322957Y268644D01*
X323806Y269177D01*
X324639Y269735D01*
X325455Y270317D01*
X326253Y270924D01*
X327032Y271554D01*
X327792Y272208D01*
X328533Y272884D01*
X329252Y273582D01*
X329951Y274301D01*
X330627Y275040D01*
X331281Y275800D01*
X331913Y276579D01*
X332520Y277376D01*
X333103Y278191D01*
X333662Y279024D01*
X334196Y279872D01*
X334704Y280737D01*
X335185Y281616D01*
X335641Y282509D01*
X336069Y283415D01*
X336470Y284334D01*
X336843Y285265D01*
X337188Y286206D01*
X337505Y287157D01*
X337793Y288117D01*
X338052Y289085D01*
X338282Y290061D01*
X338483Y291043D01*
X338654Y292031D01*
X311476Y260278D02*
X312460Y260448D01*
X313440Y260644D01*
X314415Y260866D01*
X315383Y261114D01*
X316344Y261388D01*
X317297Y261688D01*
X318242Y262013D01*
X319178Y262363D01*
X320105Y262738D01*
X321021Y263137D01*
X321926Y263561D01*
X322819Y264009D01*
X323700Y264481D01*
X324568Y264976D01*
X325423Y265494D01*
X326263Y266034D01*
X327089Y266597D01*
X327900Y267182D01*
X328694Y267788D01*
X329472Y268416D01*
X330233Y269063D01*
X330976Y269731D01*
X331702Y270419D01*
X332408Y271126D01*
X333096Y271851D01*
X333764Y272594D01*
X334412Y273355D01*
X335039Y274133D01*
X335645Y274928D01*
X336230Y275738D01*
X336793Y276564D01*
X337333Y277404D01*
X337851Y278259D01*
X338346Y279127D01*
X338818Y280008D01*
X339266Y280902D01*
X339690Y281806D01*
X340089Y282722D01*
X340464Y283649D01*
X340814Y284585D01*
X341139Y285530D01*
X341439Y286483D01*
X341713Y287444D01*
X341961Y288412D01*
X342183Y289387D01*
X342379Y290367D01*
X342549Y291351D01*
X342440Y292349D01*
X341853Y293163D01*
X340942Y293582D01*
X339942Y293497D01*
X339113Y292931D01*
X338672Y292029D01*
X310798Y264155D02*
X309896Y263714D01*
X309329Y262885D01*
X309244Y261885D01*
X309664Y260974D01*
X310478Y260387D01*
X311476Y260278D01*
X299745D02*
X300743Y260387D01*
X301557Y260974D01*
X301976Y261885D01*
X301891Y262885D01*
X301324Y263714D01*
X300423Y264155D01*
X272548Y292029D02*
X272107Y292931D01*
X271279Y293497D01*
X270279Y293582D01*
X269367Y293163D01*
X268780Y292349D01*
X268671Y291351D01*
Y291351D02*
X268841Y290366D01*
X269038Y289387D01*
X269260Y288412D01*
X269508Y287444D01*
X269782Y286483D01*
X270081Y285530D01*
X270406Y284585D01*
X270756Y283649D01*
X271131Y282722D01*
X271531Y281806D01*
X271955Y280901D01*
X272403Y280008D01*
X272874Y279127D01*
X273369Y278259D01*
X273887Y277404D01*
X274428Y276564D01*
X274991Y275738D01*
X275576Y274927D01*
X276182Y274133D01*
X276809Y273355D01*
X277457Y272594D01*
X278125Y271851D01*
X278812Y271125D01*
X279519Y270419D01*
X280244Y269731D01*
X280988Y269063D01*
X281749Y268415D01*
X282527Y267788D01*
X283321Y267182D01*
X284132Y266597D01*
X284957Y266034D01*
X285798Y265494D01*
X286652Y264976D01*
X287520Y264481D01*
X288402Y264009D01*
X289295Y263561D01*
X290200Y263137D01*
X291116Y262738D01*
X292042Y262363D01*
X292978Y262013D01*
X293923Y261688D01*
X294877Y261388D01*
X295838Y261114D01*
X296806Y260866D01*
X297780Y260644D01*
X298760Y260448D01*
X299745Y260278D01*
X272566Y292031D02*
X272737Y291043D01*
X272938Y290061D01*
X273168Y289085D01*
X273428Y288117D01*
X273716Y287157D01*
X274033Y286206D01*
X274378Y285264D01*
X274751Y284334D01*
X275152Y283415D01*
X275580Y282509D01*
X276035Y281616D01*
X276517Y280737D01*
X277025Y279872D01*
X277558Y279024D01*
X278117Y278191D01*
X278700Y277376D01*
X279308Y276579D01*
X279939Y275800D01*
X280593Y275040D01*
X281270Y274301D01*
X281968Y273582D01*
X282688Y272884D01*
X283428Y272208D01*
X284189Y271554D01*
X284968Y270924D01*
X285766Y270317D01*
X286582Y269735D01*
X287415Y269177D01*
X288264Y268644D01*
X289129Y268137D01*
X290008Y267656D01*
X290902Y267202D01*
X291809Y266774D01*
X292728Y266374D01*
X293659Y266002D01*
X294600Y265658D01*
X295551Y265342D01*
X296512Y265055D01*
X297480Y264796D01*
X298456Y264567D01*
X299439Y264367D01*
X300426Y264197D01*
X311476Y334210D02*
X310478Y334101D01*
X309664Y333515D01*
X309244Y332603D01*
X309329Y331603D01*
X309896Y330775D01*
X310798Y330333D01*
X342549Y303137D02*
X342379Y304122D01*
X342183Y305102D01*
X341961Y306076D01*
X341713Y307044D01*
X341439Y308005D01*
X341139Y308959D01*
X340814Y309904D01*
X340464Y310840D01*
X340089Y311766D01*
X339690Y312682D01*
X339266Y313587D01*
X338818Y314480D01*
X338346Y315361D01*
X337851Y316230D01*
X337333Y317084D01*
X336792Y317925D01*
X336230Y318750D01*
X335645Y319561D01*
X335038Y320355D01*
X334411Y321133D01*
X333764Y321894D01*
X333096Y322638D01*
X332408Y323363D01*
X331701Y324069D01*
X330976Y324757D01*
X330233Y325425D01*
X329472Y326073D01*
X328694Y326700D01*
X327899Y327306D01*
X327089Y327891D01*
X326263Y328454D01*
X325423Y328994D01*
X324568Y329513D01*
X323700Y330008D01*
X322819Y330479D01*
X321926Y330927D01*
X321021Y331351D01*
X320105Y331750D01*
X319178Y332125D01*
X318242Y332475D01*
X317297Y332800D01*
X316344Y333100D01*
X315383Y333374D01*
X314415Y333622D01*
X313440Y333844D01*
X312460Y334041D01*
X311476Y334210D01*
X338672Y302459D02*
X339113Y301557D01*
X339942Y300991D01*
X340942Y300906D01*
X341853Y301325D01*
X342440Y302139D01*
X342549Y303137D01*
X338654Y302457D02*
X338483Y303445D01*
X338282Y304427D01*
X338052Y305403D01*
X337793Y306371D01*
X337505Y307331D01*
X337188Y308282D01*
X336843Y309224D01*
X336470Y310154D01*
X336069Y311073D01*
X335640Y311979D01*
X335185Y312872D01*
X334703Y313752D01*
X334196Y314616D01*
X333662Y315464D01*
X333103Y316297D01*
X332520Y317112D01*
X331913Y317910D01*
X331281Y318688D01*
X330627Y319448D01*
X329951Y320187D01*
X329252Y320907D01*
X328533Y321604D01*
X327792Y322280D01*
X327032Y322934D01*
X326253Y323564D01*
X325455Y324171D01*
X324639Y324753D01*
X323806Y325311D01*
X322957Y325844D01*
X322092Y326351D01*
X321212Y326832D01*
X320319Y327286D01*
X319412Y327714D01*
X318493Y328114D01*
X317562Y328486D01*
X316621Y328830D01*
X315669Y329146D01*
X314709Y329433D01*
X313740Y329692D01*
X312764Y329921D01*
X311782Y330121D01*
X310794Y330291D01*
X348917Y297638D02*
X348906Y298638D01*
X348871Y299638D01*
X348813Y300637D01*
X348733Y301634D01*
X348629Y302629D01*
X348502Y303621D01*
X348352Y304610D01*
X348180Y305595D01*
X347985Y306577D01*
X347767Y307553D01*
X347527Y308524D01*
X347264Y309489D01*
X346979Y310448D01*
X346672Y311400D01*
X346343Y312345D01*
X345993Y313282D01*
X345621Y314211D01*
X345227Y315130D01*
X344813Y316041D01*
X344377Y316941D01*
X343921Y317832D01*
X343444Y318711D01*
X342947Y319580D01*
X342431Y320436D01*
X341894Y321280D01*
X341338Y322112D01*
X340764Y322931D01*
X340170Y323736D01*
X339558Y324527D01*
X338928Y325304D01*
X338280Y326067D01*
X337615Y326814D01*
X336932Y327545D01*
X336233Y328260D01*
X335518Y328960D01*
X334786Y329642D01*
X334039Y330308D01*
X333277Y330955D01*
X332500Y331586D01*
X331709Y332198D01*
X330903Y332791D01*
X330085Y333366D01*
X329253Y333922D01*
X328409Y334458D01*
X327552Y334975D01*
X326684Y335472D01*
X325804Y335948D01*
X324914Y336405D01*
X324013Y336840D01*
X323103Y337255D01*
X322183Y337648D01*
X321255Y338020D01*
X320318Y338371D01*
X319373Y338700D01*
X318421Y339007D01*
X317462Y339292D01*
X316496Y339554D01*
X315525Y339795D01*
X314549Y340012D01*
X313568Y340208D01*
X312582Y340380D01*
X311593Y340530D01*
X310601Y340656D01*
X309606Y340760D01*
X308609Y340841D01*
X307610Y340899D01*
X306610Y340933D01*
X305610Y340945D01*
X304610Y340933D01*
X303610Y340899D01*
X302611Y340841D01*
X301614Y340760D01*
X300619Y340656D01*
X299627Y340530D01*
X298638Y340380D01*
X297653Y340208D01*
X296671Y340012D01*
X295695Y339795D01*
X294724Y339554D01*
X293759Y339292D01*
X292800Y339007D01*
X291848Y338700D01*
X290903Y338371D01*
X289966Y338020D01*
X289037Y337648D01*
X288118Y337255D01*
X287207Y336840D01*
X286307Y336405D01*
X285416Y335948D01*
X284537Y335472D01*
X283668Y334975D01*
X282812Y334458D01*
X281967Y333922D01*
X281136Y333366D01*
X280317Y332791D01*
X279512Y332198D01*
X278720Y331586D01*
X277944Y330955D01*
X277181Y330307D01*
X276434Y329642D01*
X275703Y328960D01*
X274987Y328260D01*
X274288Y327545D01*
X273606Y326814D01*
X272940Y326066D01*
X272293Y325304D01*
X271662Y324527D01*
X271050Y323736D01*
X270457Y322931D01*
X269882Y322112D01*
X269326Y321280D01*
X268790Y320436D01*
X268273Y319579D01*
X267776Y318711D01*
X267300Y317832D01*
X266843Y316941D01*
X266408Y316041D01*
X265993Y315130D01*
X265600Y314211D01*
X265228Y313282D01*
X264877Y312345D01*
X264548Y311400D01*
X264241Y310448D01*
X263956Y309489D01*
X263694Y308524D01*
X263453Y307553D01*
X263236Y306576D01*
X263040Y305595D01*
X262868Y304610D01*
X262718Y303621D01*
X262592Y302628D01*
X262488Y301634D01*
X262407Y300636D01*
X262349Y299638D01*
X262315Y298638D01*
X262303Y297638D01*
X262315Y296637D01*
X262349Y295638D01*
X262407Y294639D01*
X262488Y293642D01*
X262592Y292647D01*
X262719Y291654D01*
X262868Y290665D01*
X263041Y289680D01*
X263236Y288699D01*
X263454Y287722D01*
X263694Y286751D01*
X263956Y285786D01*
X264241Y284827D01*
X264548Y283875D01*
X264877Y282930D01*
X265228Y281993D01*
X265600Y281065D01*
X265993Y280145D01*
X266408Y279235D01*
X266843Y278334D01*
X267300Y277444D01*
X267776Y276564D01*
X268273Y275696D01*
X268790Y274839D01*
X269326Y273995D01*
X269882Y273163D01*
X270457Y272344D01*
X271051Y271539D01*
X271663Y270748D01*
X272293Y269971D01*
X272941Y269209D01*
X273606Y268462D01*
X274289Y267730D01*
X274988Y267015D01*
X275703Y266316D01*
X276435Y265633D01*
X277182Y264968D01*
X277944Y264320D01*
X278721Y263690D01*
X279512Y263078D01*
X280317Y262484D01*
X281136Y261909D01*
X281968Y261354D01*
X282812Y260817D01*
X283669Y260300D01*
X284537Y259804D01*
X285417Y259327D01*
X286307Y258871D01*
X287207Y258435D01*
X288118Y258021D01*
X289038Y257627D01*
X289966Y257255D01*
X290903Y256905D01*
X291848Y256576D01*
X292800Y256269D01*
X293759Y255984D01*
X294724Y255721D01*
X295695Y255481D01*
X296672Y255263D01*
X297653Y255068D01*
X298638Y254896D01*
X299627Y254746D01*
X300620Y254619D01*
X301615Y254515D01*
X302612Y254435D01*
X303610Y254377D01*
X304610Y254342D01*
X305610Y254331D01*
X306611Y254342D01*
X307611Y254377D01*
X308609Y254435D01*
X309606Y254516D01*
X310601Y254619D01*
X311594Y254746D01*
X312583Y254896D01*
X313568Y255068D01*
X314549Y255263D01*
X315526Y255481D01*
X316497Y255721D01*
X317462Y255984D01*
X318421Y256269D01*
X319373Y256576D01*
X320318Y256905D01*
X321255Y257255D01*
X322183Y257627D01*
X323103Y258021D01*
X324013Y258435D01*
X324914Y258871D01*
X325804Y259327D01*
X326684Y259804D01*
X327552Y260301D01*
X328408Y260817D01*
X329253Y261354D01*
X330085Y261910D01*
X330903Y262484D01*
X331709Y263078D01*
X332500Y263690D01*
X333277Y264320D01*
X334039Y264968D01*
X334786Y265633D01*
X335517Y266316D01*
X336233Y267015D01*
X336932Y267730D01*
X337614Y268462D01*
X338280Y269209D01*
X338928Y269971D01*
X339558Y270748D01*
X340170Y271539D01*
X340763Y272344D01*
X341338Y273163D01*
X341894Y273995D01*
X342430Y274839D01*
X342947Y275696D01*
X343444Y276564D01*
X343921Y277444D01*
X344377Y278334D01*
X344813Y279235D01*
X345227Y280145D01*
X345621Y281065D01*
X345993Y281993D01*
X346343Y282930D01*
X346672Y283875D01*
X346979Y284827D01*
X347264Y285786D01*
X347527Y286751D01*
X347767Y287722D01*
X347985Y288699D01*
X348180Y289680D01*
X348352Y290665D01*
X348502Y291654D01*
X348629Y292647D01*
X348732Y293641D01*
X348813Y294639D01*
X348871Y295637D01*
X348906Y296637D01*
X348917Y297637D01*
M02*
