G04 Layer_Physical_Order=2*
G04 Layer_Color=16711680*
%FSAX44Y44*%
%MOMM*%
G71*
G01*
G75*
%ADD10C,0.3000*%
%ADD21C,0.7620*%
%ADD24C,1.0160*%
%ADD25C,1.5000*%
%ADD26C,0.6000*%
%ADD27C,1.0000*%
%ADD28C,1.2000*%
%ADD29C,0.8000*%
%ADD30R,1.4000X2.0750*%
G36*
X00789331Y00866145D02*
X00797990Y00864781D01*
X00806516Y00862740D01*
X00814856Y00860037D01*
X00822957Y00856687D01*
X00830770Y00852711D01*
X00838248Y00848135D01*
X00845343Y00842986D01*
X00852011Y00837295D01*
X00858213Y00831099D01*
X00863909Y00824435D01*
X00869064Y00817344D01*
X00873647Y00809871D01*
X00877629Y00802060D01*
X00880985Y00793962D01*
X00883696Y00785625D01*
X00885743Y00777101D01*
X00887116Y00768442D01*
X00887804Y00759702D01*
X00887804Y00755619D01*
X00887804Y00750687D01*
X00887116Y00741947D01*
X00885743Y00733288D01*
X00883696Y00724764D01*
X00880985Y00716427D01*
X00877629Y00708329D01*
X00873647Y00700518D01*
X00869064Y00693045D01*
X00863909Y00685954D01*
X00858213Y00679290D01*
X00852011Y00673094D01*
X00845343Y00667403D01*
X00838248Y00662254D01*
X00830770Y00657678D01*
X00822957Y00653702D01*
X00814856Y00650352D01*
X00806516Y00647649D01*
X00797990Y00645608D01*
X00789331Y00644243D01*
X00780591Y00643562D01*
X00776207Y00643566D01*
X00776207Y00643566D01*
X00772059Y00643570D01*
X00763786Y00644193D01*
X00755583Y00645429D01*
X00747494Y00647272D01*
X00739564Y00649710D01*
X00731837Y00652731D01*
X00724356Y00656317D01*
X00717162Y00660450D01*
X00710295Y00665105D01*
X00703793Y00670258D01*
X00697692Y00675880D01*
X00692026Y00681939D01*
X00689425Y00685171D01*
X00689425Y00685171D01*
X00689425Y00685171D01*
X00686461Y00688855D01*
X00681177Y00696700D01*
X00676576Y00704964D01*
X00672692Y00713588D01*
X00669551Y00722510D01*
X00667178Y00731665D01*
X00665588Y00740989D01*
X00664793Y00750414D01*
X00664796Y00755194D01*
X00664793Y00759975D01*
X00665588Y00769400D01*
X00667178Y00778724D01*
X00669551Y00787879D01*
X00672692Y00796801D01*
X00676576Y00805425D01*
X00681177Y00813689D01*
X00686461Y00821534D01*
X00689425Y00825218D01*
X00692026Y00828450D01*
X00697692Y00834510D01*
X00703793Y00840131D01*
X00710295Y00845284D01*
X00717162Y00849939D01*
X00724356Y00854072D01*
X00731837Y00857658D01*
X00739564Y00860679D01*
X00747494Y00863117D01*
X00755583Y00864960D01*
X00763786Y00866196D01*
X00772059Y00866819D01*
X00775679Y00866822D01*
X00775679Y00866822D01*
X00776207Y00866823D01*
X00780591Y00866826D01*
X00789331Y00866145D01*
X00789331Y00866145D02*
G37*
%LPC*%
G36*
X00725750Y00726332D02*
X00723270Y00726005D01*
X00720959Y00725048D01*
X00718975Y00723525D01*
X00717452Y00721541D01*
X00716495Y00719230D01*
X00716168Y00716750D01*
X00716495Y00714270D01*
X00717452Y00711959D01*
X00718975Y00709975D01*
X00720959Y00708452D01*
X00723270Y00707495D01*
X00725750Y00707168D01*
X00728230Y00707495D01*
X00730541Y00708452D01*
X00732525Y00709975D01*
X00734048Y00711959D01*
X00735005Y00714270D01*
X00735332Y00716750D01*
X00735005Y00719230D01*
X00734048Y00721541D01*
X00732525Y00723525D01*
X00730541Y00725048D01*
X00728230Y00726005D01*
X00725750Y00726332D01*
X00725750Y00726332D02*
G37*
G36*
X00812500Y00813274D02*
X00810233Y00812823D01*
X00808311Y00811539D01*
X00807027Y00809617D01*
X00806576Y00807350D01*
X00806576Y00800450D01*
X00806576Y00793550D01*
X00806576Y00786650D01*
X00806576Y00779750D01*
X00806576Y00773500D01*
X00806865Y00772047D01*
X00806859Y00772000D01*
X00807102Y00770152D01*
X00807816Y00768429D01*
X00808951Y00766951D01*
X00816609Y00759292D01*
X00816609Y00744821D01*
X00816049Y00744710D01*
X00814395Y00743605D01*
X00813290Y00741951D01*
X00812902Y00740000D01*
X00812049Y00739460D01*
X00810395Y00738355D01*
X00809290Y00736701D01*
X00808902Y00734750D01*
X00809290Y00732799D01*
X00809450Y00732560D01*
X00809602Y00731402D01*
X00810316Y00729679D01*
X00811451Y00728201D01*
X00812612Y00727309D01*
X00812261Y00726078D01*
X00812237Y00726037D01*
X00811470Y00725884D01*
X00810867Y00725482D01*
X00800344Y00736005D01*
X00802288Y00738537D01*
X00802347Y00738658D01*
X00802436Y00738759D01*
X00804236Y00741877D01*
X00804279Y00742004D01*
X00804354Y00742116D01*
X00805732Y00745442D01*
X00805758Y00745574D01*
X00805817Y00745695D01*
X00806749Y00749172D01*
X00806758Y00749307D01*
X00806801Y00749434D01*
X00807271Y00753003D01*
X00807262Y00753138D01*
X00807289Y00753270D01*
X00807289Y00755070D01*
X00807289Y00756870D01*
X00807262Y00757002D01*
X00807271Y00757136D01*
X00806801Y00760705D01*
X00806758Y00760833D01*
X00806749Y00760967D01*
X00805818Y00764445D01*
X00805758Y00764566D01*
X00805732Y00764697D01*
X00804354Y00768024D01*
X00804279Y00768136D01*
X00804236Y00768263D01*
X00802436Y00771381D01*
X00802347Y00771482D01*
X00802288Y00771603D01*
X00800096Y00774459D01*
X00799995Y00774548D01*
X00799920Y00774660D01*
X00797375Y00777205D01*
X00797263Y00777280D01*
X00797174Y00777381D01*
X00794318Y00779573D01*
X00794197Y00779632D01*
X00794096Y00779721D01*
X00790978Y00781521D01*
X00790851Y00781565D01*
X00790739Y00781639D01*
X00787413Y00783017D01*
X00787281Y00783043D01*
X00787160Y00783103D01*
X00783682Y00784035D01*
X00783548Y00784044D01*
X00783421Y00784087D01*
X00779851Y00784557D01*
X00779717Y00784548D01*
X00779585Y00784574D01*
X00777812Y00784574D01*
X00775985Y00784623D01*
X00775853Y00784600D01*
X00775719Y00784612D01*
X00772030Y00784226D01*
X00771901Y00784186D01*
X00771767Y00784181D01*
X00768160Y00783316D01*
X00768038Y00783260D01*
X00767905Y00783237D01*
X00764442Y00781909D01*
X00764328Y00781837D01*
X00764200Y00781797D01*
X00760939Y00780029D01*
X00760836Y00779942D01*
X00760714Y00779886D01*
X00757712Y00777707D01*
X00757621Y00777608D01*
X00757507Y00777537D01*
X00754816Y00774984D01*
X00754738Y00774874D01*
X00754635Y00774789D01*
X00752300Y00771907D01*
X00752237Y00771788D01*
X00752145Y00771689D01*
X00750207Y00768527D01*
X00750160Y00768401D01*
X00750082Y00768291D01*
X00748674Y00765130D01*
X00742783Y00765130D01*
X00741396Y00766194D01*
X00739450Y00767000D01*
X00737362Y00767275D01*
X00735274Y00767000D01*
X00733327Y00766194D01*
X00731656Y00764912D01*
X00730374Y00763241D01*
X00729568Y00761294D01*
X00729436Y00760291D01*
X00728149Y00760249D01*
X00727960Y00761201D01*
X00726855Y00762855D01*
X00725201Y00763960D01*
X00723250Y00764348D01*
X00721299Y00763960D01*
X00719645Y00762855D01*
X00718540Y00761201D01*
X00718152Y00759250D01*
X00718540Y00757299D01*
X00719645Y00755645D01*
X00721299Y00754540D01*
X00723250Y00754152D01*
X00725201Y00754540D01*
X00726855Y00755645D01*
X00727960Y00757299D01*
X00728142Y00758216D01*
X00729429Y00758174D01*
X00729568Y00757118D01*
X00730374Y00755172D01*
X00731247Y00754034D01*
X00731147Y00752440D01*
X00730645Y00752105D01*
X00729540Y00750451D01*
X00729152Y00748500D01*
X00729540Y00746549D01*
X00730645Y00744895D01*
X00732299Y00743790D01*
X00734250Y00743402D01*
X00736201Y00743790D01*
X00737855Y00744895D01*
X00738960Y00746549D01*
X00739348Y00748500D01*
X00739034Y00750076D01*
X00739292Y00750903D01*
X00739760Y00751540D01*
X00741396Y00752218D01*
X00742783Y00753282D01*
X00745652Y00753282D01*
X00746791Y00752826D01*
X00747380Y00749173D01*
X00747427Y00749047D01*
X00747440Y00748913D01*
X00748501Y00745368D01*
X00748564Y00745249D01*
X00748594Y00745118D01*
X00750108Y00741742D01*
X00750186Y00741633D01*
X00750233Y00741507D01*
X00752176Y00738357D01*
X00752267Y00738259D01*
X00752330Y00738140D01*
X00754667Y00735271D01*
X00754771Y00735185D01*
X00754849Y00735076D01*
X00757540Y00732536D01*
X00757654Y00732465D01*
X00757746Y00732366D01*
X00760745Y00730200D01*
X00760868Y00730144D01*
X00760971Y00730058D01*
X00764228Y00728302D01*
X00764357Y00728263D01*
X00764471Y00728191D01*
X00767929Y00726875D01*
X00768062Y00726853D01*
X00768184Y00726797D01*
X00771784Y00725943D01*
X00771919Y00725938D01*
X00772047Y00725899D01*
X00775728Y00725523D01*
X00775862Y00725536D01*
X00775995Y00725513D01*
X00777814Y00725566D01*
X00779585Y00725566D01*
X00779717Y00725592D01*
X00779851Y00725583D01*
X00783421Y00726053D01*
X00783548Y00726097D01*
X00783682Y00726105D01*
X00787160Y00727037D01*
X00787281Y00727097D01*
X00787412Y00727123D01*
X00788555Y00727596D01*
X00789743Y00726408D01*
X00790025Y00726459D01*
X00808250Y00708234D01*
X00808250Y00707901D01*
X00810211Y00705940D01*
X00810211Y00703250D01*
X00810366Y00702470D01*
X00810808Y00701808D01*
X00811470Y00701366D01*
X00812250Y00701211D01*
X00815164Y00701211D01*
X00815679Y00700816D01*
X00817402Y00700102D01*
X00819250Y00699859D01*
X00821098Y00700102D01*
X00822821Y00700816D01*
X00823335Y00701211D01*
X00826250Y00701211D01*
X00827030Y00701366D01*
X00827692Y00701808D01*
X00828134Y00702470D01*
X00828289Y00703250D01*
X00828289Y00724000D01*
X00828134Y00724780D01*
X00827692Y00725442D01*
X00827030Y00725884D01*
X00826250Y00726039D01*
X00823215Y00726039D01*
X00822616Y00727159D01*
X00822710Y00727299D01*
X00823098Y00729250D01*
X00823951Y00730040D01*
X00825605Y00731145D01*
X00826710Y00732799D01*
X00826849Y00733500D01*
X00828799Y00735450D01*
X00828800Y00735451D01*
X00829934Y00736929D01*
X00830648Y00738652D01*
X00830891Y00740500D01*
X00830891Y00740500D01*
X00830891Y00762250D01*
X00830891Y00762250D01*
X00830648Y00764098D01*
X00829934Y00765820D01*
X00828800Y00767299D01*
X00828799Y00767300D01*
X00819050Y00777049D01*
X00818424Y00777530D01*
X00818424Y00786650D01*
X00818424Y00793550D01*
X00818424Y00800450D01*
X00818424Y00807350D01*
X00817973Y00809617D01*
X00816689Y00811539D01*
X00814767Y00812823D01*
X00812500Y00813274D01*
X00812500Y00813274D02*
G37*
G36*
X00746000Y00702098D02*
X00744049Y00701710D01*
X00742395Y00700605D01*
X00741290Y00698951D01*
X00740902Y00697000D01*
X00741290Y00695049D01*
X00742395Y00693395D01*
X00744049Y00692290D01*
X00746000Y00691902D01*
X00747951Y00692290D01*
X00749605Y00693395D01*
X00750710Y00695049D01*
X00751098Y00697000D01*
X00750710Y00698951D01*
X00749605Y00700605D01*
X00747951Y00701710D01*
X00746000Y00702098D01*
X00746000Y00702098D02*
G37*
G36*
X00687122Y00747876D02*
X00685193Y00747539D01*
X00684827Y00747397D01*
X00684462Y00747258D01*
X00682803Y00746219D01*
X00682517Y00745950D01*
X00682231Y00745683D01*
X00681087Y00744095D01*
X00680924Y00743739D01*
X00680759Y00743383D01*
X00680298Y00741480D01*
X00680282Y00741090D01*
X00680264Y00740698D01*
X00680409Y00739730D01*
X00680412Y00739721D01*
X00680412Y00739712D01*
X00680996Y00736028D01*
X00681024Y00735952D01*
X00681028Y00735871D01*
X00682772Y00728617D01*
X00682806Y00728544D01*
X00682815Y00728464D01*
X00685123Y00721369D01*
X00685162Y00721298D01*
X00685178Y00721219D01*
X00688035Y00714327D01*
X00688080Y00714260D01*
X00688102Y00714182D01*
X00691490Y00707535D01*
X00691540Y00707471D01*
X00691568Y00707395D01*
X00695467Y00701035D01*
X00695522Y00700975D01*
X00695556Y00700902D01*
X00699942Y00694866D01*
X00700002Y00694811D01*
X00700041Y00694741D01*
X00704887Y00689068D01*
X00704950Y00689018D01*
X00704995Y00688951D01*
X00710271Y00683675D01*
X00710338Y00683630D01*
X00710388Y00683567D01*
X00716061Y00678721D01*
X00716132Y00678681D01*
X00716187Y00678622D01*
X00722222Y00674236D01*
X00722295Y00674202D01*
X00722355Y00674147D01*
X00728715Y00670248D01*
X00728791Y00670220D01*
X00728855Y00670170D01*
X00735502Y00666782D01*
X00735580Y00666760D01*
X00735647Y00666715D01*
X00742539Y00663858D01*
X00742618Y00663842D01*
X00742689Y00663803D01*
X00749783Y00661495D01*
X00749864Y00661486D01*
X00749938Y00661452D01*
X00757191Y00659708D01*
X00757272Y00659705D01*
X00757348Y00659676D01*
X00761032Y00659091D01*
X00761041Y00659092D01*
X00761050Y00659089D01*
X00762018Y00658944D01*
X00762410Y00658962D01*
X00762800Y00658978D01*
X00764703Y00659439D01*
X00765058Y00659604D01*
X00765415Y00659767D01*
X00767003Y00660911D01*
X00767269Y00661196D01*
X00767539Y00661483D01*
X00768578Y00663142D01*
X00768717Y00663507D01*
X00768859Y00663873D01*
X00769196Y00665801D01*
X00769187Y00666194D01*
X00769181Y00666585D01*
X00768766Y00668498D01*
X00768610Y00668857D01*
X00768456Y00669218D01*
X00767350Y00670833D01*
X00767070Y00671107D01*
X00766792Y00671383D01*
X00765159Y00672462D01*
X00764796Y00672610D01*
X00764434Y00672761D01*
X00764062Y00672835D01*
X00764010Y00672876D01*
X00763726Y00672956D01*
X00763452Y00673065D01*
X00759149Y00673857D01*
X00750723Y00676105D01*
X00742603Y00679213D01*
X00734853Y00683153D01*
X00727558Y00687883D01*
X00720799Y00693350D01*
X00714648Y00699495D01*
X00709174Y00706249D01*
X00704438Y00713540D01*
X00700490Y00721286D01*
X00697375Y00729403D01*
X00695119Y00737827D01*
X00694323Y00742129D01*
X00694232Y00742356D01*
X00694081Y00743114D01*
X00693930Y00743477D01*
X00693782Y00743839D01*
X00692703Y00745472D01*
X00692428Y00745749D01*
X00692153Y00746030D01*
X00690538Y00747136D01*
X00690177Y00747290D01*
X00689818Y00747446D01*
X00687905Y00747860D01*
X00687516Y00747867D01*
X00687122Y00747876D01*
X00687122Y00747876D02*
G37*
G36*
X00865378Y00747876D02*
X00864986Y00747867D01*
X00864595Y00747860D01*
X00862682Y00747446D01*
X00862323Y00747290D01*
X00861962Y00747136D01*
X00860347Y00746030D01*
X00860073Y00745750D01*
X00859797Y00745472D01*
X00858718Y00743839D01*
X00858570Y00743476D01*
X00858419Y00743114D01*
X00858307Y00742551D01*
X00858298Y00742538D01*
X00858257Y00742328D01*
X00858177Y00742129D01*
X00857381Y00737827D01*
X00855125Y00729403D01*
X00852010Y00721286D01*
X00850747Y00718808D01*
X00848062Y00713540D01*
X00843326Y00706249D01*
X00837852Y00699495D01*
X00831701Y00693350D01*
X00824942Y00687883D01*
X00817646Y00683153D01*
X00812641Y00680608D01*
X00812641Y00680608D01*
X00809897Y00679213D01*
X00801777Y00676105D01*
X00793351Y00673857D01*
X00789048Y00673065D01*
X00788773Y00672956D01*
X00788489Y00672876D01*
X00788438Y00672835D01*
X00788066Y00672761D01*
X00787703Y00672610D01*
X00787341Y00672462D01*
X00785708Y00671383D01*
X00785431Y00671108D01*
X00785150Y00670833D01*
X00784044Y00669218D01*
X00783890Y00668857D01*
X00783734Y00668498D01*
X00783319Y00666585D01*
X00783313Y00666196D01*
X00783304Y00665801D01*
X00783641Y00663873D01*
X00783783Y00663507D01*
X00783922Y00663142D01*
X00784961Y00661483D01*
X00785230Y00661198D01*
X00785497Y00660911D01*
X00787085Y00659767D01*
X00787441Y00659604D01*
X00787797Y00659439D01*
X00789700Y00658978D01*
X00790090Y00658962D01*
X00790482Y00658944D01*
X00791450Y00659089D01*
X00791459Y00659092D01*
X00791468Y00659091D01*
X00795152Y00659676D01*
X00795228Y00659705D01*
X00795309Y00659708D01*
X00802562Y00661452D01*
X00802636Y00661486D01*
X00802717Y00661495D01*
X00809811Y00663803D01*
X00809882Y00663842D01*
X00809961Y00663858D01*
X00816853Y00666715D01*
X00816920Y00666760D01*
X00816998Y00666782D01*
X00823645Y00670170D01*
X00823709Y00670220D01*
X00823785Y00670248D01*
X00830145Y00674147D01*
X00830205Y00674202D01*
X00830278Y00674236D01*
X00836313Y00678622D01*
X00836368Y00678681D01*
X00836439Y00678721D01*
X00842112Y00683567D01*
X00842162Y00683630D01*
X00842229Y00683675D01*
X00847505Y00688951D01*
X00847550Y00689018D01*
X00847613Y00689068D01*
X00852459Y00694741D01*
X00852498Y00694811D01*
X00852558Y00694866D01*
X00856944Y00700902D01*
X00856978Y00700975D01*
X00857033Y00701035D01*
X00860932Y00707395D01*
X00860960Y00707471D01*
X00861010Y00707535D01*
X00864398Y00714182D01*
X00864420Y00714260D01*
X00864465Y00714327D01*
X00867322Y00721219D01*
X00867338Y00721298D01*
X00867377Y00721369D01*
X00869685Y00728464D01*
X00869694Y00728544D01*
X00869728Y00728617D01*
X00871472Y00735871D01*
X00871476Y00735952D01*
X00871504Y00736028D01*
X00872089Y00739712D01*
X00872088Y00739721D01*
X00872091Y00739730D01*
X00872236Y00740698D01*
X00872218Y00741090D01*
X00872202Y00741480D01*
X00871741Y00743383D01*
X00871576Y00743738D01*
X00871413Y00744095D01*
X00870269Y00745683D01*
X00869984Y00745949D01*
X00869697Y00746219D01*
X00868038Y00747258D01*
X00867673Y00747397D01*
X00867307Y00747539D01*
X00865378Y00747876D01*
X00865378Y00747876D02*
G37*
G36*
X00850736Y00755814D02*
X00850736Y00754576D01*
X00851029Y00755176D01*
X00851058Y00755194D01*
X00851029Y00755212D01*
X00850736Y00755814D01*
X00850736Y00755814D02*
G37*
G36*
X00732536Y00809682D02*
X00730056Y00809355D01*
X00727745Y00808398D01*
X00725760Y00806875D01*
X00724238Y00804891D01*
X00723280Y00802580D01*
X00722954Y00800100D01*
X00723280Y00797620D01*
X00724238Y00795309D01*
X00725760Y00793325D01*
X00727745Y00791802D01*
X00730056Y00790844D01*
X00732536Y00790518D01*
X00735016Y00790844D01*
X00737327Y00791802D01*
X00739312Y00793325D01*
X00740834Y00795309D01*
X00741792Y00797620D01*
X00742118Y00800100D01*
X00741792Y00802580D01*
X00740834Y00804891D01*
X00739312Y00806875D01*
X00737327Y00808398D01*
X00735016Y00809355D01*
X00732536Y00809682D01*
X00732536Y00809682D02*
G37*
G36*
X00776448Y00829975D02*
X00776409Y00829884D01*
X00776381Y00829884D01*
X00776543Y00829884D01*
X00776540Y00829885D01*
X00776448Y00829975D01*
X00776448Y00829975D02*
G37*
G36*
X00762018Y00851056D02*
X00761050Y00850911D01*
X00761041Y00850908D01*
X00761032Y00850909D01*
X00757348Y00850323D01*
X00757272Y00850295D01*
X00757191Y00850292D01*
X00749938Y00848548D01*
X00749864Y00848514D01*
X00749783Y00848505D01*
X00742689Y00846197D01*
X00742618Y00846158D01*
X00742539Y00846142D01*
X00735647Y00843285D01*
X00735580Y00843240D01*
X00735502Y00843218D01*
X00728855Y00839830D01*
X00728791Y00839780D01*
X00728715Y00839752D01*
X00722355Y00835853D01*
X00722295Y00835798D01*
X00722222Y00835764D01*
X00716187Y00831378D01*
X00716132Y00831318D01*
X00716061Y00831279D01*
X00710388Y00826433D01*
X00710338Y00826370D01*
X00710271Y00826325D01*
X00704995Y00821049D01*
X00704950Y00820982D01*
X00704887Y00820932D01*
X00700041Y00815259D01*
X00700002Y00815188D01*
X00699942Y00815133D01*
X00695556Y00809098D01*
X00695522Y00809025D01*
X00695467Y00808965D01*
X00691568Y00802605D01*
X00691540Y00802529D01*
X00691490Y00802465D01*
X00688102Y00795818D01*
X00688080Y00795740D01*
X00688035Y00795673D01*
X00685178Y00788781D01*
X00685162Y00788702D01*
X00685123Y00788631D01*
X00682815Y00781536D01*
X00682806Y00781456D01*
X00682772Y00781382D01*
X00681028Y00774129D01*
X00681024Y00774048D01*
X00680996Y00773972D01*
X00680412Y00770288D01*
X00680412Y00770279D01*
X00680409Y00770270D01*
X00680264Y00769302D01*
X00680282Y00768910D01*
X00680298Y00768520D01*
X00680759Y00766617D01*
X00680924Y00766262D01*
X00681087Y00765905D01*
X00682231Y00764317D01*
X00682516Y00764051D01*
X00682803Y00763781D01*
X00684462Y00762742D01*
X00684827Y00762603D01*
X00685193Y00762461D01*
X00687122Y00762124D01*
X00687514Y00762133D01*
X00687905Y00762139D01*
X00689818Y00762554D01*
X00690177Y00762710D01*
X00690538Y00762864D01*
X00692153Y00763970D01*
X00692427Y00764250D01*
X00692703Y00764528D01*
X00693782Y00766161D01*
X00693930Y00766524D01*
X00694081Y00766886D01*
X00694232Y00767644D01*
X00694323Y00767871D01*
X00695119Y00772173D01*
X00697375Y00780597D01*
X00700490Y00788714D01*
X00704438Y00796460D01*
X00709174Y00803751D01*
X00710393Y00805254D01*
X00714648Y00810505D01*
X00714648Y00810505D01*
X00720799Y00816650D01*
X00727558Y00822117D01*
X00734853Y00826847D01*
X00740828Y00829884D01*
X00740828Y00829884D01*
X00742603Y00830787D01*
X00750723Y00833895D01*
X00759149Y00836143D01*
X00763452Y00836935D01*
X00763652Y00837014D01*
X00763863Y00837056D01*
X00763932Y00837102D01*
X00764011Y00837124D01*
X00764062Y00837165D01*
X00764434Y00837239D01*
X00764797Y00837390D01*
X00765159Y00837538D01*
X00766792Y00838617D01*
X00767069Y00838892D01*
X00767350Y00839167D01*
X00768456Y00840782D01*
X00768610Y00841143D01*
X00768766Y00841502D01*
X00769181Y00843415D01*
X00769187Y00843804D01*
X00769196Y00844198D01*
X00768859Y00846127D01*
X00768717Y00846493D01*
X00768578Y00846858D01*
X00767539Y00848517D01*
X00767270Y00848802D01*
X00767003Y00849089D01*
X00765415Y00850233D01*
X00765059Y00850396D01*
X00764703Y00850561D01*
X00762800Y00851022D01*
X00762410Y00851038D01*
X00762018Y00851056D01*
X00762018Y00851056D02*
G37*
G36*
X00723000Y00787832D02*
X00720520Y00787505D01*
X00718209Y00786548D01*
X00716225Y00785025D01*
X00714702Y00783041D01*
X00713745Y00780730D01*
X00713418Y00778250D01*
X00713745Y00775770D01*
X00714702Y00773459D01*
X00716225Y00771475D01*
X00718209Y00769952D01*
X00720520Y00768995D01*
X00723000Y00768668D01*
X00725480Y00768995D01*
X00727791Y00769952D01*
X00729775Y00771475D01*
X00731298Y00773459D01*
X00732255Y00775770D01*
X00732582Y00778250D01*
X00732255Y00780730D01*
X00731298Y00783041D01*
X00729775Y00785025D01*
X00727791Y00786548D01*
X00725480Y00787505D01*
X00723000Y00787832D01*
X00723000Y00787832D02*
G37*
G36*
X00701765Y00755759D02*
X00701764Y00755742D01*
X00701495Y00755191D01*
X00701765Y00754629D01*
X00701765Y00755759D01*
X00701765Y00755759D02*
G37*
G36*
X00790482Y00851056D02*
X00790090Y00851038D01*
X00789700Y00851022D01*
X00787797Y00850561D01*
X00787442Y00850396D01*
X00787085Y00850233D01*
X00785497Y00849089D01*
X00785231Y00848804D01*
X00784961Y00848517D01*
X00783922Y00846858D01*
X00783783Y00846493D01*
X00783641Y00846127D01*
X00783304Y00844198D01*
X00783313Y00843806D01*
X00783319Y00843415D01*
X00783734Y00841502D01*
X00783890Y00841143D01*
X00784044Y00840782D01*
X00785150Y00839167D01*
X00785430Y00838893D01*
X00785708Y00838617D01*
X00787341Y00837538D01*
X00787704Y00837390D01*
X00788066Y00837239D01*
X00788438Y00837165D01*
X00788489Y00837124D01*
X00788773Y00837044D01*
X00789048Y00836935D01*
X00793351Y00836143D01*
X00801777Y00833895D01*
X00809897Y00830787D01*
X00817647Y00826847D01*
X00824942Y00822117D01*
X00831701Y00816650D01*
X00837852Y00810505D01*
X00842107Y00805254D01*
X00843326Y00803751D01*
X00844463Y00802000D01*
X00844463Y00802000D01*
X00844500Y00802000D01*
X00844515Y00801920D01*
X00848062Y00796460D01*
X00852010Y00788714D01*
X00855125Y00780597D01*
X00857381Y00772173D01*
X00858177Y00767871D01*
X00858257Y00767672D01*
X00858298Y00767462D01*
X00858307Y00767449D01*
X00858419Y00766886D01*
X00858570Y00766523D01*
X00858718Y00766161D01*
X00859797Y00764528D01*
X00860072Y00764251D01*
X00860347Y00763970D01*
X00861962Y00762864D01*
X00862323Y00762710D01*
X00862682Y00762554D01*
X00864595Y00762139D01*
X00864984Y00762133D01*
X00865378Y00762124D01*
X00867307Y00762461D01*
X00867673Y00762603D01*
X00868038Y00762742D01*
X00869697Y00763781D01*
X00869983Y00764050D01*
X00870269Y00764317D01*
X00871413Y00765905D01*
X00871575Y00766261D01*
X00871741Y00766617D01*
X00872202Y00768520D01*
X00872218Y00768910D01*
X00872236Y00769302D01*
X00872091Y00770270D01*
X00872088Y00770279D01*
X00872089Y00770288D01*
X00871504Y00773972D01*
X00871476Y00774048D01*
X00871472Y00774129D01*
X00869728Y00781382D01*
X00869694Y00781456D01*
X00869685Y00781536D01*
X00867377Y00788631D01*
X00867338Y00788702D01*
X00867322Y00788781D01*
X00864465Y00795673D01*
X00864420Y00795740D01*
X00864398Y00795818D01*
X00861010Y00802465D01*
X00860960Y00802529D01*
X00860932Y00802605D01*
X00857033Y00808965D01*
X00856978Y00809025D01*
X00856944Y00809098D01*
X00852558Y00815133D01*
X00852498Y00815188D01*
X00852459Y00815259D01*
X00847613Y00820932D01*
X00847550Y00820982D01*
X00847505Y00821049D01*
X00842229Y00826325D01*
X00842162Y00826370D01*
X00842112Y00826433D01*
X00836439Y00831279D01*
X00836368Y00831318D01*
X00836313Y00831378D01*
X00830278Y00835764D01*
X00830205Y00835798D01*
X00830145Y00835853D01*
X00823785Y00839752D01*
X00823709Y00839780D01*
X00823645Y00839830D01*
X00816998Y00843218D01*
X00816920Y00843240D01*
X00816853Y00843285D01*
X00809961Y00846142D01*
X00809882Y00846158D01*
X00809811Y00846197D01*
X00802717Y00848505D01*
X00802636Y00848514D01*
X00802562Y00848548D01*
X00795309Y00850292D01*
X00795228Y00850295D01*
X00795152Y00850323D01*
X00791468Y00850909D01*
X00791459Y00850908D01*
X00791450Y00850911D01*
X00790482Y00851056D01*
X00790482Y00851056D02*
G37*
%LPD*%
G36*
X00777785Y00782535D02*
X00779585Y00782535D01*
X00783155Y00782065D01*
X00786632Y00781133D01*
X00789958Y00779755D01*
X00793076Y00777955D01*
X00795933Y00775763D01*
X00798478Y00773218D01*
X00800670Y00770361D01*
X00802470Y00767243D01*
X00803848Y00763917D01*
X00804780Y00760439D01*
X00805249Y00756870D01*
X00805249Y00755070D01*
X00805249Y00753270D01*
X00804780Y00749700D01*
X00803848Y00746223D01*
X00802470Y00742896D01*
X00800670Y00739779D01*
X00798478Y00736922D01*
X00795932Y00734377D01*
X00793076Y00732185D01*
X00789958Y00730385D01*
X00786632Y00729007D01*
X00783155Y00728075D01*
X00779585Y00727605D01*
X00777785Y00727605D01*
X00777785Y00727605D01*
X00775936Y00727551D01*
X00772255Y00727928D01*
X00768654Y00728781D01*
X00765196Y00730097D01*
X00761939Y00731853D01*
X00758940Y00734019D01*
X00756248Y00736559D01*
X00753911Y00739428D01*
X00751969Y00742577D01*
X00750454Y00745953D01*
X00749393Y00749498D01*
X00748804Y00753151D01*
X00748750Y00755000D01*
X00748799Y00756854D01*
X00749380Y00760517D01*
X00750435Y00764073D01*
X00751945Y00767461D01*
X00753884Y00770623D01*
X00756219Y00773505D01*
X00758910Y00776057D01*
X00761912Y00778236D01*
X00765172Y00780005D01*
X00768635Y00781333D01*
X00772242Y00782198D01*
X00775931Y00782584D01*
X00777785Y00782535D01*
X00777785Y00782535D02*
G37*
D10*
X00886301Y00756044D02*
G03*
X00666301Y00756044I-00110000J00000000D01*
G01*
D21*
X00737362Y00759206D02*
X00755206Y00759206D01*
X00812500Y00773500D02*
X00814000Y00772000D01*
X00812500Y00793550D02*
X00812500Y00800450D01*
X00812500Y00807350D01*
X00812500Y00793550D02*
X00812500Y00786650D01*
X00812500Y00779750D01*
X00812500Y00773500D01*
D24*
X00778000Y00739250D02*
X00787000Y00739250D01*
X00819250Y00707000D01*
X00816500Y00733250D02*
X00823750Y00740500D01*
X00823750Y00762250D01*
X00814000Y00772000D01*
D25*
X00725750Y00716750D02*
D03*
X00723000Y00778250D02*
D03*
X00732536Y00800100D02*
D03*
D26*
X00725213Y00694176D02*
D03*
X00736550Y00686238D02*
D03*
X00715426Y00703963D02*
D03*
X00748703Y00680550D02*
D03*
X00762462Y00676806D02*
D03*
X00775512Y00675194D02*
D03*
X00790038Y00676806D02*
D03*
X00803064Y00681328D02*
D03*
X00815950Y00686238D02*
D03*
X00827287Y00694176D02*
D03*
X00837074Y00703963D02*
D03*
X00850862Y00727844D02*
D03*
X00854444Y00741212D02*
D03*
X00855650Y00755194D02*
D03*
X00846250Y00758500D02*
D03*
X00839750Y00758500D02*
D03*
X00846250Y00749000D02*
D03*
X00854444Y00768788D02*
D03*
X00850862Y00782156D02*
D03*
X00844738Y00794968D02*
D03*
X00827287Y00815824D02*
D03*
X00815608Y00824048D02*
D03*
X00837074Y00806037D02*
D03*
X00790038Y00833194D02*
D03*
X00812500Y00807350D02*
D03*
X00812500Y00800450D02*
D03*
X00812500Y00793550D02*
D03*
X00812500Y00786650D02*
D03*
X00812500Y00779750D02*
D03*
X00812500Y00760500D02*
D03*
X00814000Y00734750D02*
D03*
X00822000Y00734750D02*
D03*
X00818000Y00729250D02*
D03*
X00817750Y00719250D02*
D03*
X00818000Y00740000D02*
D03*
X00814250Y00747500D02*
D03*
X00814500Y00754000D02*
D03*
X00833250Y00758500D02*
D03*
X00805750Y00696000D02*
D03*
X00788000Y00709876D02*
D03*
X00784750Y00723000D02*
D03*
X00774750Y00715250D02*
D03*
X00765750Y00723000D02*
D03*
X00764750Y00709750D02*
D03*
X00780000Y00698500D02*
D03*
X00779750Y00687250D02*
D03*
X00746000Y00697000D02*
D03*
X00734250Y00748500D02*
D03*
X00723250Y00759250D02*
D03*
X00698056Y00768788D02*
D03*
X00701638Y00782156D02*
D03*
X00696851Y00755305D02*
D03*
X00698056Y00741212D02*
D03*
X00701638Y00727844D02*
D03*
X00707488Y00715300D02*
D03*
X00715426Y00806037D02*
D03*
X00737371Y00824048D02*
D03*
X00762462Y00833194D02*
D03*
X00725213Y00815824D02*
D03*
X00707488Y00794700D02*
D03*
D27*
X00832488Y00783218D02*
D03*
D28*
X00737362Y00759206D02*
D03*
D29*
X00819250Y00707000D02*
D03*
X00814000Y00772000D02*
D03*
D30*
X00819250Y00713625D02*
D03*
M02*
