G04 Layer_Color=16711935*
%FSLAX25Y25*%
%MOIN*%
G70*
G01*
G75*
%ADD10C,0.01181*%
%ADD41C,0.00394*%
%ADD51C,0.06706*%
%ADD52C,0.04737*%
%ADD53C,0.05524*%
%ADD54C,0.00787*%
%ADD55C,0.00197*%
G36*
X297194Y298417D02*
X297337Y298394D01*
X297461Y298356D01*
X297513Y298337D01*
X297565Y298318D01*
X297608Y298294D01*
X297651Y298275D01*
X297684Y298256D01*
X297713Y298237D01*
X297737Y298222D01*
X297751Y298213D01*
X297761Y298208D01*
X297765Y298203D01*
X297818Y298161D01*
X297861Y298108D01*
X297903Y298056D01*
X297937Y297999D01*
X297998Y297875D01*
X298041Y297756D01*
X298056Y297699D01*
X298070Y297646D01*
X298084Y297599D01*
X298089Y297556D01*
X298098Y297523D01*
Y297499D01*
X298103Y297480D01*
Y297475D01*
X297489Y297418D01*
X297480Y297513D01*
X297461Y297589D01*
X297442Y297656D01*
X297418Y297708D01*
X297399Y297746D01*
X297380Y297775D01*
X297365Y297794D01*
X297361Y297799D01*
X297313Y297837D01*
X297266Y297865D01*
X297213Y297889D01*
X297161Y297903D01*
X297118Y297913D01*
X297085Y297918D01*
X297051D01*
X296980Y297913D01*
X296923Y297899D01*
X296870Y297880D01*
X296828Y297861D01*
X296790Y297842D01*
X296766Y297822D01*
X296751Y297808D01*
X296747Y297803D01*
X296709Y297761D01*
X296680Y297708D01*
X296661Y297656D01*
X296647Y297604D01*
X296637Y297561D01*
X296632Y297523D01*
Y297499D01*
Y297494D01*
Y297489D01*
X296637Y297418D01*
X296651Y297351D01*
X296675Y297289D01*
X296694Y297232D01*
X296718Y297185D01*
X296742Y297147D01*
X296756Y297123D01*
X296761Y297113D01*
X296780Y297085D01*
X296809Y297051D01*
X296842Y297013D01*
X296880Y296975D01*
X296966Y296885D01*
X297051Y296799D01*
X297137Y296718D01*
X297175Y296685D01*
X297208Y296652D01*
X297237Y296628D01*
X297256Y296609D01*
X297270Y296595D01*
X297275Y296590D01*
X297365Y296504D01*
X297451Y296418D01*
X297527Y296342D01*
X297599Y296266D01*
X297661Y296199D01*
X297718Y296133D01*
X297770Y296076D01*
X297813Y296023D01*
X297851Y295976D01*
X297884Y295938D01*
X297908Y295900D01*
X297927Y295871D01*
X297946Y295847D01*
X297956Y295833D01*
X297965Y295823D01*
Y295819D01*
X298022Y295709D01*
X298070Y295600D01*
X298108Y295500D01*
X298137Y295404D01*
X298156Y295323D01*
X298160Y295290D01*
X298165Y295262D01*
X298170Y295243D01*
X298175Y295224D01*
Y295214D01*
Y295209D01*
X296018D01*
Y295780D01*
X297246D01*
X297208Y295842D01*
X297165Y295895D01*
X297151Y295914D01*
X297137Y295933D01*
X297127Y295942D01*
X297123Y295947D01*
X297104Y295966D01*
X297085Y295990D01*
X297032Y296042D01*
X296970Y296099D01*
X296908Y296161D01*
X296847Y296214D01*
X296799Y296261D01*
X296780Y296280D01*
X296766Y296295D01*
X296756Y296299D01*
X296751Y296304D01*
X296651Y296399D01*
X296566Y296480D01*
X296494Y296552D01*
X296437Y296609D01*
X296399Y296656D01*
X296371Y296685D01*
X296352Y296709D01*
X296347Y296713D01*
X296285Y296794D01*
X296237Y296866D01*
X296195Y296937D01*
X296156Y296999D01*
X296133Y297051D01*
X296114Y297090D01*
X296104Y297113D01*
X296099Y297123D01*
X296071Y297194D01*
X296052Y297270D01*
X296037Y297337D01*
X296028Y297399D01*
X296023Y297456D01*
X296018Y297494D01*
Y297523D01*
Y297532D01*
X296023Y297604D01*
X296028Y297670D01*
X296042Y297732D01*
X296061Y297794D01*
X296104Y297903D01*
X296156Y297994D01*
X296180Y298032D01*
X296209Y298070D01*
X296233Y298099D01*
X296252Y298122D01*
X296271Y298146D01*
X296280Y298161D01*
X296290Y298165D01*
X296294Y298170D01*
X296347Y298218D01*
X296404Y298256D01*
X296466Y298289D01*
X296523Y298318D01*
X296647Y298365D01*
X296766Y298394D01*
X296823Y298408D01*
X296875Y298413D01*
X296918Y298417D01*
X296961Y298422D01*
X296989Y298427D01*
X297118D01*
X297194Y298417D01*
D02*
G37*
G36*
X299669Y298422D02*
X299760Y298413D01*
X299841Y298394D01*
X299912Y298379D01*
X299969Y298360D01*
X300012Y298341D01*
X300041Y298332D01*
X300045Y298327D01*
X300050D01*
X300126Y298289D01*
X300193Y298241D01*
X300250Y298194D01*
X300298Y298151D01*
X300336Y298113D01*
X300360Y298080D01*
X300378Y298060D01*
X300383Y298051D01*
X300426Y297980D01*
X300459Y297903D01*
X300493Y297827D01*
X300517Y297751D01*
X300536Y297685D01*
X300550Y297632D01*
X300555Y297613D01*
Y297599D01*
X300559Y297589D01*
Y297585D01*
X299993Y297489D01*
X299979Y297566D01*
X299960Y297627D01*
X299941Y297685D01*
X299917Y297727D01*
X299898Y297761D01*
X299879Y297789D01*
X299864Y297803D01*
X299860Y297808D01*
X299817Y297846D01*
X299769Y297870D01*
X299722Y297889D01*
X299679Y297903D01*
X299645Y297913D01*
X299612Y297918D01*
X299588D01*
X299531Y297913D01*
X299479Y297903D01*
X299436Y297884D01*
X299398Y297870D01*
X299369Y297851D01*
X299350Y297832D01*
X299336Y297822D01*
X299331Y297818D01*
X299298Y297780D01*
X299274Y297737D01*
X299255Y297694D01*
X299246Y297656D01*
X299236Y297618D01*
X299231Y297589D01*
Y297570D01*
Y297561D01*
X299236Y297494D01*
X299250Y297432D01*
X299274Y297380D01*
X299298Y297337D01*
X299322Y297304D01*
X299346Y297275D01*
X299360Y297261D01*
X299365Y297256D01*
X299417Y297218D01*
X299479Y297189D01*
X299546Y297175D01*
X299607Y297161D01*
X299664Y297156D01*
X299707Y297151D01*
X299750D01*
X299817Y296652D01*
X299760Y296666D01*
X299703Y296680D01*
X299655Y296690D01*
X299617Y296694D01*
X299584Y296699D01*
X299536D01*
X299469Y296694D01*
X299412Y296680D01*
X299360Y296656D01*
X299317Y296633D01*
X299279Y296604D01*
X299255Y296585D01*
X299236Y296566D01*
X299231Y296561D01*
X299188Y296509D01*
X299155Y296447D01*
X299136Y296385D01*
X299117Y296328D01*
X299108Y296275D01*
X299103Y296233D01*
Y296204D01*
Y296199D01*
Y296195D01*
X299108Y296109D01*
X299122Y296033D01*
X299146Y295966D01*
X299169Y295909D01*
X299193Y295866D01*
X299217Y295838D01*
X299231Y295814D01*
X299236Y295809D01*
X299289Y295761D01*
X299341Y295728D01*
X299393Y295700D01*
X299446Y295685D01*
X299493Y295676D01*
X299527Y295671D01*
X299550Y295666D01*
X299560D01*
X299622Y295671D01*
X299679Y295685D01*
X299731Y295704D01*
X299774Y295728D01*
X299812Y295747D01*
X299836Y295766D01*
X299855Y295780D01*
X299860Y295785D01*
X299903Y295833D01*
X299936Y295890D01*
X299964Y295947D01*
X299983Y296004D01*
X299998Y296057D01*
X300007Y296095D01*
X300012Y296123D01*
Y296128D01*
Y296133D01*
X300607Y296057D01*
X300598Y295985D01*
X300578Y295914D01*
X300536Y295785D01*
X300483Y295676D01*
X300426Y295581D01*
X300398Y295543D01*
X300369Y295504D01*
X300345Y295476D01*
X300321Y295452D01*
X300307Y295428D01*
X300293Y295414D01*
X300283Y295409D01*
X300279Y295404D01*
X300221Y295362D01*
X300164Y295323D01*
X300102Y295290D01*
X300041Y295262D01*
X299922Y295219D01*
X299807Y295190D01*
X299755Y295176D01*
X299707Y295171D01*
X299664Y295166D01*
X299626Y295162D01*
X299598Y295157D01*
X299555D01*
X299469Y295162D01*
X299388Y295171D01*
X299312Y295185D01*
X299241Y295204D01*
X299169Y295224D01*
X299108Y295252D01*
X299050Y295276D01*
X298998Y295304D01*
X298951Y295333D01*
X298908Y295357D01*
X298870Y295385D01*
X298841Y295404D01*
X298817Y295424D01*
X298798Y295438D01*
X298789Y295447D01*
X298784Y295452D01*
X298732Y295509D01*
X298684Y295566D01*
X298641Y295628D01*
X298603Y295690D01*
X298574Y295752D01*
X298551Y295809D01*
X298513Y295923D01*
X298498Y295976D01*
X298489Y296023D01*
X298484Y296061D01*
X298479Y296099D01*
X298475Y296128D01*
Y296152D01*
Y296166D01*
Y296171D01*
X298479Y296275D01*
X298498Y296366D01*
X298527Y296452D01*
X298555Y296523D01*
X298589Y296580D01*
X298613Y296623D01*
X298632Y296652D01*
X298641Y296661D01*
X298708Y296732D01*
X298779Y296790D01*
X298851Y296837D01*
X298922Y296875D01*
X298984Y296899D01*
X299031Y296913D01*
X299050Y296923D01*
X299065D01*
X299074Y296928D01*
X299079D01*
X298998Y296975D01*
X298927Y297028D01*
X298865Y297085D01*
X298813Y297142D01*
X298765Y297194D01*
X298732Y297251D01*
X298698Y297308D01*
X298674Y297361D01*
X298655Y297408D01*
X298641Y297456D01*
X298632Y297499D01*
X298622Y297532D01*
Y297561D01*
X298617Y297585D01*
Y297599D01*
Y297604D01*
X298622Y297661D01*
X298627Y297713D01*
X298651Y297813D01*
X298689Y297903D01*
X298732Y297980D01*
X298774Y298046D01*
X298808Y298094D01*
X298827Y298113D01*
X298836Y298127D01*
X298841Y298132D01*
X298846Y298137D01*
X298898Y298189D01*
X298955Y298232D01*
X299012Y298270D01*
X299074Y298303D01*
X299136Y298332D01*
X299193Y298356D01*
X299312Y298389D01*
X299365Y298403D01*
X299417Y298413D01*
X299460Y298417D01*
X299498Y298422D01*
X299531Y298427D01*
X299574D01*
X299669Y298422D01*
D02*
G37*
G36*
X312869Y295209D02*
X312221D01*
Y296571D01*
X310889D01*
Y297113D01*
X312221D01*
Y297870D01*
X310674D01*
Y298413D01*
X312869D01*
Y295209D01*
D02*
G37*
G36*
X294705Y298417D02*
X294847Y298394D01*
X294971Y298356D01*
X295023Y298337D01*
X295076Y298318D01*
X295119Y298294D01*
X295162Y298275D01*
X295195Y298256D01*
X295223Y298237D01*
X295247Y298222D01*
X295262Y298213D01*
X295271Y298208D01*
X295276Y298203D01*
X295328Y298161D01*
X295371Y298108D01*
X295414Y298056D01*
X295447Y297999D01*
X295509Y297875D01*
X295552Y297756D01*
X295566Y297699D01*
X295580Y297646D01*
X295595Y297599D01*
X295600Y297556D01*
X295609Y297523D01*
Y297499D01*
X295614Y297480D01*
Y297475D01*
X295000Y297418D01*
X294990Y297513D01*
X294971Y297589D01*
X294952Y297656D01*
X294928Y297708D01*
X294909Y297746D01*
X294890Y297775D01*
X294876Y297794D01*
X294871Y297799D01*
X294824Y297837D01*
X294776Y297865D01*
X294724Y297889D01*
X294671Y297903D01*
X294628Y297913D01*
X294595Y297918D01*
X294562D01*
X294490Y297913D01*
X294433Y297899D01*
X294381Y297880D01*
X294338Y297861D01*
X294300Y297842D01*
X294276Y297822D01*
X294262Y297808D01*
X294257Y297803D01*
X294219Y297761D01*
X294191Y297708D01*
X294172Y297656D01*
X294157Y297604D01*
X294148Y297561D01*
X294143Y297523D01*
Y297499D01*
Y297494D01*
Y297489D01*
X294148Y297418D01*
X294162Y297351D01*
X294186Y297289D01*
X294205Y297232D01*
X294229Y297185D01*
X294252Y297147D01*
X294267Y297123D01*
X294271Y297113D01*
X294290Y297085D01*
X294319Y297051D01*
X294352Y297013D01*
X294390Y296975D01*
X294476Y296885D01*
X294562Y296799D01*
X294648Y296718D01*
X294686Y296685D01*
X294719Y296652D01*
X294747Y296628D01*
X294766Y296609D01*
X294781Y296595D01*
X294785Y296590D01*
X294876Y296504D01*
X294962Y296418D01*
X295038Y296342D01*
X295109Y296266D01*
X295171Y296199D01*
X295228Y296133D01*
X295281Y296076D01*
X295323Y296023D01*
X295361Y295976D01*
X295395Y295938D01*
X295419Y295900D01*
X295438Y295871D01*
X295457Y295847D01*
X295466Y295833D01*
X295476Y295823D01*
Y295819D01*
X295533Y295709D01*
X295580Y295600D01*
X295619Y295500D01*
X295647Y295404D01*
X295666Y295323D01*
X295671Y295290D01*
X295676Y295262D01*
X295680Y295243D01*
X295685Y295224D01*
Y295214D01*
Y295209D01*
X293529D01*
Y295780D01*
X294757D01*
X294719Y295842D01*
X294676Y295895D01*
X294662Y295914D01*
X294648Y295933D01*
X294638Y295942D01*
X294633Y295947D01*
X294614Y295966D01*
X294595Y295990D01*
X294543Y296042D01*
X294481Y296099D01*
X294419Y296161D01*
X294357Y296214D01*
X294309Y296261D01*
X294290Y296280D01*
X294276Y296295D01*
X294267Y296299D01*
X294262Y296304D01*
X294162Y296399D01*
X294076Y296480D01*
X294005Y296552D01*
X293948Y296609D01*
X293910Y296656D01*
X293881Y296685D01*
X293862Y296709D01*
X293857Y296713D01*
X293795Y296794D01*
X293748Y296866D01*
X293705Y296937D01*
X293667Y296999D01*
X293643Y297051D01*
X293624Y297090D01*
X293615Y297113D01*
X293610Y297123D01*
X293581Y297194D01*
X293562Y297270D01*
X293548Y297337D01*
X293538Y297399D01*
X293534Y297456D01*
X293529Y297494D01*
Y297523D01*
Y297532D01*
X293534Y297604D01*
X293538Y297670D01*
X293553Y297732D01*
X293572Y297794D01*
X293615Y297903D01*
X293667Y297994D01*
X293691Y298032D01*
X293719Y298070D01*
X293743Y298099D01*
X293762Y298122D01*
X293781Y298146D01*
X293791Y298161D01*
X293800Y298165D01*
X293805Y298170D01*
X293857Y298218D01*
X293914Y298256D01*
X293976Y298289D01*
X294033Y298318D01*
X294157Y298365D01*
X294276Y298394D01*
X294333Y298408D01*
X294386Y298413D01*
X294428Y298417D01*
X294471Y298422D01*
X294500Y298427D01*
X294628D01*
X294705Y298417D01*
D02*
G37*
G36*
X287077Y299120D02*
X286391D01*
X286129Y299848D01*
X284835D01*
X284559Y299120D01*
X283859D01*
X285154Y302324D01*
X285834D01*
X287077Y299120D01*
D02*
G37*
G36*
X291232D02*
X290618D01*
Y299734D01*
X291232D01*
Y299120D01*
D02*
G37*
G36*
X297158Y302371D02*
X297287Y302357D01*
X297406Y302333D01*
X297506Y302314D01*
X297549Y302300D01*
X297591Y302290D01*
X297625Y302276D01*
X297653Y302267D01*
X297677Y302262D01*
X297691Y302252D01*
X297701Y302247D01*
X297706D01*
X297792Y302209D01*
X297868Y302162D01*
X297939Y302114D01*
X298001Y302067D01*
X298053Y302024D01*
X298091Y301990D01*
X298115Y301967D01*
X298125Y301957D01*
X298191Y301886D01*
X298248Y301810D01*
X298301Y301733D01*
X298344Y301667D01*
X298377Y301610D01*
X298401Y301562D01*
X298410Y301543D01*
X298415Y301529D01*
X298420Y301524D01*
Y301519D01*
X298467Y301391D01*
X298501Y301253D01*
X298529Y301115D01*
X298544Y300986D01*
X298548Y300929D01*
X298553Y300872D01*
X298558Y300824D01*
Y300781D01*
X298563Y300748D01*
Y300724D01*
Y300705D01*
Y300700D01*
X298558Y300562D01*
X298544Y300429D01*
X298524Y300305D01*
X298496Y300191D01*
X298467Y300082D01*
X298429Y299986D01*
X298391Y299896D01*
X298353Y299815D01*
X298315Y299744D01*
X298277Y299677D01*
X298239Y299625D01*
X298210Y299582D01*
X298182Y299544D01*
X298163Y299520D01*
X298148Y299506D01*
X298144Y299501D01*
X298063Y299425D01*
X297972Y299358D01*
X297882Y299301D01*
X297792Y299249D01*
X297696Y299211D01*
X297601Y299172D01*
X297511Y299144D01*
X297420Y299120D01*
X297335Y299106D01*
X297258Y299092D01*
X297187Y299082D01*
X297130Y299073D01*
X297077D01*
X297044Y299068D01*
X297011D01*
X296882Y299073D01*
X296759Y299087D01*
X296644Y299106D01*
X296535Y299134D01*
X296435Y299168D01*
X296344Y299206D01*
X296259Y299244D01*
X296183Y299287D01*
X296111Y299325D01*
X296054Y299363D01*
X296002Y299401D01*
X295959Y299434D01*
X295925Y299463D01*
X295902Y299482D01*
X295887Y299496D01*
X295883Y299501D01*
X295807Y299587D01*
X295745Y299677D01*
X295688Y299777D01*
X295640Y299877D01*
X295597Y299977D01*
X295564Y300077D01*
X295535Y300177D01*
X295511Y300272D01*
X295492Y300362D01*
X295483Y300448D01*
X295473Y300519D01*
X295464Y300586D01*
Y300639D01*
X295459Y300681D01*
Y300705D01*
Y300715D01*
X295464Y300857D01*
X295478Y300991D01*
X295497Y301119D01*
X295526Y301234D01*
X295559Y301343D01*
X295592Y301443D01*
X295635Y301533D01*
X295673Y301619D01*
X295711Y301691D01*
X295749Y301752D01*
X295788Y301810D01*
X295821Y301852D01*
X295849Y301886D01*
X295868Y301914D01*
X295883Y301928D01*
X295887Y301933D01*
X295968Y302009D01*
X296059Y302081D01*
X296149Y302138D01*
X296245Y302190D01*
X296335Y302233D01*
X296430Y302267D01*
X296520Y302295D01*
X296611Y302319D01*
X296692Y302338D01*
X296768Y302352D01*
X296839Y302362D01*
X296897Y302371D01*
X296949D01*
X296982Y302376D01*
X297016D01*
X297158Y302371D01*
D02*
G37*
G36*
X318535D02*
X318664Y302357D01*
X318783Y302333D01*
X318883Y302314D01*
X318926Y302300D01*
X318969Y302290D01*
X319002Y302276D01*
X319031Y302267D01*
X319054Y302262D01*
X319069Y302252D01*
X319078Y302247D01*
X319083D01*
X319169Y302209D01*
X319245Y302162D01*
X319316Y302114D01*
X319378Y302067D01*
X319430Y302024D01*
X319468Y301990D01*
X319492Y301967D01*
X319502Y301957D01*
X319568Y301886D01*
X319626Y301810D01*
X319678Y301733D01*
X319721Y301667D01*
X319754Y301610D01*
X319778Y301562D01*
X319787Y301543D01*
X319792Y301529D01*
X319797Y301524D01*
Y301519D01*
X319845Y301391D01*
X319878Y301253D01*
X319906Y301115D01*
X319921Y300986D01*
X319925Y300929D01*
X319930Y300872D01*
X319935Y300824D01*
Y300781D01*
X319940Y300748D01*
Y300724D01*
Y300705D01*
Y300700D01*
X319935Y300562D01*
X319921Y300429D01*
X319902Y300305D01*
X319873Y300191D01*
X319845Y300082D01*
X319807Y299986D01*
X319768Y299896D01*
X319730Y299815D01*
X319692Y299744D01*
X319654Y299677D01*
X319616Y299625D01*
X319587Y299582D01*
X319559Y299544D01*
X319540Y299520D01*
X319526Y299506D01*
X319521Y299501D01*
X319440Y299425D01*
X319350Y299358D01*
X319259Y299301D01*
X319169Y299249D01*
X319073Y299211D01*
X318978Y299172D01*
X318888Y299144D01*
X318797Y299120D01*
X318712Y299106D01*
X318636Y299092D01*
X318564Y299082D01*
X318507Y299073D01*
X318455D01*
X318421Y299068D01*
X318388D01*
X318260Y299073D01*
X318136Y299087D01*
X318021Y299106D01*
X317912Y299134D01*
X317812Y299168D01*
X317722Y299206D01*
X317636Y299244D01*
X317560Y299287D01*
X317488Y299325D01*
X317431Y299363D01*
X317379Y299401D01*
X317336Y299434D01*
X317303Y299463D01*
X317279Y299482D01*
X317265Y299496D01*
X317260Y299501D01*
X317184Y299587D01*
X317122Y299677D01*
X317065Y299777D01*
X317017Y299877D01*
X316974Y299977D01*
X316941Y300077D01*
X316912Y300177D01*
X316889Y300272D01*
X316869Y300362D01*
X316860Y300448D01*
X316850Y300519D01*
X316841Y300586D01*
Y300639D01*
X316836Y300681D01*
Y300705D01*
Y300715D01*
X316841Y300857D01*
X316855Y300991D01*
X316874Y301119D01*
X316903Y301234D01*
X316936Y301343D01*
X316969Y301443D01*
X317012Y301533D01*
X317050Y301619D01*
X317089Y301691D01*
X317127Y301752D01*
X317165Y301810D01*
X317198Y301852D01*
X317227Y301886D01*
X317246Y301914D01*
X317260Y301928D01*
X317265Y301933D01*
X317345Y302009D01*
X317436Y302081D01*
X317526Y302138D01*
X317622Y302190D01*
X317712Y302233D01*
X317807Y302267D01*
X317898Y302295D01*
X317988Y302319D01*
X318069Y302338D01*
X318145Y302352D01*
X318217Y302362D01*
X318274Y302371D01*
X318326D01*
X318359Y302376D01*
X318393D01*
X318535Y302371D01*
D02*
G37*
G36*
X310122Y295209D02*
X307866D01*
Y295752D01*
X309475D01*
Y298384D01*
X310122D01*
Y295209D01*
D02*
G37*
G36*
X329230Y287984D02*
X330906D01*
Y286832D01*
X329230D01*
Y285175D01*
X328107D01*
Y286832D01*
X326422D01*
Y287984D01*
X328107D01*
Y289640D01*
X329230D01*
Y287984D01*
D02*
G37*
G36*
X328445Y306330D02*
X323961D01*
Y307482D01*
X328445D01*
Y306330D01*
D02*
G37*
G36*
X300886Y278051D02*
X297729D01*
Y278810D01*
X299980D01*
Y282493D01*
X300886D01*
Y278051D01*
D02*
G37*
G36*
X297283Y279863D02*
X294146D01*
Y280669D01*
X297283D01*
Y279863D01*
D02*
G37*
G36*
X295225Y315898D02*
X296397D01*
Y315092D01*
X295225D01*
Y313933D01*
X294439D01*
Y315092D01*
X293260D01*
Y315898D01*
X294439D01*
Y317057D01*
X295225D01*
Y315898D01*
D02*
G37*
G36*
X307404Y295209D02*
X306190D01*
X306062Y295214D01*
X305953Y295219D01*
X305853Y295228D01*
X305772Y295243D01*
X305705Y295257D01*
X305657Y295266D01*
X305643Y295271D01*
X305629D01*
X305619Y295276D01*
X305519Y295314D01*
X305429Y295352D01*
X305353Y295395D01*
X305286Y295438D01*
X305234Y295471D01*
X305196Y295500D01*
X305177Y295524D01*
X305167Y295528D01*
X305086Y295614D01*
X305019Y295709D01*
X304962Y295804D01*
X304910Y295895D01*
X304872Y295976D01*
X304858Y296009D01*
X304848Y296038D01*
X304839Y296061D01*
X304829Y296080D01*
X304824Y296090D01*
Y296095D01*
X304791Y296204D01*
X304767Y296323D01*
X304748Y296437D01*
X304739Y296547D01*
X304734Y296595D01*
X304729Y296637D01*
Y296680D01*
X304724Y296713D01*
Y296742D01*
Y296761D01*
Y296775D01*
Y296780D01*
X304729Y296942D01*
X304739Y297085D01*
X304748Y297151D01*
X304758Y297213D01*
X304767Y297270D01*
X304777Y297323D01*
X304786Y297370D01*
X304796Y297413D01*
X304805Y297446D01*
X304815Y297480D01*
X304820Y297504D01*
X304824Y297518D01*
X304829Y297527D01*
Y297532D01*
X304872Y297642D01*
X304920Y297742D01*
X304972Y297832D01*
X305024Y297908D01*
X305067Y297970D01*
X305105Y298013D01*
X305129Y298042D01*
X305134Y298051D01*
X305138D01*
X305215Y298127D01*
X305296Y298189D01*
X305377Y298241D01*
X305453Y298280D01*
X305519Y298313D01*
X305572Y298337D01*
X305591Y298341D01*
X305605Y298346D01*
X305614Y298351D01*
X305619D01*
X305705Y298370D01*
X305805Y298389D01*
X305905Y298398D01*
X306000Y298403D01*
X306090Y298408D01*
X306129Y298413D01*
X307404D01*
Y295209D01*
D02*
G37*
G36*
X292717Y304134D02*
X291018D01*
X290838Y304140D01*
X290685Y304147D01*
X290545Y304160D01*
X290432Y304181D01*
X290339Y304201D01*
X290272Y304214D01*
X290252Y304220D01*
X290232D01*
X290219Y304227D01*
X290079Y304280D01*
X289953Y304334D01*
X289846Y304394D01*
X289753Y304453D01*
X289680Y304500D01*
X289626Y304540D01*
X289600Y304573D01*
X289586Y304580D01*
X289473Y304700D01*
X289380Y304833D01*
X289300Y304966D01*
X289227Y305093D01*
X289173Y305206D01*
X289153Y305253D01*
X289140Y305293D01*
X289127Y305326D01*
X289113Y305353D01*
X289107Y305366D01*
Y305373D01*
X289060Y305526D01*
X289027Y305692D01*
X289000Y305852D01*
X288987Y306005D01*
X288980Y306072D01*
X288974Y306132D01*
Y306192D01*
X288967Y306238D01*
Y306278D01*
Y306305D01*
Y306325D01*
Y306332D01*
X288974Y306558D01*
X288987Y306758D01*
X289000Y306851D01*
X289014Y306938D01*
X289027Y307018D01*
X289040Y307091D01*
X289054Y307157D01*
X289067Y307217D01*
X289080Y307264D01*
X289093Y307311D01*
X289100Y307344D01*
X289107Y307364D01*
X289113Y307377D01*
Y307384D01*
X289173Y307537D01*
X289240Y307677D01*
X289313Y307804D01*
X289387Y307910D01*
X289446Y307997D01*
X289500Y308057D01*
X289533Y308097D01*
X289540Y308110D01*
X289546D01*
X289653Y308216D01*
X289766Y308303D01*
X289879Y308376D01*
X289986Y308430D01*
X290079Y308476D01*
X290152Y308509D01*
X290179Y308516D01*
X290199Y308523D01*
X290212Y308529D01*
X290219D01*
X290339Y308556D01*
X290479Y308583D01*
X290619Y308596D01*
X290752Y308603D01*
X290878Y308609D01*
X290932Y308616D01*
X292717D01*
Y304134D01*
D02*
G37*
G36*
X300000Y313287D02*
X296843D01*
Y314047D01*
X299094D01*
Y317730D01*
X300000D01*
Y313287D01*
D02*
G37*
G36*
X302913Y299120D02*
X302299D01*
Y299734D01*
X302913D01*
Y299120D01*
D02*
G37*
G36*
X300405Y302371D02*
X300519Y302357D01*
X300628Y302333D01*
X300733Y302309D01*
X300828Y302271D01*
X300919Y302238D01*
X301000Y302195D01*
X301076Y302157D01*
X301143Y302114D01*
X301200Y302071D01*
X301247Y302038D01*
X301290Y302005D01*
X301323Y301976D01*
X301347Y301952D01*
X301361Y301938D01*
X301366Y301933D01*
X301438Y301848D01*
X301500Y301752D01*
X301557Y301652D01*
X301604Y301553D01*
X301642Y301448D01*
X301676Y301348D01*
X301704Y301243D01*
X301723Y301148D01*
X301742Y301053D01*
X301752Y300967D01*
X301761Y300891D01*
X301771Y300824D01*
Y300767D01*
X301776Y300724D01*
Y300700D01*
Y300691D01*
X301771Y300553D01*
X301757Y300424D01*
X301737Y300301D01*
X301714Y300186D01*
X301680Y300082D01*
X301647Y299982D01*
X301609Y299891D01*
X301571Y299810D01*
X301533Y299739D01*
X301495Y299677D01*
X301461Y299625D01*
X301428Y299582D01*
X301404Y299544D01*
X301385Y299520D01*
X301371Y299506D01*
X301366Y299501D01*
X301285Y299425D01*
X301204Y299358D01*
X301119Y299301D01*
X301028Y299249D01*
X300943Y299211D01*
X300857Y299172D01*
X300771Y299144D01*
X300690Y299120D01*
X300614Y299106D01*
X300543Y299092D01*
X300481Y299082D01*
X300424Y299073D01*
X300381D01*
X300348Y299068D01*
X300319D01*
X300224Y299073D01*
X300133Y299077D01*
X300048Y299092D01*
X299972Y299106D01*
X299895Y299125D01*
X299824Y299149D01*
X299762Y299172D01*
X299700Y299196D01*
X299648Y299215D01*
X299605Y299239D01*
X299562Y299263D01*
X299534Y299282D01*
X299505Y299296D01*
X299486Y299310D01*
X299477Y299315D01*
X299472Y299320D01*
X299410Y299372D01*
X299353Y299429D01*
X299253Y299553D01*
X299167Y299682D01*
X299100Y299810D01*
X299077Y299867D01*
X299053Y299924D01*
X299029Y299977D01*
X299015Y300020D01*
X299001Y300053D01*
X298991Y300082D01*
X298986Y300101D01*
Y300105D01*
X299615Y300301D01*
X299648Y300177D01*
X299691Y300067D01*
X299733Y299982D01*
X299776Y299905D01*
X299819Y299853D01*
X299852Y299815D01*
X299872Y299791D01*
X299881Y299782D01*
X299953Y299729D01*
X300029Y299687D01*
X300105Y299658D01*
X300171Y299639D01*
X300233Y299629D01*
X300281Y299625D01*
X300300Y299620D01*
X300324D01*
X300390Y299625D01*
X300448Y299629D01*
X300562Y299658D01*
X300657Y299701D01*
X300743Y299748D01*
X300809Y299796D01*
X300857Y299839D01*
X300871Y299853D01*
X300886Y299867D01*
X300890Y299872D01*
X300895Y299877D01*
X300933Y299929D01*
X300966Y299986D01*
X300995Y300053D01*
X301019Y300120D01*
X301057Y300262D01*
X301081Y300405D01*
X301090Y300472D01*
X301100Y300534D01*
X301104Y300591D01*
Y300639D01*
X301109Y300681D01*
Y300710D01*
Y300734D01*
Y300739D01*
X301104Y300843D01*
X301100Y300938D01*
X301090Y301029D01*
X301076Y301110D01*
X301057Y301186D01*
X301038Y301253D01*
X301019Y301314D01*
X301000Y301367D01*
X300981Y301414D01*
X300962Y301457D01*
X300943Y301491D01*
X300923Y301519D01*
X300909Y301538D01*
X300900Y301553D01*
X300890Y301562D01*
Y301567D01*
X300847Y301614D01*
X300800Y301652D01*
X300752Y301686D01*
X300705Y301714D01*
X300609Y301762D01*
X300514Y301790D01*
X300433Y301810D01*
X300400Y301814D01*
X300367Y301819D01*
X300343Y301824D01*
X300309D01*
X300219Y301819D01*
X300133Y301800D01*
X300057Y301776D01*
X299995Y301752D01*
X299943Y301724D01*
X299905Y301700D01*
X299881Y301681D01*
X299872Y301676D01*
X299810Y301619D01*
X299757Y301557D01*
X299714Y301491D01*
X299686Y301429D01*
X299662Y301372D01*
X299643Y301329D01*
X299638Y301310D01*
Y301295D01*
X299634Y301291D01*
Y301286D01*
X298996Y301438D01*
X299043Y301571D01*
X299091Y301691D01*
X299148Y301790D01*
X299200Y301876D01*
X299248Y301938D01*
X299286Y301986D01*
X299315Y302014D01*
X299319Y302024D01*
X299324D01*
X299396Y302086D01*
X299472Y302138D01*
X299548Y302186D01*
X299629Y302228D01*
X299710Y302262D01*
X299786Y302290D01*
X299867Y302314D01*
X299938Y302333D01*
X300010Y302347D01*
X300076Y302357D01*
X300133Y302366D01*
X300181Y302371D01*
X300224Y302376D01*
X300281D01*
X300405Y302371D01*
D02*
G37*
G36*
X305568Y326813D02*
X305568Y326813D01*
X304325Y326786D01*
X301850Y326575D01*
X299400Y326157D01*
X296995Y325534D01*
X294651Y324712D01*
X292383Y323695D01*
X290210Y322491D01*
X288145Y321109D01*
X286204Y319557D01*
X284400Y317849D01*
X282747Y315995D01*
X281255Y314008D01*
X280573Y312969D01*
X280042Y312088D01*
X279073Y310274D01*
X278233Y308397D01*
X277526Y306466D01*
X276955Y304490D01*
X276523Y302480D01*
X276232Y300444D01*
X276084Y298393D01*
X276063Y297364D01*
X276063D01*
X262303Y297342D01*
X262304Y299043D01*
X262573Y302433D01*
X263107Y305791D01*
X263903Y309098D01*
X264955Y312331D01*
X266258Y315472D01*
X267802Y318502D01*
X269580Y321401D01*
X271580Y324152D01*
X273788Y326737D01*
X276193Y329141D01*
X278779Y331350D01*
X281530Y333349D01*
X284430Y335126D01*
X287460Y336670D01*
X290601Y337972D01*
X293835Y339023D01*
X297142Y339818D01*
X300500Y340351D01*
X303890Y340619D01*
X305591Y340620D01*
X305591Y340620D01*
X305568Y326813D01*
D02*
G37*
G36*
X305591Y340620D02*
X307291Y340619D01*
X310681Y340351D01*
X314039Y339818D01*
X317346Y339023D01*
X320580Y337972D01*
X323721Y336670D01*
X326751Y335126D01*
X329651Y333349D01*
X332402Y331350D01*
X334988Y329141D01*
X337393Y326737D01*
X339602Y324152D01*
X341601Y321401D01*
X343379Y318502D01*
X344923Y315472D01*
X346226Y312331D01*
X347278Y309098D01*
X348074Y305791D01*
X348608Y302433D01*
X348877Y299043D01*
X348878Y297342D01*
X335118Y297364D01*
X335097Y298393D01*
X334949Y300444D01*
X334658Y302480D01*
X334226Y304490D01*
X333655Y306466D01*
X332948Y308397D01*
X332108Y310274D01*
X331140Y312088D01*
X330609Y312969D01*
X329927Y314008D01*
X328435Y315995D01*
X326781Y317849D01*
X324977Y319557D01*
X323036Y321109D01*
X320971Y322491D01*
X318798Y323695D01*
X316531Y324712D01*
X314186Y325534D01*
X311781Y326157D01*
X309331Y326575D01*
X306856Y326786D01*
X305613Y326813D01*
Y326813D01*
X305591Y340620D01*
D01*
Y340620D01*
Y340620D01*
D02*
G37*
G36*
X294959Y299120D02*
X294359D01*
Y301638D01*
X293726Y299120D01*
X293108D01*
X292470Y301638D01*
X292465Y299120D01*
X291865D01*
Y302324D01*
X292841D01*
X293412Y300134D01*
X293993Y302324D01*
X294959D01*
Y299120D01*
D02*
G37*
G36*
X276063Y297321D02*
X276063Y297321D01*
X276084Y296292D01*
X276232Y294241D01*
X276523Y292206D01*
X276955Y290195D01*
X277526Y288219D01*
X278233Y286288D01*
X279073Y284411D01*
X280042Y282597D01*
X280573Y281716D01*
X281255Y280677D01*
X282747Y278691D01*
X284400Y276836D01*
X286204Y275128D01*
X288145Y273576D01*
X290210Y272194D01*
X292383Y270990D01*
X294651Y269973D01*
X296995Y269151D01*
X299400Y268528D01*
X301850Y268110D01*
X304325Y267899D01*
X305568Y267872D01*
X305568Y267872D01*
X305591Y254065D01*
X305591D01*
X303890Y254066D01*
X300500Y254334D01*
X297142Y254867D01*
X293835Y255662D01*
X290601Y256713D01*
X287460Y258015D01*
X284430Y259559D01*
X281530Y261336D01*
X278779Y263335D01*
X276193Y265544D01*
X273788Y267948D01*
X271580Y270533D01*
X269580Y273284D01*
X267802Y276183D01*
X266258Y279213D01*
X264955Y282354D01*
X263903Y285588D01*
X263107Y288894D01*
X262573Y292252D01*
X262304Y295642D01*
X262303Y297342D01*
X276063Y297321D01*
D02*
G37*
G36*
X348877Y295642D02*
X348608Y292252D01*
X348074Y288894D01*
X347278Y285588D01*
X346226Y282354D01*
X344923Y279213D01*
X343379Y276183D01*
X341601Y273284D01*
X339602Y270533D01*
X337393Y267948D01*
X334988Y265544D01*
X332402Y263335D01*
X329651Y261336D01*
X326751Y259559D01*
X323721Y258015D01*
X320580Y256713D01*
X317346Y255662D01*
X314039Y254867D01*
X310681Y254334D01*
X307291Y254066D01*
X305591Y254065D01*
X305613Y267872D01*
Y267872D01*
X306856Y267899D01*
X309331Y268110D01*
X311781Y268528D01*
X314186Y269151D01*
X316531Y269973D01*
X318798Y270990D01*
X320971Y272194D01*
X323036Y273576D01*
X324977Y275128D01*
X326781Y276836D01*
X328435Y278691D01*
X329927Y280677D01*
X330609Y281716D01*
X331140Y282597D01*
X332108Y284411D01*
X332948Y286288D01*
X333655Y288219D01*
X334226Y290195D01*
X334658Y292206D01*
X334949Y294241D01*
X335097Y296292D01*
X335118Y297321D01*
Y297321D01*
X348878Y297342D01*
X348877Y295642D01*
D02*
G37*
G36*
X311838Y299120D02*
X309582D01*
Y299663D01*
X311191D01*
Y302295D01*
X311838D01*
Y299120D01*
D02*
G37*
G36*
X309120D02*
X306688D01*
Y299663D01*
X308473D01*
Y300529D01*
X306869D01*
Y301072D01*
X308473D01*
Y301781D01*
X306750D01*
Y302324D01*
X309120D01*
Y299120D01*
D02*
G37*
G36*
X306136D02*
X304922D01*
X304793Y299125D01*
X304684Y299130D01*
X304584Y299139D01*
X304503Y299153D01*
X304436Y299168D01*
X304389Y299177D01*
X304375Y299182D01*
X304360D01*
X304351Y299187D01*
X304251Y299225D01*
X304160Y299263D01*
X304084Y299306D01*
X304017Y299349D01*
X303965Y299382D01*
X303927Y299411D01*
X303908Y299434D01*
X303899Y299439D01*
X303818Y299525D01*
X303751Y299620D01*
X303694Y299715D01*
X303642Y299805D01*
X303603Y299886D01*
X303589Y299920D01*
X303580Y299948D01*
X303570Y299972D01*
X303561Y299991D01*
X303556Y300001D01*
Y300006D01*
X303522Y300115D01*
X303499Y300234D01*
X303480Y300348D01*
X303470Y300458D01*
X303465Y300505D01*
X303461Y300548D01*
Y300591D01*
X303456Y300624D01*
Y300653D01*
Y300672D01*
Y300686D01*
Y300691D01*
X303461Y300853D01*
X303470Y300996D01*
X303480Y301062D01*
X303489Y301124D01*
X303499Y301181D01*
X303508Y301234D01*
X303518Y301281D01*
X303527Y301324D01*
X303537Y301357D01*
X303546Y301391D01*
X303551Y301414D01*
X303556Y301429D01*
X303561Y301438D01*
Y301443D01*
X303603Y301553D01*
X303651Y301652D01*
X303703Y301743D01*
X303756Y301819D01*
X303799Y301881D01*
X303837Y301924D01*
X303860Y301952D01*
X303865Y301962D01*
X303870D01*
X303946Y302038D01*
X304027Y302100D01*
X304108Y302152D01*
X304184Y302190D01*
X304251Y302224D01*
X304303Y302247D01*
X304322Y302252D01*
X304337Y302257D01*
X304346Y302262D01*
X304351D01*
X304436Y302281D01*
X304536Y302300D01*
X304636Y302309D01*
X304731Y302314D01*
X304822Y302319D01*
X304860Y302324D01*
X306136D01*
Y299120D01*
D02*
G37*
G36*
X289990Y300615D02*
Y300515D01*
X289985Y300424D01*
Y300339D01*
X289980Y300262D01*
X289976Y300186D01*
X289971Y300120D01*
X289966Y300063D01*
X289956Y300006D01*
X289952Y299958D01*
X289947Y299915D01*
X289942Y299882D01*
X289937Y299853D01*
X289933Y299829D01*
Y299815D01*
X289928Y299805D01*
Y299801D01*
X289909Y299734D01*
X289880Y299668D01*
X289852Y299606D01*
X289823Y299553D01*
X289795Y299506D01*
X289771Y299472D01*
X289752Y299453D01*
X289747Y299444D01*
X289690Y299387D01*
X289628Y299330D01*
X289566Y299287D01*
X289509Y299244D01*
X289452Y299215D01*
X289409Y299191D01*
X289381Y299177D01*
X289376Y299172D01*
X289371D01*
X289323Y299153D01*
X289271Y299139D01*
X289162Y299111D01*
X289047Y299092D01*
X288933Y299082D01*
X288881Y299077D01*
X288833Y299073D01*
X288790D01*
X288752Y299068D01*
X288676D01*
X288538Y299073D01*
X288419Y299082D01*
X288314Y299096D01*
X288224Y299115D01*
X288157Y299134D01*
X288129Y299139D01*
X288105Y299149D01*
X288086Y299153D01*
X288071Y299158D01*
X288067Y299163D01*
X288062D01*
X287976Y299201D01*
X287905Y299244D01*
X287838Y299287D01*
X287786Y299330D01*
X287743Y299363D01*
X287710Y299391D01*
X287691Y299415D01*
X287686Y299420D01*
X287638Y299487D01*
X287596Y299553D01*
X287562Y299620D01*
X287534Y299687D01*
X287515Y299739D01*
X287500Y299786D01*
X287491Y299815D01*
Y299820D01*
Y299825D01*
X287481Y299872D01*
X287472Y299929D01*
X287462Y299986D01*
X287457Y300053D01*
X287448Y300186D01*
X287439Y300320D01*
Y300386D01*
Y300443D01*
X287434Y300496D01*
Y300543D01*
Y300586D01*
Y300615D01*
Y300634D01*
Y300639D01*
Y302324D01*
X288081D01*
Y300548D01*
Y300482D01*
Y300415D01*
X288086Y300358D01*
Y300305D01*
X288091Y300210D01*
X288095Y300134D01*
X288100Y300077D01*
X288105Y300039D01*
X288110Y300015D01*
Y300006D01*
X288124Y299948D01*
X288148Y299896D01*
X288176Y299848D01*
X288205Y299805D01*
X288233Y299772D01*
X288257Y299748D01*
X288276Y299734D01*
X288281Y299729D01*
X288338Y299691D01*
X288405Y299668D01*
X288471Y299648D01*
X288538Y299634D01*
X288600Y299625D01*
X288648Y299620D01*
X288695D01*
X288790Y299625D01*
X288876Y299639D01*
X288947Y299658D01*
X289009Y299682D01*
X289062Y299701D01*
X289095Y299720D01*
X289114Y299734D01*
X289124Y299739D01*
X289176Y299786D01*
X289219Y299839D01*
X289252Y299891D01*
X289281Y299939D01*
X289300Y299986D01*
X289309Y300020D01*
X289319Y300044D01*
Y300053D01*
X289323Y300082D01*
X289328Y300110D01*
X289333Y300191D01*
X289338Y300277D01*
Y300367D01*
X289342Y300448D01*
Y300486D01*
Y300519D01*
Y300548D01*
Y300567D01*
Y300581D01*
Y300586D01*
Y302324D01*
X289990D01*
Y300615D01*
D02*
G37*
G36*
X322539Y299120D02*
X321891D01*
Y300482D01*
X320559D01*
Y301024D01*
X321891D01*
Y301781D01*
X320344D01*
Y302324D01*
X322539D01*
Y299120D01*
D02*
G37*
G36*
X316327D02*
X315680D01*
Y300458D01*
X315475D01*
X315408Y300453D01*
X315351Y300448D01*
X315303Y300439D01*
X315270Y300434D01*
X315246Y300424D01*
X315232Y300420D01*
X315227D01*
X315189Y300405D01*
X315151Y300381D01*
X315118Y300362D01*
X315089Y300339D01*
X315066Y300320D01*
X315047Y300301D01*
X315037Y300291D01*
X315032Y300286D01*
X315013Y300267D01*
X314989Y300239D01*
X314937Y300172D01*
X314880Y300096D01*
X314823Y300015D01*
X314770Y299939D01*
X314751Y299905D01*
X314727Y299877D01*
X314713Y299848D01*
X314699Y299829D01*
X314694Y299820D01*
X314689Y299815D01*
X314223Y299120D01*
X313447D01*
X313842Y299744D01*
X313885Y299810D01*
X313923Y299872D01*
X313961Y299929D01*
X313995Y299982D01*
X314028Y300029D01*
X314056Y300072D01*
X314109Y300144D01*
X314152Y300196D01*
X314185Y300234D01*
X314204Y300258D01*
X314209Y300262D01*
X314261Y300315D01*
X314318Y300367D01*
X314375Y300415D01*
X314428Y300453D01*
X314480Y300486D01*
X314518Y300510D01*
X314542Y300529D01*
X314547Y300534D01*
X314551D01*
X314475Y300548D01*
X314404Y300562D01*
X314337Y300581D01*
X314275Y300605D01*
X314218Y300624D01*
X314171Y300653D01*
X314123Y300677D01*
X314080Y300700D01*
X314042Y300724D01*
X314014Y300748D01*
X313985Y300767D01*
X313961Y300786D01*
X313947Y300800D01*
X313933Y300815D01*
X313923Y300819D01*
Y300824D01*
X313885Y300872D01*
X313852Y300919D01*
X313799Y301019D01*
X313761Y301119D01*
X313738Y301215D01*
X313718Y301295D01*
X313714Y301333D01*
Y301362D01*
X313709Y301391D01*
Y301410D01*
Y301419D01*
Y301424D01*
X313714Y301529D01*
X313733Y301624D01*
X313752Y301710D01*
X313780Y301786D01*
X313804Y301843D01*
X313828Y301890D01*
X313847Y301919D01*
X313852Y301928D01*
X313909Y302005D01*
X313966Y302067D01*
X314028Y302119D01*
X314090Y302162D01*
X314142Y302195D01*
X314185Y302219D01*
X314213Y302228D01*
X314218Y302233D01*
X314223D01*
X314271Y302247D01*
X314323Y302262D01*
X314437Y302286D01*
X314561Y302300D01*
X314685Y302314D01*
X314742D01*
X314794Y302319D01*
X314842D01*
X314885Y302324D01*
X316327D01*
Y299120D01*
D02*
G37*
%LPC*%
G36*
X285496Y301576D02*
X285049Y300391D01*
X285929D01*
X285496Y301576D01*
D02*
G37*
G36*
X297049Y301824D02*
X297011D01*
X296939Y301819D01*
X296868Y301814D01*
X296801Y301800D01*
X296740Y301781D01*
X296630Y301738D01*
X296540Y301691D01*
X296501Y301662D01*
X296468Y301638D01*
X296435Y301614D01*
X296411Y301595D01*
X296392Y301576D01*
X296378Y301562D01*
X296373Y301557D01*
X296368Y301553D01*
X296325Y301500D01*
X296287Y301438D01*
X296254Y301376D01*
X296225Y301310D01*
X296183Y301172D01*
X296154Y301038D01*
X296145Y300976D01*
X296140Y300919D01*
X296135Y300867D01*
X296130Y300819D01*
X296126Y300781D01*
Y300753D01*
Y300734D01*
Y300729D01*
X296130Y300629D01*
X296135Y300534D01*
X296149Y300443D01*
X296164Y300362D01*
X296183Y300291D01*
X296206Y300220D01*
X296230Y300158D01*
X296249Y300105D01*
X296273Y300053D01*
X296297Y300015D01*
X296321Y299977D01*
X296340Y299948D01*
X296354Y299924D01*
X296368Y299910D01*
X296373Y299901D01*
X296378Y299896D01*
X296425Y299848D01*
X296478Y299805D01*
X296530Y299767D01*
X296582Y299739D01*
X296635Y299710D01*
X296687Y299687D01*
X296787Y299653D01*
X296878Y299634D01*
X296916Y299629D01*
X296944Y299625D01*
X296973Y299620D01*
X297011D01*
X297082Y299625D01*
X297149Y299634D01*
X297211Y299644D01*
X297273Y299663D01*
X297382Y299706D01*
X297473Y299758D01*
X297515Y299782D01*
X297549Y299810D01*
X297577Y299834D01*
X297601Y299853D01*
X297625Y299872D01*
X297639Y299886D01*
X297644Y299891D01*
X297649Y299896D01*
X297691Y299953D01*
X297730Y300010D01*
X297763Y300077D01*
X297792Y300144D01*
X297834Y300282D01*
X297863Y300415D01*
X297877Y300477D01*
X297882Y300534D01*
X297887Y300586D01*
X297891Y300629D01*
X297896Y300667D01*
Y300696D01*
Y300715D01*
Y300719D01*
X297891Y300819D01*
X297887Y300915D01*
X297872Y301000D01*
X297858Y301081D01*
X297839Y301157D01*
X297820Y301224D01*
X297796Y301286D01*
X297772Y301343D01*
X297753Y301391D01*
X297730Y301433D01*
X297710Y301467D01*
X297691Y301495D01*
X297677Y301519D01*
X297663Y301533D01*
X297658Y301543D01*
X297653Y301548D01*
X297606Y301595D01*
X297558Y301638D01*
X297506Y301676D01*
X297449Y301710D01*
X297396Y301733D01*
X297344Y301757D01*
X297239Y301790D01*
X297149Y301810D01*
X297111Y301814D01*
X297077Y301819D01*
X297049Y301824D01*
D02*
G37*
G36*
X318426D02*
X318388D01*
X318317Y301819D01*
X318245Y301814D01*
X318179Y301800D01*
X318117Y301781D01*
X318007Y301738D01*
X317917Y301691D01*
X317879Y301662D01*
X317845Y301638D01*
X317812Y301614D01*
X317788Y301595D01*
X317769Y301576D01*
X317755Y301562D01*
X317750Y301557D01*
X317745Y301553D01*
X317703Y301500D01*
X317665Y301438D01*
X317631Y301376D01*
X317603Y301310D01*
X317560Y301172D01*
X317531Y301038D01*
X317522Y300976D01*
X317517Y300919D01*
X317512Y300867D01*
X317507Y300819D01*
X317503Y300781D01*
Y300753D01*
Y300734D01*
Y300729D01*
X317507Y300629D01*
X317512Y300534D01*
X317526Y300443D01*
X317541Y300362D01*
X317560Y300291D01*
X317583Y300220D01*
X317607Y300158D01*
X317626Y300105D01*
X317650Y300053D01*
X317674Y300015D01*
X317698Y299977D01*
X317717Y299948D01*
X317731Y299924D01*
X317745Y299910D01*
X317750Y299901D01*
X317755Y299896D01*
X317803Y299848D01*
X317855Y299805D01*
X317907Y299767D01*
X317960Y299739D01*
X318012Y299710D01*
X318064Y299687D01*
X318164Y299653D01*
X318255Y299634D01*
X318293Y299629D01*
X318321Y299625D01*
X318350Y299620D01*
X318388D01*
X318459Y299625D01*
X318526Y299634D01*
X318588Y299644D01*
X318650Y299663D01*
X318759Y299706D01*
X318850Y299758D01*
X318893Y299782D01*
X318926Y299810D01*
X318954Y299834D01*
X318978Y299853D01*
X319002Y299872D01*
X319016Y299886D01*
X319021Y299891D01*
X319026Y299896D01*
X319069Y299953D01*
X319107Y300010D01*
X319140Y300077D01*
X319169Y300144D01*
X319212Y300282D01*
X319240Y300415D01*
X319254Y300477D01*
X319259Y300534D01*
X319264Y300586D01*
X319269Y300629D01*
X319273Y300667D01*
Y300696D01*
Y300715D01*
Y300719D01*
X319269Y300819D01*
X319264Y300915D01*
X319250Y301000D01*
X319235Y301081D01*
X319216Y301157D01*
X319197Y301224D01*
X319173Y301286D01*
X319150Y301343D01*
X319130Y301391D01*
X319107Y301433D01*
X319088Y301467D01*
X319069Y301495D01*
X319054Y301519D01*
X319040Y301533D01*
X319035Y301543D01*
X319031Y301548D01*
X318983Y301595D01*
X318935Y301638D01*
X318883Y301676D01*
X318826Y301710D01*
X318774Y301733D01*
X318721Y301757D01*
X318617Y301790D01*
X318526Y301810D01*
X318488Y301814D01*
X318455Y301819D01*
X318426Y301824D01*
D02*
G37*
G36*
X306757Y297870D02*
X306333D01*
X306276Y297865D01*
X306219D01*
X306171Y297861D01*
X306129D01*
X306090Y297856D01*
X306057D01*
X306005Y297846D01*
X305967Y297842D01*
X305943Y297837D01*
X305938D01*
X305872Y297818D01*
X305814Y297799D01*
X305767Y297770D01*
X305724Y297746D01*
X305691Y297723D01*
X305662Y297704D01*
X305648Y297689D01*
X305643Y297685D01*
X305600Y297642D01*
X305562Y297589D01*
X305534Y297537D01*
X305505Y297489D01*
X305486Y297446D01*
X305472Y297408D01*
X305462Y297385D01*
X305457Y297375D01*
X305434Y297294D01*
X305419Y297204D01*
X305405Y297109D01*
X305400Y297018D01*
X305396Y296937D01*
X305391Y296899D01*
Y296870D01*
Y296842D01*
Y296823D01*
Y296813D01*
Y296809D01*
X305396Y296675D01*
X305400Y296561D01*
X305410Y296461D01*
X305424Y296375D01*
X305438Y296309D01*
X305448Y296261D01*
X305453Y296247D01*
Y296233D01*
X305457Y296228D01*
Y296223D01*
X305486Y296147D01*
X305510Y296085D01*
X305543Y296033D01*
X305567Y295990D01*
X305591Y295957D01*
X305610Y295933D01*
X305624Y295918D01*
X305629Y295914D01*
X305667Y295881D01*
X305710Y295852D01*
X305753Y295828D01*
X305795Y295814D01*
X305829Y295799D01*
X305857Y295790D01*
X305881Y295780D01*
X305886D01*
X305938Y295771D01*
X306000Y295766D01*
X306062Y295757D01*
X306129D01*
X306186Y295752D01*
X306757D01*
Y297870D01*
D02*
G37*
G36*
X291811Y307857D02*
X291218D01*
X291138Y307850D01*
X291058D01*
X290992Y307843D01*
X290932D01*
X290878Y307837D01*
X290832D01*
X290758Y307823D01*
X290705Y307817D01*
X290672Y307810D01*
X290665D01*
X290572Y307784D01*
X290492Y307757D01*
X290425Y307717D01*
X290366Y307684D01*
X290319Y307650D01*
X290279Y307624D01*
X290259Y307604D01*
X290252Y307597D01*
X290192Y307537D01*
X290139Y307464D01*
X290099Y307391D01*
X290059Y307324D01*
X290033Y307264D01*
X290013Y307211D01*
X289999Y307177D01*
X289993Y307164D01*
X289959Y307051D01*
X289939Y306924D01*
X289919Y306791D01*
X289913Y306665D01*
X289906Y306551D01*
X289899Y306498D01*
Y306458D01*
Y306418D01*
Y306392D01*
Y306378D01*
Y306372D01*
X289906Y306185D01*
X289913Y306025D01*
X289926Y305885D01*
X289946Y305766D01*
X289966Y305672D01*
X289979Y305606D01*
X289986Y305586D01*
Y305566D01*
X289993Y305559D01*
Y305552D01*
X290033Y305446D01*
X290066Y305359D01*
X290112Y305286D01*
X290146Y305226D01*
X290179Y305180D01*
X290206Y305146D01*
X290226Y305126D01*
X290232Y305119D01*
X290286Y305073D01*
X290346Y305033D01*
X290406Y305000D01*
X290465Y304980D01*
X290512Y304960D01*
X290552Y304946D01*
X290585Y304933D01*
X290592D01*
X290665Y304920D01*
X290752Y304913D01*
X290838Y304900D01*
X290932D01*
X291012Y304893D01*
X291811D01*
Y307857D01*
D02*
G37*
G36*
X305488Y301781D02*
X305065D01*
X305008Y301776D01*
X304950D01*
X304903Y301771D01*
X304860D01*
X304822Y301767D01*
X304789D01*
X304736Y301757D01*
X304698Y301752D01*
X304674Y301748D01*
X304670D01*
X304603Y301729D01*
X304546Y301710D01*
X304498Y301681D01*
X304455Y301657D01*
X304422Y301633D01*
X304394Y301614D01*
X304379Y301600D01*
X304375Y301595D01*
X304332Y301553D01*
X304294Y301500D01*
X304265Y301448D01*
X304237Y301400D01*
X304218Y301357D01*
X304203Y301319D01*
X304194Y301295D01*
X304189Y301286D01*
X304165Y301205D01*
X304151Y301115D01*
X304136Y301019D01*
X304132Y300929D01*
X304127Y300848D01*
X304122Y300810D01*
Y300781D01*
Y300753D01*
Y300734D01*
Y300724D01*
Y300719D01*
X304127Y300586D01*
X304132Y300472D01*
X304141Y300372D01*
X304156Y300286D01*
X304170Y300220D01*
X304179Y300172D01*
X304184Y300158D01*
Y300144D01*
X304189Y300139D01*
Y300134D01*
X304218Y300058D01*
X304241Y299996D01*
X304275Y299944D01*
X304298Y299901D01*
X304322Y299867D01*
X304341Y299844D01*
X304356Y299829D01*
X304360Y299825D01*
X304398Y299791D01*
X304441Y299763D01*
X304484Y299739D01*
X304527Y299725D01*
X304560Y299710D01*
X304589Y299701D01*
X304612Y299691D01*
X304617D01*
X304670Y299682D01*
X304731Y299677D01*
X304793Y299668D01*
X304860D01*
X304917Y299663D01*
X305488D01*
Y301781D01*
D02*
G37*
G36*
X315680D02*
X314937D01*
X314894Y301776D01*
X314794D01*
X314751Y301771D01*
X314727D01*
X314713Y301767D01*
X314708D01*
X314651Y301752D01*
X314604Y301738D01*
X314561Y301719D01*
X314528Y301695D01*
X314499Y301676D01*
X314480Y301657D01*
X314471Y301648D01*
X314466Y301643D01*
X314437Y301605D01*
X314413Y301562D01*
X314399Y301514D01*
X314385Y301476D01*
X314380Y301438D01*
X314375Y301410D01*
Y301391D01*
Y301381D01*
X314380Y301329D01*
X314385Y301281D01*
X314394Y301243D01*
X314409Y301205D01*
X314423Y301176D01*
X314432Y301157D01*
X314437Y301143D01*
X314442Y301138D01*
X314471Y301105D01*
X314499Y301077D01*
X314528Y301053D01*
X314561Y301038D01*
X314585Y301024D01*
X314609Y301015D01*
X314623Y301005D01*
X314628D01*
X314651Y301000D01*
X314685Y300991D01*
X314723Y300986D01*
X314766Y300981D01*
X314861Y300976D01*
X314956Y300972D01*
X315051Y300967D01*
X315680D01*
Y301781D01*
D02*
G37*
%LPD*%
D10*
X348878Y297342D02*
X348866Y298342D01*
X348831Y299341D01*
X348772Y300339D01*
X348691Y301335D01*
X348586Y302330D01*
X348459Y303321D01*
X348309Y304309D01*
X348136Y305294D01*
X347941Y306274D01*
X347723Y307250D01*
X347482Y308220D01*
X347219Y309185D01*
X346934Y310143D01*
X346627Y311094D01*
X346298Y312038D01*
X345947Y312974D01*
X345575Y313902D01*
X345181Y314821D01*
X344767Y315730D01*
X344331Y316630D01*
X343875Y317520D01*
X343398Y318398D01*
X342902Y319266D01*
X342385Y320122D01*
X341849Y320965D01*
X341293Y321796D01*
X340719Y322614D01*
X340125Y323419D01*
X339513Y324209D01*
X338883Y324986D01*
X338236Y325747D01*
X337571Y326494D01*
X336889Y327224D01*
X336190Y327939D01*
X335475Y328638D01*
X334744Y329320D01*
X333998Y329984D01*
X333236Y330632D01*
X332459Y331262D01*
X331669Y331873D01*
X330864Y332466D01*
X330046Y333041D01*
X329215Y333596D01*
X328371Y334132D01*
X327515Y334649D01*
X326648Y335145D01*
X325769Y335622D01*
X324879Y336078D01*
X323979Y336513D01*
X323070Y336927D01*
X322151Y337321D01*
X321223Y337693D01*
X320287Y338043D01*
X319343Y338372D01*
X318391Y338679D01*
X317433Y338964D01*
X316469Y339227D01*
X315498Y339467D01*
X314523Y339685D01*
X313542Y339880D01*
X312558Y340053D01*
X311569Y340203D01*
X310578Y340330D01*
X309583Y340434D01*
X308587Y340515D01*
X307589Y340573D01*
X306590Y340608D01*
X305591Y340620D01*
Y254065D02*
X306590Y254077D01*
X307589Y254112D01*
X308587Y254170D01*
X309583Y254251D01*
X310578Y254355D01*
X311569Y254482D01*
X312558Y254632D01*
X313542Y254805D01*
X314523Y255000D01*
X315498Y255218D01*
X316469Y255458D01*
X317433Y255721D01*
X318391Y256006D01*
X319343Y256313D01*
X320287Y256642D01*
X321223Y256992D01*
X322151Y257364D01*
X323070Y257758D01*
X323979Y258172D01*
X324879Y258607D01*
X325769Y259063D01*
X326648Y259540D01*
X327515Y260036D01*
X328371Y260553D01*
X329215Y261089D01*
X330046Y261644D01*
X330864Y262219D01*
X331669Y262812D01*
X332459Y263423D01*
X333236Y264053D01*
X333998Y264701D01*
X334744Y265365D01*
X335475Y266047D01*
X336190Y266746D01*
X336889Y267461D01*
X337571Y268191D01*
X338236Y268938D01*
X338883Y269699D01*
X339513Y270476D01*
X340125Y271266D01*
X340718Y272071D01*
X341293Y272889D01*
X341849Y273720D01*
X342385Y274563D01*
X342901Y275419D01*
X343398Y276287D01*
X343875Y277165D01*
X344331Y278055D01*
X344767Y278955D01*
X345181Y279864D01*
X345575Y280783D01*
X345947Y281711D01*
X346298Y282647D01*
X346627Y283591D01*
X346934Y284542D01*
X347219Y285500D01*
X347482Y286465D01*
X347723Y287435D01*
X347941Y288411D01*
X348136Y289391D01*
X348309Y290375D01*
X348459Y291364D01*
X348586Y292355D01*
X348691Y293350D01*
X348772Y294346D01*
X348830Y295344D01*
X348866Y296343D01*
X348878Y297342D01*
X262303Y297342D02*
X262315Y296343D01*
X262351Y295344D01*
X262409Y294346D01*
X262490Y293350D01*
X262595Y292355D01*
X262722Y291364D01*
X262872Y290376D01*
X263045Y289391D01*
X263240Y288411D01*
X263459Y287435D01*
X263699Y286465D01*
X263962Y285501D01*
X264247Y284542D01*
X264554Y283591D01*
X264883Y282647D01*
X265234Y281711D01*
X265606Y280783D01*
X266000Y279864D01*
X266414Y278955D01*
X266850Y278055D01*
X267306Y277166D01*
X267783Y276287D01*
X268280Y275419D01*
X268796Y274564D01*
X269332Y273720D01*
X269888Y272889D01*
X270463Y272071D01*
X271056Y271266D01*
X271668Y270476D01*
X272298Y269699D01*
X272945Y268938D01*
X273610Y268192D01*
X274292Y267461D01*
X274991Y266746D01*
X275706Y266047D01*
X276437Y265365D01*
X277183Y264701D01*
X277945Y264053D01*
X278721Y263423D01*
X279512Y262812D01*
X280317Y262219D01*
X281135Y261644D01*
X281966Y261089D01*
X282810Y260553D01*
X283666Y260036D01*
X284533Y259540D01*
X285412Y259063D01*
X286302Y258607D01*
X287202Y258172D01*
X288111Y257758D01*
X289030Y257364D01*
X289958Y256992D01*
X290894Y256642D01*
X291838Y256313D01*
X292790Y256006D01*
X293748Y255721D01*
X294712Y255458D01*
X295683Y255218D01*
X296658Y255000D01*
X297639Y254805D01*
X298623Y254632D01*
X299612Y254482D01*
X300603Y254355D01*
X301597Y254251D01*
X302594Y254170D01*
X303592Y254112D01*
X304591Y254077D01*
X305590Y254065D01*
X305591Y340620D02*
X304591Y340608D01*
X303592Y340573D01*
X302594Y340515D01*
X301598Y340434D01*
X300603Y340330D01*
X299612Y340203D01*
X298623Y340053D01*
X297639Y339880D01*
X296658Y339685D01*
X295683Y339467D01*
X294713Y339227D01*
X293748Y338964D01*
X292790Y338679D01*
X291839Y338372D01*
X290895Y338043D01*
X289958Y337693D01*
X289031Y337321D01*
X288111Y336927D01*
X287202Y336513D01*
X286302Y336078D01*
X285412Y335622D01*
X284534Y335145D01*
X283666Y334649D01*
X282810Y334132D01*
X281966Y333596D01*
X281135Y333041D01*
X280317Y332466D01*
X279512Y331873D01*
X278722Y331262D01*
X277945Y330632D01*
X277184Y329984D01*
X276437Y329320D01*
X275706Y328638D01*
X274991Y327939D01*
X274292Y327224D01*
X273610Y326494D01*
X272945Y325747D01*
X272298Y324986D01*
X271668Y324209D01*
X271056Y323419D01*
X270463Y322614D01*
X269888Y321796D01*
X269333Y320965D01*
X268796Y320122D01*
X268280Y319266D01*
X267783Y318398D01*
X267306Y317520D01*
X266850Y316630D01*
X266414Y315730D01*
X266000Y314821D01*
X265606Y313902D01*
X265234Y312974D01*
X264883Y312038D01*
X264554Y311094D01*
X264247Y310143D01*
X263962Y309185D01*
X263699Y308220D01*
X263459Y307250D01*
X263241Y306274D01*
X263045Y305294D01*
X262872Y304310D01*
X262722Y303321D01*
X262595Y302330D01*
X262490Y301336D01*
X262409Y300339D01*
X262351Y299341D01*
X262315Y298342D01*
X262303Y297343D01*
D41*
X335118Y297364D02*
X335097Y298393D01*
X335041Y299419D01*
X334949Y300444D01*
X334821Y301464D01*
X334658Y302480D01*
X334459Y303488D01*
X334226Y304490D01*
X333957Y305483D01*
X333655Y306466D01*
X333318Y307437D01*
X332948Y308397D01*
X332544Y309343D01*
X332108Y310274D01*
X331640Y311190D01*
X331140Y312088D01*
X330609Y312969D01*
X330066Y313802D01*
X329497Y314617D01*
X328900Y315412D01*
X328276Y316186D01*
X327627Y316939D01*
X326953Y317670D01*
X326255Y318377D01*
X325533Y319061D01*
X324789Y319720D01*
X324023Y320354D01*
X323236Y320961D01*
X322429Y321541D01*
X321603Y322094D01*
X320759Y322620D01*
X319897Y323116D01*
X319020Y323583D01*
X318127Y324020D01*
X317220Y324427D01*
X316299Y324803D01*
X315367Y325148D01*
X314424Y325461D01*
X313470Y325742D01*
X312508Y325991D01*
X311538Y326208D01*
X310561Y326392D01*
X309578Y326543D01*
X308591Y326660D01*
X307600Y326745D01*
X306608Y326796D01*
X305613Y326813D01*
Y267872D02*
X306608Y267889D01*
X307600Y267940D01*
X308591Y268025D01*
X309578Y268142D01*
X310561Y268293D01*
X311538Y268477D01*
X312508Y268694D01*
X313470Y268943D01*
X314424Y269224D01*
X315367Y269537D01*
X316299Y269882D01*
X317220Y270258D01*
X318127Y270665D01*
X319020Y271102D01*
X319897Y271569D01*
X320759Y272065D01*
X321603Y272590D01*
X322429Y273144D01*
X323236Y273724D01*
X324023Y274331D01*
X324789Y274965D01*
X325533Y275624D01*
X326255Y276308D01*
X326953Y277015D01*
X327627Y277746D01*
X328276Y278499D01*
X328900Y279273D01*
X329497Y280068D01*
X330066Y280883D01*
X330609Y281716D01*
X331140Y282597D01*
X331640Y283495D01*
X332108Y284411D01*
X332544Y285342D01*
X332948Y286288D01*
X333318Y287248D01*
X333655Y288219D01*
X333957Y289202D01*
X334226Y290195D01*
X334459Y291196D01*
X334658Y292206D01*
X334821Y293221D01*
X334949Y294241D01*
X335041Y295266D01*
X335097Y296292D01*
X335118Y297321D01*
X276063Y297321D02*
X276084Y296292D01*
X276140Y295266D01*
X276232Y294241D01*
X276360Y293221D01*
X276523Y292206D01*
X276722Y291196D01*
X276955Y290195D01*
X277224Y289202D01*
X277526Y288219D01*
X277863Y287248D01*
X278233Y286288D01*
X278637Y285342D01*
X279073Y284411D01*
X279541Y283495D01*
X280042Y282597D01*
X280573Y281716D01*
X281115Y280883D01*
X281684Y280068D01*
X282281Y279273D01*
X282905Y278499D01*
X283554Y277746D01*
X284228Y277015D01*
X284926Y276308D01*
X285648Y275624D01*
X286392Y274965D01*
X287158Y274331D01*
X287945Y273724D01*
X288752Y273144D01*
X289578Y272590D01*
X290423Y272065D01*
X291284Y271569D01*
X292162Y271102D01*
X293054Y270665D01*
X293962Y270258D01*
X294882Y269882D01*
X295814Y269537D01*
X296758Y269224D01*
X297711Y268943D01*
X298673Y268694D01*
X299644Y268477D01*
X300621Y268293D01*
X301603Y268142D01*
X302590Y268025D01*
X303581Y267940D01*
X304574Y267889D01*
X305568Y267872D01*
Y326813D02*
X304574Y326796D01*
X303581Y326745D01*
X302590Y326660D01*
X301603Y326543D01*
X300621Y326392D01*
X299644Y326208D01*
X298673Y325991D01*
X297711Y325742D01*
X296758Y325461D01*
X295814Y325148D01*
X294882Y324803D01*
X293962Y324427D01*
X293054Y324020D01*
X292162Y323583D01*
X291284Y323116D01*
X290423Y322620D01*
X289578Y322094D01*
X288752Y321541D01*
X287945Y320961D01*
X287158Y320354D01*
X286392Y319720D01*
X285648Y319061D01*
X284926Y318377D01*
X284228Y317670D01*
X283554Y316939D01*
X282905Y316186D01*
X282281Y315412D01*
X281684Y314617D01*
X281115Y313802D01*
X280573Y312969D01*
X280042Y312088D01*
X279541Y311190D01*
X279073Y310274D01*
X278637Y309343D01*
X278233Y308397D01*
X277863Y307437D01*
X277526Y306466D01*
X277224Y305483D01*
X276955Y304490D01*
X276722Y303488D01*
X276523Y302479D01*
X276360Y301464D01*
X276232Y300444D01*
X276140Y299419D01*
X276084Y298393D01*
X276063Y297364D01*
X305613Y326813D02*
Y326813D01*
X305591Y340620D02*
X305613Y326813D01*
X305591Y340641D02*
X305591Y340620D01*
X305591Y254044D02*
X305591Y254065D01*
X305613Y267872D01*
Y267872D01*
X305568Y267872D02*
Y267872D01*
Y267872D02*
X305591Y254065D01*
X305591Y254044D01*
X305591Y340620D02*
X305591Y340641D01*
X305568Y326813D02*
X305591Y340620D01*
X305568Y326813D02*
Y326813D01*
D51*
X285728Y282185D02*
D03*
X284646Y306398D02*
D03*
X288400Y315000D02*
D03*
D52*
X330610Y301476D02*
D03*
D53*
X322736Y279331D02*
D03*
D54*
X320472Y303937D02*
D03*
D55*
X335118Y297364D02*
X348856D01*
X335118Y297321D02*
X348856D01*
X262325D02*
X276063D01*
X262325Y297364D02*
X276063D01*
M02*
