G04 Layer_Physical_Order=1*
G04 Layer_Color=26367*
%FSLAX25Y25*%
%MOIN*%
G70*
G01*
G75*
%ADD10C,0.01181*%
%ADD11R,0.09055X0.12598*%
%ADD12R,0.02756X0.01378*%
%ADD13R,0.06693X0.22441*%
%ADD14R,0.03150X0.03543*%
%ADD15R,0.03150X0.03543*%
%ADD16R,0.03543X0.07087*%
%ADD17R,0.07087X0.03543*%
%ADD18R,0.03543X0.03150*%
%ADD19R,0.03543X0.03150*%
%ADD20C,0.04756*%
%ADD21C,0.02000*%
%ADD22C,0.04000*%
%ADD23C,0.03000*%
%ADD24C,0.01000*%
%ADD25C,0.01300*%
%ADD26R,0.04724X0.02264*%
%ADD27R,0.04823X0.03839*%
%ADD28R,0.04429X0.03839*%
%ADD29C,0.05906*%
%ADD30C,0.02362*%
%ADD31C,0.01969*%
%ADD32C,0.03150*%
%ADD33C,0.04724*%
%ADD34C,0.03937*%
G36*
X310737Y341003D02*
X314147Y340466D01*
X317503Y339663D01*
X320786Y338598D01*
X323976Y337279D01*
X327052Y335714D01*
X329996Y333912D01*
X332789Y331885D01*
X335415Y329645D01*
X337856Y327205D01*
X340099Y324582D01*
X342128Y321790D01*
X343933Y318848D01*
X345500Y315773D01*
X346822Y312584D01*
X347889Y309302D01*
X348695Y305946D01*
X349235Y302537D01*
X349506Y299096D01*
Y297486D01*
Y295545D01*
X349235Y292104D01*
X348695Y288695D01*
X347889Y285339D01*
X346822Y282057D01*
X345500Y278868D01*
X343933Y275794D01*
X342128Y272851D01*
X340099Y270060D01*
X337856Y267436D01*
X335415Y264997D01*
X332789Y262756D01*
X329996Y260729D01*
X327052Y258927D01*
X323976Y257362D01*
X320786Y256043D01*
X317503Y254979D01*
X314147Y254175D01*
X310737Y253638D01*
X307296Y253370D01*
X305571Y253371D01*
Y253371D01*
X303937Y253373D01*
X300680Y253618D01*
X297451Y254105D01*
X294266Y254830D01*
X291144Y255790D01*
X288102Y256979D01*
X285157Y258391D01*
X282325Y260018D01*
X279621Y261851D01*
X277061Y263880D01*
X274659Y266093D01*
X272428Y268479D01*
X271405Y269751D01*
X271405D01*
X271404Y269751D01*
X270237Y271202D01*
X268157Y274290D01*
X266346Y277544D01*
X264816Y280939D01*
X263580Y284452D01*
X262646Y288056D01*
X262020Y291727D01*
X261707Y295437D01*
X261708Y297321D01*
X261707Y299204D01*
X262020Y302914D01*
X262646Y306585D01*
X263580Y310190D01*
X264816Y313702D01*
X266346Y317097D01*
X268157Y320351D01*
X270237Y323440D01*
X271405Y324890D01*
X272428Y326163D01*
X274659Y328548D01*
X277061Y330761D01*
X279621Y332790D01*
X282325Y334623D01*
X285157Y336250D01*
X288102Y337662D01*
X291144Y338851D01*
X294266Y339811D01*
X297451Y340536D01*
X300680Y341023D01*
X303937Y341268D01*
X305363Y341270D01*
D01*
X305571Y341270D01*
X307296Y341271D01*
X310737Y341003D01*
D02*
G37*
%LPC*%
G36*
X270585Y294068D02*
X269826Y293936D01*
X269756Y293891D01*
X269673Y293877D01*
X269020Y293468D01*
X268972Y293400D01*
X268901Y293356D01*
X268450Y292730D01*
X268431Y292649D01*
X268382Y292582D01*
X268200Y291833D01*
X268213Y291750D01*
X268193Y291669D01*
X268250Y291288D01*
X268251Y291286D01*
X268251Y291284D01*
X268481Y289834D01*
X268490Y289819D01*
X268487Y289801D01*
X269174Y286945D01*
X269184Y286931D01*
X269183Y286913D01*
X270092Y284120D01*
X270103Y284106D01*
Y284089D01*
X271228Y281375D01*
X271240Y281363D01*
X271242Y281345D01*
X272576Y278728D01*
X272589Y278716D01*
X272592Y278699D01*
X274127Y276195D01*
X274142Y276184D01*
X274146Y276167D01*
X275872Y273791D01*
X275888Y273782D01*
X275893Y273765D01*
X277801Y271531D01*
X277817Y271523D01*
X277823Y271507D01*
X279901Y269430D01*
X279917Y269423D01*
X279925Y269407D01*
X282158Y267499D01*
X282175Y267494D01*
X282185Y267479D01*
X284561Y265752D01*
X284578Y265748D01*
X284589Y265734D01*
X287093Y264198D01*
X287110Y264196D01*
X287122Y264182D01*
X289739Y262848D01*
X289756Y262847D01*
X289769Y262834D01*
X292482Y261709D01*
X292500D01*
X292514Y261698D01*
X295307Y260789D01*
X295325Y260791D01*
X295339Y260780D01*
X298195Y260094D01*
X298213Y260097D01*
X298228Y260087D01*
X299678Y259857D01*
X299680Y259857D01*
X299682Y259856D01*
X300063Y259799D01*
X300144Y259819D01*
X300226Y259806D01*
X300975Y259988D01*
X301043Y260037D01*
X301124Y260056D01*
X301749Y260507D01*
X301793Y260578D01*
X301862Y260626D01*
X302271Y261279D01*
X302285Y261362D01*
X302329Y261432D01*
X302462Y262192D01*
X302444Y262273D01*
X302459Y262355D01*
X302296Y263108D01*
X302248Y263177D01*
X302231Y263259D01*
X301796Y263895D01*
X301726Y263941D01*
X301679Y264010D01*
X301036Y264435D01*
X300954Y264451D01*
X300884Y264497D01*
X300599Y264554D01*
X300503Y264616D01*
X298795Y264931D01*
X295444Y265824D01*
X292210Y267062D01*
X289124Y268631D01*
X286219Y270515D01*
X283527Y272692D01*
X281077Y275139D01*
X278897Y277829D01*
X277011Y280733D01*
X275439Y283818D01*
X274198Y287050D01*
X273301Y290400D01*
X272985Y292108D01*
X272959Y292148D01*
X272891Y292491D01*
X272844Y292560D01*
X272828Y292642D01*
X272403Y293285D01*
X272334Y293332D01*
X272288Y293402D01*
X271653Y293837D01*
X271571Y293854D01*
X271502Y293902D01*
X270749Y294065D01*
X270667Y294050D01*
X270585Y294068D01*
D02*
G37*
G36*
X340635D02*
X340554Y294050D01*
X340472Y294065D01*
X339718Y293902D01*
X339650Y293854D01*
X339568Y293837D01*
X338932Y293402D01*
X338886Y293332D01*
X338817Y293285D01*
X338392Y292642D01*
X338376Y292560D01*
X338330Y292491D01*
X338261Y292148D01*
X338235Y292108D01*
X337919Y290400D01*
X337022Y287050D01*
X335782Y283817D01*
X334209Y280732D01*
X332323Y277829D01*
X330143Y275139D01*
X327694Y272692D01*
X325002Y270515D01*
X322096Y268631D01*
X319010Y267062D01*
X315776Y265824D01*
X312426Y264931D01*
X310717Y264616D01*
X310622Y264554D01*
X310336Y264497D01*
X310267Y264451D01*
X310185Y264435D01*
X309542Y264010D01*
X309495Y263941D01*
X309425Y263895D01*
X308990Y263259D01*
X308973Y263177D01*
X308925Y263108D01*
X308762Y262355D01*
X308776Y262273D01*
X308758Y262192D01*
X308891Y261432D01*
X308936Y261362D01*
X308950Y261279D01*
X309359Y260626D01*
X309427Y260578D01*
X309471Y260507D01*
X310096Y260056D01*
X310178Y260037D01*
X310245Y259988D01*
X310994Y259806D01*
X311077Y259819D01*
X311158Y259799D01*
X311539Y259856D01*
X311541Y259857D01*
X311542Y259857D01*
X312993Y260087D01*
X313008Y260097D01*
X313026Y260094D01*
X315881Y260780D01*
X315896Y260791D01*
X315914Y260789D01*
X318707Y261698D01*
X318720Y261709D01*
X318738D01*
X321451Y262834D01*
X321464Y262847D01*
X321482Y262848D01*
X324099Y264182D01*
X324110Y264196D01*
X324128Y264198D01*
X326632Y265734D01*
X326642Y265748D01*
X326660Y265752D01*
X329036Y267479D01*
X329045Y267494D01*
X329062Y267499D01*
X331295Y269407D01*
X331304Y269423D01*
X331320Y269430D01*
X333397Y271507D01*
X333404Y271523D01*
X333420Y271531D01*
X335327Y273765D01*
X335333Y273782D01*
X335348Y273791D01*
X337075Y276167D01*
X337079Y276184D01*
X337093Y276195D01*
X338628Y278699D01*
X338631Y278717D01*
X338645Y278728D01*
X339979Y281345D01*
X339980Y281363D01*
X339993Y281375D01*
X341117Y284089D01*
Y284106D01*
X341129Y284120D01*
X342037Y286913D01*
X342036Y286931D01*
X342046Y286945D01*
X342733Y289801D01*
X342730Y289819D01*
X342740Y289834D01*
X342970Y291284D01*
X342969Y291286D01*
X342970Y291288D01*
X343028Y291669D01*
X343007Y291750D01*
X343020Y291833D01*
X342839Y292582D01*
X342790Y292649D01*
X342770Y292730D01*
X342320Y293356D01*
X342249Y293400D01*
X342200Y293468D01*
X341547Y293877D01*
X341465Y293891D01*
X341394Y293936D01*
X340635Y294068D01*
D02*
G37*
G36*
X311158Y334689D02*
X311077Y334669D01*
X310994Y334682D01*
X310245Y334500D01*
X310178Y334451D01*
X310096Y334432D01*
X309471Y333981D01*
X309427Y333910D01*
X309359Y333862D01*
X308950Y333209D01*
X308936Y333126D01*
X308891Y333056D01*
X308758Y332297D01*
X308776Y332215D01*
X308762Y332133D01*
X308925Y331380D01*
X308973Y331311D01*
X308990Y331229D01*
X309425Y330593D01*
X309495Y330548D01*
X309542Y330479D01*
X310185Y330053D01*
X310267Y330038D01*
X310336Y329991D01*
X310622Y329934D01*
X310717Y329872D01*
X312426Y329558D01*
X315776Y328664D01*
X319010Y327426D01*
X322096Y325857D01*
X325002Y323973D01*
X327694Y321796D01*
X330143Y319349D01*
X332323Y316659D01*
X334209Y313756D01*
X335782Y310671D01*
X337022Y307438D01*
X337919Y304088D01*
X338235Y302380D01*
X338261Y302340D01*
X338330Y301997D01*
X338376Y301928D01*
X338392Y301846D01*
X338817Y301203D01*
X338886Y301156D01*
X338932Y301086D01*
X339568Y300651D01*
X339650Y300634D01*
X339718Y300586D01*
X340472Y300423D01*
X340554Y300438D01*
X340635Y300420D01*
X341394Y300553D01*
X341465Y300597D01*
X341547Y300611D01*
X342200Y301020D01*
X342249Y301089D01*
X342320Y301132D01*
X342770Y301758D01*
X342790Y301839D01*
X342839Y301906D01*
X343020Y302656D01*
X343007Y302738D01*
X343028Y302819D01*
X342970Y303200D01*
X342969Y303202D01*
X342970Y303204D01*
X342740Y304654D01*
X342730Y304669D01*
X342733Y304687D01*
X342046Y307543D01*
X342036Y307557D01*
X342037Y307575D01*
X341129Y310368D01*
X341117Y310382D01*
Y310400D01*
X339993Y313113D01*
X339980Y313125D01*
X339979Y313143D01*
X338645Y315760D01*
X338631Y315772D01*
X338628Y315789D01*
X337093Y318293D01*
X337079Y318304D01*
X337075Y318321D01*
X335348Y320697D01*
X335333Y320707D01*
X335327Y320724D01*
X333420Y322957D01*
X333404Y322965D01*
X333397Y322981D01*
X331320Y325058D01*
X331304Y325065D01*
X331295Y325081D01*
X329062Y326989D01*
X329045Y326994D01*
X329036Y327009D01*
X326660Y328736D01*
X326642Y328740D01*
X326632Y328755D01*
X324128Y330290D01*
X324110Y330293D01*
X324099Y330306D01*
X321482Y331640D01*
X321464Y331641D01*
X321451Y331654D01*
X318738Y332779D01*
X318720D01*
X318707Y332790D01*
X315914Y333699D01*
X315896Y333697D01*
X315881Y333708D01*
X313026Y334395D01*
X313008Y334392D01*
X312993Y334401D01*
X311542Y334631D01*
X311541Y334631D01*
X311539Y334632D01*
X311158Y334689D01*
D02*
G37*
G36*
X300063D02*
X299682Y334632D01*
X299680Y334631D01*
X299678Y334631D01*
X298228Y334401D01*
X298213Y334392D01*
X298195Y334395D01*
X295339Y333708D01*
X295325Y333697D01*
X295307Y333699D01*
X292514Y332790D01*
X292500Y332779D01*
X292482D01*
X289769Y331654D01*
X289756Y331641D01*
X289739Y331640D01*
X287122Y330306D01*
X287110Y330293D01*
X287093Y330290D01*
X284589Y328755D01*
X284578Y328740D01*
X284561Y328736D01*
X282185Y327009D01*
X282175Y326994D01*
X282158Y326989D01*
X279925Y325081D01*
X279917Y325065D01*
X279901Y325058D01*
X277823Y322981D01*
X277817Y322965D01*
X277801Y322957D01*
X275893Y320724D01*
X275888Y320707D01*
X275872Y320697D01*
X274146Y318321D01*
X274142Y318304D01*
X274127Y318293D01*
X272592Y315789D01*
X272589Y315772D01*
X272576Y315760D01*
X271242Y313143D01*
X271240Y313125D01*
X271228Y313113D01*
X270103Y310400D01*
Y310382D01*
X270092Y310368D01*
X269183Y307575D01*
X269184Y307557D01*
X269174Y307543D01*
X268487Y304687D01*
X268490Y304669D01*
X268481Y304654D01*
X268251Y303204D01*
X268251Y303202D01*
X268250Y303200D01*
X268193Y302819D01*
X268213Y302738D01*
X268200Y302656D01*
X268382Y301906D01*
X268431Y301839D01*
X268450Y301758D01*
X268901Y301132D01*
X268972Y301089D01*
X269020Y301020D01*
X269673Y300611D01*
X269756Y300597D01*
X269826Y300553D01*
X270585Y300420D01*
X270667Y300438D01*
X270749Y300423D01*
X271502Y300586D01*
X271571Y300634D01*
X271653Y300651D01*
X272288Y301086D01*
X272334Y301156D01*
X272403Y301203D01*
X272828Y301846D01*
X272844Y301928D01*
X272891Y301997D01*
X272959Y302340D01*
X272985Y302380D01*
X273301Y304088D01*
X274198Y307438D01*
X275439Y310671D01*
X277011Y313756D01*
X278897Y316659D01*
X281077Y319349D01*
X283527Y321796D01*
X286219Y323973D01*
X289124Y325857D01*
X292210Y327426D01*
X295444Y328664D01*
X298795Y329558D01*
X300503Y329872D01*
X300599Y329934D01*
X300884Y329991D01*
X300954Y330038D01*
X301036Y330053D01*
X301679Y330479D01*
X301726Y330548D01*
X301796Y330593D01*
X302231Y331229D01*
X302248Y331311D01*
X302296Y331380D01*
X302459Y332133D01*
X302444Y332215D01*
X302462Y332297D01*
X302329Y333056D01*
X302285Y333126D01*
X302271Y333209D01*
X301862Y333862D01*
X301793Y333910D01*
X301749Y333981D01*
X301124Y334432D01*
X301043Y334451D01*
X300975Y334500D01*
X300226Y334682D01*
X300144Y334669D01*
X300063Y334689D01*
D02*
G37*
G36*
X305561Y327181D02*
X305376Y326994D01*
X293930Y326994D01*
X292924Y326767D01*
X291994Y326325D01*
X291183Y325689D01*
X290533Y324889D01*
X290074Y323967D01*
X289830Y322966D01*
X289814Y322094D01*
X288035Y320895D01*
X285822Y319067D01*
X283798Y317030D01*
X281982Y314806D01*
X280394Y312414D01*
X279046Y309879D01*
X277953Y307224D01*
X277125Y304475D01*
X276569Y301658D01*
X276292Y298800D01*
X276262Y297537D01*
X276156Y297319D01*
X276262Y297097D01*
X276292Y295841D01*
X276569Y292984D01*
X277125Y290167D01*
X277953Y287418D01*
X279046Y284763D01*
X280394Y282227D01*
X281982Y279836D01*
X283798Y277611D01*
X285822Y275575D01*
X288035Y273746D01*
X290417Y272142D01*
X292944Y270779D01*
X295423Y269741D01*
Y269408D01*
X295529Y268875D01*
X295736Y268374D01*
X296038Y267922D01*
X296422Y267539D01*
X296873Y267237D01*
X297375Y267029D01*
X297907Y266923D01*
X305315D01*
X305315Y277756D01*
X291634D01*
X291634Y283071D01*
X300197Y283071D01*
X300197Y300590D01*
X303051Y300590D01*
X303051Y296457D01*
X310236Y296457D01*
X310236Y281496D01*
Y277067D01*
X318110D01*
Y270727D01*
X318201Y270765D01*
X320730Y272125D01*
X323113Y273726D01*
X325329Y275552D01*
X327355Y277586D01*
X328942Y279528D01*
X330012D01*
X330544Y279633D01*
X331046Y279841D01*
X331497Y280143D01*
X331881Y280527D01*
X332183Y280978D01*
X332390Y281480D01*
X332496Y282012D01*
Y285657D01*
X333211Y287386D01*
X334042Y290134D01*
X334601Y292950D01*
X334616Y293110D01*
X312894Y293110D01*
Y300590D01*
X323819D01*
Y311122D01*
X331468D01*
X330764Y312443D01*
X329172Y314832D01*
X327355Y317055D01*
X325329Y319089D01*
X323113Y320915D01*
X321597Y321934D01*
X321597Y321936D01*
X321579Y322966D01*
X321335Y323967D01*
X320876Y324889D01*
X320226Y325689D01*
X319415Y326325D01*
X318484Y326767D01*
X317479Y326994D01*
X305766Y326994D01*
X305648Y327068D01*
X305561Y327181D01*
D02*
G37*
%LPD*%
G36*
X296370Y287660D02*
X296350Y287694D01*
X296290Y287724D01*
X296190Y287750D01*
X296050Y287773D01*
X295870Y287793D01*
X295090Y287830D01*
X294370Y287837D01*
Y288837D01*
X294750Y288839D01*
X296190Y288924D01*
X296290Y288950D01*
X296350Y288980D01*
X296370Y289014D01*
Y287660D01*
D02*
G37*
G36*
X316437Y286221D02*
X317323Y285335D01*
X330610Y285335D01*
Y281791D01*
X329528D01*
X324311Y276575D01*
X319882Y276575D01*
X319882Y283465D01*
X311319D01*
Y286221D01*
X316437Y286221D01*
D02*
G37*
G36*
X299114Y284154D02*
X290551D01*
Y277067D01*
X301772D01*
Y269488D01*
X298130Y269488D01*
X291535Y272146D01*
X288181Y274511D01*
X284005Y278688D01*
X279126Y286220D01*
X299114Y286221D01*
X299114Y284154D01*
D02*
G37*
G36*
X286704Y289969D02*
X286749Y289928D01*
X286824Y289891D01*
X286929Y289860D01*
X287064Y289833D01*
X287229Y289811D01*
X287649Y289781D01*
X288189Y289772D01*
Y288772D01*
X287904Y288769D01*
X287064Y288711D01*
X286929Y288684D01*
X286824Y288652D01*
X286749Y288615D01*
X286704Y288574D01*
X286689Y288527D01*
Y290016D01*
X286704Y289969D01*
D02*
G37*
G36*
X306319Y305577D02*
X306403Y305393D01*
X306541Y305165D01*
X306734Y304894D01*
X307286Y304223D01*
X308059Y303379D01*
X309052Y302363D01*
X307637Y300948D01*
X307107Y301472D01*
X304835Y303459D01*
X304607Y303597D01*
X304423Y303681D01*
X304282Y303709D01*
X306291Y305718D01*
X306319Y305577D01*
D02*
G37*
G36*
X320472Y319488D02*
X322342Y317618D01*
X322342Y302756D01*
X319494D01*
X319497Y302700D01*
X319458Y302708D01*
X319359Y302715D01*
X317977Y302737D01*
X316437Y302740D01*
Y302756D01*
X311614D01*
X311614Y319488D01*
X320472Y319488D01*
D02*
G37*
G36*
X284257Y303471D02*
X284159Y303452D01*
X284012Y303376D01*
X283816Y303243D01*
X283572Y303052D01*
X282937Y302501D01*
X281080Y300711D01*
X278959Y302832D01*
X279492Y303370D01*
X281624Y305764D01*
X281700Y305911D01*
X281719Y306009D01*
X284257Y303471D01*
D02*
G37*
G36*
X323290Y292395D02*
X323881Y292150D01*
X324413Y291795D01*
X324865Y291342D01*
X325221Y290810D01*
X325466Y290219D01*
X325590Y289592D01*
Y289272D01*
Y288942D01*
X325462Y288296D01*
X325210Y287686D01*
X324843Y287138D01*
X324377Y286672D01*
X323829Y286306D01*
X323220Y286054D01*
X322574Y285925D01*
X321521D01*
X320874Y286054D01*
X316043Y287205D01*
Y287681D01*
X314063Y287660D01*
Y289014D01*
X314089Y289009D01*
X314167Y289004D01*
X316043Y288991D01*
Y289469D01*
X319682Y291795D01*
X320214Y292150D01*
X320805Y292395D01*
X321432Y292520D01*
X322662D01*
X323290Y292395D01*
D02*
G37*
G36*
X297539Y293061D02*
X283169D01*
Y300197D01*
X284842Y301870D01*
X297539D01*
Y293061D01*
D02*
G37*
D10*
X348914Y297654D02*
X348903Y298659D01*
X348868Y299663D01*
X348810Y300666D01*
X348728Y301667D01*
X348623Y302667D01*
X348495Y303663D01*
X348344Y304657D01*
X348170Y305646D01*
X347974Y306632D01*
X347754Y307612D01*
X347512Y308587D01*
X347247Y309557D01*
X346959Y310519D01*
X346650Y311475D01*
X346318Y312424D01*
X345964Y313364D01*
X345589Y314296D01*
X345192Y315219D01*
X344774Y316133D01*
X344335Y317037D01*
X343875Y317930D01*
X343394Y318812D01*
X342893Y319683D01*
X342372Y320543D01*
X341831Y321389D01*
X341270Y322223D01*
X340691Y323044D01*
X340092Y323851D01*
X339475Y324644D01*
X338840Y325423D01*
X338187Y326186D01*
X337516Y326934D01*
X336828Y327667D01*
X336123Y328383D01*
X335402Y329083D01*
X334665Y329765D01*
X333912Y330431D01*
X333144Y331079D01*
X332361Y331709D01*
X331564Y332320D01*
X330753Y332913D01*
X329928Y333487D01*
X329090Y334042D01*
X328240Y334577D01*
X327377Y335092D01*
X326503Y335587D01*
X325617Y336061D01*
X324721Y336515D01*
X323814Y336948D01*
X322897Y337360D01*
X321971Y337750D01*
X321037Y338119D01*
X320094Y338466D01*
X319143Y338791D01*
X318185Y339094D01*
X317220Y339375D01*
X316249Y339633D01*
X315272Y339869D01*
X314290Y340082D01*
X313304Y340272D01*
X312313Y340439D01*
X311318Y340583D01*
X310321Y340704D01*
X309321Y340802D01*
X308319Y340876D01*
X307315Y340927D01*
X306311Y340955D01*
X305306Y340960D01*
X304302Y340941D01*
X303298Y340899D01*
X303298D02*
X302304Y340835D01*
X301312Y340747D01*
X300323Y340637D01*
X299336Y340505D01*
X298353Y340349D01*
X297373Y340171D01*
X296398Y339970D01*
X295427Y339748D01*
X294462Y339502D01*
X293503Y339235D01*
X292550Y338946D01*
X291604Y338635D01*
X290666Y338302D01*
X289736Y337948D01*
X288813Y337572D01*
X287900Y337176D01*
X286996Y336758D01*
X286102Y336320D01*
X285218Y335861D01*
X284346Y335382D01*
X283484Y334884D01*
X282634Y334365D01*
X281796Y333827D01*
X280971Y333270D01*
X280158Y332695D01*
X279359Y332100D01*
X278574Y331488D01*
X277804Y330857D01*
X277048Y330209D01*
X276307Y329544D01*
X275581Y328862D01*
X274872Y328164D01*
X274179Y327449D01*
X273502Y326718D01*
X272842Y325973D01*
X272200Y325212D01*
X271575Y324437D01*
X270968Y323647D01*
X270380Y322844D01*
X269810Y322027D01*
X269259Y321198D01*
X268728Y320356D01*
X268215Y319502D01*
X267723Y318637D01*
X267251Y317760D01*
X266799Y316873D01*
X266367Y315976D01*
X265956Y315069D01*
X265566Y314153D01*
X265198Y313228D01*
X264850Y312295D01*
X264524Y311354D01*
X264220Y310406D01*
X263938Y309451D01*
X263678Y308490D01*
X263440Y307523D01*
X263224Y306551D01*
X263031Y305575D01*
X262860Y304594D01*
X262712Y303609D01*
X262586Y302621D01*
X262483Y301631D01*
X262403Y300639D01*
X262346Y299644D01*
X262312Y298649D01*
X262300Y297654D01*
D11*
X305217Y286762D02*
D03*
D12*
X312697Y291487D02*
D03*
Y288337D02*
D03*
Y285187D02*
D03*
Y282038D02*
D03*
X297736D02*
D03*
Y285187D02*
D03*
Y288337D02*
D03*
Y291487D02*
D03*
D13*
X297244Y314961D02*
D03*
X314961D02*
D03*
D14*
X295425Y298819D02*
D03*
X308516Y298819D02*
D03*
D15*
X301425Y298819D02*
D03*
X314516D02*
D03*
D16*
X311417Y272736D02*
D03*
X300000Y272736D02*
D03*
D17*
X326870Y295079D02*
D03*
Y283661D02*
D03*
D18*
X284941Y289323D02*
D03*
D19*
X284941Y295323D02*
D03*
D20*
X292480Y309784D02*
X297736D01*
X290886Y318347D02*
X297423D01*
X289876Y314114D02*
X297718D01*
X288400Y313864D02*
X292480Y309784D01*
X288400Y313864D02*
Y315000D01*
Y315861D01*
X290886Y318347D01*
D21*
X304291Y305709D02*
X308500Y301500D01*
X314958Y305219D02*
Y314000D01*
Y305219D02*
X316437Y303740D01*
X320276D02*
X320472Y303937D01*
X316437Y303740D02*
X320276D01*
X308500Y298900D02*
Y301500D01*
D22*
X298524Y305709D02*
X304291D01*
X297933Y306299D02*
X298524Y305709D01*
D23*
X281642Y289323D02*
X284941D01*
X284890Y289272D02*
X284939Y289320D01*
X280020Y301772D02*
X284646Y306398D01*
X280020Y290945D02*
Y301772D01*
Y290945D02*
X281642Y289323D01*
D24*
X289124Y288337D02*
X297736D01*
X288189Y289272D02*
X289124Y288337D01*
X284939Y289272D02*
X288189D01*
D25*
X284939Y289320D02*
X284941Y289323D01*
X319538Y288337D02*
X320472Y289272D01*
X312697Y288337D02*
X319538D01*
D26*
X313681Y288337D02*
D03*
D27*
X296703Y292667D02*
D03*
D28*
X313533D02*
D03*
D29*
X288400Y315000D02*
D03*
X284646Y306398D02*
D03*
X285728Y282185D02*
D03*
D30*
X306890Y276575D02*
D03*
X316732Y295472D02*
D03*
X313779D02*
D03*
X315256Y293504D02*
D03*
X312303D02*
D03*
X322047Y287106D02*
D03*
X323622Y289272D02*
D03*
X292717Y294783D02*
D03*
X315256Y275886D02*
D03*
X322047Y291339D02*
D03*
X319882Y306988D02*
D03*
Y309705D02*
D03*
Y312421D02*
D03*
Y315138D02*
D03*
Y317854D02*
D03*
X294765Y267933D02*
D03*
X289980Y270172D02*
D03*
X285517Y273298D02*
D03*
X281664Y277151D02*
D03*
X278538Y281614D02*
D03*
X276236Y286553D02*
D03*
X274825Y291816D02*
D03*
X274351Y297364D02*
D03*
X274825Y302672D02*
D03*
X276236Y307936D02*
D03*
X278538Y312874D02*
D03*
X281664Y317337D02*
D03*
X285517Y321191D02*
D03*
X325704D02*
D03*
X329557Y317337D02*
D03*
X332574Y312980D02*
D03*
X334985Y307936D02*
D03*
X336395Y302672D02*
D03*
X336870Y297321D02*
D03*
X336395Y291816D02*
D03*
X334985Y286553D02*
D03*
X329557Y277151D02*
D03*
X325704Y273298D02*
D03*
X321240Y270172D02*
D03*
X316167Y268239D02*
D03*
X306988Y270571D02*
D03*
X292323Y273228D02*
D03*
X320472Y289272D02*
D03*
X320965Y284055D02*
D03*
X333957Y303248D02*
D03*
X327362D02*
D03*
Y298524D02*
D03*
X333957D02*
D03*
X332579Y295177D02*
D03*
X330512Y307480D02*
D03*
D31*
X303051Y282432D02*
D03*
X303051Y286762D02*
D03*
Y291093D02*
D03*
X307382Y282432D02*
D03*
X307382Y286762D02*
D03*
X307382Y291093D02*
D03*
D32*
X320472Y303937D02*
D03*
D33*
X322736Y279331D02*
D03*
D34*
X330610Y301476D02*
D03*
M02*
