G04 Layer_Physical_Order=1*
G04 Layer_Color=6776831*
%FSAX44Y44*%
%MOMM*%
G71*
G01*
G75*
%ADD10C,0.3000*%
%ADD11R,2.3000X3.2000*%
%ADD12R,0.7000X0.3500*%
%ADD13R,1.7000X5.7000*%
%ADD14R,0.8000X0.9000*%
%ADD15R,0.8000X0.9000*%
%ADD16R,0.9000X1.8000*%
%ADD17R,1.8000X0.9000*%
%ADD18R,0.9000X0.8000*%
%ADD19R,0.9000X0.8000*%
%ADD20C,1.2080*%
%ADD21C,0.2540*%
%ADD22C,0.5080*%
%ADD23C,1.0160*%
%ADD24C,0.7620*%
%ADD25C,0.3302*%
%ADD26R,1.2000X0.5750*%
%ADD27R,1.2250X0.9750*%
%ADD28R,1.1250X0.9750*%
%ADD29C,1.5000*%
%ADD30C,0.6000*%
%ADD31C,0.5000*%
%ADD32C,0.8000*%
%ADD33C,1.2000*%
%ADD34C,1.0000*%
G36*
X00789273Y00866148D02*
X00797932Y00864783D01*
X00806458Y00862743D01*
X00814798Y00860039D01*
X00822899Y00856690D01*
X00830713Y00852714D01*
X00838190Y00848138D01*
X00845285Y00842988D01*
X00851954Y00837298D01*
X00858155Y00831102D01*
X00863851Y00824437D01*
X00869006Y00817347D01*
X00873589Y00809873D01*
X00877571Y00802063D01*
X00880927Y00793964D01*
X00883638Y00785627D01*
X00885686Y00777103D01*
X00887058Y00768445D01*
X00887746Y00759705D01*
X00887746Y00755616D01*
X00887746Y00750684D01*
X00887058Y00741944D01*
X00885686Y00733286D01*
X00883638Y00724762D01*
X00880927Y00716424D01*
X00877571Y00708326D01*
X00873589Y00700516D01*
X00869006Y00693042D01*
X00863851Y00685952D01*
X00858155Y00679287D01*
X00851954Y00673091D01*
X00845285Y00667401D01*
X00838190Y00662251D01*
X00830713Y00657675D01*
X00822899Y00653699D01*
X00814798Y00650350D01*
X00806458Y00647646D01*
X00797932Y00645606D01*
X00789273Y00644241D01*
X00780533Y00643560D01*
X00776149Y00643563D01*
X00776149Y00643563D01*
X00772001Y00643567D01*
X00763728Y00644190D01*
X00755525Y00645426D01*
X00747436Y00647269D01*
X00739506Y00649707D01*
X00731779Y00652728D01*
X00724298Y00656314D01*
X00717104Y00660447D01*
X00710237Y00665102D01*
X00703735Y00670255D01*
X00697634Y00675877D01*
X00691968Y00681936D01*
X00689367Y00685168D01*
X00689367Y00685168D01*
X00689367Y00685168D01*
X00686403Y00688852D01*
X00681119Y00696697D01*
X00676518Y00704961D01*
X00672634Y00713585D01*
X00669493Y00722507D01*
X00667120Y00731663D01*
X00665530Y00740986D01*
X00664735Y00750411D01*
X00664738Y00755194D01*
X00664735Y00759978D01*
X00665530Y00769403D01*
X00667120Y00778726D01*
X00669493Y00787882D01*
X00672634Y00796804D01*
X00676518Y00805428D01*
X00681119Y00813692D01*
X00686403Y00821536D01*
X00689367Y00825221D01*
X00691968Y00828453D01*
X00697634Y00834512D01*
X00703735Y00840134D01*
X00710237Y00845287D01*
X00717104Y00849942D01*
X00724298Y00854075D01*
X00731779Y00857661D01*
X00739506Y00860682D01*
X00747436Y00863120D01*
X00755525Y00864962D01*
X00763728Y00866199D01*
X00772001Y00866822D01*
X00775621Y00866825D01*
X00775621Y00866825D01*
X00776149Y00866825D01*
X00780533Y00866829D01*
X00789273Y00866148D01*
X00789273Y00866148D02*
G37*
%LPC*%
G36*
X00687286Y00746934D02*
X00685358Y00746597D01*
X00685179Y00746483D01*
X00684970Y00746448D01*
X00683311Y00745408D01*
X00683188Y00745235D01*
X00683008Y00745124D01*
X00681863Y00743535D01*
X00681814Y00743329D01*
X00681689Y00743158D01*
X00681228Y00741255D01*
X00681261Y00741045D01*
X00681210Y00740839D01*
X00681355Y00739872D01*
X00681358Y00739867D01*
X00681356Y00739862D01*
X00681941Y00736178D01*
X00681965Y00736140D01*
X00681958Y00736095D01*
X00683702Y00728841D01*
X00683729Y00728805D01*
X00683725Y00728760D01*
X00686033Y00721665D01*
X00686062Y00721630D01*
X00686062Y00721585D01*
X00688919Y00714693D01*
X00688951Y00714661D01*
X00688954Y00714616D01*
X00692343Y00707969D01*
X00692377Y00707940D01*
X00692384Y00707895D01*
X00696283Y00701535D01*
X00696320Y00701508D01*
X00696330Y00701464D01*
X00700716Y00695429D01*
X00700755Y00695405D01*
X00700769Y00695362D01*
X00705614Y00689689D01*
X00705655Y00689669D01*
X00705672Y00689627D01*
X00710947Y00684352D01*
X00710989Y00684334D01*
X00711010Y00684294D01*
X00716682Y00679449D01*
X00716725Y00679435D01*
X00716749Y00679396D01*
X00722784Y00675010D01*
X00722828Y00675000D01*
X00722855Y00674963D01*
X00729215Y00671064D01*
X00729260Y00671057D01*
X00729289Y00671023D01*
X00735936Y00667634D01*
X00735981Y00667631D01*
X00736013Y00667599D01*
X00742905Y00664742D01*
X00742950Y00664742D01*
X00742985Y00664713D01*
X00750079Y00662405D01*
X00750125Y00662409D01*
X00750161Y00662382D01*
X00757415Y00660638D01*
X00757460Y00660645D01*
X00757498Y00660621D01*
X00761182Y00660036D01*
X00761187Y00660038D01*
X00761191Y00660035D01*
X00762160Y00659890D01*
X00762365Y00659941D01*
X00762575Y00659908D01*
X00764477Y00660369D01*
X00764649Y00660494D01*
X00764855Y00660543D01*
X00766444Y00661687D01*
X00766555Y00661868D01*
X00766728Y00661991D01*
X00767768Y00663650D01*
X00767803Y00663859D01*
X00767917Y00664038D01*
X00768254Y00665966D01*
X00768208Y00666173D01*
X00768245Y00666382D01*
X00767831Y00668295D01*
X00767710Y00668470D01*
X00767666Y00668677D01*
X00766561Y00670293D01*
X00766383Y00670409D01*
X00766264Y00670584D01*
X00764631Y00671664D01*
X00764423Y00671704D01*
X00764247Y00671822D01*
X00763521Y00671967D01*
X00763279Y00672124D01*
X00758939Y00672923D01*
X00750428Y00675194D01*
X00742214Y00678337D01*
X00734375Y00682323D01*
X00726996Y00687107D01*
X00720158Y00692638D01*
X00713936Y00698853D01*
X00708399Y00705686D01*
X00703608Y00713061D01*
X00699615Y00720896D01*
X00696463Y00729107D01*
X00694185Y00737616D01*
X00693382Y00741955D01*
X00693317Y00742056D01*
X00693142Y00742926D01*
X00693024Y00743103D01*
X00692984Y00743311D01*
X00691905Y00744944D01*
X00691729Y00745063D01*
X00691613Y00745240D01*
X00689997Y00746346D01*
X00689790Y00746390D01*
X00689615Y00746511D01*
X00687702Y00746926D01*
X00687493Y00746888D01*
X00687286Y00746934D01*
X00687286Y00746934D02*
G37*
G36*
X00865214Y00746934D02*
X00865007Y00746888D01*
X00864798Y00746926D01*
X00862885Y00746511D01*
X00862710Y00746390D01*
X00862503Y00746346D01*
X00860887Y00745240D01*
X00860771Y00745063D01*
X00860595Y00744944D01*
X00859516Y00743311D01*
X00859476Y00743103D01*
X00859358Y00742926D01*
X00859183Y00742056D01*
X00859118Y00741955D01*
X00858315Y00737616D01*
X00856037Y00729107D01*
X00852885Y00720896D01*
X00848892Y00713061D01*
X00844101Y00705686D01*
X00838564Y00698854D01*
X00832342Y00692638D01*
X00825504Y00687107D01*
X00818125Y00682323D01*
X00810286Y00678337D01*
X00802072Y00675194D01*
X00793561Y00672923D01*
X00789221Y00672124D01*
X00788979Y00671967D01*
X00788253Y00671822D01*
X00788077Y00671704D01*
X00787869Y00671664D01*
X00786236Y00670584D01*
X00786117Y00670409D01*
X00785939Y00670293D01*
X00784834Y00668677D01*
X00784790Y00668470D01*
X00784669Y00668295D01*
X00784255Y00666382D01*
X00784292Y00666173D01*
X00784246Y00665966D01*
X00784583Y00664038D01*
X00784697Y00663859D01*
X00784732Y00663650D01*
X00785772Y00661991D01*
X00785945Y00661868D01*
X00786056Y00661687D01*
X00787645Y00660543D01*
X00787851Y00660494D01*
X00788023Y00660369D01*
X00789925Y00659908D01*
X00790135Y00659941D01*
X00790340Y00659890D01*
X00791309Y00660035D01*
X00791313Y00660038D01*
X00791318Y00660036D01*
X00795002Y00660621D01*
X00795040Y00660645D01*
X00795085Y00660638D01*
X00802339Y00662382D01*
X00802375Y00662409D01*
X00802421Y00662405D01*
X00809515Y00664713D01*
X00809550Y00664742D01*
X00809595Y00664742D01*
X00816487Y00667599D01*
X00816519Y00667631D01*
X00816564Y00667634D01*
X00823211Y00671023D01*
X00823240Y00671057D01*
X00823285Y00671064D01*
X00829645Y00674963D01*
X00829672Y00675000D01*
X00829716Y00675010D01*
X00835751Y00679396D01*
X00835775Y00679435D01*
X00835818Y00679449D01*
X00841490Y00684294D01*
X00841511Y00684334D01*
X00841553Y00684352D01*
X00846828Y00689627D01*
X00846845Y00689669D01*
X00846886Y00689689D01*
X00851731Y00695362D01*
X00851745Y00695405D01*
X00851784Y00695429D01*
X00856170Y00701464D01*
X00856180Y00701508D01*
X00856217Y00701535D01*
X00860116Y00707895D01*
X00860123Y00707940D01*
X00860157Y00707969D01*
X00863546Y00714616D01*
X00863549Y00714661D01*
X00863581Y00714693D01*
X00866438Y00721585D01*
X00866438Y00721630D01*
X00866467Y00721665D01*
X00868775Y00728760D01*
X00868771Y00728805D01*
X00868798Y00728841D01*
X00870542Y00736095D01*
X00870535Y00736140D01*
X00870559Y00736178D01*
X00871144Y00739862D01*
X00871142Y00739867D01*
X00871145Y00739872D01*
X00871290Y00740839D01*
X00871239Y00741045D01*
X00871272Y00741255D01*
X00870811Y00743158D01*
X00870686Y00743329D01*
X00870637Y00743535D01*
X00869492Y00745124D01*
X00869312Y00745235D01*
X00869189Y00745408D01*
X00867530Y00746448D01*
X00867321Y00746483D01*
X00867142Y00746597D01*
X00865214Y00746934D01*
X00865214Y00746934D02*
G37*
G36*
X00790340Y00850110D02*
X00790135Y00850059D01*
X00789925Y00850092D01*
X00788023Y00849631D01*
X00787851Y00849506D01*
X00787645Y00849457D01*
X00786056Y00848313D01*
X00785945Y00848132D01*
X00785772Y00848009D01*
X00784732Y00846350D01*
X00784697Y00846141D01*
X00784583Y00845962D01*
X00784246Y00844034D01*
X00784292Y00843827D01*
X00784255Y00843618D01*
X00784669Y00841705D01*
X00784790Y00841530D01*
X00784834Y00841323D01*
X00785939Y00839707D01*
X00786117Y00839591D01*
X00786236Y00839415D01*
X00787869Y00838336D01*
X00788077Y00838296D01*
X00788253Y00838178D01*
X00788979Y00838033D01*
X00789221Y00837876D01*
X00793561Y00837077D01*
X00802072Y00834806D01*
X00810286Y00831663D01*
X00818125Y00827677D01*
X00825504Y00822893D01*
X00832342Y00817362D01*
X00838564Y00811147D01*
X00844101Y00804314D01*
X00848892Y00796939D01*
X00852885Y00789104D01*
X00856037Y00780893D01*
X00858315Y00772384D01*
X00859118Y00768045D01*
X00859183Y00767944D01*
X00859358Y00767074D01*
X00859476Y00766897D01*
X00859516Y00766689D01*
X00860595Y00765056D01*
X00860771Y00764937D01*
X00860887Y00764759D01*
X00862503Y00763654D01*
X00862710Y00763610D01*
X00862885Y00763489D01*
X00864798Y00763074D01*
X00865007Y00763112D01*
X00865214Y00763066D01*
X00867142Y00763403D01*
X00867321Y00763517D01*
X00867530Y00763552D01*
X00869189Y00764592D01*
X00869312Y00764765D01*
X00869492Y00764876D01*
X00870637Y00766465D01*
X00870686Y00766671D01*
X00870811Y00766842D01*
X00871272Y00768745D01*
X00871239Y00768955D01*
X00871290Y00769161D01*
X00871145Y00770128D01*
X00871142Y00770133D01*
X00871144Y00770138D01*
X00870559Y00773822D01*
X00870535Y00773860D01*
X00870542Y00773905D01*
X00868798Y00781159D01*
X00868771Y00781195D01*
X00868775Y00781240D01*
X00866467Y00788335D01*
X00866438Y00788370D01*
X00866438Y00788415D01*
X00863581Y00795307D01*
X00863549Y00795339D01*
X00863546Y00795384D01*
X00860157Y00802030D01*
X00860123Y00802060D01*
X00860116Y00802105D01*
X00856217Y00808465D01*
X00856180Y00808492D01*
X00856170Y00808536D01*
X00851784Y00814571D01*
X00851745Y00814595D01*
X00851731Y00814638D01*
X00846886Y00820310D01*
X00846845Y00820331D01*
X00846828Y00820373D01*
X00841553Y00825648D01*
X00841511Y00825666D01*
X00841490Y00825706D01*
X00835818Y00830551D01*
X00835775Y00830565D01*
X00835751Y00830604D01*
X00829716Y00834990D01*
X00829672Y00835000D01*
X00829645Y00835037D01*
X00823285Y00838936D01*
X00823240Y00838943D01*
X00823211Y00838977D01*
X00816564Y00842366D01*
X00816519Y00842369D01*
X00816487Y00842401D01*
X00809595Y00845258D01*
X00809550Y00845258D01*
X00809515Y00845287D01*
X00802421Y00847595D01*
X00802375Y00847591D01*
X00802339Y00847618D01*
X00795085Y00849362D01*
X00795040Y00849355D01*
X00795002Y00849379D01*
X00791318Y00849964D01*
X00791313Y00849962D01*
X00791309Y00849965D01*
X00790340Y00850110D01*
X00790340Y00850110D02*
G37*
G36*
X00762160Y00850110D02*
X00761191Y00849965D01*
X00761187Y00849962D01*
X00761182Y00849964D01*
X00757498Y00849379D01*
X00757460Y00849355D01*
X00757415Y00849362D01*
X00750161Y00847618D01*
X00750125Y00847591D01*
X00750079Y00847595D01*
X00742985Y00845287D01*
X00742950Y00845258D01*
X00742905Y00845258D01*
X00736013Y00842401D01*
X00735981Y00842369D01*
X00735936Y00842366D01*
X00729289Y00838977D01*
X00729260Y00838943D01*
X00729215Y00838936D01*
X00722855Y00835037D01*
X00722828Y00835000D01*
X00722784Y00834990D01*
X00716749Y00830604D01*
X00716725Y00830565D01*
X00716682Y00830551D01*
X00711010Y00825706D01*
X00710989Y00825666D01*
X00710947Y00825648D01*
X00705672Y00820373D01*
X00705655Y00820331D01*
X00705614Y00820310D01*
X00700769Y00814638D01*
X00700755Y00814595D01*
X00700716Y00814571D01*
X00696330Y00808536D01*
X00696320Y00808492D01*
X00696283Y00808465D01*
X00692384Y00802105D01*
X00692377Y00802060D01*
X00692343Y00802030D01*
X00688954Y00795384D01*
X00688951Y00795339D01*
X00688919Y00795307D01*
X00686062Y00788415D01*
X00686062Y00788370D01*
X00686033Y00788335D01*
X00683725Y00781240D01*
X00683729Y00781195D01*
X00683702Y00781159D01*
X00681958Y00773905D01*
X00681965Y00773860D01*
X00681941Y00773822D01*
X00681356Y00770138D01*
X00681358Y00770133D01*
X00681355Y00770128D01*
X00681210Y00769161D01*
X00681261Y00768955D01*
X00681228Y00768745D01*
X00681689Y00766842D01*
X00681814Y00766671D01*
X00681863Y00766465D01*
X00683008Y00764876D01*
X00683188Y00764765D01*
X00683311Y00764592D01*
X00684970Y00763552D01*
X00685179Y00763517D01*
X00685358Y00763403D01*
X00687286Y00763066D01*
X00687493Y00763112D01*
X00687702Y00763074D01*
X00689615Y00763489D01*
X00689790Y00763610D01*
X00689997Y00763654D01*
X00691613Y00764759D01*
X00691729Y00764937D01*
X00691905Y00765056D01*
X00692984Y00766689D01*
X00693024Y00766897D01*
X00693142Y00767074D01*
X00693317Y00767944D01*
X00693382Y00768045D01*
X00694185Y00772384D01*
X00696463Y00780893D01*
X00699615Y00789104D01*
X00703608Y00796939D01*
X00708399Y00804314D01*
X00713936Y00811146D01*
X00720158Y00817362D01*
X00726996Y00822893D01*
X00734375Y00827677D01*
X00742214Y00831663D01*
X00750428Y00834806D01*
X00758939Y00837077D01*
X00763279Y00837876D01*
X00763521Y00838033D01*
X00764247Y00838178D01*
X00764423Y00838296D01*
X00764631Y00838336D01*
X00766264Y00839415D01*
X00766383Y00839591D01*
X00766561Y00839707D01*
X00767666Y00841323D01*
X00767710Y00841530D01*
X00767831Y00841705D01*
X00768245Y00843618D01*
X00768208Y00843827D01*
X00768254Y00844034D01*
X00767917Y00845962D01*
X00767803Y00846141D01*
X00767768Y00846350D01*
X00766728Y00848009D01*
X00766555Y00848132D01*
X00766444Y00848313D01*
X00764855Y00849457D01*
X00764649Y00849506D01*
X00764477Y00849631D01*
X00762575Y00850092D01*
X00762365Y00850059D01*
X00762160Y00850110D01*
X00762160Y00850110D02*
G37*
G36*
X00776124Y00831039D02*
X00775655Y00830565D01*
X00746581Y00830565D01*
X00744028Y00829989D01*
X00741664Y00828865D01*
X00739606Y00827249D01*
X00737953Y00825219D01*
X00736788Y00822876D01*
X00736168Y00820333D01*
X00736128Y00818118D01*
X00731609Y00815074D01*
X00725987Y00810429D01*
X00720846Y00805257D01*
X00716236Y00799606D01*
X00712200Y00793532D01*
X00708777Y00787092D01*
X00706001Y00780348D01*
X00703897Y00773365D01*
X00702486Y00766210D01*
X00701781Y00758952D01*
X00701706Y00755745D01*
X00701436Y00755191D01*
X00701706Y00754626D01*
X00701781Y00751437D01*
X00702486Y00744178D01*
X00703897Y00737023D01*
X00706001Y00730041D01*
X00708777Y00723297D01*
X00712200Y00716857D01*
X00716236Y00710783D01*
X00720846Y00705132D01*
X00725987Y00699960D01*
X00731609Y00695314D01*
X00737658Y00691241D01*
X00744077Y00687779D01*
X00750374Y00685141D01*
X00750374Y00684296D01*
X00750643Y00682943D01*
X00751171Y00681669D01*
X00751936Y00680523D01*
X00752912Y00679548D01*
X00754058Y00678782D01*
X00755332Y00678254D01*
X00756684Y00677985D01*
X00775500Y00677985D01*
X00775500Y00705500D01*
X00740750Y00705500D01*
X00740750Y00719000D01*
X00762500Y00719000D01*
X00762500Y00763500D01*
X00769750Y00763500D01*
X00769750Y00753000D01*
X00788000Y00753000D01*
X00788000Y00715000D01*
X00788000Y00703750D01*
X00808000Y00703750D01*
X00808000Y00687646D01*
X00808232Y00687743D01*
X00814654Y00691198D01*
X00820708Y00695264D01*
X00826335Y00699903D01*
X00831481Y00705070D01*
X00835514Y00710000D01*
X00838230Y00710000D01*
X00839583Y00710269D01*
X00840857Y00710797D01*
X00842003Y00711563D01*
X00842978Y00712538D01*
X00843744Y00713684D01*
X00844272Y00714958D01*
X00844541Y00716311D01*
X00844541Y00725569D01*
X00846355Y00729960D01*
X00848467Y00736940D01*
X00849886Y00744093D01*
X00849926Y00744500D01*
X00794750Y00744500D01*
X00794750Y00763500D01*
X00822500Y00763500D01*
X00822500Y00790250D01*
X00841929Y00790250D01*
X00840141Y00793605D01*
X00836098Y00799674D01*
X00831481Y00805320D01*
X00826335Y00810486D01*
X00820708Y00815125D01*
X00816856Y00817712D01*
X00816857Y00817716D01*
X00816811Y00820333D01*
X00816190Y00822876D01*
X00815025Y00825219D01*
X00813373Y00827249D01*
X00811314Y00828865D01*
X00808950Y00829989D01*
X00806397Y00830565D01*
X00776646Y00830565D01*
X00776345Y00830752D01*
X00776124Y00831039D01*
X00776124Y00831039D02*
G37*
%LPD*%
G36*
X00752781Y00730657D02*
X00752730Y00730742D01*
X00752577Y00730818D01*
X00752323Y00730886D01*
X00751968Y00730944D01*
X00751510Y00730994D01*
X00749529Y00731088D01*
X00747701Y00731106D01*
X00747701Y00733646D01*
X00748666Y00733651D01*
X00752323Y00733866D01*
X00752577Y00733934D01*
X00752730Y00734010D01*
X00752781Y00734096D01*
X00752781Y00730657D01*
X00752781Y00730657D02*
G37*
G36*
X00803750Y00727000D02*
X00806000Y00724750D01*
X00839750Y00724750D01*
X00839750Y00715750D01*
X00837000Y00715750D01*
X00823750Y00702500D01*
X00812500Y00702500D01*
X00812500Y00720000D01*
X00790750Y00720000D01*
X00790750Y00727000D01*
X00803750Y00727000D01*
X00803750Y00727000D02*
G37*
G36*
X00759750Y00721750D02*
X00738000Y00721750D01*
X00738000Y00703750D01*
X00766500Y00703750D01*
X00766500Y00684500D01*
X00757250Y00684500D01*
X00740500Y00691250D01*
X00731981Y00697258D01*
X00721372Y00707867D01*
X00708981Y00727000D01*
X00759750Y00727000D01*
X00759750Y00721750D01*
X00759750Y00721750D02*
G37*
G36*
X00728227Y00736522D02*
X00728342Y00736417D01*
X00728532Y00736324D01*
X00728799Y00736243D01*
X00729142Y00736175D01*
X00729561Y00736119D01*
X00730628Y00736045D01*
X00732000Y00736020D01*
X00732000Y00733480D01*
X00731276Y00733474D01*
X00729142Y00733325D01*
X00728799Y00733257D01*
X00728532Y00733176D01*
X00728342Y00733083D01*
X00728227Y00732978D01*
X00728189Y00732860D01*
X00728189Y00736640D01*
X00728227Y00736522D01*
X00728227Y00736522D02*
G37*
G36*
X00778051Y00776166D02*
X00778263Y00775697D01*
X00778614Y00775119D01*
X00779105Y00774431D01*
X00780508Y00772727D01*
X00782469Y00770583D01*
X00784991Y00768001D01*
X00781399Y00764409D01*
X00780053Y00765740D01*
X00774281Y00770786D01*
X00773703Y00771137D01*
X00773234Y00771349D01*
X00772876Y00771420D01*
X00777980Y00776525D01*
X00778051Y00776166D01*
X00778051Y00776166D02*
G37*
G36*
X00814000Y00811500D02*
X00818750Y00806750D01*
X00818750Y00769000D01*
X00811515Y00769000D01*
X00811523Y00768859D01*
X00811423Y00768878D01*
X00811171Y00768895D01*
X00807661Y00768951D01*
X00803750Y00768960D01*
X00803750Y00769000D01*
X00791500Y00769000D01*
X00791500Y00811500D01*
X00814000Y00811500D01*
X00814000Y00811500D02*
G37*
G36*
X00722012Y00770815D02*
X00721763Y00770768D01*
X00721390Y00770575D01*
X00720893Y00770237D01*
X00720273Y00769753D01*
X00718659Y00768352D01*
X00713944Y00763806D01*
X00708556Y00769194D01*
X00709910Y00770559D01*
X00715325Y00776640D01*
X00715518Y00777013D01*
X00715565Y00777262D01*
X00722012Y00770815D01*
X00722012Y00770815D02*
G37*
G36*
X00821156Y00742683D02*
X00822658Y00742061D01*
X00824009Y00741158D01*
X00825158Y00740009D01*
X00826061Y00738658D01*
X00826683Y00737156D01*
X00827000Y00735563D01*
X00827000Y00734750D01*
X00827000Y00733913D01*
X00826673Y00732271D01*
X00826033Y00730724D01*
X00825102Y00729332D01*
X00823918Y00728148D01*
X00822526Y00727217D01*
X00820979Y00726577D01*
X00819337Y00726250D01*
X00816663Y00726250D01*
X00815021Y00726577D01*
X00802750Y00729500D01*
X00802750Y00730709D01*
X00797719Y00730657D01*
X00797719Y00734096D01*
X00797786Y00734082D01*
X00797984Y00734071D01*
X00802750Y00734038D01*
X00802750Y00735250D01*
X00811991Y00741158D01*
X00813342Y00742061D01*
X00814844Y00742683D01*
X00816438Y00743000D01*
X00819563Y00743000D01*
X00821156Y00742683D01*
X00821156Y00742683D02*
G37*
G36*
X00755750Y00744376D02*
X00719250Y00744376D01*
X00719250Y00762500D01*
X00723500Y00766750D01*
X00755750Y00766750D01*
X00755750Y00744376D01*
X00755750Y00744376D02*
G37*
D10*
X00770376Y00865884D02*
G03*
X00666243Y00756041I00005867J-00109844D01*
G01*
X00886243Y00756041D02*
G03*
X00770376Y00865884I-00110000J00000000D01*
G01*
D11*
X00775250Y00728376D02*
D03*
D12*
X00756250Y00716376D02*
D03*
X00756250Y00724376D02*
D03*
X00756250Y00732376D02*
D03*
X00756250Y00740376D02*
D03*
X00794250Y00732376D02*
D03*
X00794250Y00724376D02*
D03*
X00794250Y00716376D02*
D03*
X00794250Y00740376D02*
D03*
D13*
X00800000Y00800000D02*
D03*
X00755000Y00800000D02*
D03*
D14*
X00750380Y00758999D02*
D03*
X00783630Y00758999D02*
D03*
D15*
X00765620Y00759000D02*
D03*
X00798870Y00759000D02*
D03*
D16*
X00762000Y00692749D02*
D03*
X00791000Y00692749D02*
D03*
D17*
X00830249Y00720500D02*
D03*
X00830249Y00749500D02*
D03*
D18*
X00723750Y00734880D02*
D03*
D19*
X00723749Y00750120D02*
D03*
D20*
X00742900Y00786850D02*
X00756250Y00786850D01*
X00742900Y00786850D02*
X00732536Y00797214D01*
X00732536Y00800100D01*
X00732536Y00802286D01*
X00738850Y00808600D01*
X00755454Y00808600D01*
X00756204Y00797850D02*
X00736286Y00797850D01*
D21*
X00723744Y00734750D02*
X00732000Y00734750D01*
X00734374Y00732376D01*
X00756250Y00732376D01*
D22*
X00783590Y00759205D02*
X00783590Y00765810D01*
X00772900Y00776500D01*
X00799994Y00775256D02*
X00799994Y00797560D01*
X00799994Y00775256D02*
X00803750Y00771500D01*
X00813500Y00771500D01*
X00814000Y00772000D01*
D23*
X00772900Y00776500D02*
X00758250Y00776500D01*
X00756750Y00778000D01*
D24*
X00715370Y00734880D02*
X00723750Y00734880D01*
X00723744Y00734874D02*
X00723620Y00734750D01*
X00715370Y00734880D02*
X00711250Y00739000D01*
X00711250Y00766500D01*
X00723000Y00778250D01*
D25*
X00723744Y00734874D02*
X00723750Y00734880D01*
X00794250Y00732376D02*
X00811626Y00732376D01*
X00814000Y00734750D01*
D26*
X00796750Y00732375D02*
D03*
D27*
X00753625Y00743375D02*
D03*
D28*
X00796375Y00743375D02*
D03*
D29*
X00725750Y00716750D02*
D03*
X00723000Y00778250D02*
D03*
X00732536Y00800100D02*
D03*
D30*
X00725213Y00694176D02*
D03*
X00736550Y00686238D02*
D03*
X00715426Y00703963D02*
D03*
X00748703Y00680550D02*
D03*
X00779750Y00687250D02*
D03*
X00779500Y00702500D02*
D03*
X00803064Y00681328D02*
D03*
X00815950Y00686238D02*
D03*
X00827287Y00694176D02*
D03*
X00837074Y00703963D02*
D03*
X00850862Y00727844D02*
D03*
X00854444Y00741212D02*
D03*
X00855650Y00755194D02*
D03*
X00848250Y00758250D02*
D03*
X00844750Y00749750D02*
D03*
X00848250Y00770250D02*
D03*
X00854444Y00768788D02*
D03*
X00850862Y00782156D02*
D03*
X00839500Y00781000D02*
D03*
X00844738Y00794968D02*
D03*
X00827287Y00815824D02*
D03*
X00837074Y00806037D02*
D03*
X00831500Y00770250D02*
D03*
X00831500Y00758250D02*
D03*
X00818000Y00740000D02*
D03*
X00814000Y00734750D02*
D03*
X00822000Y00734750D02*
D03*
X00818000Y00729250D02*
D03*
X00815250Y00721500D02*
D03*
X00800750Y00745500D02*
D03*
X00793250Y00745500D02*
D03*
X00797000Y00750500D02*
D03*
X00804500Y00750500D02*
D03*
X00812500Y00779750D02*
D03*
X00812500Y00786650D02*
D03*
X00812500Y00793550D02*
D03*
X00812500Y00800450D02*
D03*
X00812500Y00807350D02*
D03*
X00743500Y00748750D02*
D03*
X00742500Y00694000D02*
D03*
X00800750Y00700750D02*
D03*
X00715426Y00806037D02*
D03*
X00725213Y00815824D02*
D03*
X00707488Y00794700D02*
D03*
X00701638Y00782156D02*
D03*
X00698056Y00768788D02*
D03*
X00696851Y00755305D02*
D03*
X00698056Y00741212D02*
D03*
X00701638Y00727844D02*
D03*
X00707488Y00715300D02*
D03*
D31*
X00769750Y00717376D02*
D03*
X00769750Y00728376D02*
D03*
X00780750Y00728376D02*
D03*
X00780750Y00717376D02*
D03*
X00780750Y00739376D02*
D03*
X00769750Y00739376D02*
D03*
D32*
X00814000Y00772000D02*
D03*
D33*
X00819750Y00709500D02*
D03*
D34*
X00839750Y00765750D02*
D03*
M02*
